<?xml version="1.0" encoding="UTF-8"?>
<svg xmlns="http://www.w3.org/2000/svg" xmlns:xlink="http://www.w3.org/1999/xlink" width="22px" height="22px" viewBox="0 0 22 22" version="1.1">
<g id="surface1">
<path style=" stroke:none;fill-rule:nonzero;fill:rgb(84.313725%,6.666667%,10.588235%);fill-opacity:1;" d="M 16.433594 12.617188 C 16.328125 14.09375 15.089844 15.261719 13.578125 15.261719 C 11.996094 15.261719 10.726562 13.992188 10.726562 12.410156 C 10.726562 10.828125 11.996094 9.554688 13.578125 9.554688 C 13.683594 9.554688 13.75 9.554688 13.820312 9.554688 L 13.820312 7.320312 L 9.144531 8.59375 L 9.144531 14.4375 C 9.144531 14.472656 9.144531 14.507812 9.144531 14.539062 C 9.042969 16.019531 7.804688 17.1875 6.292969 17.1875 C 4.710938 17.1875 3.4375 15.914062 3.4375 14.335938 C 3.4375 12.753906 4.710938 11.480469 6.292969 11.480469 C 6.394531 11.480469 6.464844 11.480469 6.53125 11.480469 L 6.53125 4.742188 C 6.53125 4.332031 6.808594 3.953125 7.21875 3.851562 L 9.179688 3.335938 L 5.5 1.238281 C 5.121094 1.03125 4.710938 0.929688 4.332031 0.929688 C 3.09375 0.929688 1.960938 1.890625 1.960938 3.265625 L 1.960938 18.699219 C 1.960938 20.074219 3.09375 21.070312 4.332031 21.070312 C 4.710938 21.070312 5.121094 20.96875 5.5 20.761719 L 18.871094 13.027344 C 20.453125 12.132812 20.453125 9.867188 18.871094 8.9375 L 16.433594 7.5625 L 16.433594 12.546875 C 16.433594 12.546875 16.433594 12.582031 16.433594 12.617188 Z M 16.433594 12.617188 "/>
<path style=" stroke:none;fill-rule:nonzero;fill:rgb(40%,40%,40%);fill-opacity:1;" d="M 15.503906 2.886719 L 15.503906 12.511719 C 15.46875 13.542969 14.609375 14.367188 13.578125 14.367188 C 12.511719 14.367188 11.652344 13.507812 11.652344 12.445312 C 11.652344 11.378906 12.511719 10.519531 13.578125 10.519531 C 14.027344 10.519531 14.4375 10.65625 14.746094 10.898438 L 14.746094 6.152344 L 14.265625 6.289062 L 11.550781 7.011719 L 8.25 7.871094 L 8.25 14.402344 C 8.214844 15.433594 7.355469 16.257812 6.324219 16.257812 C 5.261719 16.257812 4.402344 15.398438 4.402344 14.335938 C 4.402344 13.269531 5.261719 12.410156 6.324219 12.410156 C 6.773438 12.410156 7.183594 12.582031 7.496094 12.820312 L 7.496094 4.777344 L 10.347656 4.023438 L 10.964844 3.851562 L 11.550781 3.679688 L 11.585938 3.679688 L 15.503906 2.648438 Z M 15.503906 2.886719 "/>
<path style=" stroke:none;fill-rule:nonzero;fill:rgb(100%,100%,100%);fill-opacity:1;" d="M 19.320312 8.179688 L 16.433594 6.496094 L 16.433594 2.886719 C 16.433594 2.851562 16.433594 2.785156 16.433594 2.75 L 16.433594 2.648438 C 16.433594 2.371094 16.292969 2.097656 16.089844 1.925781 C 15.917969 1.789062 15.746094 1.71875 15.539062 1.71875 C 15.46875 1.71875 15.367188 1.71875 15.296875 1.753906 L 10.484375 3.023438 L 5.949219 0.445312 C 5.433594 0.136719 4.882812 0 4.332031 0 C 2.511719 0 1.03125 1.476562 1.03125 3.265625 L 1.03125 18.699219 C 1.03125 20.523438 2.511719 21.964844 4.296875 21.964844 C 4.882812 21.964844 5.433594 21.828125 5.949219 21.519531 L 19.320312 13.785156 C 20.351562 13.199219 20.96875 12.132812 20.96875 10.964844 C 20.96875 9.796875 20.351562 8.765625 19.320312 8.179688 Z M 1.960938 18.734375 L 1.960938 3.265625 C 1.960938 1.890625 3.09375 0.894531 4.332031 0.894531 C 4.710938 0.894531 5.121094 0.996094 5.5 1.203125 L 9.214844 3.335938 L 7.253906 3.851562 C 6.839844 3.953125 6.566406 4.332031 6.566406 4.742188 L 6.566406 11.480469 C 6.496094 11.480469 6.394531 11.480469 6.324219 11.480469 C 4.746094 11.480469 3.472656 12.753906 3.472656 14.335938 C 3.472656 15.914062 4.746094 17.1875 6.324219 17.1875 C 7.839844 17.1875 9.074219 16.019531 9.179688 14.539062 C 9.179688 14.507812 9.179688 14.472656 9.179688 14.4375 L 9.179688 8.59375 L 13.886719 7.355469 L 13.886719 9.589844 C 13.820312 9.589844 13.714844 9.589844 13.648438 9.589844 C 12.066406 9.589844 10.792969 10.863281 10.792969 12.445312 C 10.792969 14.023438 12.066406 15.296875 13.648438 15.296875 C 15.160156 15.296875 16.398438 14.128906 16.5 12.648438 C 16.5 12.617188 16.5 12.582031 16.5 12.546875 L 16.5 7.5625 L 18.941406 8.972656 C 20.523438 9.867188 20.523438 12.132812 18.941406 13.0625 L 5.5 20.761719 C 5.121094 20.96875 4.710938 21.070312 4.332031 21.070312 C 3.09375 21.070312 1.960938 20.109375 1.960938 18.734375 Z M 15.503906 2.886719 L 15.503906 12.476562 C 15.46875 13.507812 14.609375 14.335938 13.578125 14.335938 C 12.511719 14.335938 11.652344 13.476562 11.652344 12.410156 C 11.652344 11.34375 12.511719 10.484375 13.578125 10.484375 C 14.027344 10.484375 14.4375 10.621094 14.746094 10.898438 L 14.746094 6.1875 L 14.265625 6.324219 L 8.214844 7.90625 L 8.214844 14.4375 C 8.183594 15.46875 7.324219 16.292969 6.292969 16.292969 C 5.226562 16.292969 4.367188 15.433594 4.367188 14.367188 C 4.367188 13.304688 5.226562 12.445312 6.292969 12.445312 C 6.738281 12.445312 7.152344 12.582031 7.460938 12.855469 L 7.460938 4.742188 L 10.3125 3.988281 L 10.933594 3.816406 L 11.550781 3.644531 L 15.46875 2.613281 Z M 15.503906 2.886719 "/>
<path style=" stroke:none;fill-rule:nonzero;fill:rgb(40%,40%,40%);fill-opacity:1;" d="M 11.515625 3.710938 L 11.515625 7.011719 L 8.214844 7.871094 L 8.214844 14.402344 C 8.183594 15.433594 7.324219 16.257812 6.292969 16.257812 C 5.226562 16.257812 4.367188 15.398438 4.367188 14.335938 C 4.367188 13.269531 5.226562 12.410156 6.292969 12.410156 C 6.738281 12.410156 7.152344 12.582031 7.460938 12.820312 L 7.460938 4.777344 L 10.3125 4.023438 L 10.933594 3.851562 Z M 11.515625 3.710938 "/>
</g>
</svg>
