<?xml version="1.0" encoding="UTF-8"?>
<svg xmlns="http://www.w3.org/2000/svg" xmlns:xlink="http://www.w3.org/1999/xlink" width="22px" height="22px" viewBox="0 0 22 22" version="1.1">
<g id="surface1">
<path style=" stroke:none;fill-rule:nonzero;fill:rgb(0%,0%,0%);fill-opacity:1;" d="M 0 22 C 0 20.910156 0 19.824219 0 18.734375 C 0.191406 18.140625 0.597656 17.898438 1.210938 17.960938 C 1.414062 17.980469 1.617188 17.964844 1.835938 17.964844 C 1.835938 17.851562 1.835938 17.773438 1.835938 17.695312 C 1.835938 17.121094 1.828125 16.550781 1.839844 15.976562 C 1.855469 15.402344 2.242188 15.039062 2.816406 15.035156 C 3.09375 15.035156 3.367188 15.035156 3.664062 15.035156 C 3.664062 14.929688 3.664062 14.851562 3.664062 14.773438 C 3.664062 14.222656 3.65625 13.671875 3.664062 13.121094 C 3.671875 12.46875 4.050781 12.101562 4.699219 12.101562 C 5.359375 12.101562 6.019531 12.105469 6.675781 12.101562 C 6.910156 12.097656 7.117188 12.210938 7.328125 12.257812 C 7.53125 12.300781 7.769531 12.117188 7.996094 12.109375 C 8.785156 12.089844 9.570312 12.089844 10.359375 12.113281 C 10.570312 12.117188 10.777344 12.273438 10.984375 12.273438 C 11.199219 12.273438 11.414062 12.117188 11.632812 12.113281 C 12.425781 12.089844 13.222656 12.09375 14.015625 12.109375 C 14.199219 12.113281 14.382812 12.199219 14.570312 12.238281 C 14.625 12.25 14.683594 12.246094 14.738281 12.234375 C 14.925781 12.195312 15.109375 12.113281 15.292969 12.109375 C 15.960938 12.09375 16.625 12.101562 17.289062 12.101562 C 17.957031 12.101562 18.328125 12.46875 18.335938 13.132812 C 18.339844 13.683594 18.335938 14.238281 18.335938 14.789062 C 18.335938 14.863281 18.335938 14.941406 18.335938 15.035156 C 18.648438 15.035156 18.933594 15.035156 19.21875 15.035156 C 19.746094 15.039062 20.128906 15.394531 20.152344 15.925781 C 20.171875 16.304688 20.160156 16.683594 20.160156 17.0625 C 20.164062 17.355469 20.160156 17.648438 20.160156 17.964844 C 20.433594 17.964844 20.679688 17.964844 20.929688 17.964844 C 21.632812 17.964844 21.996094 18.328125 22 19.035156 C 22 19.953125 22 20.867188 22 21.785156 C 22 21.851562 22 21.921875 22 22 C 14.644531 22 7.324219 22 0 22 Z M 4.035156 21.257812 C 5.019531 21.257812 5.980469 21.257812 6.945312 21.257812 C 6.953125 21.226562 6.960938 21.207031 6.960938 21.1875 C 6.964844 20.449219 6.964844 19.714844 6.960938 18.976562 C 6.960938 18.765625 6.878906 18.695312 6.648438 18.695312 C 5.882812 18.695312 5.117188 18.695312 4.351562 18.695312 C 4.109375 18.695312 4.039062 18.769531 4.035156 19.019531 C 4.035156 19.363281 4.035156 19.707031 4.035156 20.050781 C 4.035156 20.449219 4.035156 20.847656 4.035156 21.257812 Z M 15.035156 21.253906 C 16.027344 21.253906 16.988281 21.253906 17.964844 21.253906 C 17.964844 20.472656 17.964844 19.710938 17.960938 18.945312 C 17.960938 18.785156 17.871094 18.695312 17.703125 18.695312 C 16.902344 18.695312 16.101562 18.695312 15.296875 18.695312 C 15.132812 18.695312 15.039062 18.785156 15.039062 18.945312 C 15.035156 19.710938 15.035156 20.472656 15.035156 21.253906 Z M 10.628906 21.257812 C 10.628906 20.472656 10.632812 19.699219 10.625 18.929688 C 10.625 18.75 10.5 18.695312 10.328125 18.695312 C 9.570312 18.699219 8.8125 18.695312 8.054688 18.695312 C 7.765625 18.695312 7.699219 18.761719 7.699219 19.046875 C 7.695312 19.628906 7.695312 20.207031 7.695312 20.785156 C 7.695312 20.941406 7.695312 21.097656 7.695312 21.257812 C 8.679688 21.257812 9.636719 21.257812 10.628906 21.257812 Z M 14.300781 21.257812 C 14.300781 20.476562 14.304688 19.714844 14.300781 18.949219 C 14.296875 18.769531 14.183594 18.695312 14 18.695312 C 13.246094 18.699219 12.496094 18.695312 11.746094 18.695312 C 11.425781 18.695312 11.371094 18.75 11.367188 19.070312 C 11.367188 19.691406 11.367188 20.3125 11.367188 20.9375 C 11.367188 21.039062 11.367188 21.144531 11.367188 21.257812 C 12.355469 21.257812 13.3125 21.257812 14.300781 21.257812 Z M 3.296875 21.261719 C 3.296875 20.46875 3.300781 19.699219 3.296875 18.929688 C 3.292969 18.773438 3.203125 18.691406 3.027344 18.695312 C 2.382812 18.699219 1.738281 18.695312 1.097656 18.695312 C 0.773438 18.695312 0.734375 18.738281 0.734375 19.070312 C 0.730469 19.671875 0.734375 20.273438 0.734375 20.875 C 0.734375 21 0.734375 21.128906 0.734375 21.257812 C 1.597656 21.261719 2.433594 21.261719 3.296875 21.261719 Z M 21.265625 21.261719 C 21.265625 20.472656 21.265625 19.699219 21.261719 18.929688 C 21.257812 18.773438 21.167969 18.691406 20.996094 18.695312 C 20.34375 18.699219 19.691406 18.695312 19.042969 18.695312 C 18.75 18.695312 18.699219 18.75 18.695312 19.050781 C 18.695312 19.703125 18.695312 20.351562 18.695312 21.003906 C 18.695312 21.085938 18.695312 21.167969 18.695312 21.261719 C 19.5625 21.261719 20.398438 21.261719 21.265625 21.261719 Z M 12.464844 17.945312 C 12.464844 17.292969 12.464844 16.652344 12.460938 16.007812 C 12.460938 15.847656 12.367188 15.765625 12.195312 15.765625 C 11.402344 15.769531 10.609375 15.769531 9.8125 15.765625 C 9.605469 15.765625 9.535156 15.878906 9.535156 16.0625 C 9.535156 16.492188 9.535156 16.921875 9.535156 17.351562 C 9.535156 17.550781 9.535156 17.746094 9.535156 17.949219 C 10.046875 18.019531 10.570312 17.832031 11.003906 18.167969 C 11.453125 17.832031 11.960938 18.023438 12.464844 17.945312 Z M 8.804688 17.945312 C 8.804688 17.300781 8.808594 16.664062 8.800781 16.027344 C 8.796875 15.847656 8.699219 15.765625 8.507812 15.765625 C 7.734375 15.769531 6.960938 15.765625 6.1875 15.769531 C 5.9375 15.769531 5.871094 15.828125 5.871094 16.085938 C 5.863281 16.480469 5.867188 16.875 5.867188 17.269531 C 5.867188 17.492188 5.867188 17.71875 5.867188 17.945312 C 6.375 18.019531 6.894531 17.832031 7.332031 18.167969 C 7.777344 17.832031 8.292969 18.023438 8.804688 17.945312 Z M 14.738281 18.117188 C 15.113281 17.824219 15.640625 18.035156 16.132812 17.941406 C 16.132812 17.300781 16.132812 16.671875 16.128906 16.042969 C 16.128906 15.851562 16.035156 15.765625 15.832031 15.765625 C 15.074219 15.773438 14.3125 15.769531 13.554688 15.769531 C 13.257812 15.769531 13.199219 15.828125 13.195312 16.136719 C 13.195312 16.679688 13.195312 17.226562 13.195312 17.769531 C 13.195312 17.832031 13.203125 17.894531 13.210938 17.964844 C 13.472656 17.964844 13.71875 17.945312 13.957031 17.96875 C 14.199219 17.992188 14.441406 18.058594 14.738281 18.117188 Z M 7.695312 15.035156 C 7.890625 15.035156 8.058594 15.039062 8.230469 15.035156 C 8.554688 15.027344 8.875 15.015625 9.15625 15.21875 C 9.449219 15.03125 9.773438 15.019531 10.105469 15.035156 C 10.273438 15.042969 10.441406 15.035156 10.628906 15.035156 C 10.628906 14.359375 10.632812 13.707031 10.625 13.058594 C 10.625 12.90625 10.523438 12.835938 10.367188 12.835938 C 9.570312 12.839844 8.777344 12.839844 7.980469 12.835938 C 7.789062 12.832031 7.703125 12.929688 7.699219 13.105469 C 7.691406 13.328125 7.695312 13.550781 7.695312 13.773438 C 7.695312 14.1875 7.695312 14.597656 7.695312 15.035156 Z M 14.300781 15.035156 C 14.300781 14.363281 14.304688 13.710938 14.296875 13.0625 C 14.292969 12.890625 14.167969 12.832031 13.996094 12.835938 C 13.222656 12.839844 12.449219 12.835938 11.675781 12.835938 C 11.441406 12.835938 11.375 12.894531 11.371094 13.125 C 11.367188 13.726562 11.367188 14.328125 11.371094 14.925781 C 11.371094 14.960938 11.386719 14.992188 11.398438 15.035156 C 11.648438 15.035156 11.894531 15.019531 12.132812 15.039062 C 12.371094 15.0625 12.601562 15.125 12.84375 15.167969 C 13.050781 15.128906 13.28125 15.0625 13.515625 15.039062 C 13.761719 15.019531 14.015625 15.035156 14.300781 15.035156 Z M 17.597656 15.035156 C 17.597656 14.363281 17.601562 13.71875 17.59375 13.078125 C 17.59375 12.90625 17.503906 12.832031 17.320312 12.832031 C 16.660156 12.84375 16.003906 12.835938 15.347656 12.835938 C 15.082031 12.835938 15.039062 12.878906 15.035156 13.152344 C 15.035156 13.722656 15.035156 14.292969 15.035156 14.867188 C 15.035156 14.921875 15.046875 14.972656 15.054688 15.035156 C 15.300781 15.035156 15.527344 15.042969 15.757812 15.03125 C 16.015625 15.023438 16.238281 15.140625 16.476562 15.1875 C 16.691406 15.230469 16.945312 15.082031 17.183594 15.039062 C 17.308594 15.015625 17.441406 15.035156 17.597656 15.035156 Z M 6.960938 15.035156 C 6.960938 14.355469 6.964844 13.699219 6.957031 13.042969 C 6.957031 12.882812 6.847656 12.832031 6.695312 12.835938 C 6.042969 12.839844 5.390625 12.835938 4.742188 12.835938 C 4.445312 12.835938 4.398438 12.882812 4.398438 13.1875 C 4.394531 13.742188 4.398438 14.300781 4.398438 14.859375 C 4.398438 14.914062 4.410156 14.96875 4.417969 15.027344 C 4.480469 15.03125 4.53125 15.035156 4.578125 15.035156 C 4.882812 15.042969 5.199219 14.992188 5.46875 15.191406 C 5.496094 15.210938 5.558594 15.179688 5.605469 15.171875 C 5.796875 15.125 5.984375 15.058594 6.179688 15.042969 C 6.425781 15.019531 6.679688 15.035156 6.960938 15.035156 Z M 5.125 17.945312 C 5.125 17.289062 5.128906 16.648438 5.125 16.003906 C 5.125 15.84375 5.042969 15.765625 4.867188 15.765625 C 4.207031 15.773438 3.550781 15.769531 2.890625 15.769531 C 2.613281 15.769531 2.574219 15.808594 2.570312 16.09375 C 2.570312 16.582031 2.570312 17.066406 2.570312 17.554688 C 2.570312 17.6875 2.570312 17.820312 2.570312 17.957031 C 2.96875 17.984375 3.355469 17.890625 3.675781 18.164062 C 4.117188 17.835938 4.625 18.019531 5.125 17.945312 Z M 16.871094 17.945312 C 17.371094 18.019531 17.878906 17.835938 18.328125 18.164062 C 18.644531 17.871094 19.046875 18 19.425781 17.949219 C 19.425781 17.289062 19.425781 16.636719 19.421875 15.988281 C 19.421875 15.835938 19.335938 15.765625 19.171875 15.765625 C 18.492188 15.773438 17.8125 15.773438 17.132812 15.765625 C 16.957031 15.765625 16.875 15.839844 16.875 16.003906 C 16.871094 16.644531 16.871094 17.289062 16.871094 17.945312 Z M 16.871094 17.945312 "/>
<path style=" stroke:none;fill-rule:nonzero;fill:rgb(0%,0%,0%);fill-opacity:1;" d="M 0 11.128906 C 0 7.421875 0 3.714844 0 0 C 7.332031 0 14.667969 0 22 0 C 22 3.609375 22 7.21875 22 10.828125 C 22 11.265625 21.898438 11.367188 21.453125 11.367188 C 20.523438 11.367188 19.589844 11.367188 18.660156 11.367188 C 18.4375 11.367188 18.214844 11.375 17.992188 11.363281 C 17.714844 11.351562 17.582031 11.191406 17.613281 10.910156 C 17.621094 10.828125 17.640625 10.746094 17.65625 10.644531 C 13.214844 10.644531 8.785156 10.644531 4.351562 10.644531 C 4.351562 10.679688 4.347656 10.710938 4.355469 10.734375 C 4.445312 11.234375 4.339844 11.367188 3.839844 11.367188 C 2.738281 11.367188 1.632812 11.363281 0.53125 11.371094 C 0.308594 11.371094 0.125 11.324219 0 11.128906 Z M 16.203125 0.746094 C 12.710938 0.746094 9.269531 0.746094 5.796875 0.746094 C 5.628906 3.652344 4.449219 5.992188 1.988281 7.625 C 2.015625 7.644531 2.03125 7.660156 2.050781 7.671875 C 2.957031 8.144531 3.625 8.84375 4.058594 9.773438 C 4.089844 9.835938 4.210938 9.890625 4.292969 9.890625 C 8.765625 9.898438 13.238281 9.894531 17.714844 9.898438 C 17.847656 9.898438 17.914062 9.855469 17.96875 9.730469 C 18.242188 9.128906 18.632812 8.613281 19.152344 8.203125 C 19.417969 7.988281 19.714844 7.808594 20 7.613281 C 17.546875 5.996094 16.371094 3.648438 16.203125 0.746094 Z M 21.25 6.824219 C 21.25 4.769531 21.25 2.757812 21.25 0.746094 C 20.417969 0.746094 19.597656 0.746094 18.785156 0.746094 C 18.941406 3.039062 19.601562 5.117188 21.25 6.824219 Z M 0.746094 0.742188 C 0.746094 2.769531 0.746094 4.78125 0.746094 6.832031 C 1.53125 6.007812 2.105469 5.097656 2.519531 4.082031 C 2.957031 3.015625 3.089844 1.882812 3.234375 0.742188 C 2.390625 0.742188 1.578125 0.742188 0.746094 0.742188 Z M 20.289062 6.871094 C 20.265625 6.828125 20.25 6.800781 20.230469 6.777344 C 19.050781 5.320312 18.378906 3.652344 18.167969 1.796875 C 18.128906 1.445312 18.066406 1.09375 18.011719 0.742188 C 17.640625 0.742188 17.292969 0.742188 16.945312 0.742188 C 16.800781 2.824219 18.6875 6.296875 20.289062 6.871094 Z M 3.957031 0.738281 C 3.796875 3.011719 3.195312 5.125 1.691406 6.902344 C 2.792969 6.195312 3.625 5.253906 4.21875 4.101562 C 4.757812 3.046875 4.964844 1.914062 5.066406 0.738281 C 4.703125 0.738281 4.359375 0.738281 3.957031 0.738281 Z M 19.453125 10.621094 C 19.539062 9.738281 19.871094 8.980469 20.433594 8.285156 C 19.542969 8.578125 18.460938 9.878906 18.457031 10.621094 C 18.785156 10.621094 19.109375 10.621094 19.453125 10.621094 Z M 3.558594 10.621094 C 3.402344 9.695312 2.296875 8.40625 1.582031 8.3125 C 2.140625 8.984375 2.457031 9.753906 2.550781 10.621094 C 2.890625 10.621094 3.21875 10.621094 3.558594 10.621094 Z M 1.808594 10.617188 C 1.707031 9.78125 1.367188 9.089844 0.75 8.488281 C 0.75 9.226562 0.75 9.921875 0.75 10.617188 C 1.105469 10.617188 1.445312 10.617188 1.808594 10.617188 Z M 20.1875 10.613281 C 20.5625 10.613281 20.910156 10.613281 21.253906 10.613281 C 21.253906 9.90625 21.253906 9.21875 21.253906 8.488281 C 20.632812 9.089844 20.292969 9.78125 20.1875 10.613281 Z M 20.1875 10.613281 "/>
<path style=" stroke:none;fill-rule:nonzero;fill:rgb(84.313725%,6.666667%,10.588235%);fill-opacity:1;" d="M 4.035156 21.257812 C 4.035156 20.847656 4.035156 20.449219 4.035156 20.050781 C 4.035156 19.707031 4.035156 19.363281 4.035156 19.019531 C 4.039062 18.769531 4.109375 18.695312 4.351562 18.695312 C 5.117188 18.695312 5.882812 18.695312 6.648438 18.695312 C 6.878906 18.695312 6.960938 18.765625 6.964844 18.976562 C 6.96875 19.714844 6.964844 20.449219 6.960938 21.1875 C 6.960938 21.207031 6.953125 21.226562 6.945312 21.257812 C 5.980469 21.257812 5.019531 21.257812 4.035156 21.257812 Z M 4.035156 21.257812 "/>
<path style=" stroke:none;fill-rule:nonzero;fill:rgb(84.313725%,6.666667%,10.588235%);fill-opacity:1;" d="M 15.035156 21.253906 C 15.035156 20.472656 15.035156 19.710938 15.039062 18.945312 C 15.039062 18.785156 15.132812 18.695312 15.300781 18.695312 C 16.101562 18.695312 16.902344 18.695312 17.703125 18.695312 C 17.871094 18.695312 17.960938 18.785156 17.960938 18.945312 C 17.964844 19.710938 17.964844 20.472656 17.964844 21.253906 C 16.988281 21.253906 16.027344 21.253906 15.035156 21.253906 Z M 15.035156 21.253906 "/>
<path style=" stroke:none;fill-rule:nonzero;fill:rgb(84.313725%,6.666667%,10.588235%);fill-opacity:1;" d="M 10.628906 21.257812 C 9.636719 21.257812 8.679688 21.257812 7.695312 21.257812 C 7.695312 21.09375 7.695312 20.941406 7.695312 20.785156 C 7.695312 20.207031 7.695312 19.625 7.699219 19.046875 C 7.699219 18.761719 7.765625 18.695312 8.054688 18.695312 C 8.8125 18.695312 9.570312 18.699219 10.332031 18.695312 C 10.5 18.695312 10.625 18.75 10.625 18.929688 C 10.632812 19.699219 10.628906 20.46875 10.628906 21.257812 Z M 10.628906 21.257812 "/>
<path style=" stroke:none;fill-rule:nonzero;fill:rgb(84.313725%,6.666667%,10.588235%);fill-opacity:1;" d="M 14.300781 21.257812 C 13.3125 21.257812 12.355469 21.257812 11.367188 21.257812 C 11.367188 21.144531 11.367188 21.039062 11.367188 20.9375 C 11.367188 20.3125 11.367188 19.691406 11.367188 19.070312 C 11.367188 18.75 11.425781 18.695312 11.746094 18.695312 C 12.496094 18.695312 13.246094 18.699219 13.996094 18.695312 C 14.183594 18.691406 14.296875 18.769531 14.296875 18.949219 C 14.304688 19.714844 14.300781 20.476562 14.300781 21.257812 Z M 14.300781 21.257812 "/>
<path style=" stroke:none;fill-rule:nonzero;fill:rgb(84.313725%,6.666667%,10.588235%);fill-opacity:1;" d="M 3.296875 21.261719 C 2.433594 21.261719 1.597656 21.261719 0.730469 21.261719 C 0.730469 21.128906 0.730469 21 0.730469 20.875 C 0.730469 20.273438 0.730469 19.671875 0.730469 19.070312 C 0.734375 18.738281 0.773438 18.695312 1.097656 18.695312 C 1.738281 18.695312 2.382812 18.699219 3.027344 18.695312 C 3.203125 18.691406 3.292969 18.773438 3.292969 18.929688 C 3.300781 19.699219 3.296875 20.46875 3.296875 21.261719 Z M 3.296875 21.261719 "/>
<path style=" stroke:none;fill-rule:nonzero;fill:rgb(84.313725%,6.666667%,10.588235%);fill-opacity:1;" d="M 21.265625 21.261719 C 20.398438 21.261719 19.5625 21.261719 18.695312 21.261719 C 18.695312 21.167969 18.695312 21.085938 18.695312 21.003906 C 18.695312 20.351562 18.695312 19.703125 18.695312 19.050781 C 18.699219 18.746094 18.75 18.695312 19.042969 18.695312 C 19.691406 18.695312 20.34375 18.699219 20.996094 18.695312 C 21.167969 18.691406 21.257812 18.773438 21.261719 18.929688 C 21.265625 19.699219 21.265625 20.472656 21.265625 21.261719 Z M 21.265625 21.261719 "/>
<path style=" stroke:none;fill-rule:nonzero;fill:rgb(84.313725%,6.666667%,10.588235%);fill-opacity:1;" d="M 12.464844 17.945312 C 11.960938 18.023438 11.453125 17.832031 11.003906 18.167969 C 10.570312 17.832031 10.046875 18.019531 9.535156 17.949219 C 9.535156 17.75 9.535156 17.550781 9.535156 17.351562 C 9.535156 16.921875 9.535156 16.492188 9.535156 16.0625 C 9.535156 15.878906 9.605469 15.765625 9.8125 15.765625 C 10.609375 15.769531 11.402344 15.769531 12.195312 15.765625 C 12.367188 15.765625 12.460938 15.847656 12.460938 16.007812 C 12.464844 16.648438 12.464844 17.292969 12.464844 17.945312 Z M 12.464844 17.945312 "/>
<path style=" stroke:none;fill-rule:nonzero;fill:rgb(84.313725%,6.666667%,10.588235%);fill-opacity:1;" d="M 8.804688 17.945312 C 8.292969 18.019531 7.777344 17.832031 7.332031 18.167969 C 6.894531 17.832031 6.375 18.019531 5.867188 17.945312 C 5.867188 17.722656 5.867188 17.496094 5.867188 17.269531 C 5.867188 16.875 5.863281 16.480469 5.871094 16.085938 C 5.871094 15.828125 5.9375 15.769531 6.1875 15.769531 C 6.960938 15.765625 7.734375 15.769531 8.507812 15.765625 C 8.699219 15.765625 8.800781 15.851562 8.800781 16.027344 C 8.808594 16.664062 8.804688 17.300781 8.804688 17.945312 Z M 8.804688 17.945312 "/>
<path style=" stroke:none;fill-rule:nonzero;fill:rgb(84.313725%,6.666667%,10.588235%);fill-opacity:1;" d="M 14.738281 18.117188 C 14.441406 18.058594 14.199219 17.992188 13.957031 17.96875 C 13.71875 17.945312 13.472656 17.964844 13.210938 17.964844 C 13.203125 17.890625 13.195312 17.832031 13.195312 17.769531 C 13.195312 17.226562 13.195312 16.679688 13.195312 16.136719 C 13.199219 15.828125 13.257812 15.769531 13.554688 15.769531 C 14.3125 15.769531 15.074219 15.773438 15.832031 15.765625 C 16.035156 15.761719 16.128906 15.851562 16.128906 16.042969 C 16.132812 16.671875 16.132812 17.300781 16.132812 17.941406 C 15.640625 18.035156 15.113281 17.824219 14.738281 18.117188 Z M 14.738281 18.117188 "/>
<path style=" stroke:none;fill-rule:nonzero;fill:rgb(84.313725%,6.666667%,10.588235%);fill-opacity:1;" d="M 7.695312 15.035156 C 7.695312 14.597656 7.695312 14.1875 7.695312 13.773438 C 7.695312 13.550781 7.691406 13.328125 7.699219 13.105469 C 7.703125 12.929688 7.789062 12.835938 7.980469 12.835938 C 8.777344 12.839844 9.570312 12.839844 10.367188 12.835938 C 10.523438 12.835938 10.625 12.90625 10.625 13.058594 C 10.632812 13.707031 10.628906 14.359375 10.628906 15.035156 C 10.441406 15.035156 10.273438 15.042969 10.101562 15.035156 C 9.773438 15.023438 9.449219 15.03125 9.15625 15.21875 C 8.875 15.015625 8.550781 15.027344 8.230469 15.035156 C 8.058594 15.039062 7.890625 15.035156 7.695312 15.035156 Z M 7.695312 15.035156 "/>
<path style=" stroke:none;fill-rule:nonzero;fill:rgb(84.313725%,6.666667%,10.588235%);fill-opacity:1;" d="M 14.300781 15.035156 C 14.015625 15.035156 13.765625 15.015625 13.515625 15.039062 C 13.28125 15.0625 13.046875 15.128906 12.839844 15.167969 C 12.601562 15.125 12.371094 15.0625 12.132812 15.039062 C 11.894531 15.019531 11.648438 15.035156 11.398438 15.035156 C 11.386719 14.992188 11.371094 14.960938 11.371094 14.929688 C 11.367188 14.328125 11.363281 13.726562 11.371094 13.125 C 11.371094 12.894531 11.441406 12.839844 11.675781 12.835938 C 12.449219 12.835938 13.222656 12.839844 13.996094 12.835938 C 14.164062 12.832031 14.292969 12.890625 14.296875 13.0625 C 14.304688 13.710938 14.300781 14.363281 14.300781 15.035156 Z M 14.300781 15.035156 "/>
<path style=" stroke:none;fill-rule:nonzero;fill:rgb(84.313725%,6.666667%,10.588235%);fill-opacity:1;" d="M 17.597656 15.035156 C 17.441406 15.035156 17.308594 15.015625 17.183594 15.039062 C 16.945312 15.082031 16.691406 15.230469 16.476562 15.1875 C 16.238281 15.140625 16.015625 15.023438 15.757812 15.035156 C 15.527344 15.042969 15.300781 15.035156 15.054688 15.035156 C 15.046875 14.972656 15.035156 14.921875 15.035156 14.867188 C 15.035156 14.292969 15.035156 13.722656 15.035156 13.152344 C 15.039062 12.878906 15.082031 12.835938 15.347656 12.835938 C 16.003906 12.835938 16.660156 12.84375 17.320312 12.832031 C 17.503906 12.832031 17.59375 12.90625 17.59375 13.078125 C 17.601562 13.71875 17.597656 14.363281 17.597656 15.035156 Z M 17.597656 15.035156 "/>
<path style=" stroke:none;fill-rule:nonzero;fill:rgb(84.313725%,6.666667%,10.588235%);fill-opacity:1;" d="M 6.960938 15.035156 C 6.679688 15.035156 6.425781 15.019531 6.179688 15.042969 C 5.984375 15.058594 5.796875 15.125 5.605469 15.171875 C 5.558594 15.179688 5.496094 15.210938 5.46875 15.191406 C 5.199219 14.992188 4.882812 15.042969 4.578125 15.035156 C 4.53125 15.035156 4.480469 15.03125 4.417969 15.027344 C 4.410156 14.96875 4.398438 14.914062 4.398438 14.859375 C 4.398438 14.300781 4.394531 13.742188 4.398438 13.1875 C 4.398438 12.882812 4.445312 12.835938 4.742188 12.835938 C 5.394531 12.835938 6.042969 12.839844 6.695312 12.835938 C 6.851562 12.832031 6.957031 12.882812 6.957031 13.042969 C 6.964844 13.699219 6.960938 14.355469 6.960938 15.035156 Z M 6.960938 15.035156 "/>
<path style=" stroke:none;fill-rule:nonzero;fill:rgb(84.313725%,6.666667%,10.588235%);fill-opacity:1;" d="M 5.125 17.945312 C 4.625 18.019531 4.117188 17.832031 3.675781 18.164062 C 3.355469 17.886719 2.96875 17.984375 2.570312 17.957031 C 2.570312 17.820312 2.570312 17.6875 2.570312 17.554688 C 2.570312 17.066406 2.570312 16.582031 2.570312 16.09375 C 2.574219 15.808594 2.613281 15.769531 2.890625 15.769531 C 3.550781 15.765625 4.207031 15.773438 4.867188 15.765625 C 5.042969 15.761719 5.125 15.839844 5.125 16.003906 C 5.128906 16.648438 5.125 17.289062 5.125 17.945312 Z M 5.125 17.945312 "/>
<path style=" stroke:none;fill-rule:nonzero;fill:rgb(84.313725%,6.666667%,10.588235%);fill-opacity:1;" d="M 16.871094 17.945312 C 16.871094 17.289062 16.871094 16.644531 16.875 16.003906 C 16.875 15.839844 16.957031 15.761719 17.132812 15.765625 C 17.8125 15.773438 18.492188 15.769531 19.171875 15.765625 C 19.335938 15.765625 19.421875 15.832031 19.421875 15.988281 C 19.425781 16.636719 19.425781 17.285156 19.425781 17.949219 C 19.046875 18 18.644531 17.871094 18.328125 18.164062 C 17.878906 17.835938 17.371094 18.019531 16.871094 17.945312 Z M 16.871094 17.945312 "/>
<path style=" stroke:none;fill-rule:nonzero;fill:rgb(48.627451%,80%,80%);fill-opacity:1;" d="M 16.203125 0.746094 C 16.371094 3.648438 17.546875 5.996094 20 7.613281 C 19.714844 7.8125 19.417969 7.988281 19.152344 8.203125 C 18.632812 8.613281 18.242188 9.128906 17.96875 9.734375 C 17.914062 9.855469 17.847656 9.898438 17.714844 9.898438 C 13.238281 9.898438 8.765625 9.898438 4.292969 9.890625 C 4.210938 9.890625 4.089844 9.835938 4.058594 9.773438 C 3.625 8.84375 2.957031 8.144531 2.050781 7.671875 C 2.03125 7.664062 2.015625 7.644531 1.988281 7.625 C 4.449219 5.996094 5.628906 3.652344 5.796875 0.746094 C 9.269531 0.746094 12.710938 0.746094 16.203125 0.746094 Z M 16.203125 0.746094 "/>
<path style=" stroke:none;fill-rule:nonzero;fill:rgb(84.313725%,6.666667%,10.588235%);fill-opacity:1;" d="M 21.25 6.824219 C 19.601562 5.113281 18.941406 3.039062 18.785156 0.746094 C 19.597656 0.746094 20.417969 0.746094 21.25 0.746094 C 21.25 2.757812 21.25 4.769531 21.25 6.824219 Z M 21.25 6.824219 "/>
<path style=" stroke:none;fill-rule:nonzero;fill:rgb(84.313725%,6.666667%,10.588235%);fill-opacity:1;" d="M 0.746094 0.742188 C 1.578125 0.742188 2.390625 0.742188 3.234375 0.742188 C 3.089844 1.882812 2.957031 3.015625 2.519531 4.082031 C 2.101562 5.097656 1.53125 6.007812 0.746094 6.832031 C 0.746094 4.78125 0.746094 2.769531 0.746094 0.742188 Z M 0.746094 0.742188 "/>
<path style=" stroke:none;fill-rule:nonzero;fill:rgb(84.313725%,6.666667%,10.588235%);fill-opacity:1;" d="M 20.289062 6.871094 C 18.6875 6.296875 16.800781 2.824219 16.945312 0.742188 C 17.292969 0.742188 17.640625 0.742188 18.011719 0.742188 C 18.066406 1.09375 18.128906 1.445312 18.167969 1.796875 C 18.378906 3.652344 19.050781 5.320312 20.230469 6.777344 C 20.25 6.800781 20.265625 6.828125 20.289062 6.871094 Z M 20.289062 6.871094 "/>
<path style=" stroke:none;fill-rule:nonzero;fill:rgb(84.313725%,6.666667%,10.588235%);fill-opacity:1;" d="M 3.957031 0.738281 C 4.359375 0.738281 4.703125 0.738281 5.066406 0.738281 C 4.964844 1.914062 4.761719 3.046875 4.21875 4.101562 C 3.625 5.253906 2.792969 6.195312 1.691406 6.902344 C 3.195312 5.125 3.796875 3.011719 3.957031 0.738281 Z M 3.957031 0.738281 "/>
<path style=" stroke:none;fill-rule:nonzero;fill:rgb(84.313725%,6.666667%,10.588235%);fill-opacity:1;" d="M 19.453125 10.621094 C 19.109375 10.621094 18.785156 10.621094 18.457031 10.621094 C 18.460938 9.878906 19.542969 8.578125 20.433594 8.285156 C 19.871094 8.980469 19.539062 9.738281 19.453125 10.621094 Z M 19.453125 10.621094 "/>
<path style=" stroke:none;fill-rule:nonzero;fill:rgb(84.313725%,6.666667%,10.588235%);fill-opacity:1;" d="M 3.558594 10.621094 C 3.21875 10.621094 2.890625 10.621094 2.550781 10.621094 C 2.457031 9.753906 2.140625 8.984375 1.582031 8.3125 C 2.296875 8.40625 3.402344 9.695312 3.558594 10.621094 Z M 3.558594 10.621094 "/>
<path style=" stroke:none;fill-rule:nonzero;fill:rgb(84.313725%,6.666667%,10.588235%);fill-opacity:1;" d="M 1.808594 10.617188 C 1.445312 10.617188 1.105469 10.617188 0.75 10.617188 C 0.75 9.921875 0.75 9.226562 0.75 8.488281 C 1.367188 9.089844 1.707031 9.78125 1.808594 10.617188 Z M 1.808594 10.617188 "/>
<path style=" stroke:none;fill-rule:nonzero;fill:rgb(84.313725%,6.666667%,10.588235%);fill-opacity:1;" d="M 20.1875 10.613281 C 20.292969 9.78125 20.632812 9.089844 21.253906 8.488281 C 21.253906 9.21875 21.253906 9.90625 21.253906 10.613281 C 20.910156 10.613281 20.5625 10.613281 20.1875 10.613281 Z M 20.1875 10.613281 "/>
</g>
</svg>
