<?xml version="1.0" encoding="UTF-8"?>
<svg xmlns="http://www.w3.org/2000/svg" xmlns:xlink="http://www.w3.org/1999/xlink" width="22px" height="22px" viewBox="0 0 22 22" version="1.1">
<defs>
<clipPath id="clip1">
  <path d="M 0 0 L 22 0 L 22 20.84375 L 0 20.84375 Z M 0 0 "/>
</clipPath>
<linearGradient id="linear0" gradientUnits="userSpaceOnUse" x1="0.440552" y1="7.33586" x2="2.86054" y2="12.3681" gradientTransform="matrix(2.2,0,0,2.2,0,0)">
<stop offset="0" style="stop-color:rgb(84.313725%,6.666667%,10.588235%);stop-opacity:1;"/>
<stop offset="1" style="stop-color:rgb(98.431373%,78.431373%,7.843137%);stop-opacity:1;"/>
</linearGradient>
<linearGradient id="linear1" gradientUnits="userSpaceOnUse" x1="0.441498" y1="5.13594" x2="3.39316" y2="7.28955" gradientTransform="matrix(2.2,0,0,2.2,0,0)">
<stop offset="0" style="stop-color:rgb(84.313725%,6.666667%,10.588235%);stop-opacity:1;"/>
<stop offset="1" style="stop-color:rgb(98.431373%,78.431373%,7.843137%);stop-opacity:1;"/>
</linearGradient>
</defs>
<g id="surface1">
<g clip-path="url(#clip1)" clip-rule="nonzero">
<path style=" stroke:none;fill-rule:nonzero;fill:rgb(0%,0%,0%);fill-opacity:1;" d="M 1.214844 15.464844 C 0.144531 14.527344 -0.273438 13.410156 0.183594 12.101562 C 0.859375 10.175781 2.472656 10.035156 4.253906 10.144531 C 4.253906 8.859375 4.265625 7.628906 4.234375 6.40625 C 4.234375 6.273438 4.007812 6.105469 3.851562 6.03125 C 3.121094 5.6875 2.371094 5.390625 1.648438 5.027344 C 1.449219 4.929688 1.230469 4.683594 1.203125 4.480469 C 1.183594 4.332031 1.433594 4.070312 1.621094 3.984375 C 4.46875 2.664062 7.320312 1.351562 10.183594 0.0664062 C 10.40625 -0.03125 10.75 -0.015625 10.976562 0.0820312 C 13.800781 1.351562 16.609375 2.648438 19.429688 3.925781 C 19.824219 4.105469 20 4.355469 19.976562 4.789062 C 19.957031 5.1875 19.988281 5.585938 19.972656 5.984375 C 19.949219 6.519531 19.996094 6.960938 20.488281 7.355469 C 21.050781 7.804688 20.96875 8.738281 20.453125 9.253906 C 19.933594 9.777344 19.101562 9.789062 18.5625 9.28125 C 18.03125 8.777344 17.910156 7.824219 18.480469 7.390625 C 19.257812 6.800781 18.960938 6.082031 18.996094 5.257812 C 18.289062 5.574219 17.65625 5.847656 17.039062 6.152344 C 16.9375 6.199219 16.863281 6.402344 16.863281 6.535156 C 16.851562 7.703125 16.855469 8.871094 16.855469 10.128906 C 18.027344 10.128906 19.152344 10.128906 20.273438 10.128906 C 22.234375 10.128906 21.988281 10 21.992188 11.867188 C 22 14.542969 21.996094 17.214844 21.992188 19.890625 C 21.992188 20.777344 21.9375 20.835938 21.070312 20.835938 C 15.089844 20.839844 9.105469 20.839844 3.125 20.839844 C 1.726562 20.839844 0.6875 20.175781 0.21875 19 C -0.253906 17.816406 0.0390625 16.683594 1.078125 15.644531 C 1.125 15.601562 1.15625 15.542969 1.214844 15.464844 Z M 5.246094 6.671875 C 5.246094 8.589844 5.234375 10.394531 5.261719 12.195312 C 5.265625 12.347656 5.484375 12.554688 5.648438 12.632812 C 7.140625 13.355469 8.636719 14.066406 10.152344 14.742188 C 10.390625 14.847656 10.753906 14.84375 10.996094 14.734375 C 12.46875 14.078125 13.914062 13.363281 15.382812 12.695312 C 15.757812 12.527344 15.894531 12.316406 15.890625 11.902344 C 15.867188 10.507812 15.882812 9.117188 15.882812 7.722656 C 15.882812 7.40625 15.882812 7.089844 15.882812 6.664062 C 14.777344 7.175781 13.753906 7.527344 12.859375 8.085938 C 11.300781 9.066406 9.855469 9.113281 8.285156 8.097656 C 7.382812 7.515625 6.332031 7.171875 5.246094 6.671875 Z M 18.308594 4.492188 C 15.699219 3.300781 13.265625 2.179688 10.824219 1.09375 C 10.628906 1.003906 10.316406 1.074219 10.101562 1.167969 C 8.589844 1.839844 7.085938 2.535156 5.582031 3.226562 C 4.703125 3.628906 3.828125 4.03125 2.90625 4.457031 C 3.007812 4.546875 3.039062 4.582031 3.074219 4.597656 C 5.46875 5.703125 7.859375 6.8125 10.261719 7.890625 C 10.460938 7.980469 10.773438 7.933594 10.988281 7.839844 C 12.023438 7.390625 13.042969 6.898438 14.074219 6.425781 C 15.4375 5.800781 16.800781 5.179688 18.308594 4.492188 Z M 11.660156 19.84375 C 11.660156 19.84375 11.660156 19.84375 11.660156 19.839844 C 14.53125 19.839844 17.402344 19.847656 20.273438 19.828125 C 20.527344 19.828125 20.777344 19.675781 21.03125 19.589844 C 20.785156 19.519531 20.539062 19.390625 20.292969 19.390625 C 16.855469 19.378906 13.417969 19.382812 9.984375 19.382812 C 9.191406 19.382812 9.089844 19.273438 9.082031 18.460938 C 9.082031 18.109375 9.082031 17.753906 9.082031 17.402344 C 9.085938 16.546875 9.164062 16.464844 10.023438 16.464844 C 13.5 16.464844 16.980469 16.46875 20.460938 16.453125 C 20.652344 16.453125 20.839844 16.300781 21.03125 16.21875 C 20.84375 16.136719 20.652344 15.984375 20.464844 15.984375 C 14.65625 15.96875 8.851562 15.96875 3.046875 15.980469 C 2.6875 15.984375 2.300781 16.070312 1.980469 16.226562 C 1.207031 16.601562 0.824219 17.511719 1.019531 18.34375 C 1.230469 19.253906 1.941406 19.835938 2.917969 19.839844 C 5.832031 19.851562 8.746094 19.84375 11.660156 19.84375 Z M 4.222656 11.132812 C 3.777344 11.132812 3.410156 11.128906 3.042969 11.132812 C 1.792969 11.152344 0.957031 11.945312 0.972656 13.097656 C 0.988281 14.210938 1.835938 14.996094 3.046875 15.003906 C 4.546875 15.011719 6.046875 15.007812 7.546875 15.003906 C 7.703125 15.003906 7.859375 14.976562 8.015625 14.957031 C 7.175781 14.4375 6.335938 13.964844 5.445312 13.644531 C 4.535156 13.316406 4.066406 12.808594 4.253906 11.792969 C 4.289062 11.609375 4.238281 11.410156 4.222656 11.132812 Z M 21.011719 17.472656 C 17.359375 17.472656 13.742188 17.472656 10.117188 17.472656 C 10.117188 17.789062 10.117188 18.0625 10.117188 18.335938 C 13.777344 18.335938 17.390625 18.335938 21.011719 18.335938 C 21.011719 18.019531 21.011719 17.761719 21.011719 17.472656 Z M 21.015625 12.589844 C 20.113281 12.589844 19.285156 12.640625 18.464844 12.578125 C 17.53125 12.5 16.730469 12.632812 16.214844 13.496094 C 17.800781 13.496094 19.398438 13.496094 21.015625 13.496094 C 21.015625 13.191406 21.015625 12.9375 21.015625 12.589844 Z M 12.988281 14.835938 C 13.152344 14.953125 13.183594 14.996094 13.214844 14.996094 C 15.671875 15 18.128906 15.007812 20.585938 14.992188 C 20.734375 14.992188 20.886719 14.84375 21.035156 14.765625 C 20.867188 14.679688 20.703125 14.519531 20.535156 14.519531 C 18.40625 14.503906 16.273438 14.496094 14.144531 14.523438 C 13.789062 14.527344 13.4375 14.710938 12.988281 14.835938 Z M 18.972656 11.59375 C 19.535156 11.59375 20.101562 11.605469 20.664062 11.578125 C 20.789062 11.574219 20.910156 11.425781 21.03125 11.34375 C 20.917969 11.273438 20.800781 11.144531 20.683594 11.144531 C 19.535156 11.128906 18.382812 11.128906 17.234375 11.144531 C 17.113281 11.148438 16.992188 11.300781 16.871094 11.386719 C 17.007812 11.453125 17.140625 11.578125 17.28125 11.582031 C 17.84375 11.605469 18.40625 11.589844 18.972656 11.59375 Z M 19.492188 8.84375 C 19.679688 8.566406 19.863281 8.410156 19.863281 8.25 C 19.867188 8.125 19.625 7.875 19.535156 7.894531 C 19.371094 7.925781 19.152344 8.105469 19.128906 8.253906 C 19.105469 8.390625 19.308594 8.5625 19.492188 8.84375 Z M 19.492188 8.84375 "/>
</g>
<path style=" stroke:none;fill-rule:nonzero;fill:rgb(84.313725%,6.666667%,10.588235%);fill-opacity:1;" d="M 5.246094 6.671875 C 6.332031 7.171875 7.382812 7.515625 8.285156 8.097656 C 9.855469 9.113281 11.300781 9.066406 12.859375 8.085938 C 13.753906 7.523438 14.777344 7.175781 15.882812 6.664062 C 15.882812 7.089844 15.882812 7.40625 15.882812 7.722656 C 15.882812 9.117188 15.867188 10.507812 15.890625 11.902344 C 15.894531 12.316406 15.757812 12.527344 15.382812 12.695312 C 13.914062 13.363281 12.464844 14.078125 10.996094 14.734375 C 10.753906 14.84375 10.390625 14.847656 10.152344 14.742188 C 8.636719 14.066406 7.140625 13.355469 5.648438 12.632812 C 5.484375 12.554688 5.265625 12.347656 5.261719 12.195312 C 5.234375 10.394531 5.246094 8.589844 5.246094 6.671875 Z M 5.246094 6.671875 "/>
<path style=" stroke:none;fill-rule:nonzero;fill:rgb(84.313725%,6.666667%,10.588235%);fill-opacity:1;" d="M 18.308594 4.492188 C 16.800781 5.179688 15.4375 5.800781 14.074219 6.425781 C 13.046875 6.898438 12.023438 7.390625 10.988281 7.839844 C 10.777344 7.933594 10.460938 7.980469 10.261719 7.890625 C 7.859375 6.8125 5.46875 5.703125 3.078125 4.597656 C 3.039062 4.582031 3.011719 4.542969 2.910156 4.457031 C 3.832031 4.03125 4.707031 3.628906 5.582031 3.226562 C 7.085938 2.535156 8.589844 1.839844 10.101562 1.167969 C 10.316406 1.074219 10.628906 1.003906 10.824219 1.09375 C 13.265625 2.179688 15.699219 3.300781 18.308594 4.492188 Z M 18.308594 4.492188 "/>
<path style=" stroke:none;fill-rule:nonzero;fill:url(#linear0);" d="M 11.660156 19.84375 C 8.746094 19.84375 5.832031 19.851562 2.917969 19.839844 C 1.945312 19.835938 1.234375 19.25 1.019531 18.34375 C 0.824219 17.511719 1.207031 16.601562 1.980469 16.222656 C 2.304688 16.066406 2.691406 15.980469 3.046875 15.980469 C 8.851562 15.964844 14.660156 15.96875 20.464844 15.980469 C 20.65625 15.980469 20.84375 16.136719 21.035156 16.21875 C 20.84375 16.300781 20.652344 16.453125 20.460938 16.453125 C 16.980469 16.46875 13.503906 16.464844 10.023438 16.464844 C 9.164062 16.464844 9.085938 16.542969 9.085938 17.398438 C 9.082031 17.753906 9.082031 18.105469 9.085938 18.460938 C 9.089844 19.273438 9.195312 19.378906 9.984375 19.378906 C 13.421875 19.382812 16.859375 19.375 20.292969 19.386719 C 20.539062 19.390625 20.785156 19.519531 21.03125 19.589844 C 20.777344 19.671875 20.527344 19.828125 20.273438 19.828125 C 17.402344 19.847656 14.53125 19.839844 11.660156 19.839844 C 11.660156 19.84375 11.660156 19.84375 11.660156 19.84375 Z M 11.660156 19.84375 "/>
<path style=" stroke:none;fill-rule:nonzero;fill:url(#linear1);" d="M 4.222656 11.132812 C 4.238281 11.410156 4.289062 11.609375 4.253906 11.792969 C 4.066406 12.808594 4.535156 13.316406 5.445312 13.644531 C 6.335938 13.964844 7.171875 14.4375 8.015625 14.957031 C 7.859375 14.972656 7.703125 15.003906 7.542969 15.003906 C 6.046875 15.007812 4.546875 15.011719 3.046875 15.003906 C 1.832031 14.996094 0.984375 14.207031 0.972656 13.097656 C 0.957031 11.945312 1.789062 11.152344 3.039062 11.132812 C 3.410156 11.128906 3.777344 11.132812 4.222656 11.132812 Z M 4.222656 11.132812 "/>
<path style=" stroke:none;fill-rule:nonzero;fill:rgb(84.313725%,6.666667%,10.588235%);fill-opacity:1;" d="M 19.496094 8.84375 C 19.308594 8.5625 19.105469 8.390625 19.128906 8.253906 C 19.152344 8.105469 19.371094 7.925781 19.53125 7.894531 C 19.625 7.875 19.863281 8.125 19.863281 8.25 C 19.863281 8.40625 19.679688 8.566406 19.496094 8.84375 Z M 19.496094 8.84375 "/>
</g>
</svg>
