<?xml version="1.0" encoding="UTF-8"?>
<svg xmlns="http://www.w3.org/2000/svg" xmlns:xlink="http://www.w3.org/1999/xlink" width="22px" height="22px" viewBox="0 0 22 22" version="1.1">
<defs>
<clipPath id="clip1">
  <path d="M 17 12 L 20 12 L 20 20.894531 L 17 20.894531 Z M 17 12 "/>
</clipPath>
<clipPath id="clip2">
  <path d="M 0 3 L 14 3 L 14 20.894531 L 0 20.894531 Z M 0 3 "/>
</clipPath>
<clipPath id="clip3">
  <path d="M 0 16 L 14 16 L 14 20.894531 L 0 20.894531 Z M 0 16 "/>
</clipPath>
<clipPath id="clip4">
  <path d="M 0 3 L 14 3 L 14 20.894531 L 0 20.894531 Z M 0 3 "/>
</clipPath>
<clipPath id="clip5">
  <path d="M 16 13 L 22 13 L 22 20.894531 L 16 20.894531 Z M 16 13 "/>
</clipPath>
<clipPath id="clip6">
  <path d="M 16 17 L 22 17 L 22 20.894531 L 16 20.894531 Z M 16 17 "/>
</clipPath>
<clipPath id="clip7">
  <path d="M 15 13 L 22 13 L 22 20.894531 L 15 20.894531 Z M 15 13 "/>
</clipPath>
</defs>
<g id="surface1">
<path style=" stroke:none;fill-rule:nonzero;fill:rgb(100%,100%,100%);fill-opacity:1;" d="M 18.621094 5.085938 L 18.949219 5.085938 C 19.34375 5.085938 19.664062 5.335938 19.664062 5.636719 L 19.664062 17.042969 C 19.664062 17.34375 19.34375 17.59375 18.949219 17.59375 L 18.621094 17.59375 C 18.230469 17.59375 17.90625 17.34375 17.90625 17.042969 L 17.90625 5.640625 C 17.90625 5.335938 18.230469 5.085938 18.621094 5.085938 Z M 18.621094 5.085938 "/>
<g clip-path="url(#clip1)" clip-rule="nonzero">
<path style=" stroke:none;fill-rule:nonzero;fill:rgb(87.058824%,89.411765%,100%);fill-opacity:1;" d="M 18.621094 12.242188 L 18.949219 12.242188 C 19.34375 12.242188 19.664062 12.492188 19.664062 12.792969 L 19.664062 19.988281 C 19.664062 20.292969 19.34375 20.539062 18.949219 20.539062 L 18.621094 20.539062 C 18.230469 20.539062 17.90625 20.292969 17.90625 19.988281 L 17.90625 12.792969 C 17.90625 12.492188 18.230469 12.242188 18.621094 12.242188 Z M 18.621094 12.242188 "/>
</g>
<path style=" stroke:none;fill-rule:nonzero;fill:rgb(13.72549%,13.72549%,14.901961%);fill-opacity:1;" d="M 18.785156 17.949219 C 18.046875 17.949219 17.445312 17.484375 17.445312 16.917969 L 17.445312 5.765625 C 17.445312 5.195312 18.046875 4.734375 18.785156 4.734375 C 19.527344 4.734375 20.128906 5.195312 20.128906 5.765625 C 20.128906 5.960938 19.921875 6.121094 19.664062 6.121094 C 19.410156 6.121094 19.203125 5.960938 19.203125 5.765625 C 19.203125 5.589844 19.015625 5.445312 18.785156 5.445312 C 18.554688 5.445312 18.367188 5.589844 18.367188 5.765625 L 18.367188 16.917969 C 18.367188 17.09375 18.554688 17.238281 18.785156 17.238281 C 19.015625 17.238281 19.203125 17.09375 19.203125 16.917969 L 19.203125 9.460938 C 19.203125 9.265625 19.410156 9.105469 19.664062 9.105469 C 19.921875 9.105469 20.128906 9.265625 20.128906 9.460938 L 20.128906 16.917969 C 20.128906 17.484375 19.527344 17.949219 18.785156 17.949219 Z M 18.785156 17.949219 "/>
<g clip-path="url(#clip2)" clip-rule="nonzero">
<path style=" stroke:none;fill-rule:nonzero;fill:rgb(98.039216%,87.843137%,71.764706%);fill-opacity:1;" d="M 11.644531 20.402344 L 2.152344 20.402344 C 1.21875 20.402344 0.460938 19.820312 0.460938 19.101562 L 0.460938 7.417969 C 0.460938 5.191406 2.808594 3.386719 5.703125 3.386719 L 8.097656 3.386719 C 10.992188 3.386719 13.335938 5.191406 13.335938 7.417969 L 13.335938 19.101562 C 13.335938 19.820312 12.582031 20.402344 11.644531 20.402344 Z M 11.644531 20.402344 "/>
</g>
<path style=" stroke:none;fill-rule:nonzero;fill:rgb(100%,94.901961%,86.27451%);fill-opacity:1;" d="M 6.898438 3.386719 C 3.34375 3.386719 0.460938 5.605469 0.460938 8.339844 L 0.460938 10.679688 C 0.460938 7.945312 3.34375 5.726562 6.898438 5.726562 C 10.457031 5.726562 13.335938 7.945312 13.335938 10.679688 L 13.335938 8.339844 C 13.335938 5.605469 10.457031 3.386719 6.898438 3.386719 Z M 6.898438 3.386719 "/>
<g clip-path="url(#clip3)" clip-rule="nonzero">
<path style=" stroke:none;fill-rule:nonzero;fill:rgb(93.72549%,69.411765%,61.960784%);fill-opacity:1;" d="M 11.261719 18.378906 L 2.539062 18.378906 C 1.390625 18.378906 0.460938 17.664062 0.460938 16.78125 L 0.460938 18.804688 C 0.460938 19.6875 1.390625 20.402344 2.539062 20.402344 L 11.261719 20.402344 C 12.410156 20.402344 13.335938 19.6875 13.335938 18.804688 L 13.335938 16.78125 C 13.335938 17.664062 12.410156 18.378906 11.261719 18.378906 Z M 11.261719 18.378906 "/>
</g>
<g clip-path="url(#clip4)" clip-rule="nonzero">
<path style=" stroke:none;fill-rule:nonzero;fill:rgb(13.72549%,13.72549%,14.901961%);fill-opacity:1;" d="M 11.261719 20.757812 L 2.539062 20.757812 C 1.136719 20.757812 0 19.882812 0 18.804688 L 0 14.238281 C 0 14.039062 0.207031 13.882812 0.460938 13.882812 C 0.71875 13.882812 0.925781 14.039062 0.925781 14.238281 L 0.925781 18.804688 C 0.925781 19.492188 1.648438 20.046875 2.539062 20.046875 L 11.261719 20.046875 C 12.152344 20.046875 12.875 19.492188 12.875 18.804688 L 12.875 8.339844 C 12.875 5.804688 10.195312 3.742188 6.902344 3.742188 C 3.605469 3.742188 0.925781 5.804688 0.925781 8.339844 L 0.925781 12.726562 C 0.925781 12.921875 0.71875 13.082031 0.460938 13.082031 C 0.207031 13.082031 0 12.921875 0 12.726562 L 0 8.339844 C 0 5.410156 3.09375 3.03125 6.898438 3.03125 C 10.703125 3.03125 13.796875 5.410156 13.796875 8.339844 L 13.796875 18.804688 C 13.800781 19.882812 12.660156 20.757812 11.261719 20.757812 Z M 11.261719 20.757812 "/>
</g>
<path style=" stroke:none;fill-rule:nonzero;fill:rgb(88.627451%,17.647059%,32.941176%);fill-opacity:1;" d="M 7.628906 12.140625 L 6.066406 12.140625 C 4.183594 12.140625 2.640625 10.957031 2.640625 9.507812 L 2.640625 2.988281 C 2.640625 1.539062 4.183594 0.355469 6.066406 0.355469 L 7.628906 0.355469 C 9.511719 0.355469 11.054688 1.539062 11.054688 2.988281 L 11.054688 9.507812 C 11.054688 10.957031 9.511719 12.140625 7.628906 12.140625 Z M 7.628906 12.140625 "/>
<path style=" stroke:none;fill-rule:nonzero;fill:rgb(100%,19.215686%,32.941176%);fill-opacity:1;" d="M 6.847656 0.355469 C 4.535156 0.355469 2.640625 1.8125 2.640625 3.589844 L 2.640625 8.769531 C 2.640625 6.988281 4.535156 5.535156 6.847656 5.535156 C 9.160156 5.535156 11.054688 6.988281 11.054688 8.769531 L 11.054688 3.589844 C 11.054688 1.8125 9.160156 0.355469 6.847656 0.355469 Z M 6.847656 0.355469 "/>
<path style=" stroke:none;fill-rule:nonzero;fill:rgb(100%,42.352941%,49.411765%);fill-opacity:1;" d="M 6.847656 0.355469 C 4.535156 0.355469 2.640625 1.8125 2.640625 3.589844 L 2.640625 5.277344 C 2.640625 3.496094 4.535156 2.042969 6.847656 2.042969 C 9.160156 2.042969 11.054688 3.496094 11.054688 5.277344 L 11.054688 3.589844 C 11.054688 1.8125 9.160156 0.355469 6.847656 0.355469 Z M 6.847656 0.355469 "/>
<path style=" stroke:none;fill-rule:nonzero;fill:rgb(13.72549%,13.72549%,14.901961%);fill-opacity:1;" d="M 6.847656 12.496094 C 4.273438 12.496094 2.179688 10.886719 2.179688 8.90625 L 2.179688 3.589844 C 2.179688 1.609375 4.273438 0 6.847656 0 C 9.421875 0 11.515625 1.609375 11.515625 3.589844 L 11.515625 7.410156 C 11.515625 7.605469 11.308594 7.765625 11.054688 7.765625 C 10.796875 7.765625 10.589844 7.605469 10.589844 7.410156 L 10.589844 3.589844 C 10.589844 2.003906 8.910156 0.710938 6.847656 0.710938 C 4.785156 0.710938 3.105469 2.003906 3.105469 3.589844 L 3.105469 8.90625 C 3.105469 10.496094 4.785156 11.785156 6.847656 11.785156 C 8.910156 11.785156 10.589844 10.496094 10.589844 8.90625 C 10.589844 8.710938 10.796875 8.550781 11.054688 8.550781 C 11.308594 8.550781 11.515625 8.710938 11.515625 8.90625 C 11.515625 10.886719 9.421875 12.496094 6.847656 12.496094 Z M 6.847656 12.496094 "/>
<g clip-path="url(#clip5)" clip-rule="nonzero">
<path style=" stroke:none;fill-rule:nonzero;fill:rgb(40%,48.627451%,53.72549%);fill-opacity:1;" d="M 16.761719 13.9375 L 20.8125 13.9375 C 21.234375 13.9375 21.566406 14.214844 21.535156 14.539062 L 21.121094 18.875 C 21.027344 19.8125 20.011719 20.539062 18.789062 20.539062 C 17.5625 20.539062 16.546875 19.8125 16.457031 18.875 L 16.039062 14.539062 C 16.003906 14.214844 16.339844 13.9375 16.761719 13.9375 Z M 16.761719 13.9375 "/>
<path style=" stroke:none;fill-rule:nonzero;fill:rgb(0%,0%,0%);fill-opacity:1;" d="M 16.761719 13.9375 L 20.8125 13.9375 C 21.234375 13.9375 21.566406 14.214844 21.535156 14.539062 L 21.121094 18.875 C 21.027344 19.8125 20.011719 20.539062 18.789062 20.539062 C 17.5625 20.539062 16.546875 19.8125 16.457031 18.875 L 16.039062 14.539062 C 16.003906 14.214844 16.339844 13.9375 16.761719 13.9375 Z M 16.761719 13.9375 "/>
</g>
<g clip-path="url(#clip6)" clip-rule="nonzero">
<path style=" stroke:none;fill-rule:nonzero;fill:rgb(48.235294%,58.823529%,63.921569%);fill-opacity:1;" d="M 21.117188 17.714844 C 21.027344 18.652344 20.011719 19.378906 18.785156 19.378906 C 17.5625 19.378906 16.542969 18.652344 16.453125 17.714844 L 16.453125 18.875 C 16.546875 19.8125 17.5625 20.539062 18.785156 20.539062 C 20.011719 20.539062 21.027344 19.8125 21.117188 18.875 Z M 21.117188 17.714844 "/>
</g>
<path style=" stroke:none;fill-rule:nonzero;fill:rgb(32.941176%,40.392157%,43.921569%);fill-opacity:1;" d="M 16.105469 15.269531 C 16.222656 15.082031 16.472656 14.953125 16.761719 14.953125 L 20.8125 14.953125 C 21.101562 14.953125 21.347656 15.082031 21.464844 15.269531 L 21.535156 14.539062 C 21.566406 14.214844 21.234375 13.9375 20.8125 13.9375 L 16.761719 13.9375 C 16.339844 13.9375 16.003906 14.214844 16.035156 14.539062 Z M 16.105469 15.269531 "/>
<g clip-path="url(#clip7)" clip-rule="nonzero">
<path style=" stroke:none;fill-rule:nonzero;fill:rgb(13.72549%,13.72549%,14.901961%);fill-opacity:1;" d="M 18.785156 20.894531 C 17.328125 20.894531 16.101562 20.019531 15.992188 18.898438 L 15.574219 14.566406 C 15.550781 14.3125 15.664062 14.0625 15.890625 13.875 C 16.113281 13.6875 16.433594 13.582031 16.761719 13.582031 L 20.8125 13.582031 C 21.140625 13.582031 21.457031 13.691406 21.683594 13.875 C 21.90625 14.058594 22.019531 14.3125 21.996094 14.566406 L 21.578125 18.898438 C 21.472656 20.019531 20.246094 20.894531 18.785156 20.894531 Z M 16.761719 14.292969 C 16.660156 14.292969 16.597656 14.335938 16.566406 14.359375 C 16.539062 14.382812 16.492188 14.4375 16.496094 14.511719 L 16.914062 18.847656 C 16.988281 19.597656 17.808594 20.183594 18.785156 20.183594 C 19.761719 20.183594 20.585938 19.597656 20.65625 18.847656 L 21.074219 14.511719 C 21.082031 14.4375 21.035156 14.382812 21.003906 14.359375 C 20.976562 14.335938 20.910156 14.296875 20.8125 14.296875 L 16.761719 14.296875 Z M 16.761719 14.292969 "/>
</g>
<path style=" stroke:none;fill-rule:nonzero;fill:rgb(100%,19.215686%,32.941176%);fill-opacity:1;" d="M 18.515625 2.316406 L 19.058594 2.316406 C 19.714844 2.316406 20.253906 2.730469 20.253906 3.234375 L 20.253906 7.199219 C 20.253906 7.703125 19.714844 8.117188 19.058594 8.117188 L 18.515625 8.117188 C 17.859375 8.117188 17.320312 7.703125 17.320312 7.199219 L 17.320312 3.234375 C 17.320312 2.730469 17.855469 2.316406 18.515625 2.316406 Z M 18.515625 2.316406 "/>
<path style=" stroke:none;fill-rule:nonzero;fill:rgb(88.627451%,17.647059%,32.941176%);fill-opacity:1;" d="M 18.785156 3.445312 L 18.785156 6.988281 C 18.785156 7.40625 18.492188 7.769531 18.054688 7.964844 C 18.269531 8.0625 18.519531 8.117188 18.785156 8.117188 C 19.59375 8.117188 20.253906 7.609375 20.253906 6.988281 L 20.253906 3.445312 C 20.253906 2.824219 19.59375 2.316406 18.785156 2.316406 C 18.519531 2.316406 18.269531 2.371094 18.054688 2.46875 C 18.492188 2.664062 18.785156 3.027344 18.785156 3.445312 Z M 18.785156 3.445312 "/>
<path style=" stroke:none;fill-rule:nonzero;fill:rgb(13.72549%,13.72549%,14.901961%);fill-opacity:1;" d="M 19.058594 8.472656 L 18.515625 8.472656 C 17.601562 8.472656 16.859375 7.902344 16.859375 7.199219 L 16.859375 3.234375 C 16.859375 2.53125 17.601562 1.960938 18.515625 1.960938 L 19.058594 1.960938 C 19.972656 1.960938 20.714844 2.53125 20.714844 3.234375 L 20.714844 7.199219 C 20.714844 7.902344 19.972656 8.472656 19.058594 8.472656 Z M 18.515625 2.671875 C 18.109375 2.671875 17.78125 2.925781 17.78125 3.234375 L 17.78125 7.199219 C 17.78125 7.507812 18.109375 7.761719 18.515625 7.761719 L 19.058594 7.761719 C 19.460938 7.761719 19.789062 7.507812 19.789062 7.199219 L 19.789062 3.234375 C 19.789062 2.925781 19.460938 2.671875 19.058594 2.671875 Z M 18.515625 2.671875 "/>
</g>
</svg>
