<?xml version="1.0" encoding="UTF-8"?>
<svg xmlns="http://www.w3.org/2000/svg" xmlns:xlink="http://www.w3.org/1999/xlink" width="22px" height="22px" viewBox="0 0 22 22" version="1.1">
<defs>
<clipPath id="clip1">
  <path d="M 0 15 L 11 15 L 11 21.222656 L 0 21.222656 Z M 0 15 "/>
</clipPath>
</defs>
<g id="surface1">
<path style=" stroke:none;fill-rule:nonzero;fill:rgb(84.313725%,6.666667%,10.588235%);fill-opacity:1;" d="M 0 9.074219 C 0.269531 8.378906 0.859375 7.980469 1.5625 7.691406 C 2.558594 7.28125 3.613281 7.085938 4.695312 7 C 4.988281 6.976562 5.109375 6.898438 5.078125 6.625 C 5.050781 6.421875 5.085938 6.21875 5.070312 6.015625 C 5.015625 5.363281 5.347656 4.886719 5.910156 4.523438 C 6.6875 4.023438 7.578125 3.777344 8.496094 3.621094 C 10.894531 3.214844 13.28125 3.230469 15.628906 3.882812 C 16.15625 4.03125 16.664062 4.277344 17.136719 4.542969 C 17.722656 4.875 18.007812 5.382812 17.984375 6.03125 C 17.953125 6.847656 17.941406 7.667969 17.941406 8.484375 C 17.941406 8.566406 18.050781 8.675781 18.140625 8.730469 C 19.359375 9.449219 20.265625 10.398438 20.792969 11.636719 C 22.25 15.078125 19.792969 18.964844 15.78125 19.535156 C 13.125 19.910156 10.949219 19.128906 9.257812 17.226562 C 9.175781 17.136719 9.03125 17.070312 8.902344 17.039062 C 8.070312 16.824219 7.226562 16.648438 6.402344 16.410156 C 6.078125 16.320312 5.777344 16.128906 5.496094 15.945312 C 4.953125 15.59375 4.636719 15.125 4.703125 14.492188 C 4.710938 14.433594 4.707031 14.378906 4.703125 14.320312 C 4.703125 14.300781 4.691406 14.285156 4.6875 14.277344 C 4.003906 14.144531 3.316406 14.035156 2.648438 13.867188 C 2.183594 13.75 1.730469 13.574219 1.292969 13.382812 C 0.695312 13.121094 0.242188 12.71875 0 12.140625 C 0 11.117188 0 10.097656 0 9.074219 Z M 14.578125 18.386719 C 17.46875 18.386719 19.832031 16.289062 19.820312 13.707031 C 19.8125 11.328125 17.761719 9.058594 14.550781 9.050781 C 11.710938 9.039062 9.390625 11.050781 9.375 13.695312 C 9.355469 16.4375 11.910156 18.394531 14.578125 18.386719 Z M 11.53125 7.128906 C 12.453125 7.027344 13.378906 6.949219 14.296875 6.8125 C 15.019531 6.703125 15.71875 6.503906 16.328125 6.109375 C 16.648438 5.894531 16.660156 5.71875 16.320312 5.53125 C 15.949219 5.332031 15.558594 5.144531 15.148438 5.03125 C 12.917969 4.425781 10.65625 4.414062 8.402344 4.902344 C 7.816406 5.03125 7.253906 5.285156 6.714844 5.539062 C 6.371094 5.699219 6.382812 5.914062 6.714844 6.109375 C 7 6.273438 7.304688 6.417969 7.617188 6.523438 C 8.878906 6.945312 10.191406 7.0625 11.53125 7.128906 Z M 5.039062 8.183594 C 3.894531 8.285156 2.789062 8.464844 1.78125 8.984375 C 1.71875 9.015625 1.660156 9.058594 1.601562 9.101562 C 1.332031 9.304688 1.324219 9.441406 1.613281 9.621094 C 1.855469 9.773438 2.121094 9.902344 2.390625 10.003906 C 3.421875 10.382812 4.511719 10.496094 5.613281 10.585938 C 6.207031 10.636719 6.671875 10.359375 7.238281 10.21875 C 5.550781 9.519531 5.207031 9.207031 5.039062 8.183594 Z M 5.039062 8.183594 "/>
<path style=" stroke:none;fill-rule:nonzero;fill:rgb(40%,40%,40%);fill-opacity:1;" d="M 12.523438 0 C 13.097656 0.0859375 13.675781 0.144531 14.242188 0.257812 C 16.582031 0.734375 18.605469 1.742188 20.289062 3.304688 C 20.320312 3.332031 20.351562 3.355469 20.410156 3.402344 C 20.917969 3.105469 21.433594 2.808594 22 2.480469 C 21.855469 3.695312 21.71875 4.855469 21.578125 6.066406 C 20.300781 5.695312 19.050781 5.335938 17.738281 4.957031 C 18.246094 4.664062 18.703125 4.394531 19.195312 4.105469 C 18 3.003906 16.605469 2.230469 15.023438 1.746094 C 13.433594 1.261719 11.800781 1.148438 10.113281 1.34375 C 10.042969 0.929688 9.980469 0.542969 9.910156 0.128906 C 10.195312 0.0859375 10.472656 0.0429688 10.746094 0 C 11.339844 0 11.933594 0 12.523438 0 Z M 12.523438 0 "/>
<g clip-path="url(#clip1)" clip-rule="nonzero">
<path style=" stroke:none;fill-rule:nonzero;fill:rgb(40%,40%,40%);fill-opacity:1;" d="M 1.878906 17.808594 C 1.472656 18.199219 1.078125 18.582031 0.652344 18.992188 C 0.511719 17.792969 0.378906 16.632812 0.238281 15.429688 C 1.574219 15.550781 2.871094 15.671875 4.152344 15.792969 C 3.742188 16.167969 3.339844 16.539062 2.90625 16.933594 C 3.957031 17.941406 5.128906 18.671875 6.460938 19.191406 C 7.800781 19.714844 9.203125 19.960938 10.667969 19.96875 C 10.667969 20.390625 10.667969 20.78125 10.667969 21.21875 C 7.257812 21.175781 4.355469 20.070312 1.878906 17.808594 Z M 1.878906 17.808594 "/>
</g>
<path style=" stroke:none;fill-rule:nonzero;fill:rgb(100%,100%,100%);fill-opacity:1;" d="M 14.578125 18.386719 C 11.910156 18.394531 9.355469 16.4375 9.375 13.695312 C 9.390625 11.050781 11.710938 9.039062 14.550781 9.050781 C 17.761719 9.058594 19.8125 11.328125 19.824219 13.707031 C 19.832031 16.289062 17.46875 18.390625 14.578125 18.386719 Z M 16.664062 11.417969 C 16.273438 11.34375 15.910156 11.257812 15.539062 11.214844 C 15.335938 11.1875 15.257812 11.128906 15.273438 10.945312 C 15.289062 10.789062 15.277344 10.628906 15.277344 10.476562 C 14.945312 10.476562 14.664062 10.476562 14.363281 10.476562 C 14.363281 10.5625 14.363281 10.628906 14.363281 10.695312 C 14.359375 11.203125 14.359375 11.203125 13.855469 11.390625 C 13.738281 11.4375 13.625 11.488281 13.519531 11.550781 C 12.546875 12.109375 12.519531 13.242188 13.464844 13.832031 C 13.683594 13.964844 13.929688 14.058594 14.167969 14.164062 C 14.492188 14.300781 14.84375 14.398438 15.144531 14.570312 C 15.292969 14.660156 15.457031 14.890625 15.429688 15.027344 C 15.402344 15.183594 15.1875 15.394531 15.019531 15.425781 C 14.679688 15.492188 14.308594 15.492188 13.957031 15.449219 C 13.632812 15.410156 13.320312 15.28125 12.992188 15.1875 C 12.902344 15.507812 12.816406 15.8125 12.710938 16.1875 C 13.246094 16.304688 13.761719 16.421875 14.320312 16.546875 C 14.320312 16.765625 14.320312 17.019531 14.320312 17.265625 C 14.648438 17.265625 14.9375 17.265625 15.25 17.265625 C 15.25 16.972656 15.25 16.707031 15.25 16.492188 C 15.597656 16.339844 15.925781 16.242188 16.199219 16.074219 C 17.136719 15.480469 17.148438 14.324219 16.222656 13.726562 C 15.945312 13.542969 15.609375 13.433594 15.296875 13.292969 C 15.011719 13.167969 14.707031 13.066406 14.445312 12.910156 C 14.097656 12.707031 14.15625 12.332031 14.546875 12.199219 C 14.71875 12.140625 14.921875 12.113281 15.105469 12.136719 C 15.527344 12.183594 15.945312 12.273438 16.386719 12.347656 C 16.46875 12.070312 16.558594 11.777344 16.664062 11.417969 Z M 16.664062 11.417969 "/>
<path style=" stroke:none;fill-rule:nonzero;fill:rgb(100%,100%,100%);fill-opacity:1;" d="M 11.53125 7.128906 C 10.191406 7.0625 8.875 6.945312 7.617188 6.523438 C 7.304688 6.421875 6.996094 6.273438 6.714844 6.109375 C 6.382812 5.914062 6.371094 5.699219 6.714844 5.539062 C 7.253906 5.285156 7.816406 5.03125 8.402344 4.902344 C 10.65625 4.414062 12.914062 4.425781 15.148438 5.03125 C 15.558594 5.144531 15.949219 5.332031 16.320312 5.53125 C 16.660156 5.71875 16.648438 5.894531 16.324219 6.109375 C 15.71875 6.503906 15.015625 6.703125 14.296875 6.8125 C 13.378906 6.949219 12.453125 7.027344 11.53125 7.128906 Z M 11.53125 7.128906 "/>
<path style=" stroke:none;fill-rule:nonzero;fill:rgb(100%,100%,100%);fill-opacity:1;" d="M 5.039062 8.183594 C 5.207031 9.207031 5.550781 9.519531 7.238281 10.21875 C 6.671875 10.359375 6.207031 10.636719 5.613281 10.585938 C 4.515625 10.496094 3.421875 10.382812 2.390625 10.003906 C 2.121094 9.902344 1.855469 9.773438 1.613281 9.621094 C 1.324219 9.441406 1.332031 9.304688 1.601562 9.101562 C 1.660156 9.058594 1.71875 9.015625 1.78125 8.984375 C 2.789062 8.464844 3.894531 8.285156 5.039062 8.183594 Z M 5.039062 8.183594 "/>
<path style=" stroke:none;fill-rule:nonzero;fill:rgb(40%,40%,40%);fill-opacity:1;" d="M 16.664062 11.417969 C 16.558594 11.777344 16.46875 12.070312 16.386719 12.34375 C 15.949219 12.269531 15.53125 12.183594 15.105469 12.132812 C 14.925781 12.113281 14.722656 12.140625 14.546875 12.199219 C 14.15625 12.332031 14.101562 12.703125 14.449219 12.910156 C 14.710938 13.066406 15.011719 13.167969 15.296875 13.292969 C 15.609375 13.433594 15.945312 13.542969 16.226562 13.722656 C 17.148438 14.324219 17.136719 15.476562 16.199219 16.070312 C 15.929688 16.242188 15.597656 16.339844 15.253906 16.488281 C 15.253906 16.703125 15.253906 16.96875 15.253906 17.261719 C 14.9375 17.261719 14.648438 17.261719 14.320312 17.261719 C 14.320312 17.019531 14.320312 16.765625 14.320312 16.546875 C 13.761719 16.417969 13.246094 16.304688 12.710938 16.183594 C 12.816406 15.808594 12.902344 15.503906 12.996094 15.1875 C 13.324219 15.277344 13.636719 15.410156 13.960938 15.449219 C 14.308594 15.492188 14.679688 15.492188 15.023438 15.425781 C 15.191406 15.390625 15.402344 15.179688 15.433594 15.023438 C 15.457031 14.886719 15.296875 14.65625 15.144531 14.570312 C 14.847656 14.398438 14.496094 14.300781 14.171875 14.160156 C 13.929688 14.058594 13.683594 13.964844 13.46875 13.828125 C 12.519531 13.238281 12.550781 12.109375 13.519531 11.546875 C 13.625 11.488281 13.742188 11.433594 13.859375 11.390625 C 14.359375 11.203125 14.359375 11.203125 14.367188 10.691406 C 14.367188 10.625 14.367188 10.558594 14.367188 10.472656 C 14.667969 10.472656 14.945312 10.472656 15.28125 10.472656 C 15.28125 10.625 15.292969 10.785156 15.277344 10.945312 C 15.261719 11.128906 15.335938 11.1875 15.539062 11.210938 C 15.910156 11.257812 16.273438 11.34375 16.664062 11.417969 Z M 16.664062 11.417969 "/>
</g>
</svg>
