<svg width="28" height="23" viewBox="0 0 28 23" fill="none" xmlns="http://www.w3.org/2000/svg">
<path fill-rule="evenodd" clip-rule="evenodd" d="M21.878 0.11771C21.6654 0.261839 21.5092 0.540576 21.5092 0.775996C21.5092 1.09706 21.6509 1.28042 22.2904 1.78652C23.8228 2.99946 25.2218 4.64316 26.2038 6.38443C26.3907 6.71595 26.5953 7.00829 26.6845 7.07133C27.196 7.43299 27.9365 7.05961 27.9365 6.44009C27.9365 6.14854 27.606 5.51578 26.9089 4.47297C26.0128 3.13244 24.9024 1.88236 23.7254 0.888997C22.8587 0.15747 22.6066 0 22.302 0C22.1289 0 21.998 0.0363593 21.878 0.11771ZM20.5074 2.97434C20.2875 3.09054 20.0888 3.41228 20.0876 3.65419C20.0862 3.94176 20.2289 4.15552 20.6677 4.52325C21.5333 5.24855 22.5004 6.37485 23.1177 7.37648C23.5805 8.12716 23.738 8.26585 24.1284 8.26585C24.5789 8.26585 24.9675 7.8412 24.9185 7.40264C24.8884 7.13311 24.4296 6.368 23.7782 5.50071C23.2371 4.78038 21.826 3.33506 21.3817 3.04602C21.0774 2.84811 20.7908 2.82462 20.5074 2.97434ZM19.0458 5.91139C18.7173 6.11024 18.5791 6.51919 18.7178 6.88158C18.7472 6.95838 18.9974 7.26008 19.2738 7.552C19.5502 7.84392 19.9369 8.30639 20.1332 8.57974C20.3294 8.85309 20.5687 9.12968 20.665 9.19445C21.0174 9.43159 21.5221 9.30436 21.7481 8.92147C21.901 8.66245 21.9138 8.40825 21.7858 8.17372C21.438 7.53615 20.1751 6.06614 19.8176 5.88251C19.6076 5.77469 19.2494 5.78808 19.0458 5.91139ZM10.7971 6.41221C9.12753 6.67007 7.60078 7.4558 6.38923 8.68055C5.36508 9.71588 4.71823 10.8545 4.34592 12.2772L4.20289 12.8237L3.85776 12.9682C2.11248 13.6987 0.962891 15.4254 0.962891 17.3164C0.962891 19.5645 2.54396 21.4869 4.76702 21.9417C5.12763 22.0155 6.07561 22.0248 13.238 22.0248C22.1222 22.0248 21.6361 22.0418 22.5288 21.7005C22.7562 21.6135 23.1474 21.406 23.398 21.2395C26.2221 19.3625 26.2221 15.2703 23.398 13.3934C22.5149 12.8065 21.6539 12.5765 20.5088 12.6215L19.797 12.6494L19.7002 12.2495C18.975 9.25571 16.3289 6.87399 13.2117 6.40933C12.5696 6.31359 11.4265 6.31495 10.7971 6.41221ZM12.7372 13.0902C13.8674 13.7529 14.8577 14.3558 14.9379 14.43C15.1284 14.6064 15.2084 14.8993 15.1374 15.1609C15.1078 15.2702 15.018 15.4204 14.9379 15.4948C14.8577 15.5691 13.8572 16.1787 12.7144 16.8495C10.7778 17.9861 10.6195 18.069 10.383 18.069C10.1091 18.069 9.93047 17.9709 9.73786 17.7149C9.63239 17.5747 9.62876 17.5 9.61306 15.1546C9.60415 13.8259 9.61169 12.6378 9.62976 12.5143C9.69182 12.0909 10.0835 11.7946 10.4981 11.8573C10.6078 11.8739 11.5128 12.3721 12.7372 13.0902ZM11.1834 14.9622V15.9683L11.3019 15.892C11.3671 15.8501 11.7346 15.6331 12.1185 15.4098C12.5024 15.1866 12.8165 14.9857 12.8165 14.9636C12.8165 14.9414 12.5024 14.7402 12.1185 14.5163C11.7346 14.2925 11.3671 14.0749 11.3019 14.0328L11.1834 13.9562V14.9622Z" fill="white"/>
</svg>
