<?xml version="1.0" encoding="UTF-8"?>
<svg xmlns="http://www.w3.org/2000/svg" xmlns:xlink="http://www.w3.org/1999/xlink" width="22px" height="22px" viewBox="0 0 22 22" version="1.1">
<g id="surface1">
<path style=" stroke:none;fill-rule:nonzero;fill:rgb(97.254902%,64.705882%,10.588235%);fill-opacity:1;" d="M 1.992188 5.914062 C 1.992188 5.601562 1.71875 5.328125 1.410156 5.328125 C 1.101562 5.328125 0.824219 5.570312 0.824219 5.914062 C 0.824219 6.222656 1.066406 6.496094 1.410156 6.496094 C 1.71875 6.460938 1.992188 6.222656 1.992188 5.914062 Z M 1.992188 5.914062 "/>
<path style=" stroke:none;fill-rule:nonzero;fill:rgb(97.254902%,64.705882%,10.588235%);fill-opacity:1;" d="M 7.425781 4.503906 C 7.746094 4.503906 8.007812 4.242188 8.007812 3.917969 C 8.007812 3.597656 7.746094 3.335938 7.425781 3.335938 C 7.101562 3.335938 6.839844 3.597656 6.839844 3.917969 C 6.839844 4.242188 7.101562 4.503906 7.425781 4.503906 Z M 7.425781 4.503906 "/>
<path style=" stroke:none;fill-rule:nonzero;fill:rgb(97.254902%,64.705882%,10.588235%);fill-opacity:1;" d="M 7.527344 6.085938 C 6.566406 9.28125 5.5 10.863281 4.367188 10.929688 C 3.78125 10.964844 3.265625 10.585938 2.820312 10.039062 L 4.054688 14.507812 L 11 14.507812 L 11 10.898438 C 9.382812 10.898438 8.113281 7.804688 7.527344 6.085938 Z M 7.527344 6.085938 "/>
<path style=" stroke:none;fill-rule:nonzero;fill:rgb(97.254902%,64.705882%,10.588235%);fill-opacity:1;" d="M 4.125 15.296875 L 4.125 18.148438 L 11 18.148438 L 11 15.296875 Z M 6.804688 17.496094 L 5.121094 17.496094 C 4.914062 17.496094 4.742188 17.324219 4.742188 17.117188 C 4.742188 16.914062 4.914062 16.742188 5.121094 16.742188 L 6.804688 16.742188 C 7.011719 16.742188 7.183594 16.914062 7.183594 17.117188 C 7.183594 17.324219 7.011719 17.496094 6.804688 17.496094 Z M 6.804688 17.496094 "/>
<path style=" stroke:none;fill-rule:nonzero;fill:rgb(11.372549%,13.72549%,18.039216%);fill-opacity:1;" d="M 4.367188 10.929688 C 5.535156 10.863281 6.566406 9.28125 7.527344 6.085938 C 8.113281 7.804688 9.351562 10.898438 11 10.898438 L 11 10.070312 C 9.726562 10.070312 8.492188 6.875 7.976562 5.191406 C 8.492188 4.984375 8.835938 4.46875 8.835938 3.917969 C 8.835938 3.164062 8.214844 2.542969 7.460938 2.542969 C 6.703125 2.542969 6.085938 3.164062 6.085938 3.917969 C 6.085938 4.570312 6.53125 5.121094 7.117188 5.257812 C 5.980469 9.179688 5.019531 10.070312 4.367188 10.105469 L 4.332031 10.105469 C 3.300781 10.105469 2.40625 8.042969 2.097656 7.117188 C 2.542969 6.875 2.851562 6.429688 2.851562 5.878906 C 2.851562 5.121094 2.234375 4.503906 1.476562 4.503906 C 0.722656 4.503906 0.101562 5.121094 0.101562 5.878906 C 0.101562 6.632812 0.6875 7.21875 1.445312 7.253906 L 3.574219 14.917969 L 3.574219 18.5625 C 3.574219 18.804688 3.710938 18.976562 3.917969 18.976562 L 11 18.976562 L 11 18.148438 L 4.125 18.148438 L 4.125 15.296875 L 11 15.296875 L 11 14.472656 L 4.023438 14.472656 L 2.785156 10.003906 C 3.265625 10.585938 3.78125 10.964844 4.367188 10.929688 Z M 6.875 3.917969 C 6.875 3.609375 7.117188 3.335938 7.460938 3.335938 C 7.769531 3.335938 8.042969 3.574219 8.042969 3.917969 C 8.042969 4.226562 7.769531 4.503906 7.460938 4.503906 C 7.117188 4.503906 6.875 4.261719 6.875 3.917969 Z M 1.410156 6.460938 C 1.101562 6.460938 0.824219 6.1875 0.824219 5.878906 C 0.824219 5.570312 1.066406 5.292969 1.410156 5.292969 C 1.71875 5.292969 1.992188 5.535156 1.992188 5.878906 C 1.992188 6.222656 1.71875 6.460938 1.410156 6.460938 Z M 1.410156 6.460938 "/>
<path style=" stroke:none;fill-rule:nonzero;fill:rgb(100%,79.607843%,1.568627%);fill-opacity:1;" d="M 20.007812 5.914062 C 20.007812 5.601562 20.28125 5.328125 20.589844 5.328125 C 20.898438 5.328125 21.175781 5.570312 21.175781 5.914062 C 21.175781 6.222656 20.933594 6.496094 20.589844 6.496094 C 20.28125 6.460938 20.007812 6.222656 20.007812 5.914062 Z M 20.007812 5.914062 "/>
<path style=" stroke:none;fill-rule:nonzero;fill:rgb(100%,79.607843%,1.568627%);fill-opacity:1;" d="M 14.574219 4.503906 C 14.898438 4.503906 15.160156 4.242188 15.160156 3.917969 C 15.160156 3.597656 14.898438 3.335938 14.574219 3.335938 C 14.253906 3.335938 13.992188 3.597656 13.992188 3.917969 C 13.992188 4.242188 14.253906 4.503906 14.574219 4.503906 Z M 14.574219 4.503906 "/>
<path style=" stroke:none;fill-rule:nonzero;fill:rgb(100%,79.607843%,1.568627%);fill-opacity:1;" d="M 14.472656 6.085938 C 15.433594 9.28125 16.5 10.863281 17.632812 10.929688 C 18.21875 10.964844 18.734375 10.585938 19.179688 10.039062 L 17.945312 14.507812 L 11 14.507812 L 11 10.898438 C 12.617188 10.898438 13.886719 7.804688 14.472656 6.085938 Z M 14.472656 6.085938 "/>
<path style=" stroke:none;fill-rule:nonzero;fill:rgb(100%,79.607843%,1.568627%);fill-opacity:1;" d="M 11 15.296875 L 11 18.148438 L 17.875 18.148438 L 17.875 15.296875 Z M 11 15.296875 "/>
<path style=" stroke:none;fill-rule:nonzero;fill:rgb(11.372549%,13.72549%,18.039216%);fill-opacity:1;" d="M 19.179688 10.039062 L 17.945312 14.507812 L 11 14.507812 L 11 15.332031 L 17.875 15.332031 L 17.875 18.183594 L 11 18.183594 L 11 19.007812 L 18.183594 19.007812 C 18.355469 19.007812 18.527344 18.835938 18.527344 18.597656 L 18.527344 14.953125 L 20.660156 7.289062 C 21.414062 7.253906 22 6.632812 22 5.914062 C 22 5.15625 21.382812 4.539062 20.625 4.539062 C 19.867188 4.539062 19.25 5.15625 19.25 5.914062 C 19.25 6.460938 19.558594 6.910156 20.007812 7.148438 C 19.664062 8.042969 18.769531 10.140625 17.773438 10.140625 L 17.738281 10.140625 C 17.085938 10.105469 16.121094 9.210938 14.988281 5.292969 C 15.570312 5.121094 16.019531 4.605469 16.019531 3.953125 C 16.019531 3.195312 15.398438 2.578125 14.644531 2.578125 C 13.886719 2.578125 13.269531 3.195312 13.269531 3.953125 C 13.269531 4.539062 13.613281 5.019531 14.128906 5.226562 C 13.507812 6.875 12.273438 10.070312 11 10.070312 L 11 10.898438 C 12.617188 10.898438 13.886719 7.804688 14.472656 6.085938 C 15.433594 9.28125 16.5 10.863281 17.632812 10.929688 C 18.21875 10.964844 18.734375 10.585938 19.179688 10.039062 Z M 14.574219 4.503906 C 14.265625 4.503906 13.992188 4.226562 13.992188 3.917969 C 13.992188 3.609375 14.265625 3.335938 14.574219 3.335938 C 14.882812 3.335938 15.160156 3.574219 15.160156 3.917969 C 15.125 4.261719 14.882812 4.503906 14.574219 4.503906 Z M 20.007812 5.914062 C 20.007812 5.601562 20.28125 5.328125 20.589844 5.328125 C 20.898438 5.328125 21.175781 5.570312 21.175781 5.914062 C 21.175781 6.222656 20.933594 6.496094 20.589844 6.496094 C 20.28125 6.460938 20.007812 6.222656 20.007812 5.914062 Z M 20.007812 5.914062 "/>
<path style=" stroke:none;fill-rule:nonzero;fill:rgb(97.254902%,64.705882%,10.588235%);fill-opacity:1;" d="M 6.804688 16.742188 L 5.121094 16.742188 C 4.914062 16.742188 4.742188 16.914062 4.742188 17.117188 C 4.742188 17.324219 4.914062 17.496094 5.121094 17.496094 L 6.804688 17.496094 C 7.011719 17.496094 7.183594 17.324219 7.183594 17.117188 C 7.183594 16.914062 7.011719 16.742188 6.804688 16.742188 Z M 6.804688 16.742188 "/>
<path style=" stroke:none;fill-rule:nonzero;fill:rgb(100%,100%,100%);fill-opacity:1;" d="M 17.875 11.6875 C 17.667969 11.617188 17.460938 11.757812 17.394531 11.929688 L 16.914062 13.507812 C 16.84375 13.714844 16.980469 13.921875 17.152344 13.992188 C 17.1875 13.992188 17.222656 13.992188 17.257812 13.992188 C 17.429688 13.992188 17.566406 13.886719 17.601562 13.714844 L 18.082031 12.132812 C 18.183594 11.960938 18.082031 11.757812 17.875 11.6875 Z M 17.875 11.6875 "/>
<path style=" stroke:none;fill-rule:nonzero;fill:rgb(100%,27.843137%,30.588235%);fill-opacity:1;" d="M 3.164062 21.65625 C 2.371094 21.65625 1.753906 21.039062 1.753906 20.246094 C 1.753906 19.457031 2.371094 18.835938 3.164062 18.835938 L 18.871094 18.835938 C 19.664062 18.835938 20.28125 19.457031 20.28125 20.246094 C 20.28125 21.039062 19.664062 21.65625 18.871094 21.65625 Z M 3.164062 21.65625 "/>
<path style=" stroke:none;fill-rule:nonzero;fill:rgb(11.372549%,13.72549%,18.039216%);fill-opacity:1;" d="M 18.835938 19.179688 C 19.421875 19.179688 19.902344 19.664062 19.902344 20.246094 C 19.902344 20.832031 19.421875 21.3125 18.835938 21.3125 L 3.164062 21.3125 C 2.578125 21.3125 2.097656 20.832031 2.097656 20.246094 C 2.097656 19.664062 2.578125 19.179688 3.164062 19.179688 Z M 18.835938 18.492188 L 3.164062 18.492188 C 2.199219 18.492188 1.410156 19.285156 1.410156 20.246094 C 1.410156 21.242188 2.199219 22 3.164062 22 L 18.871094 22 C 19.835938 22 20.625 21.210938 20.625 20.246094 C 20.589844 19.285156 19.800781 18.492188 18.835938 18.492188 Z M 18.835938 18.492188 "/>
<path style=" stroke:none;fill-rule:nonzero;fill:rgb(100%,100%,100%);fill-opacity:1;" d="M 5.363281 19.664062 L 3.679688 19.664062 C 3.472656 19.664062 3.300781 19.835938 3.300781 20.039062 C 3.300781 20.246094 3.472656 20.417969 3.679688 20.417969 L 5.363281 20.417969 C 5.570312 20.417969 5.742188 20.246094 5.742188 20.039062 C 5.742188 19.835938 5.570312 19.664062 5.363281 19.664062 Z M 5.363281 19.664062 "/>
<path style=" stroke:none;fill-rule:nonzero;fill:rgb(100%,79.607843%,1.568627%);fill-opacity:1;" d="M 17.429688 8.386719 C 17.359375 8.386719 17.324219 8.351562 17.289062 8.285156 C 17.152344 7.804688 17.015625 7.699219 16.535156 7.527344 C 16.464844 7.492188 16.429688 7.460938 16.429688 7.390625 C 16.429688 7.320312 16.464844 7.289062 16.535156 7.253906 C 17.015625 7.117188 17.117188 6.976562 17.289062 6.496094 C 17.324219 6.429688 17.359375 6.394531 17.429688 6.394531 C 17.496094 6.394531 17.53125 6.429688 17.566406 6.496094 C 17.703125 6.976562 17.839844 7.082031 18.320312 7.253906 C 18.390625 7.289062 18.425781 7.320312 18.425781 7.390625 C 18.425781 7.460938 18.390625 7.492188 18.320312 7.527344 C 17.839844 7.664062 17.738281 7.804688 17.566406 8.285156 C 17.566406 8.351562 17.496094 8.386719 17.429688 8.386719 Z M 17.429688 8.386719 "/>
<path style=" stroke:none;fill-rule:nonzero;fill:rgb(100%,79.607843%,1.568627%);fill-opacity:1;" d="M 20.589844 14.367188 C 20.554688 14.367188 20.523438 14.335938 20.488281 14.300781 C 20.382812 13.992188 20.28125 13.886719 19.972656 13.785156 C 19.9375 13.785156 19.902344 13.75 19.902344 13.679688 C 19.902344 13.648438 19.9375 13.613281 19.972656 13.578125 C 20.28125 13.476562 20.382812 13.371094 20.488281 13.0625 C 20.488281 13.027344 20.523438 12.992188 20.589844 12.992188 C 20.625 12.992188 20.660156 13.027344 20.695312 13.0625 C 20.796875 13.371094 20.898438 13.476562 21.210938 13.578125 C 21.242188 13.578125 21.277344 13.613281 21.277344 13.679688 C 21.277344 13.714844 21.242188 13.75 21.210938 13.785156 C 20.898438 13.886719 20.796875 13.992188 20.695312 14.300781 C 20.660156 14.367188 20.625 14.367188 20.589844 14.367188 Z M 20.589844 14.367188 "/>
</g>
</svg>
