<svg width="100" height="30" viewBox="0 0 100 30" fill="none" xmlns="http://www.w3.org/2000/svg">
<rect width="100" height="30" rx="3" fill="#0868EA"/>
<path fill-rule="evenodd" clip-rule="evenodd" d="M28.9375 15.0449C28.9375 10.9377 25.6072 7.60742 21.5 7.60742C17.3928 7.60742 14.0625 10.9377 14.0625 15.0449C14.0625 18.757 16.7818 21.834 20.3379 22.3924V17.1955H18.449V15.0449H20.3379V13.4063C20.3379 11.5427 21.4485 10.5124 23.1472 10.5124C23.961 10.5124 24.8123 10.6578 24.8123 10.6578V12.4883H23.874C22.9506 12.4883 22.6618 13.0614 22.6618 13.6504V15.0449H24.7244L24.395 17.1955H22.6621V22.3931C26.2182 21.835 28.9375 18.758 28.9375 15.0449Z" fill="white"/>
<path d="M35.602 14.614C35.602 13.662 35.8167 12.808 36.246 12.052C36.6753 11.2867 37.2587 10.6893 37.996 10.26C38.7427 9.83067 39.5687 9.616 40.474 9.616C41.538 9.616 42.4667 9.87267 43.26 10.386C44.0533 10.8993 44.632 11.6273 44.996 12.57H43.47C43.1993 11.982 42.8073 11.5293 42.294 11.212C41.79 10.8947 41.1833 10.736 40.474 10.736C39.7927 10.736 39.1813 10.8947 38.64 11.212C38.0987 11.5293 37.674 11.982 37.366 12.57C37.058 13.1487 36.904 13.83 36.904 14.614C36.904 15.3887 37.058 16.07 37.366 16.658C37.674 17.2367 38.0987 17.6847 38.64 18.002C39.1813 18.3193 39.7927 18.478 40.474 18.478C41.1833 18.478 41.79 18.324 42.294 18.016C42.8073 17.6987 43.1993 17.246 43.47 16.658H44.996C44.632 17.5913 44.0533 18.3147 43.26 18.828C42.4667 19.332 41.538 19.584 40.474 19.584C39.5687 19.584 38.7427 19.374 37.996 18.954C37.2587 18.5247 36.6753 17.932 36.246 17.176C35.8167 16.42 35.602 15.566 35.602 14.614ZM50.7005 11.688C51.2791 11.688 51.8018 11.814 52.2685 12.066C52.7351 12.3087 53.0991 12.6773 53.3605 13.172C53.6311 13.6667 53.7665 14.2687 53.7665 14.978V19.5H52.5065V15.16C52.5065 14.3947 52.3151 13.8113 51.9325 13.41C51.5498 12.9993 51.0271 12.794 50.3645 12.794C49.6925 12.794 49.1558 13.004 48.7545 13.424C48.3625 13.844 48.1665 14.4553 48.1665 15.258V19.5H46.8925V9.14H48.1665V12.92C48.4185 12.528 48.7638 12.2247 49.2025 12.01C49.6505 11.7953 50.1498 11.688 50.7005 11.688ZM56.5055 10.582C56.2629 10.582 56.0575 10.498 55.8895 10.33C55.7215 10.162 55.6375 9.95667 55.6375 9.714C55.6375 9.47133 55.7215 9.266 55.8895 9.098C56.0575 8.93 56.2629 8.846 56.5055 8.846C56.7389 8.846 56.9349 8.93 57.0935 9.098C57.2615 9.266 57.3455 9.47133 57.3455 9.714C57.3455 9.95667 57.2615 10.162 57.0935 10.33C56.9349 10.498 56.7389 10.582 56.5055 10.582ZM57.1215 11.828V19.5H55.8475V11.828H57.1215ZM58.8168 15.636C58.8168 14.852 58.9755 14.166 59.2928 13.578C59.6102 12.9807 60.0442 12.5187 60.5948 12.192C61.1548 11.8653 61.7755 11.702 62.4568 11.702C63.1288 11.702 63.7122 11.8467 64.2068 12.136C64.7015 12.4253 65.0702 12.7893 65.3128 13.228V11.828H66.6008V19.5H65.3128V18.072C65.0608 18.52 64.6828 18.8933 64.1788 19.192C63.6842 19.4813 63.1055 19.626 62.4428 19.626C61.7615 19.626 61.1455 19.458 60.5948 19.122C60.0442 18.786 59.6102 18.3147 59.2928 17.708C58.9755 17.1013 58.8168 16.4107 58.8168 15.636ZM65.3128 15.65C65.3128 15.0713 65.1962 14.5673 64.9628 14.138C64.7295 13.7087 64.4122 13.382 64.0108 13.158C63.6188 12.9247 63.1848 12.808 62.7088 12.808C62.2328 12.808 61.7988 12.92 61.4068 13.144C61.0148 13.368 60.7022 13.6947 60.4688 14.124C60.2355 14.5533 60.1188 15.0573 60.1188 15.636C60.1188 16.224 60.2355 16.7373 60.4688 17.176C60.7022 17.6053 61.0148 17.9367 61.4068 18.17C61.7988 18.394 62.2328 18.506 62.7088 18.506C63.1848 18.506 63.6188 18.394 64.0108 18.17C64.4122 17.9367 64.7295 17.6053 64.9628 17.176C65.1962 16.7373 65.3128 16.2287 65.3128 15.65ZM75.2022 19.626C74.6142 19.626 74.0869 19.528 73.6202 19.332C73.1535 19.1267 72.7849 18.8467 72.5142 18.492C72.2435 18.128 72.0942 17.7127 72.0662 17.246H73.3822C73.4195 17.6287 73.5969 17.9413 73.9142 18.184C74.2409 18.4267 74.6655 18.548 75.1882 18.548C75.6735 18.548 76.0562 18.4407 76.3362 18.226C76.6162 18.0113 76.7562 17.7407 76.7562 17.414C76.7562 17.078 76.6069 16.8307 76.3082 16.672C76.0095 16.504 75.5475 16.3407 74.9222 16.182C74.3529 16.0327 73.8862 15.8833 73.5222 15.734C73.1675 15.5753 72.8595 15.3467 72.5982 15.048C72.3462 14.74 72.2202 14.3387 72.2202 13.844C72.2202 13.452 72.3369 13.0927 72.5702 12.766C72.8035 12.4393 73.1349 12.1827 73.5642 11.996C73.9935 11.8 74.4835 11.702 75.0342 11.702C75.8835 11.702 76.5695 11.9167 77.0922 12.346C77.6149 12.7753 77.8949 13.3633 77.9322 14.11H76.6582C76.6302 13.7087 76.4669 13.3867 76.1682 13.144C75.8789 12.9013 75.4869 12.78 74.9922 12.78C74.5349 12.78 74.1709 12.878 73.9002 13.074C73.6295 13.27 73.4942 13.5267 73.4942 13.844C73.4942 14.096 73.5735 14.306 73.7322 14.474C73.9002 14.6327 74.1055 14.7633 74.3482 14.866C74.6002 14.9593 74.9455 15.0667 75.3842 15.188C75.9349 15.3373 76.3829 15.4867 76.7282 15.636C77.0735 15.776 77.3675 15.9907 77.6102 16.28C77.8622 16.5693 77.9929 16.9473 78.0022 17.414C78.0022 17.834 77.8855 18.212 77.6522 18.548C77.4189 18.884 77.0875 19.15 76.6582 19.346C76.2382 19.5327 75.7529 19.626 75.2022 19.626ZM84.4067 9.28C84.4067 9.63467 84.2993 9.91 84.0847 10.106C83.87 10.2927 83.5993 10.4233 83.2727 10.498L83.2027 11.24H82.4467L82.3487 10.05C82.6847 9.994 82.9507 9.91467 83.1467 9.812C83.352 9.7 83.4547 9.53667 83.4547 9.322C83.4547 9.098 83.366 8.94867 83.1887 8.874C83.0207 8.79933 82.806 8.762 82.5447 8.762C82.4233 8.762 82.2973 8.76667 82.1667 8.776C82.0453 8.78533 81.9473 8.79933 81.8727 8.818V8.09C81.9567 8.062 82.0593 8.04333 82.1807 8.034C82.3113 8.01533 82.4653 8.006 82.6427 8.006C83.2027 8.006 83.6367 8.10867 83.9447 8.314C84.2527 8.51933 84.4067 8.84133 84.4067 9.28ZM82.8107 11.856C83.4547 11.856 84.0053 11.996 84.4627 12.276C84.9293 12.556 85.284 12.9527 85.5267 13.466C85.7787 13.97 85.9047 14.5627 85.9047 15.244V15.986H80.7667C80.7853 16.8353 81 17.484 81.4107 17.932C81.8307 18.3707 82.414 18.59 83.1607 18.59C83.6367 18.59 84.0567 18.548 84.4207 18.464C84.794 18.3707 85.1767 18.24 85.5687 18.072V19.15C85.186 19.318 84.808 19.4393 84.4347 19.514C84.0613 19.598 83.618 19.64 83.1047 19.64C82.3953 19.64 81.7653 19.4953 81.2147 19.206C80.6733 18.9167 80.2487 18.4873 79.9407 17.918C79.642 17.3393 79.4927 16.6347 79.4927 15.804C79.4927 14.9827 79.628 14.278 79.8987 13.69C80.1787 13.102 80.566 12.6493 81.0607 12.332C81.5647 12.0147 82.148 11.856 82.8107 11.856ZM82.7967 12.864C82.2087 12.864 81.742 13.0553 81.3967 13.438C81.0607 13.8113 80.86 14.334 80.7947 15.006H84.6167C84.6167 14.5767 84.5513 14.2033 84.4207 13.886C84.29 13.5687 84.0893 13.3213 83.8187 13.144C83.5573 12.9573 83.2167 12.864 82.7967 12.864Z" fill="white"/>
</svg>
