<svg width="24" height="27" viewBox="0 0 24 27" fill="none" xmlns="http://www.w3.org/2000/svg">
<path fill-rule="evenodd" clip-rule="evenodd" d="M19.2514 0.157161C18.6628 0.44156 18.6353 0.736107 18.6353 6.75092V12.5098L19.1785 13.1919C20.1726 14.44 20.8708 15.0719 21.2562 15.0719C21.8037 15.0719 22.0372 14.8986 23.0602 13.7324L24 12.6609V6.69144V0.722014L23.5656 0.357142C23.1467 0.00523668 23.0677 -0.00744718 21.3421 0.00185429C20.3581 0.00706875 19.4173 0.0769707 19.2514 0.157161ZM22.4471 2.17671V2.8109H21.3176H20.1882V2.17671V1.54252H21.3176H22.4471V2.17671ZM0.292659 2.33666C0.00197647 2.70548 0 2.78497 0 14.3926V26.0774L0.346588 26.4232L0.693035 26.7692H10.5045C17.3946 26.7692 20.4185 26.7226 20.6602 26.6128C21.2825 26.3297 21.3176 26.0374 21.3176 21.1421V16.5146L20.7176 16.349C20.3876 16.258 20.0383 16.1501 19.9412 16.1092C19.8021 16.0507 19.7647 17.0078 19.7647 20.627V25.219H10.6588H1.55294V14.2968V3.37462H9.38824H17.2235V2.66997V1.96531H8.90442H0.585177L0.292659 2.33666ZM22.4471 7.1093V9.85747H21.3176H20.1882V7.1093V4.36114H21.3176H22.4471V7.1093ZM9.93939 7.12861C9.41788 8.35359 9.30748 8.44815 8.39915 8.44815C7.51186 8.44815 6.91765 8.6401 6.91765 8.92661C6.91765 9.03865 7.30814 9.47766 7.7856 9.902L8.65341 10.6739L8.42089 11.5983C7.98184 13.3427 8.17271 13.5128 9.61101 12.6597L10.5882 12.0802L11.5655 12.6597C12.9765 13.4966 13.2117 13.3082 12.7765 11.6896C12.6618 11.2633 12.5672 10.8393 12.5664 10.7476C12.5654 10.6558 12.9459 10.2818 13.4118 9.91652C14.007 9.44975 14.2588 9.15619 14.2588 8.92929C14.2588 8.59021 13.9679 8.50509 12.4941 8.41292C11.9382 8.37825 11.9212 8.36078 11.4028 7.28547C10.719 5.86685 10.4872 5.84191 9.93939 7.12861ZM22.4413 11.7953C22.4376 12.0422 22.2366 12.4024 21.8873 12.7879L21.3391 13.3929L20.7672 12.7879C20.3888 12.3876 20.1942 12.0516 20.1918 11.7953L20.1882 11.4077H21.3176H22.4471L22.4413 11.7953ZM5.11059 16.0866C5.01741 16.1796 4.94118 16.4206 4.94118 16.6222C4.94118 16.8237 5.01741 17.0647 5.11059 17.1577C5.23652 17.2834 6.67045 17.3268 10.69 17.3268H16.1002L16.261 16.9745C16.3813 16.711 16.3813 16.5334 16.261 16.2698L16.1002 15.9175H10.69C6.67045 15.9175 5.23652 15.9609 5.11059 16.0866ZM5.11228 20.5947C4.88188 20.8247 4.89515 21.4822 5.13416 21.6802C5.27238 21.7946 6.86273 21.8296 10.7425 21.8031L16.1579 21.7662L16.2971 21.3711C16.3916 21.1029 16.3878 20.8994 16.2851 20.7369C16.1479 20.5199 15.6335 20.4944 10.7087 20.4609C6.60678 20.4331 5.2416 20.4657 5.11228 20.5947Z" fill="white"/>
</svg>
