<?xml version="1.0" encoding="UTF-8"?>
<svg xmlns="http://www.w3.org/2000/svg" xmlns:xlink="http://www.w3.org/1999/xlink" width="22px" height="22px" viewBox="0 0 22 22" version="1.1">
<defs>
<clipPath id="clip1">
  <path d="M 0 14.667969 L 4 14.667969 L 4 20 L 0 20 Z M 0 14.667969 "/>
</clipPath>
<clipPath id="clip2">
  <path d="M 0 7.332031 L 4 7.332031 L 4 20.472656 L 0 20.472656 Z M 0 7.332031 "/>
</clipPath>
<clipPath id="clip3">
  <path d="M 3 8 L 22 8 L 22 20.472656 L 3 20.472656 Z M 3 8 "/>
</clipPath>
</defs>
<g id="surface1">
<path style=" stroke:none;fill-rule:nonzero;fill:rgb(84.313725%,6.666667%,10.588235%);fill-opacity:1;" d="M 2.226562 19.945312 L 1.660156 19.945312 C 0.976562 19.945312 0.421875 19.25 0.421875 18.394531 L 0.421875 9.667969 C 0.421875 8.816406 0.976562 8.121094 1.660156 8.121094 L 2.226562 8.121094 C 2.90625 8.121094 3.464844 8.816406 3.464844 9.667969 L 3.464844 18.394531 C 3.46875 19.25 2.910156 19.945312 2.226562 19.945312 Z M 2.226562 19.945312 "/>
<g clip-path="url(#clip1)" clip-rule="nonzero">
<path style=" stroke:none;fill-rule:nonzero;fill:rgb(100%,0%,2.352941%);fill-opacity:1;" d="M 1.941406 16.78125 C 1.105469 16.78125 0.421875 15.925781 0.421875 14.875 L 0.421875 18.042969 C 0.421875 19.085938 1.105469 19.945312 1.941406 19.945312 C 2.78125 19.945312 3.464844 19.085938 3.464844 18.042969 L 3.464844 14.875 C 3.46875 15.925781 2.78125 16.78125 1.941406 16.78125 Z M 1.941406 16.78125 "/>
</g>
<g clip-path="url(#clip2)" clip-rule="nonzero">
<path style=" stroke:none;fill-rule:nonzero;fill:rgb(13.72549%,13.72549%,14.901961%);fill-opacity:1;" d="M 1.941406 20.472656 C 0.871094 20.472656 0 19.378906 0 18.042969 L 0 14.015625 C 0 13.726562 0.1875 13.492188 0.421875 13.492188 C 0.652344 13.492188 0.839844 13.726562 0.839844 14.015625 L 0.839844 18.042969 C 0.839844 18.800781 1.335938 19.421875 1.941406 19.421875 C 2.550781 19.421875 3.046875 18.800781 3.046875 18.042969 L 3.046875 10.019531 C 3.046875 9.261719 2.550781 8.644531 1.941406 8.644531 C 1.335938 8.644531 0.839844 9.261719 0.839844 10.019531 L 0.839844 11.898438 C 0.839844 12.1875 0.652344 12.421875 0.421875 12.421875 C 0.1875 12.421875 0 12.1875 0 11.898438 L 0 10.019531 C 0 8.683594 0.871094 7.597656 1.941406 7.597656 C 3.015625 7.597656 3.886719 8.683594 3.886719 10.019531 L 3.886719 18.042969 C 3.886719 19.378906 3.015625 20.472656 1.941406 20.472656 Z M 1.941406 20.472656 "/>
</g>
<path style=" stroke:none;fill-rule:nonzero;fill:rgb(98.039216%,87.843137%,71.764706%);fill-opacity:1;" d="M 21.019531 9.296875 C 20.398438 8.632812 19.46875 8.660156 18.878906 9.375 L 15.296875 13.683594 C 15.515625 13.382812 15.644531 12.972656 15.621094 12.53125 C 15.582031 11.726562 15.054688 11.089844 14.40625 11.0625 C 11.707031 10.933594 9.859375 10.011719 7.691406 9.472656 C 5.234375 8.855469 3.464844 11.066406 3.464844 11.066406 L 3.660156 18.28125 L 5.429688 18.28125 C 5.429688 18.28125 9.363281 20.03125 13.734375 19.421875 C 16.925781 18.972656 19.902344 14.402344 21.285156 11.960938 C 21.757812 11.121094 21.644531 9.96875 21.019531 9.296875 Z M 21.019531 9.296875 "/>
<path style=" stroke:none;fill-rule:nonzero;fill:rgb(93.72549%,69.411765%,61.960784%);fill-opacity:1;" d="M 5.039062 9.820312 C 4.0625 10.328125 3.46875 11.066406 3.46875 11.066406 L 3.664062 18.28125 L 5.039062 18.28125 Z M 5.039062 9.820312 "/>
<g clip-path="url(#clip3)" clip-rule="nonzero">
<path style=" stroke:none;fill-rule:nonzero;fill:rgb(13.72549%,13.72549%,14.901961%);fill-opacity:1;" d="M 11.808594 20.082031 C 8.511719 20.082031 5.839844 19.007812 5.363281 18.804688 L 3.257812 18.804688 L 3.042969 10.855469 L 3.167969 10.699219 C 3.25 10.597656 5.128906 8.292969 7.777344 8.957031 C 8.460938 9.128906 9.125 9.339844 9.761719 9.542969 C 11.160156 9.992188 12.609375 10.449219 14.421875 10.535156 C 15.1875 10.574219 15.816406 11.230469 15.992188 12.121094 L 18.585938 9 C 19.339844 8.09375 20.503906 8.050781 21.292969 8.898438 C 22.085938 9.75 22.230469 11.195312 21.625 12.265625 C 20.121094 14.933594 17.097656 19.480469 13.78125 19.945312 C 13.109375 20.039062 12.445312 20.082031 11.808594 20.082031 Z M 4.066406 17.753906 L 5.503906 17.753906 L 5.574219 17.785156 C 5.613281 17.804688 9.46875 19.492188 13.6875 18.902344 C 16.789062 18.46875 19.792969 13.691406 20.941406 11.660156 C 21.292969 11.035156 21.210938 10.191406 20.746094 9.695312 C 20.285156 9.199219 19.605469 9.230469 19.167969 9.753906 L 15.644531 14 C 15.367188 14.398438 14.96875 14.671875 14.507812 14.722656 C 13.460938 14.832031 11.96875 14.925781 10.792969 14.703125 C 10.554688 14.660156 10.332031 14.605469 10.136719 14.542969 C 9.914062 14.464844 9.78125 14.175781 9.839844 13.898438 C 9.902344 13.617188 10.132812 13.449219 10.355469 13.527344 C 10.519531 13.582031 10.707031 13.628906 10.917969 13.667969 C 12.011719 13.871094 13.433594 13.785156 14.4375 13.671875 C 14.601562 13.660156 14.75 13.582031 14.875 13.46875 C 14.875 13.464844 14.878906 13.457031 14.882812 13.457031 L 15.015625 13.296875 C 15.144531 13.101562 15.214844 12.84375 15.203125 12.566406 C 15.175781 12.027344 14.824219 11.605469 14.390625 11.585938 C 12.484375 11.496094 10.996094 11.019531 9.554688 10.5625 C 8.894531 10.351562 8.273438 10.148438 7.609375 9.984375 C 5.769531 9.523438 4.320312 10.84375 3.890625 11.296875 Z M 4.066406 17.753906 "/>
</g>
<path style=" stroke:none;fill-rule:nonzero;fill:rgb(88.627451%,17.647059%,32.941176%);fill-opacity:1;" d="M 12.53125 0.449219 C 11.929688 0.449219 11.371094 0.792969 11 1.355469 C 10.625 0.792969 10.066406 0.449219 9.46875 0.449219 C 8.375 0.449219 7.484375 1.5625 7.484375 2.925781 C 7.484375 3.207031 7.523438 3.484375 7.597656 3.746094 C 7.679688 4.039062 7.804688 4.304688 7.964844 4.539062 C 8.03125 4.636719 8.101562 4.726562 8.175781 4.808594 C 8.253906 4.902344 8.863281 5.652344 9.472656 6.40625 C 9.796875 6.808594 10.125 7.210938 10.375 7.511719 C 10.871094 8.121094 10.871094 8.121094 11.003906 8.121094 C 11.132812 8.121094 11.132812 8.121094 11.644531 7.492188 C 11.902344 7.179688 12.242188 6.761719 12.578125 6.34375 C 13.257812 5.507812 13.929688 4.679688 13.929688 4.679688 C 13.933594 4.675781 13.9375 4.667969 13.945312 4.664062 C 14.144531 4.40625 14.300781 4.101562 14.394531 3.765625 C 14.472656 3.5 14.511719 3.21875 14.511719 2.925781 C 14.511719 1.5625 13.621094 0.449219 12.53125 0.449219 Z M 12.53125 0.449219 "/>
<path style=" stroke:none;fill-rule:nonzero;fill:rgb(100%,19.215686%,32.941176%);fill-opacity:1;" d="M 7.777344 4.21875 C 8.128906 3.507812 8.753906 3.03125 9.46875 3.03125 C 10.066406 3.03125 10.625 3.371094 11 3.933594 C 11.371094 3.371094 11.929688 3.03125 12.53125 3.03125 C 13.246094 3.03125 13.871094 3.507812 14.21875 4.21875 C 14.289062 4.078125 14.347656 3.925781 14.394531 3.765625 C 14.472656 3.5 14.511719 3.21875 14.511719 2.925781 C 14.511719 1.5625 13.625 0.449219 12.53125 0.449219 C 11.929688 0.449219 11.371094 0.792969 11 1.355469 C 10.625 0.792969 10.066406 0.449219 9.46875 0.449219 C 8.375 0.449219 7.484375 1.5625 7.484375 2.925781 C 7.484375 3.207031 7.523438 3.484375 7.597656 3.746094 C 7.644531 3.914062 7.707031 4.074219 7.777344 4.21875 Z M 7.777344 4.21875 "/>
<path style=" stroke:none;fill-rule:nonzero;fill:rgb(13.72549%,13.72549%,14.901961%);fill-opacity:1;" d="M 11.003906 8.570312 C 10.726562 8.570312 10.667969 8.503906 10.121094 7.835938 C 9.875 7.535156 9.546875 7.128906 9.21875 6.726562 C 8.628906 6 8.039062 5.269531 7.933594 5.136719 C 7.847656 5.046875 7.765625 4.945312 7.691406 4.835938 C 7.5 4.558594 7.355469 4.246094 7.257812 3.902344 C 7.167969 3.589844 7.125 3.261719 7.125 2.929688 C 7.125 1.3125 8.175781 0 9.46875 0 C 10.035156 0 10.578125 0.253906 11 0.714844 C 11.421875 0.253906 11.960938 0 12.53125 0 C 13.820312 0 14.871094 1.3125 14.871094 2.925781 C 14.871094 3.269531 14.824219 3.605469 14.734375 3.917969 C 14.621094 4.3125 14.4375 4.675781 14.207031 4.96875 C 14.199219 4.980469 14.191406 4.992188 14.183594 5.003906 C 14.183594 5.003906 13.507812 5.835938 12.832031 6.667969 C 12.492188 7.085938 12.15625 7.503906 11.898438 7.816406 C 11.335938 8.5 11.28125 8.570312 11.003906 8.570312 Z M 9.46875 0.902344 C 8.574219 0.902344 7.84375 1.808594 7.84375 2.925781 C 7.84375 3.160156 7.875 3.386719 7.9375 3.601562 C 8.003906 3.839844 8.105469 4.058594 8.238281 4.25 C 8.292969 4.324219 8.351562 4.402344 8.414062 4.464844 L 8.433594 4.488281 C 8.507812 4.582031 9.117188 5.332031 9.726562 6.082031 C 10.054688 6.488281 10.378906 6.890625 10.625 7.191406 C 10.792969 7.394531 10.929688 7.558594 11.003906 7.640625 C 11.082031 7.554688 11.21875 7.386719 11.394531 7.171875 C 11.652344 6.855469 11.988281 6.441406 12.328125 6.023438 C 13.003906 5.191406 13.679688 4.355469 13.679688 4.355469 L 13.6875 4.34375 C 13.851562 4.140625 13.976562 3.882812 14.054688 3.613281 C 14.121094 3.390625 14.152344 3.160156 14.152344 2.925781 C 14.152344 1.808594 13.425781 0.898438 12.53125 0.898438 C 12.042969 0.898438 11.585938 1.164062 11.277344 1.636719 L 11 2.0625 L 10.71875 1.636719 C 10.410156 1.167969 9.953125 0.902344 9.46875 0.902344 Z M 9.46875 0.902344 "/>
</g>
</svg>
