<?xml version="1.0" encoding="UTF-8"?>
<svg xmlns="http://www.w3.org/2000/svg" xmlns:xlink="http://www.w3.org/1999/xlink" width="22px" height="22px" viewBox="0 0 22 22" version="1.1">
<defs>
<clipPath id="clip1">
  <path d="M 0 0 L 22 0 L 22 20.964844 L 0 20.964844 Z M 0 0 "/>
</clipPath>
<clipPath id="clip2">
  <path d="M 4 16 L 9 16 L 9 20.964844 L 4 20.964844 Z M 4 16 "/>
</clipPath>
</defs>
<g id="surface1">
<g clip-path="url(#clip1)" clip-rule="nonzero">
<path style=" stroke:none;fill-rule:nonzero;fill:rgb(0%,0%,0%);fill-opacity:1;" d="M 7.132812 20.964844 C 6.890625 20.964844 6.648438 20.964844 6.402344 20.964844 C 6.355469 20.957031 6.308594 20.941406 6.257812 20.933594 C 5.78125 20.851562 5.289062 20.8125 4.828125 20.679688 C 3.039062 20.152344 1.6875 19.054688 0.804688 17.417969 C 0 15.933594 -0.195312 14.347656 0.195312 12.699219 C 0.535156 11.269531 1.28125 10.078125 2.402344 9.132812 C 3.300781 8.375 4.332031 7.878906 5.492188 7.683594 C 5.953125 7.605469 6.421875 7.578125 6.878906 7.53125 C 6.675781 7.261719 6.445312 6.996094 6.253906 6.707031 C 5.332031 5.324219 4.96875 3.777344 4.945312 2.132812 C 4.941406 1.78125 5.171875 1.539062 5.527344 1.523438 C 5.851562 1.511719 6.171875 1.519531 6.492188 1.519531 C 6.8125 1.519531 7.132812 1.519531 7.476562 1.519531 C 7.464844 1.25 7.449219 1.011719 7.441406 0.769531 C 7.421875 0.265625 7.671875 0 8.167969 0 C 11.707031 0 15.242188 0 18.777344 0 C 19.265625 0 19.515625 0.265625 19.5 0.753906 C 19.492188 1 19.480469 1.25 19.464844 1.519531 C 20.058594 1.519531 20.621094 1.535156 21.183594 1.515625 C 21.546875 1.5 21.828125 1.597656 22 1.929688 C 22 2.1875 22 2.445312 22 2.703125 C 21.984375 2.792969 21.964844 2.882812 21.957031 2.976562 C 21.804688 4.5 21.34375 5.914062 20.382812 7.128906 C 19.707031 7.976562 18.867188 8.585938 17.785156 8.792969 C 17.613281 8.828125 17.503906 8.890625 17.417969 9.039062 C 16.941406 9.839844 16.371094 10.5625 15.609375 11.113281 C 15.558594 11.152344 15.527344 11.246094 15.523438 11.3125 C 15.515625 11.585938 15.523438 11.855469 15.519531 12.128906 C 15.515625 12.523438 15.308594 12.730469 14.910156 12.742188 C 14.804688 12.746094 14.699219 12.742188 14.585938 12.742188 C 14.585938 12.992188 14.585938 13.214844 14.585938 13.453125 C 14.683594 13.453125 14.761719 13.453125 14.839844 13.453125 C 15.546875 13.453125 15.71875 13.625 15.71875 14.34375 C 15.71875 14.480469 15.71875 14.621094 15.71875 14.773438 C 15.972656 14.773438 16.183594 14.769531 16.398438 14.773438 C 16.703125 14.78125 16.933594 14.96875 16.949219 15.265625 C 16.96875 15.644531 16.964844 16.023438 16.953125 16.402344 C 16.949219 16.585938 16.847656 16.714844 16.644531 16.722656 C 16.453125 16.734375 16.324219 16.605469 16.320312 16.382812 C 16.3125 16.070312 16.316406 15.753906 16.316406 15.433594 C 15.292969 15.433594 14.296875 15.433594 13.292969 15.433594 C 13.269531 15.570312 13.246094 15.691406 13.21875 15.839844 C 13.328125 15.839844 13.40625 15.839844 13.484375 15.839844 C 14.058594 15.839844 14.628906 15.835938 15.203125 15.839844 C 15.640625 15.839844 15.800781 16 15.804688 16.429688 C 15.804688 16.816406 15.804688 17.203125 15.804688 17.589844 C 15.800781 18.023438 15.640625 18.183594 15.207031 18.183594 C 14.261719 18.183594 13.316406 18.195312 12.371094 18.179688 C 12.132812 18.175781 12.019531 18.273438 11.925781 18.480469 C 13.390625 18.480469 14.839844 18.480469 16.296875 18.480469 C 16.304688 18.417969 16.3125 18.371094 16.316406 18.324219 C 16.316406 18.101562 16.3125 17.878906 16.320312 17.65625 C 16.328125 17.472656 16.425781 17.363281 16.613281 17.347656 C 16.789062 17.328125 16.917969 17.4375 16.949219 17.632812 C 16.964844 17.730469 16.960938 17.832031 16.960938 17.929688 C 16.960938 18.113281 16.960938 18.296875 16.960938 18.492188 C 17.210938 18.492188 17.425781 18.484375 17.640625 18.496094 C 17.976562 18.511719 18.179688 18.71875 18.199219 19.054688 C 18.207031 19.210938 18.199219 19.367188 18.199219 19.527344 C 18.199219 20.050781 18.015625 20.238281 17.496094 20.238281 C 14.976562 20.238281 12.453125 20.238281 9.933594 20.242188 C 9.796875 20.242188 9.65625 20.289062 9.523438 20.332031 C 9.050781 20.484375 8.582031 20.664062 8.101562 20.796875 C 7.789062 20.886719 7.457031 20.914062 7.132812 20.964844 Z M 8.089844 0.65625 C 8.089844 0.726562 8.089844 0.78125 8.089844 0.835938 C 8.136719 1.972656 8.246094 3.105469 8.464844 4.226562 C 8.726562 5.570312 9.125 6.875 9.738281 8.101562 C 9.804688 8.234375 9.910156 8.375 10.03125 8.449219 C 10.925781 8.980469 11.675781 9.664062 12.253906 10.53125 C 12.328125 10.644531 12.40625 10.695312 12.546875 10.691406 C 13.335938 10.6875 14.121094 10.691406 14.910156 10.683594 C 15.015625 10.683594 15.136719 10.648438 15.222656 10.585938 C 16.007812 10.035156 16.558594 9.28125 17.019531 8.457031 C 17.507812 7.585938 17.855469 6.65625 18.132812 5.699219 C 18.207031 5.453125 18.359375 5.355469 18.558594 5.410156 C 18.746094 5.464844 18.816406 5.640625 18.746094 5.882812 C 18.699219 6.046875 18.652344 6.210938 18.597656 6.394531 C 19.273438 5.820312 19.820312 4.382812 19.921875 3.445312 C 19.742188 3.445312 19.5625 3.4375 19.386719 3.453125 C 19.335938 3.457031 19.265625 3.539062 19.253906 3.59375 C 19.199219 3.816406 19.171875 4.042969 19.128906 4.269531 C 19.078125 4.519531 18.945312 4.636719 18.742188 4.601562 C 18.546875 4.570312 18.460938 4.402344 18.492188 4.15625 C 18.601562 3.339844 18.714844 2.527344 18.808594 1.710938 C 18.847656 1.363281 18.839844 1.015625 18.859375 0.660156 C 15.257812 0.65625 11.679688 0.65625 8.089844 0.65625 Z M 9.183594 13.371094 C 9.234375 13.355469 9.261719 13.347656 9.289062 13.339844 C 9.761719 13.199219 10.238281 13.066406 10.707031 12.914062 C 10.777344 12.894531 10.847656 12.800781 10.875 12.726562 C 11.089844 12.089844 11.292969 11.449219 11.503906 10.8125 C 11.539062 10.703125 11.535156 10.621094 11.457031 10.519531 C 10.832031 9.742188 10.066406 9.144531 9.160156 8.730469 C 9.046875 8.679688 8.96875 8.683594 8.867188 8.757812 C 8.398438 9.109375 7.925781 9.457031 7.445312 9.792969 C 7.1875 9.972656 6.917969 10.128906 7.011719 10.507812 C 7.011719 10.515625 7.007812 10.523438 7.007812 10.53125 C 6.980469 10.695312 6.878906 10.785156 6.714844 10.792969 C 6.554688 10.800781 6.4375 10.722656 6.398438 10.5625 C 6.378906 10.464844 6.394531 10.359375 6.371094 10.265625 C 6.34375 10.171875 6.304688 10.058594 6.234375 10.007812 C 5.667969 9.582031 5.09375 9.164062 4.515625 8.757812 C 4.449219 8.710938 4.324219 8.703125 4.25 8.734375 C 3.34375 9.132812 2.578125 9.722656 1.96875 10.503906 C 1.917969 10.566406 1.894531 10.691406 1.917969 10.769531 C 2.128906 11.457031 2.351562 12.144531 2.585938 12.828125 C 2.613281 12.902344 2.703125 12.988281 2.785156 13.007812 C 3.203125 13.132812 3.625 13.246094 4.046875 13.339844 C 4.144531 13.363281 4.277344 13.335938 4.355469 13.277344 C 4.976562 12.84375 5.589844 12.394531 6.199219 11.941406 C 6.285156 11.878906 6.351562 11.765625 6.386719 11.660156 C 6.445312 11.503906 6.535156 11.414062 6.699219 11.417969 C 6.871094 11.417969 6.96875 11.511719 7.011719 11.683594 C 7.035156 11.761719 7.082031 11.855469 7.148438 11.902344 C 7.773438 12.367188 8.40625 12.824219 9.039062 13.28125 C 9.089844 13.320312 9.144531 13.347656 9.183594 13.371094 Z M 2.863281 17.613281 C 3.207031 17.613281 3.550781 17.621094 3.894531 17.605469 C 3.976562 17.605469 4.085938 17.554688 4.136719 17.488281 C 4.363281 17.210938 4.578125 16.925781 4.785156 16.632812 C 4.828125 16.570312 4.847656 16.457031 4.824219 16.386719 C 4.59375 15.640625 4.355469 14.902344 4.105469 14.164062 C 4.078125 14.085938 3.988281 14.003906 3.910156 13.980469 C 3.457031 13.851562 3 13.730469 2.539062 13.621094 C 2.457031 13.601562 2.339844 13.625 2.273438 13.675781 C 1.785156 14.015625 1.3125 14.371094 0.824219 14.710938 C 0.695312 14.800781 0.675781 14.898438 0.695312 15.039062 C 0.816406 15.90625 1.101562 16.714844 1.5625 17.460938 C 1.628906 17.570312 1.703125 17.621094 1.835938 17.617188 C 2.175781 17.605469 2.519531 17.613281 2.863281 17.613281 Z M 10.605469 17.511719 C 10.957031 17.511719 11.308594 17.519531 11.65625 17.507812 C 11.730469 17.503906 11.835938 17.445312 11.875 17.382812 C 12.34375 16.625 12.621094 15.796875 12.710938 14.90625 C 12.71875 14.828125 12.667969 14.710938 12.601562 14.664062 C 12.125 14.300781 11.636719 13.949219 11.144531 13.605469 C 11.070312 13.554688 10.941406 13.53125 10.855469 13.554688 C 10.398438 13.675781 9.949219 13.8125 9.5 13.957031 C 9.421875 13.984375 9.328125 14.0625 9.300781 14.140625 C 9.054688 14.871094 8.816406 15.605469 8.589844 16.34375 C 8.566406 16.414062 8.589844 16.527344 8.636719 16.585938 C 8.863281 16.863281 9.097656 17.132812 9.34375 17.390625 C 9.410156 17.457031 9.523438 17.503906 9.617188 17.507812 C 9.945312 17.519531 10.277344 17.511719 10.605469 17.511719 Z M 6.722656 16.859375 C 6.339844 16.859375 5.960938 16.851562 5.585938 16.867188 C 5.5 16.867188 5.390625 16.921875 5.339844 16.988281 C 5.101562 17.28125 4.875 17.585938 4.652344 17.894531 C 4.613281 17.953125 4.59375 18.058594 4.613281 18.125 C 4.8125 18.757812 5.019531 19.390625 5.230469 20.019531 C 5.25 20.078125 5.324219 20.144531 5.382812 20.15625 C 6.253906 20.367188 7.125 20.367188 7.996094 20.167969 C 8.070312 20.148438 8.164062 20.078125 8.1875 20.011719 C 8.417969 19.335938 8.636719 18.65625 8.847656 17.972656 C 8.867188 17.914062 8.847656 17.816406 8.804688 17.769531 C 8.578125 17.496094 8.339844 17.226562 8.097656 16.964844 C 8.042969 16.90625 7.941406 16.867188 7.859375 16.867188 C 7.480469 16.855469 7.101562 16.859375 6.722656 16.859375 Z M 4.683594 13.847656 C 4.929688 14.601562 5.167969 15.347656 5.417969 16.089844 C 5.4375 16.144531 5.527344 16.210938 5.582031 16.210938 C 6.324219 16.21875 7.070312 16.21875 7.8125 16.210938 C 7.871094 16.210938 7.960938 16.148438 7.980469 16.09375 C 8.21875 15.382812 8.449219 14.671875 8.675781 13.957031 C 8.691406 13.910156 8.660156 13.816406 8.621094 13.785156 C 8.019531 13.335938 7.410156 12.898438 6.800781 12.460938 C 6.757812 12.429688 6.65625 12.417969 6.617188 12.445312 C 5.972656 12.90625 5.332031 13.375 4.683594 13.847656 Z M 19.359375 2.800781 C 19.613281 2.800781 19.835938 2.792969 20.054688 2.804688 C 20.449219 2.824219 20.660156 3.101562 20.59375 3.488281 C 20.460938 4.222656 20.257812 4.9375 19.933594 5.609375 C 19.578125 6.351562 19.085938 6.988281 18.390625 7.4375 C 18.144531 7.597656 18.046875 7.8125 17.949219 8.085938 C 18.019531 8.066406 18.058594 8.058594 18.097656 8.046875 C 18.726562 7.828125 19.25 7.449219 19.6875 6.953125 C 20.542969 5.988281 21.007812 4.839844 21.222656 3.582031 C 21.296875 3.125 21.328125 2.65625 21.378906 2.179688 C 20.695312 2.179688 20.0625 2.179688 19.417969 2.179688 C 19.398438 2.386719 19.382812 2.578125 19.359375 2.800781 Z M 5.5625 2.175781 C 5.617188 2.664062 5.644531 3.128906 5.722656 3.585938 C 5.949219 4.910156 6.453125 6.105469 7.386719 7.097656 C 7.808594 7.542969 8.292969 7.847656 8.972656 7.917969 C 8.855469 7.765625 8.789062 7.605469 8.671875 7.53125 C 8.105469 7.179688 7.667969 6.703125 7.3125 6.152344 C 6.796875 5.359375 6.542969 4.46875 6.363281 3.550781 C 6.269531 3.070312 6.484375 2.808594 6.972656 2.800781 C 7.171875 2.800781 7.371094 2.800781 7.585938 2.800781 C 7.5625 2.570312 7.539062 2.375 7.519531 2.175781 C 6.867188 2.175781 6.242188 2.175781 5.5625 2.175781 Z M 17.542969 19.136719 C 17.4375 19.136719 17.351562 19.136719 17.269531 19.136719 C 15.410156 19.136719 13.550781 19.152344 11.691406 19.125 C 11.28125 19.121094 11.050781 19.320312 10.78125 19.582031 C 13.050781 19.582031 15.292969 19.582031 17.542969 19.582031 C 17.542969 19.4375 17.542969 19.304688 17.542969 19.136719 Z M 12.566406 17.523438 C 13.429688 17.523438 14.28125 17.523438 15.148438 17.523438 C 15.148438 17.175781 15.148438 16.84375 15.148438 16.511719 C 15.117188 16.5 15.097656 16.488281 15.078125 16.488281 C 14.429688 16.484375 13.777344 16.480469 13.125 16.484375 C 13.078125 16.488281 13.007812 16.523438 12.992188 16.558594 C 12.84375 16.875 12.710938 17.195312 12.566406 17.523438 Z M 6.699219 9.539062 C 7.210938 9.167969 7.710938 8.804688 8.25 8.410156 C 7.195312 8.148438 6.199219 8.136719 5.152344 8.414062 C 5.691406 8.808594 6.1875 9.167969 6.699219 9.539062 Z M 8.910156 19.894531 C 9.875 19.5 10.648438 18.945312 11.316406 18.15625 C 10.699219 18.15625 10.128906 18.15625 9.558594 18.164062 C 9.519531 18.164062 9.460938 18.21875 9.445312 18.257812 C 9.269531 18.785156 9.097656 19.3125 8.910156 19.894531 Z M 2.179688 18.261719 C 2.832031 19.007812 3.585938 19.53125 4.507812 19.898438 C 4.324219 19.324219 4.148438 18.792969 3.976562 18.261719 C 3.378906 18.261719 2.800781 18.261719 2.179688 18.261719 Z M 0.648438 14.085938 C 1.09375 13.75 1.5 13.449219 1.898438 13.136719 C 1.9375 13.105469 1.953125 13 1.933594 12.941406 C 1.816406 12.554688 1.6875 12.167969 1.5625 11.78125 C 1.515625 11.644531 1.46875 11.503906 1.414062 11.335938 C 0.925781 12.199219 0.691406 13.089844 0.648438 14.085938 Z M 12 11.359375 C 11.847656 11.828125 11.707031 12.253906 11.570312 12.679688 C 11.457031 13.027344 11.457031 13.027344 11.75 13.238281 C 12.0625 13.46875 12.378906 13.699219 12.730469 13.953125 C 12.6875 13.011719 12.441406 12.183594 12 11.359375 Z M 12.738281 11.34375 C 12.824219 11.554688 12.910156 11.75 12.980469 11.949219 C 13.019531 12.066406 13.082031 12.101562 13.199219 12.101562 C 13.707031 12.09375 14.214844 12.097656 14.722656 12.097656 C 14.769531 12.097656 14.816406 12.082031 14.855469 12.074219 C 14.855469 11.820312 14.855469 11.582031 14.855469 11.34375 C 14.144531 11.34375 13.453125 11.34375 12.738281 11.34375 Z M 6.996094 3.445312 C 7.21875 4.546875 7.542969 5.5625 8.320312 6.378906 C 8.265625 6.125 8.183594 5.882812 8.128906 5.632812 C 7.976562 4.957031 7.84375 4.28125 7.691406 3.605469 C 7.679688 3.546875 7.617188 3.457031 7.570312 3.453125 C 7.386719 3.4375 7.203125 3.445312 6.996094 3.445312 Z M 15.0625 14.109375 C 14.496094 14.109375 13.957031 14.109375 13.398438 14.109375 C 13.398438 14.332031 13.398438 14.542969 13.398438 14.753906 C 13.957031 14.753906 14.507812 14.753906 15.0625 14.753906 C 15.0625 14.53125 15.0625 14.328125 15.0625 14.109375 Z M 13.238281 12.753906 C 13.292969 13.472656 13.296875 13.476562 13.871094 13.445312 C 13.882812 13.445312 13.894531 13.433594 13.910156 13.425781 C 13.910156 13.203125 13.910156 12.976562 13.910156 12.753906 C 13.679688 12.753906 13.46875 12.753906 13.238281 12.753906 Z M 13.238281 12.753906 "/>
</g>
<path style=" stroke:none;fill-rule:nonzero;fill:rgb(84.313725%,6.666667%,10.588235%);fill-opacity:1;" d="M 18.808594 1.707031 C 18.847656 1.363281 18.839844 1.011719 18.855469 0.65625 L 8.089844 0.65625 C 8.089844 0.726562 8.089844 0.78125 8.089844 0.835938 C 8.136719 1.972656 8.246094 3.105469 8.464844 4.222656 C 8.726562 5.570312 9.125 6.871094 9.738281 8.101562 C 9.804688 8.234375 9.910156 8.375 10.03125 8.449219 C 10.925781 8.980469 11.675781 9.664062 12.253906 10.53125 C 12.328125 10.644531 12.40625 10.695312 12.546875 10.691406 C 13.335938 10.683594 14.121094 10.691406 14.910156 10.683594 C 15.015625 10.683594 15.136719 10.644531 15.222656 10.585938 C 16.007812 10.035156 16.558594 9.28125 17.019531 8.457031 C 17.507812 7.585938 17.851562 6.652344 18.132812 5.699219 C 18.199219 5.472656 18.335938 5.371094 18.511719 5.398438 L 18.734375 4.597656 C 18.546875 4.5625 18.460938 4.394531 18.492188 4.15625 C 18.601562 3.339844 18.714844 2.523438 18.808594 1.707031 Z M 13.503906 8.410156 C 11.898438 8.4375 10.566406 7.125 10.542969 5.496094 C 10.519531 3.914062 11.808594 2.601562 13.429688 2.558594 C 15.03125 2.519531 16.363281 3.816406 16.402344 5.457031 C 16.433594 7.042969 15.117188 8.382812 13.503906 8.410156 Z M 13.503906 8.410156 "/>
<path style=" stroke:none;fill-rule:nonzero;fill:rgb(100%,100%,100%);fill-opacity:1;" d="M 9.183594 13.371094 C 9.144531 13.347656 9.089844 13.316406 9.039062 13.28125 C 8.40625 12.824219 7.773438 12.367188 7.148438 11.902344 C 7.082031 11.855469 7.035156 11.761719 7.011719 11.683594 C 6.96875 11.511719 6.871094 11.417969 6.699219 11.417969 C 6.535156 11.414062 6.445312 11.503906 6.386719 11.660156 C 6.351562 11.765625 6.285156 11.878906 6.199219 11.941406 C 5.589844 12.394531 4.976562 12.84375 4.355469 13.28125 C 4.277344 13.335938 4.144531 13.363281 4.046875 13.34375 C 3.625 13.246094 3.203125 13.132812 2.785156 13.007812 C 2.703125 12.988281 2.613281 12.902344 2.585938 12.828125 C 2.351562 12.144531 2.128906 11.457031 1.917969 10.769531 C 1.890625 10.691406 1.917969 10.570312 1.96875 10.503906 C 2.578125 9.722656 3.34375 9.132812 4.25 8.734375 C 4.324219 8.703125 4.449219 8.710938 4.515625 8.757812 C 5.09375 9.164062 5.667969 9.582031 6.234375 10.007812 C 6.304688 10.058594 6.34375 10.171875 6.371094 10.265625 C 6.394531 10.359375 6.378906 10.46875 6.398438 10.5625 C 6.4375 10.726562 6.554688 10.800781 6.714844 10.792969 C 6.878906 10.785156 6.976562 10.695312 7.007812 10.53125 C 7.007812 10.523438 7.011719 10.515625 7.011719 10.511719 C 6.917969 10.128906 7.1875 9.972656 7.445312 9.792969 C 7.925781 9.457031 8.398438 9.109375 8.867188 8.757812 C 8.96875 8.683594 9.046875 8.679688 9.15625 8.730469 C 10.066406 9.144531 10.832031 9.742188 11.457031 10.523438 C 11.535156 10.621094 11.539062 10.703125 11.503906 10.8125 C 11.292969 11.449219 11.089844 12.089844 10.871094 12.726562 C 10.847656 12.800781 10.777344 12.894531 10.707031 12.917969 C 10.238281 13.066406 9.761719 13.199219 9.289062 13.339844 C 9.261719 13.347656 9.234375 13.355469 9.183594 13.371094 Z M 9.183594 13.371094 "/>
<path style=" stroke:none;fill-rule:nonzero;fill:rgb(100%,100%,100%);fill-opacity:1;" d="M 2.863281 17.613281 C 2.519531 17.613281 2.175781 17.605469 1.832031 17.617188 C 1.699219 17.621094 1.628906 17.570312 1.5625 17.460938 C 1.101562 16.714844 0.816406 15.90625 0.695312 15.039062 C 0.675781 14.898438 0.695312 14.804688 0.824219 14.710938 C 1.3125 14.375 1.785156 14.015625 2.273438 13.675781 C 2.339844 13.625 2.457031 13.605469 2.539062 13.625 C 3 13.730469 3.457031 13.851562 3.90625 13.980469 C 3.984375 14.003906 4.078125 14.089844 4.105469 14.164062 C 4.351562 14.902344 4.59375 15.644531 4.824219 16.386719 C 4.847656 16.457031 4.828125 16.570312 4.785156 16.632812 C 4.578125 16.925781 4.363281 17.214844 4.136719 17.488281 C 4.085938 17.554688 3.976562 17.605469 3.894531 17.609375 C 3.550781 17.621094 3.207031 17.613281 2.863281 17.613281 Z M 2.863281 17.613281 "/>
<path style=" stroke:none;fill-rule:nonzero;fill:rgb(100%,100%,100%);fill-opacity:1;" d="M 10.605469 17.511719 C 10.277344 17.511719 9.945312 17.519531 9.617188 17.507812 C 9.523438 17.503906 9.410156 17.457031 9.34375 17.390625 C 9.097656 17.132812 8.863281 16.863281 8.636719 16.585938 C 8.589844 16.527344 8.566406 16.414062 8.589844 16.34375 C 8.816406 15.605469 9.054688 14.871094 9.300781 14.140625 C 9.328125 14.066406 9.421875 13.984375 9.5 13.957031 C 9.949219 13.8125 10.398438 13.675781 10.855469 13.554688 C 10.941406 13.53125 11.070312 13.554688 11.144531 13.605469 C 11.636719 13.949219 12.125 14.300781 12.601562 14.664062 C 12.667969 14.710938 12.71875 14.828125 12.710938 14.90625 C 12.621094 15.796875 12.34375 16.625 11.875 17.382812 C 11.835938 17.445312 11.730469 17.503906 11.65625 17.507812 C 11.308594 17.519531 10.957031 17.511719 10.605469 17.511719 Z M 10.605469 17.511719 "/>
<g clip-path="url(#clip2)" clip-rule="nonzero">
<path style=" stroke:none;fill-rule:nonzero;fill:rgb(100%,0%,2.352941%);fill-opacity:1;" d="M 6.722656 16.859375 C 7.101562 16.859375 7.480469 16.855469 7.859375 16.863281 C 7.9375 16.867188 8.042969 16.90625 8.097656 16.964844 C 8.339844 17.226562 8.578125 17.496094 8.804688 17.769531 C 8.84375 17.816406 8.867188 17.914062 8.847656 17.972656 C 8.636719 18.652344 8.417969 19.332031 8.1875 20.007812 C 8.164062 20.078125 8.070312 20.148438 7.996094 20.164062 C 7.125 20.367188 6.253906 20.363281 5.382812 20.15625 C 5.324219 20.144531 5.25 20.078125 5.230469 20.019531 C 5.019531 19.390625 4.8125 18.757812 4.613281 18.125 C 4.59375 18.058594 4.613281 17.953125 4.652344 17.894531 C 4.875 17.585938 5.101562 17.28125 5.339844 16.988281 C 5.390625 16.921875 5.5 16.867188 5.582031 16.863281 C 5.960938 16.851562 6.34375 16.859375 6.722656 16.859375 Z M 6.722656 16.859375 "/>
</g>
<path style=" stroke:none;fill-rule:nonzero;fill:rgb(100%,0%,2.352941%);fill-opacity:1;" d="M 4.683594 13.847656 C 5.332031 13.375 5.972656 12.90625 6.617188 12.449219 C 6.65625 12.417969 6.757812 12.429688 6.800781 12.460938 C 7.410156 12.898438 8.019531 13.339844 8.621094 13.785156 C 8.660156 13.816406 8.691406 13.910156 8.675781 13.957031 C 8.449219 14.671875 8.21875 15.386719 7.980469 16.09375 C 7.960938 16.148438 7.871094 16.210938 7.8125 16.210938 C 7.070312 16.21875 6.328125 16.21875 5.582031 16.210938 C 5.527344 16.210938 5.4375 16.144531 5.417969 16.089844 C 5.167969 15.347656 4.929688 14.601562 4.683594 13.847656 Z M 4.683594 13.847656 "/>
<path style=" stroke:none;fill-rule:nonzero;fill:rgb(84.313725%,6.666667%,10.588235%);fill-opacity:1;" d="M 19.359375 2.800781 C 19.382812 2.578125 19.398438 2.386719 19.417969 2.179688 C 20.0625 2.179688 20.695312 2.179688 21.378906 2.179688 C 21.328125 2.652344 21.296875 3.121094 21.222656 3.582031 C 21.007812 4.839844 20.542969 5.988281 19.6875 6.953125 C 19.25 7.449219 18.726562 7.828125 18.097656 8.046875 C 18.058594 8.058594 18.019531 8.066406 17.949219 8.085938 C 18.046875 7.808594 18.144531 7.597656 18.390625 7.4375 C 19.085938 6.988281 19.578125 6.351562 19.933594 5.609375 C 20.257812 4.9375 20.460938 4.222656 20.59375 3.488281 C 20.660156 3.101562 20.453125 2.824219 20.054688 2.804688 C 19.835938 2.792969 19.613281 2.800781 19.359375 2.800781 Z M 19.359375 2.800781 "/>
<path style=" stroke:none;fill-rule:nonzero;fill:rgb(84.313725%,6.666667%,10.588235%);fill-opacity:1;" d="M 5.5625 2.175781 C 6.242188 2.175781 6.867188 2.175781 7.519531 2.175781 C 7.539062 2.375 7.5625 2.570312 7.585938 2.800781 C 7.371094 2.800781 7.171875 2.800781 6.972656 2.800781 C 6.484375 2.808594 6.269531 3.070312 6.363281 3.550781 C 6.542969 4.46875 6.796875 5.359375 7.3125 6.152344 C 7.667969 6.699219 8.105469 7.179688 8.671875 7.53125 C 8.789062 7.605469 8.855469 7.765625 8.972656 7.917969 C 8.292969 7.847656 7.808594 7.539062 7.390625 7.097656 C 6.453125 6.105469 5.949219 4.910156 5.722656 3.585938 C 5.644531 3.128906 5.617188 2.664062 5.5625 2.175781 Z M 5.5625 2.175781 "/>
<path style=" stroke:none;fill-rule:nonzero;fill:rgb(84.313725%,6.666667%,10.588235%);fill-opacity:1;" d="M 17.542969 19.136719 C 17.542969 19.304688 17.542969 19.4375 17.542969 19.582031 C 15.292969 19.582031 13.050781 19.582031 10.78125 19.582031 C 11.050781 19.320312 11.28125 19.117188 11.691406 19.125 C 13.550781 19.152344 15.410156 19.136719 17.269531 19.136719 C 17.351562 19.136719 17.4375 19.136719 17.542969 19.136719 Z M 17.542969 19.136719 "/>
<path style=" stroke:none;fill-rule:nonzero;fill:rgb(84.313725%,6.666667%,10.588235%);fill-opacity:1;" d="M 12.566406 17.523438 C 12.710938 17.195312 12.84375 16.875 12.992188 16.558594 C 13.007812 16.523438 13.078125 16.488281 13.125 16.488281 C 13.777344 16.484375 14.429688 16.484375 15.078125 16.488281 C 15.097656 16.488281 15.117188 16.5 15.148438 16.511719 C 15.148438 16.84375 15.148438 17.179688 15.148438 17.523438 C 14.28125 17.523438 13.429688 17.523438 12.566406 17.523438 Z M 12.566406 17.523438 "/>
<path style=" stroke:none;fill-rule:nonzero;fill:rgb(100%,0%,2.352941%);fill-opacity:1;" d="M 6.699219 9.539062 C 6.1875 9.167969 5.691406 8.808594 5.152344 8.414062 C 6.199219 8.136719 7.195312 8.148438 8.253906 8.410156 C 7.710938 8.804688 7.210938 9.167969 6.699219 9.539062 Z M 6.699219 9.539062 "/>
<path style=" stroke:none;fill-rule:nonzero;fill:rgb(100%,0%,2.352941%);fill-opacity:1;" d="M 8.910156 19.894531 C 9.097656 19.3125 9.269531 18.785156 9.445312 18.257812 C 9.460938 18.214844 9.519531 18.164062 9.558594 18.160156 C 10.128906 18.15625 10.699219 18.15625 11.316406 18.15625 C 10.648438 18.945312 9.875 19.5 8.910156 19.894531 Z M 8.910156 19.894531 "/>
<path style=" stroke:none;fill-rule:nonzero;fill:rgb(100%,0%,2.352941%);fill-opacity:1;" d="M 2.179688 18.261719 C 2.800781 18.261719 3.378906 18.261719 3.976562 18.261719 C 4.148438 18.792969 4.324219 19.324219 4.507812 19.902344 C 3.585938 19.53125 2.832031 19.007812 2.179688 18.261719 Z M 2.179688 18.261719 "/>
<path style=" stroke:none;fill-rule:nonzero;fill:rgb(100%,0%,2.352941%);fill-opacity:1;" d="M 0.648438 14.085938 C 0.691406 13.089844 0.925781 12.199219 1.414062 11.335938 C 1.46875 11.503906 1.515625 11.644531 1.5625 11.78125 C 1.6875 12.167969 1.816406 12.554688 1.933594 12.941406 C 1.953125 13 1.9375 13.105469 1.898438 13.136719 C 1.5 13.449219 1.09375 13.75 0.648438 14.085938 Z M 0.648438 14.085938 "/>
<path style=" stroke:none;fill-rule:nonzero;fill:rgb(100%,0%,2.352941%);fill-opacity:1;" d="M 12 11.359375 C 12.441406 12.183594 12.6875 13.011719 12.730469 13.953125 C 12.378906 13.699219 12.0625 13.46875 11.75 13.238281 C 11.457031 13.027344 11.457031 13.027344 11.566406 12.679688 C 11.707031 12.253906 11.847656 11.828125 12 11.359375 Z M 12 11.359375 "/>
<path style=" stroke:none;fill-rule:nonzero;fill:rgb(84.313725%,6.666667%,10.588235%);fill-opacity:1;" d="M 12.738281 11.34375 C 13.453125 11.34375 14.144531 11.34375 14.855469 11.34375 C 14.855469 11.582031 14.855469 11.820312 14.855469 12.074219 C 14.816406 12.082031 14.769531 12.097656 14.726562 12.097656 C 14.214844 12.097656 13.707031 12.09375 13.199219 12.101562 C 13.082031 12.101562 13.019531 12.066406 12.980469 11.949219 C 12.910156 11.75 12.824219 11.554688 12.738281 11.34375 Z M 12.738281 11.34375 "/>
<path style=" stroke:none;fill-rule:nonzero;fill:rgb(84.313725%,6.666667%,10.588235%);fill-opacity:1;" d="M 15.0625 14.109375 C 15.0625 14.328125 15.0625 14.53125 15.0625 14.753906 C 14.507812 14.753906 13.957031 14.753906 13.398438 14.753906 C 13.398438 14.542969 13.398438 14.332031 13.398438 14.109375 C 13.957031 14.109375 14.496094 14.109375 15.0625 14.109375 Z M 15.0625 14.109375 "/>
<path style=" stroke:none;fill-rule:nonzero;fill:rgb(0%,0%,0%);fill-opacity:1;" d="M 18.0625 10.003906 C 18.167969 10.078125 18.28125 10.144531 18.382812 10.226562 C 18.421875 10.261719 18.449219 10.320312 18.464844 10.375 C 18.617188 10.808594 18.910156 11.09375 19.339844 11.25 C 19.542969 11.324219 19.679688 11.464844 19.679688 11.699219 C 19.679688 11.929688 19.542969 12.074219 19.34375 12.144531 C 18.910156 12.304688 18.621094 12.589844 18.464844 13.023438 C 18.394531 13.222656 18.253906 13.363281 18.019531 13.363281 C 17.785156 13.363281 17.648438 13.226562 17.570312 13.023438 C 17.410156 12.597656 17.128906 12.300781 16.695312 12.148438 C 16.492188 12.074219 16.355469 11.929688 16.355469 11.699219 C 16.355469 11.46875 16.488281 11.324219 16.691406 11.25 C 17.125 11.097656 17.410156 10.804688 17.570312 10.375 C 17.648438 10.164062 17.796875 10.03125 18.0625 10.003906 Z M 18.699219 11.695312 C 18.480469 11.476562 18.238281 11.234375 18.019531 11.011719 C 17.796875 11.238281 17.550781 11.480469 17.332031 11.699219 C 17.554688 11.921875 17.800781 12.164062 18.019531 12.382812 C 18.234375 12.164062 18.472656 11.925781 18.699219 11.695312 Z M 18.699219 11.695312 "/>
<path style=" stroke:none;fill-rule:nonzero;fill:rgb(0%,0%,0%);fill-opacity:1;" d="M 4.644531 3.101562 C 4.644531 3.386719 4.550781 3.53125 4.378906 3.597656 C 4.015625 3.738281 3.769531 3.980469 3.632812 4.347656 C 3.570312 4.511719 3.429688 4.605469 3.246094 4.609375 C 3.054688 4.613281 2.910156 4.519531 2.84375 4.34375 C 2.703125 3.980469 2.460938 3.734375 2.097656 3.597656 C 1.929688 3.535156 1.839844 3.398438 1.835938 3.214844 C 1.832031 3.019531 1.925781 2.875 2.097656 2.808594 C 2.464844 2.671875 2.707031 2.425781 2.84375 2.0625 C 2.90625 1.898438 3.042969 1.800781 3.230469 1.800781 C 3.421875 1.796875 3.566406 1.890625 3.632812 2.066406 C 3.769531 2.429688 4.019531 2.660156 4.375 2.816406 C 4.503906 2.875 4.585938 3.039062 4.644531 3.101562 Z M 3.238281 2.832031 C 3.128906 2.9375 2.972656 3.09375 2.871094 3.195312 C 2.980469 3.308594 3.128906 3.46875 3.238281 3.582031 C 3.347656 3.464844 3.5 3.308594 3.609375 3.199219 C 3.503906 3.097656 3.359375 2.953125 3.238281 2.832031 Z M 3.238281 2.832031 "/>
<path style=" stroke:none;fill-rule:nonzero;fill:rgb(0%,0%,0%);fill-opacity:1;" d="M 16.402344 5.457031 C 16.433594 7.042969 15.121094 8.382812 13.503906 8.410156 C 11.898438 8.4375 10.566406 7.128906 10.542969 5.5 C 10.519531 3.914062 11.808594 2.601562 13.429688 2.558594 C 15.03125 2.519531 16.363281 3.820312 16.402344 5.457031 Z M 13.464844 3.203125 C 12.210938 3.207031 11.179688 4.246094 11.1875 5.488281 C 11.195312 6.738281 12.234375 7.773438 13.476562 7.769531 C 14.726562 7.761719 15.761719 6.71875 15.757812 5.476562 C 15.75 4.222656 14.71875 3.199219 13.464844 3.203125 Z M 13.464844 3.203125 "/>
<path style=" stroke:none;fill-rule:nonzero;fill:rgb(84.313725%,6.666667%,10.588235%);fill-opacity:1;" d="M 18.699219 11.695312 C 18.472656 11.925781 18.234375 12.164062 18.019531 12.382812 C 17.800781 12.164062 17.554688 11.921875 17.332031 11.699219 C 17.550781 11.480469 17.792969 11.238281 18.019531 11.011719 C 18.238281 11.234375 18.480469 11.476562 18.699219 11.695312 Z M 18.699219 11.695312 "/>
<path style=" stroke:none;fill-rule:nonzero;fill:rgb(84.313725%,6.666667%,10.588235%);fill-opacity:1;" d="M 3.238281 2.832031 C 3.359375 2.953125 3.503906 3.097656 3.609375 3.199219 C 3.5 3.308594 3.347656 3.464844 3.238281 3.582031 C 3.128906 3.46875 2.980469 3.308594 2.871094 3.195312 C 2.972656 3.09375 3.128906 2.9375 3.238281 2.832031 Z M 3.238281 2.832031 "/>
<path style=" stroke:none;fill-rule:nonzero;fill:rgb(100%,100%,100%);fill-opacity:1;" d="M 13.464844 3.203125 C 14.71875 3.199219 15.75 4.222656 15.757812 5.476562 C 15.761719 6.71875 14.726562 7.761719 13.476562 7.769531 C 12.234375 7.773438 11.191406 6.738281 11.183594 5.488281 C 11.179688 4.246094 12.210938 3.207031 13.464844 3.203125 Z M 13.808594 4.003906 C 13.773438 3.597656 13.695312 3.476562 13.488281 3.464844 C 13.265625 3.457031 13.1875 3.574219 13.128906 4 C 13.085938 4.007812 13.035156 4.019531 12.988281 4.023438 C 12.5 4.082031 12.222656 4.414062 12.238281 4.925781 C 12.257812 5.386719 12.574219 5.707031 13.050781 5.722656 C 13.300781 5.730469 13.550781 5.726562 13.800781 5.722656 C 13.957031 5.722656 14.066406 5.761719 14.0625 5.949219 C 14.054688 6.136719 13.9375 6.148438 13.796875 6.144531 C 13.445312 6.144531 13.09375 6.140625 12.746094 6.148438 C 12.527344 6.152344 12.390625 6.292969 12.390625 6.476562 C 12.394531 6.660156 12.53125 6.78125 12.753906 6.789062 C 12.878906 6.792969 13.003906 6.789062 13.128906 6.789062 C 13.1875 7.257812 13.25 7.382812 13.457031 7.371094 C 13.832031 7.351562 13.785156 7.046875 13.804688 6.804688 C 13.914062 6.789062 14.007812 6.789062 14.097656 6.765625 C 14.519531 6.65625 14.742188 6.300781 14.699219 5.808594 C 14.664062 5.40625 14.347656 5.109375 13.902344 5.082031 C 13.640625 5.070312 13.375 5.074219 13.109375 5.078125 C 12.925781 5.082031 12.867188 4.992188 12.882812 4.824219 C 12.898438 4.679688 13 4.664062 13.117188 4.660156 C 13.421875 4.660156 13.730469 4.667969 14.039062 4.652344 C 14.226562 4.640625 14.355469 4.5 14.347656 4.332031 C 14.335938 4.152344 14.234375 4.046875 14.050781 4.023438 C 13.972656 4.015625 13.894531 4.011719 13.808594 4.003906 Z M 13.808594 4.003906 "/>
<path style=" stroke:none;fill-rule:nonzero;fill:rgb(0%,0%,0%);fill-opacity:1;" d="M 13.808594 4.003906 C 13.894531 4.011719 13.972656 4.015625 14.050781 4.023438 C 14.234375 4.046875 14.335938 4.152344 14.347656 4.332031 C 14.359375 4.5 14.230469 4.640625 14.039062 4.652344 C 13.730469 4.667969 13.425781 4.660156 13.117188 4.660156 C 13.003906 4.664062 12.898438 4.679688 12.886719 4.824219 C 12.871094 4.992188 12.925781 5.082031 13.109375 5.078125 C 13.375 5.074219 13.640625 5.066406 13.90625 5.082031 C 14.347656 5.109375 14.664062 5.40625 14.699219 5.808594 C 14.742188 6.300781 14.519531 6.65625 14.097656 6.765625 C 14.007812 6.785156 13.914062 6.789062 13.804688 6.804688 C 13.785156 7.046875 13.832031 7.351562 13.460938 7.371094 C 13.25 7.382812 13.1875 7.257812 13.128906 6.789062 C 13.007812 6.789062 12.878906 6.792969 12.753906 6.789062 C 12.53125 6.78125 12.394531 6.660156 12.390625 6.472656 C 12.390625 6.292969 12.527344 6.152344 12.746094 6.148438 C 13.097656 6.140625 13.449219 6.144531 13.796875 6.144531 C 13.9375 6.148438 14.054688 6.136719 14.0625 5.949219 C 14.066406 5.761719 13.957031 5.722656 13.800781 5.722656 C 13.550781 5.726562 13.300781 5.730469 13.050781 5.722656 C 12.578125 5.707031 12.257812 5.386719 12.242188 4.925781 C 12.222656 4.414062 12.5 4.082031 12.988281 4.023438 C 13.035156 4.019531 13.085938 4.007812 13.132812 4 C 13.1875 3.574219 13.265625 3.457031 13.488281 3.464844 C 13.695312 3.476562 13.773438 3.597656 13.808594 4.003906 Z M 13.808594 4.003906 "/>
</g>
</svg>
