<svg width="10" height="10" viewBox="0 0 10 10" fill="none" xmlns="http://www.w3.org/2000/svg">
<g clip-path="url(#clip0_1195_6506)">
<path d="M7 4.95312C7 4.98438 7.015 5.01563 7.03 5.04688C7.015 5.01563 7 4.98438 7 4.95312Z" fill="#D7111B"/>
<path d="M6.9707 4.76562C6.9707 4.75 6.9707 4.75 6.9707 4.76562C6.9707 4.8125 6.9857 4.85938 6.9857 4.89063C6.9707 4.84375 6.9707 4.79688 6.9707 4.76562Z" fill="#D7111B"/>
<path d="M8.56035 3.625C8.53035 3.60938 8.51535 3.59375 8.48535 3.57812C8.51535 3.59375 8.53035 3.60938 8.56035 3.625Z" fill="#D7111B"/>
<path d="M9.37043 4.39063L9.20543 4.5625C9.20543 4.57813 9.20543 4.60938 9.20543 4.625C9.20543 4.64063 9.20543 4.64063 9.20543 4.65625C9.20543 5.5625 8.21543 6.26563 8.17043 6.29688C8.11043 6.32813 8.05043 6.32813 7.99043 6.29688C7.90043 6.21875 7.81043 6.14063 7.72043 6.0625C7.58543 5.9375 7.46543 5.8125 7.36043 5.67188L7.28543 5.9375L7.12043 6.53125C7.12043 6.54688 7.10543 6.5625 7.10543 6.57813L6.19043 8L6.73043 9.375C7.34543 9.14062 7.90043 8.76562 8.36543 8.28125C9.20543 7.40625 9.68543 6.21875 9.68543 4.98438C9.68543 4.70312 9.65543 4.40625 9.61043 4.125L9.40043 4.375L9.37043 4.39063ZM6.95543 8.17187H6.64043V7.84375H6.95543V8.17187ZM8.39543 7.32812H8.08043V7H8.39543V7.32812Z" fill="#D7111B"/>
<path d="M8.75539 3.73438C8.75539 3.73438 8.75539 3.75 8.75539 3.73438C8.72539 3.70312 8.69539 3.6875 8.65039 3.65625C8.68039 3.6875 8.72539 3.71875 8.75539 3.73438Z" fill="#D7111B"/>
<path d="M8.92008 3.90625L8.93508 3.92188C8.90508 3.875 8.87508 3.84375 8.83008 3.79688C8.86008 3.82812 8.89008 3.875 8.92008 3.90625Z" fill="#D7111B"/>
<path d="M6.95508 4.67188C6.95508 4.625 6.95508 4.57812 6.97008 4.51562C6.97008 4.5625 6.95508 4.60937 6.95508 4.67188C6.95508 4.6875 6.95508 4.6875 6.95508 4.70313C6.95508 4.6875 6.95508 4.67188 6.95508 4.67188Z" fill="#D7111B"/>
<path d="M7.94531 2.32813C7.97531 2.32813 7.99031 2.3125 8.00531 2.29687L8.53031 1.89062L8.00531 2.29687C7.99031 2.3125 7.97531 2.3125 7.94531 2.32813Z" fill="#D7111B"/>
<path d="M1.58496 3.29688L1.86996 3.54687L1.58496 3.29688Z" fill="#D7111B"/>
<path d="M2.53027 4.125C2.54527 4.14062 2.56027 4.14063 2.57527 4.15625C2.56027 4.14063 2.54527 4.125 2.53027 4.125Z" fill="#D7111B"/>
<path d="M7.0007 4.34375C6.9857 4.375 6.9857 4.42188 6.9707 4.46875C6.9857 4.42188 7.0007 4.39062 7.0007 4.34375Z" fill="#D7111B"/>
<path d="M4.7502 0.359388C3.9852 0.437513 3.2352 0.718763 2.5752 1.21876L2.7702 1.85939L3.8052 2.17189C3.8652 2.18751 3.9102 2.23439 3.9252 2.29689L4.0752 3.23439L4.6602 3.68751C4.6752 3.70314 4.6752 3.70314 4.6902 3.71876L5.7252 5.10939L6.1752 4.87501L6.3252 3.29689C6.3252 3.26564 6.3402 3.25001 6.3552 3.21876L7.0002 2.21876C7.0302 2.18751 7.0602 2.15626 7.1052 2.15626L7.87019 2.00001L8.3352 1.64064C7.7202 1.01564 6.9552 0.609388 6.1602 0.437513C5.6802 0.328138 5.2152 0.312513 4.7502 0.359388ZM3.4452 1.50001H3.1302V1.17189H3.4452V1.50001ZM7.12019 1.32814H7.4352V1.65626H7.12019V1.32814ZM5.8452 4.32814H5.5302V4.00001H5.8452V4.32814ZM6.4752 1.82814C6.4752 2.35939 6.1302 2.82814 5.8452 3.12501C5.6352 3.32814 5.4552 3.46876 5.4402 3.46876C5.3802 3.50001 5.3202 3.50001 5.2602 3.46876C5.2302 3.45314 5.1252 3.37501 4.9902 3.25001C4.6902 2.96876 4.2402 2.45314 4.2402 1.84376C4.2402 1.20314 4.7502 0.671888 5.3652 0.671888C5.6802 0.671888 5.9502 0.796888 6.1602 1.01564C6.3552 1.21876 6.4752 1.51564 6.4752 1.82814Z" fill="#D7111B"/>
<path d="M9.07012 4.125C9.08512 4.15625 9.10012 4.17188 9.11512 4.1875C9.08512 4.10938 9.04012 4.03125 8.99512 3.96875C9.02512 4.03125 9.04012 4.07812 9.07012 4.125Z" fill="#D7111B"/>
<path d="M5.2002 1.82812C5.2002 1.92187 5.2752 2 5.3652 2C5.4552 2 5.5302 1.92187 5.5302 1.82812C5.5302 1.73437 5.4552 1.65625 5.3652 1.65625C5.2752 1.67188 5.2002 1.73437 5.2002 1.82812Z" fill="#FFCB04"/>
<path d="M4.55566 1.82812C4.55566 2.20312 4.79566 2.54688 4.99066 2.78125C5.09566 2.90625 5.21566 3.01562 5.35066 3.125C5.57566 2.9375 6.14566 2.42187 6.14566 1.82812C6.14566 1.375 5.78566 1 5.35066 1C4.91566 1 4.55566 1.375 4.55566 1.82812ZM5.84566 1.82812C5.84566 2.10937 5.63566 2.32813 5.36566 2.32813C5.09566 2.32813 4.88566 2.10937 4.88566 1.82812C4.88566 1.54687 5.09566 1.32812 5.36566 1.32812C5.62066 1.32812 5.84566 1.5625 5.84566 1.82812Z" fill="#FFCB04"/>
<path d="M5.8457 3.125C6.1307 2.82812 6.4757 2.375 6.4757 1.82812C6.4757 1.5 6.3557 1.21875 6.1457 1C6.3557 1.21875 6.4757 1.5 6.4757 1.82812C6.4757 2.35937 6.1457 2.82812 5.8457 3.125Z" fill="#FFCB04"/>
<path d="M5.26023 3.46875C5.23023 3.45312 5.12523 3.375 4.99023 3.25C5.14023 3.375 5.24523 3.45312 5.26023 3.46875Z" fill="#FFCB04"/>
<path d="M9.31059 3.98438L9.10059 4.20312L9.31059 3.98438Z" fill="#FFCB04"/>
<path d="M7.10492 4.09375C7.08992 4.125 7.05992 4.17188 7.04492 4.21875C7.05992 4.17188 7.08992 4.14062 7.10492 4.09375Z" fill="#FFCB04"/>
<path d="M7.015 4.29688C7.015 4.3125 7 4.32813 7 4.34375C7.015 4.32813 7.015 4.3125 7.015 4.29688Z" fill="#FFCB04"/>
<path d="M7.63082 3.59375C7.64582 3.59375 7.64582 3.59375 7.66082 3.57812C7.64582 3.59375 7.64582 3.59375 7.63082 3.59375C7.57082 3.625 7.52582 3.65625 7.46582 3.6875C7.52582 3.65625 7.57082 3.625 7.63082 3.59375Z" fill="#FFCB04"/>
<path d="M7.88535 3.51562C7.84035 3.51562 7.79535 3.53125 7.73535 3.5625C7.73535 3.5625 7.73535 3.5625 7.75035 3.5625C7.79535 3.54688 7.84035 3.53125 7.88535 3.51562Z" fill="#FFCB04"/>
<path d="M8.48543 3.57812C8.47043 3.57812 8.45543 3.5625 8.44043 3.5625C8.45543 3.57812 8.47043 3.57812 8.48543 3.57812Z" fill="#FFCB04"/>
<path d="M8.35082 3.53125C8.30582 3.51563 8.26082 3.51562 8.21582 3.5C8.26082 3.51562 8.30582 3.53125 8.35082 3.53125Z" fill="#FFCB04"/>
<path d="M7.42043 3.73436C7.42043 3.73436 7.42043 3.71874 7.42043 3.73436C7.39043 3.76561 7.34543 3.79686 7.31543 3.82811C7.34543 3.78124 7.37543 3.76561 7.42043 3.73436Z" fill="#FFCB04"/>
<path d="M7.25539 3.875C7.21039 3.92187 7.18039 3.96875 7.15039 4.01562C7.15039 4.01562 7.15039 4.01563 7.15039 4C7.18039 3.96875 7.21039 3.92187 7.25539 3.875Z" fill="#FFCB04"/>
<path d="M7.01562 5.04688C7.01562 5.0625 7.03063 5.07812 7.03063 5.07812C7.03063 5.07812 7.03063 5.0625 7.01562 5.04688Z" fill="#FFCB04"/>
<path d="M7.04492 5.14062C7.05992 5.20312 7.08992 5.25 7.11992 5.3125L7.07492 5.46875L7.11992 5.3125C7.08992 5.25 7.07492 5.20312 7.04492 5.14062Z" fill="#FFCB04"/>
<path d="M8.08016 5.9531C8.33516 5.74997 9.07016 5.0781 8.83016 4.37497C8.74016 4.10935 8.51516 3.90622 8.24516 3.84372C7.73516 3.73435 7.28516 4.1406 7.28516 4.65622C7.28516 5.03122 7.52516 5.37497 7.72016 5.60935C7.82516 5.73435 7.94516 5.85935 8.08016 5.9531ZM8.08016 4.17185C8.35016 4.17185 8.56016 4.3906 8.56016 4.67185C8.56016 4.9531 8.35016 5.17185 8.08016 5.17185C7.81016 5.17185 7.60016 4.93747 7.60016 4.67185C7.60016 4.3906 7.81016 4.17185 8.08016 4.17185Z" fill="#FFCB04"/>
<path d="M7.42043 3.73438C7.39043 3.76562 7.34543 3.79688 7.31543 3.82813C7.34543 3.78125 7.37543 3.76562 7.42043 3.73438Z" fill="#FFCB04"/>
<path d="M6.9707 4.76562C6.9707 4.8125 6.9857 4.85938 6.9857 4.89063C6.9707 4.84375 6.9707 4.79688 6.9707 4.76562Z" fill="#FFCB04"/>
<path d="M8.08004 4.82812C8.17004 4.82812 8.24504 4.75 8.24504 4.65625C8.24504 4.5625 8.17004 4.48438 8.08004 4.48438C7.99004 4.48438 7.91504 4.5625 7.91504 4.65625C7.91504 4.76563 7.99004 4.82812 8.08004 4.82812Z" fill="#FFCB04"/>
<path d="M8.1707 6.29687C8.2157 6.26562 9.2057 5.57812 9.2057 4.65625C9.2057 4.64062 9.2057 4.64062 9.2057 4.625C9.2057 4.64062 9.2057 4.64062 9.2057 4.65625C9.2057 5.57812 8.2157 6.28125 8.1707 6.29687C8.1107 6.32812 8.0507 6.32812 7.9907 6.29687C7.9007 6.23437 7.8107 6.14062 7.7207 6.0625C7.8107 6.14062 7.9007 6.21875 7.9907 6.29687C8.0507 6.34375 8.1107 6.34375 8.1707 6.29687Z" fill="#FFCB04"/>
<path d="M9.07012 4.125C9.04012 4.07812 9.02512 4.03125 8.99512 3.98438C9.02512 4.03125 9.04012 4.07812 9.07012 4.125Z" fill="#FFCB04"/>
<path d="M9.40012 4.375L9.37012 4.39063L9.40012 4.375Z" fill="#FFCB04"/>
<path d="M7.46582 3.6875C7.52582 3.64063 7.58582 3.60938 7.66082 3.57812C7.64582 3.57812 7.64582 3.57813 7.63082 3.59375C7.57082 3.625 7.52582 3.65625 7.46582 3.6875Z" fill="#FFCB04"/>
<path d="M8.75539 3.73438C8.72539 3.70312 8.68039 3.6875 8.65039 3.65625C8.68039 3.6875 8.72539 3.71875 8.75539 3.73438Z" fill="#FFCB04"/>
<path d="M7.885 3.51562C7.84 3.53125 7.795 3.53125 7.75 3.54687C7.795 3.54687 7.84 3.53125 7.885 3.51562Z" fill="#FFCB04"/>
<path d="M8.83008 3.79688C8.86008 3.82812 8.89008 3.85937 8.92008 3.89062C8.89008 3.875 8.86008 3.82812 8.83008 3.79688Z" fill="#FFCB04"/>
<path d="M7.0157 4.29688C7.0157 4.3125 7.0007 4.32813 7.0007 4.34375C6.9857 4.375 6.9857 4.42187 6.9707 4.45312C6.9857 4.40625 7.0007 4.34375 7.0157 4.29688Z" fill="#FFCB04"/>
<path d="M7.34551 5.6875L7.27051 5.95313L7.34551 5.6875Z" fill="#FFCB04"/>
<path d="M7.99023 3.51562C8.03523 3.51562 8.08023 3.51562 8.12523 3.51562C8.08023 3.5 8.03523 3.5 7.99023 3.51562Z" fill="#FFCB04"/>
<path d="M6.97023 4.6875C6.97023 4.625 6.97023 4.57813 6.98523 4.51562C6.98523 4.5625 6.97023 4.60938 6.97023 4.67188C6.95523 4.67188 6.95523 4.6875 6.97023 4.6875Z" fill="#FFCB04"/>
<path d="M8.56043 3.60938C8.53043 3.59375 8.51543 3.57812 8.48543 3.57812C8.47043 3.57812 8.45543 3.5625 8.44043 3.5625C8.48543 3.57812 8.51543 3.59375 8.56043 3.60938Z" fill="#FFCB04"/>
<path d="M8.35082 3.53125C8.30582 3.51563 8.26082 3.51562 8.21582 3.5C8.26082 3.51562 8.30582 3.53125 8.35082 3.53125Z" fill="#FFCB04"/>
<path d="M7.10492 4.09375C7.08992 4.125 7.05992 4.17188 7.04492 4.21875C7.05992 4.17188 7.08992 4.14062 7.10492 4.09375Z" fill="#FFCB04"/>
<path d="M7.04492 5.14062C7.05992 5.20313 7.08992 5.25 7.11992 5.3125C7.08992 5.25 7.07492 5.20313 7.04492 5.14062Z" fill="#FFCB04"/>
<path d="M7 4.95312C7 4.98438 7.015 5.01563 7.03 5.04688C7.03 5.0625 7.03 5.07813 7.045 5.07813C7.015 5.04688 7 5 7 4.95312Z" fill="#FFCB04"/>
<path d="M7.15039 4.01562C7.18039 3.96875 7.21039 3.92187 7.25539 3.875C7.21039 3.92187 7.18039 3.96875 7.15039 4.01562Z" fill="#FFCB04"/>
<path d="M2.63512 5.1875C2.63512 5.21875 2.63512 5.25 2.62012 5.29687C2.63512 5.26562 2.63512 5.21875 2.63512 5.1875Z" fill="#D7111B"/>
<path d="M2.62082 5.35938C2.60582 5.39062 2.60582 5.4375 2.59082 5.46875C2.59082 5.4375 2.60582 5.40625 2.62082 5.35938Z" fill="#D7111B"/>
<path d="M1.40527 4.46875C1.43527 4.4375 1.48027 4.42188 1.52527 4.40625C1.48027 4.42188 1.43527 4.4375 1.40527 4.46875Z" fill="#D7111B"/>
<path d="M1.28516 4.57813C1.30016 4.54688 1.33016 4.53125 1.34516 4.51562C1.33016 4.53125 1.30016 4.54688 1.28516 4.57813Z" fill="#D7111B"/>
<path d="M2.54582 6.04688C2.47082 6.01563 2.41082 6 2.32082 6H2.00582V6.67188H1.67582V6H1.36082C1.00082 6 0.71582 6.29688 0.71582 6.67188V7.67188C0.71582 7.76563 0.79082 7.84375 0.88082 7.84375H1.04582V7.01562H1.36082V9.6875H1.67582V8.51563H1.99082V9.6875H2.30582V7H2.36582V6.32813C2.41082 6.21875 2.47082 6.125 2.54582 6.04688Z" fill="#D7111B"/>
<path d="M1.21031 4.65625C1.21031 4.67188 1.19531 4.67188 1.19531 4.6875C1.21031 4.67188 1.21031 4.65625 1.22531 4.64062C1.22531 4.64062 1.21031 4.64063 1.21031 4.65625Z" fill="#D7111B"/>
<path d="M1.8252 4.32812C1.8702 4.32812 1.9152 4.32812 1.9452 4.32812C1.9002 4.34375 1.8552 4.32812 1.8252 4.32812Z" fill="#D7111B"/>
<path d="M2.38086 4.5625C2.41086 4.59375 2.44086 4.60937 2.45586 4.64062C2.44086 4.60937 2.41086 4.59375 2.38086 4.5625Z" fill="#D7111B"/>
<path d="M2.3352 4.51562C2.2902 4.48437 2.2452 4.45312 2.2002 4.42188C2.2452 4.45312 2.3052 4.48437 2.3352 4.51562Z" fill="#D7111B"/>
<path d="M2.5 4.70312C2.515 4.73438 2.53 4.76562 2.545 4.79687C2.545 4.76562 2.515 4.73438 2.5 4.70312Z" fill="#D7111B"/>
<path d="M2.62012 5.01562C2.62012 5.04688 2.63512 5.07812 2.63512 5.10937C2.63512 5.09375 2.63512 5.04688 2.62012 5.01562Z" fill="#D7111B"/>
<path d="M1.58496 4.375C1.64496 4.35938 1.70496 4.34375 1.74996 4.32812C1.68996 4.34375 1.64496 4.35938 1.58496 4.375Z" fill="#D7111B"/>
<path d="M2.5752 4.85938C2.5902 4.89062 2.6052 4.92187 2.6052 4.95312C2.6052 4.92187 2.5902 4.89062 2.5752 4.85938Z" fill="#D7111B"/>
<path d="M2.5607 5.53125C2.5307 5.57812 2.5007 5.64062 2.4707 5.6875C2.5007 5.625 2.5307 5.57812 2.5607 5.53125Z" fill="#D7111B"/>
<path d="M1.96089 5.65626C2.12589 5.60938 2.26089 5.46876 2.30589 5.29688C2.39589 4.92188 2.08089 4.59376 1.72089 4.68751C1.55589 4.73438 1.42089 4.87501 1.37589 5.04688C1.28589 5.40626 1.60089 5.73438 1.96089 5.65626ZM1.88589 4.78126C1.97589 4.78126 2.09589 4.84376 2.15589 4.95313C2.17089 4.98438 2.15589 5.00001 2.14089 5.01563C2.12589 5.01563 2.12589 5.01563 2.11089 5.01563C2.09589 5.01563 2.08089 5.00001 2.06589 4.98438C2.02089 4.90626 1.94589 4.85938 1.88589 4.85938C1.85589 4.85938 1.84089 4.84376 1.84089 4.81251C1.82589 4.81251 1.85589 4.78126 1.88589 4.78126Z" fill="#D7111B"/>
<path d="M1.0902 5.45312C1.0902 5.4375 1.0752 5.42188 1.0752 5.40625C1.0902 5.4375 1.0902 5.4375 1.0902 5.45312Z" fill="#D7111B"/>
<path d="M1.04492 9.82812C1.04492 9.92188 1.11992 10 1.20992 10C1.11992 10 1.04492 9.92188 1.04492 9.82812Z" fill="#D7111B"/>
<path d="M2.02051 4.35938C2.06551 4.375 2.12551 4.39063 2.17051 4.40625C2.12551 4.39063 2.06551 4.35938 2.02051 4.35938Z" fill="#D7111B"/>
<path d="M3.28016 9.67188H3.59516V8.5H3.91016V9.67188H4.22517V7H4.54017V7.82813H4.70517C4.79517 7.82813 4.87017 7.75 4.87017 7.65625V6.65625C4.87017 6.28125 4.58517 5.98438 4.22517 5.98438H3.91016V6.65625H3.59516V5.96875C3.47516 5.9375 3.35516 5.89063 3.26516 5.8125C3.20516 5.76563 3.16016 5.71875 3.11516 5.65625V5.67188C2.99516 5.6875 2.89016 5.73438 2.78516 5.79688C3.07016 5.96875 3.26516 6.29688 3.26516 6.65625V7.65625C3.26516 7.9375 3.05516 8.15625 2.78516 8.15625H2.95016V8.48438H3.26516V9.67188H3.28016Z" fill="#D7111B"/>
<path d="M3.76027 4.67188C3.49027 4.67188 3.28027 4.89063 3.28027 5.17188C3.28027 5.45313 3.49027 5.67188 3.76027 5.67188C4.03027 5.67188 4.24027 5.45313 4.24027 5.17188C4.24027 4.89063 4.03027 4.67188 3.76027 4.67188ZM4.06027 5.01563C4.04527 5.01563 4.04527 5.01563 4.03027 5.01563C4.01527 5.01563 4.00027 5 3.98527 4.98438C3.94027 4.90625 3.86527 4.85938 3.80527 4.85938C3.77527 4.85938 3.76027 4.84375 3.76027 4.8125C3.76027 4.78125 3.77527 4.76563 3.80527 4.76563C3.91027 4.76563 4.01527 4.82813 4.07527 4.9375C4.09027 4.98438 4.07527 5.01563 4.06027 5.01563Z" fill="#D7111B"/>
<path d="M2.99512 4.92188C2.99512 4.90625 3.01012 4.89062 3.01012 4.875C3.01012 4.89062 3.01012 4.90625 2.99512 4.92188Z" fill="#D7111B"/>
<path d="M4.25586 4.5156C4.60086 4.79685 4.66086 5.3281 4.39086 5.68747C4.66086 5.31247 4.60086 4.79685 4.25586 4.5156C3.91086 4.23435 3.40086 4.29685 3.13086 4.65622C3.40086 4.29685 3.89586 4.23435 4.25586 4.5156Z" fill="#D7111B"/>
<path d="M2.63586 7.82812H2.80086C2.89086 7.82812 2.96586 7.75 2.96586 7.65625V6.65625C2.96586 6.375 2.78586 6.125 2.54586 6.03125C2.48586 6.10938 2.42586 6.20312 2.38086 6.3125V6.98438H2.63586V7.82812Z" fill="#D7111B"/>
<path d="M3.28078 7.67188C3.28078 7.95312 3.07078 8.17187 2.80078 8.17187C3.07078 8.17187 3.28078 7.9375 3.28078 7.67188Z" fill="#D7111B"/>
<path d="M8.59039 1.46875C6.71539 -0.484375 3.68539 -0.484375 1.81039 1.46875C0.910391 2.40625 0.400391 3.67188 0.400391 5C0.400391 5.10938 0.400391 5.23438 0.415391 5.34375C0.415391 5.4375 0.505391 5.5 0.595391 5.5C0.685391 5.48438 0.745391 5.40625 0.730391 5.32813C0.730391 5.21875 0.715391 5.10938 0.715391 5.01563C0.715391 4.28125 0.880391 3.54688 1.21039 2.875L1.55539 3.28125C1.55539 3.28125 1.55539 3.28125 1.57039 3.29688L1.58539 3.3125L1.87039 3.5625L2.53039 4.14063C2.54539 4.15625 2.56039 4.15625 2.57539 4.17188L2.90539 4.32812C2.98039 4.35938 3.08539 4.32813 3.11539 4.23438C3.14539 4.14063 3.11539 4.04688 3.02539 4.01562L2.71039 3.875L1.78039 3.0625L1.36039 2.57812C1.54039 2.26562 1.76539 1.98438 2.00539 1.71875C2.09539 1.625 2.18539 1.53125 2.27539 1.45312L2.45539 2.0625C2.47039 2.10938 2.51539 2.15625 2.56039 2.17188L3.58039 2.46875L3.71539 3.35938C3.73039 3.40625 3.74539 3.4375 3.77539 3.46875L4.39039 3.95312L5.50039 5.4375C5.54539 5.5 5.63539 5.51563 5.69539 5.48438L6.34039 5.15625C6.38539 5.125 6.41539 5.07813 6.43039 5.01563L6.58039 3.39062L7.16539 2.48438L7.90039 2.32812C7.91539 2.3125 7.94539 2.3125 7.96039 2.29688L8.48539 1.89062C8.95039 2.42188 9.28039 3.0625 9.46039 3.76563L9.25039 3.98438L9.10039 4.20312C9.08539 4.17188 9.07039 4.15625 9.05539 4.14063C9.02539 4.09375 9.01039 4.04688 8.98039 4C8.96539 3.98438 8.95039 3.95312 8.93539 3.9375L8.92039 3.92188C8.89039 3.89063 8.86039 3.85938 8.83039 3.82813C8.81539 3.8125 8.78539 3.79688 8.75539 3.76563C8.75539 3.76563 8.75539 3.76563 8.74039 3.76563C8.71039 3.73438 8.66539 3.71875 8.63539 3.6875C8.60539 3.67188 8.57539 3.65625 8.54539 3.64062C8.50039 3.625 8.47039 3.60938 8.42539 3.59375C8.39539 3.57813 8.36539 3.57812 8.33539 3.5625C8.29039 3.54688 8.24539 3.54688 8.20039 3.53125C8.17039 3.53125 8.14039 3.53125 8.11039 3.53125C8.06539 3.53125 8.02039 3.53125 7.97539 3.53125C7.94539 3.53125 7.91539 3.53125 7.88539 3.54687C7.84039 3.5625 7.79539 3.5625 7.75039 3.57813C7.75039 3.57813 7.75039 3.57813 7.73539 3.57813C7.70539 3.59375 7.67539 3.59375 7.66039 3.60938C7.60039 3.64063 7.52539 3.67188 7.46539 3.71875H7.45039C7.43539 3.71875 7.43539 3.73438 7.42039 3.73438C7.42039 3.73438 7.42039 3.73438 7.40539 3.73438C7.37539 3.76563 7.33039 3.79688 7.30039 3.82813C7.28539 3.84375 7.27039 3.85938 7.25539 3.875C7.21039 3.92188 7.18039 3.96875 7.15039 4.01562C7.15039 4.01562 7.15039 4.01562 7.15039 4.03125C7.13539 4.04688 7.13539 4.07812 7.12039 4.09375C7.10539 4.125 7.07539 4.17188 7.06039 4.21875C7.04539 4.25 7.04539 4.26563 7.03039 4.29688C7.01539 4.34375 7.00039 4.40625 6.98539 4.46875C6.98539 4.48438 6.98539 4.48438 6.98539 4.5V4.51562C6.98539 4.57812 6.97039 4.625 6.97039 4.6875C6.97039 4.70313 6.97039 4.73438 6.97039 4.75C6.97039 4.79688 6.98539 4.84375 6.98539 4.875C6.98539 4.89062 7.00039 4.92188 7.00039 4.9375C7.01539 4.98438 7.01539 5.01563 7.03039 5.0625C7.03039 5.07813 7.04539 5.09375 7.04539 5.10938C7.06039 5.17188 7.09039 5.21875 7.12039 5.28125L7.07539 5.4375L7.04539 5.53125L6.80539 6.40625L5.86039 7.89063C5.83039 7.9375 5.83039 8 5.84539 8.04688L6.41539 9.46875C6.02539 9.59375 5.60539 9.64063 5.18539 9.64063C5.14039 9.64063 5.08039 9.64063 5.03539 9.64063C4.94539 9.64063 4.87039 9.70313 4.87039 9.79688C4.87039 9.89063 4.93039 9.96875 5.02039 9.96875C5.08039 9.96875 5.14039 9.96875 5.18539 9.96875C7.84039 9.96875 9.98539 7.73438 9.98539 4.96875C10.0004 3.67188 9.49039 2.40625 8.59039 1.46875ZM7.85539 2.01562L7.09039 2.17188C7.04539 2.1875 7.01539 2.20313 6.98539 2.23438L6.34039 3.23438C6.32539 3.25 6.31039 3.28125 6.31039 3.3125L6.16039 4.89062L5.71039 5.125L4.67539 3.73438C4.66039 3.71875 4.66039 3.71875 4.64539 3.70312L4.06039 3.25L3.91039 2.3125C3.89539 2.25 3.85039 2.20312 3.79039 2.1875L2.75539 1.875L2.56039 1.23438C3.22039 0.734375 3.97039 0.453125 4.73539 0.375C5.20039 0.328125 5.66539 0.34375 6.13039 0.453125C6.92539 0.625 7.69039 1.03125 8.30539 1.65625L7.85539 2.01562ZM8.24539 3.84375C8.51539 3.90625 8.74039 4.10938 8.83039 4.375C9.07039 5.07813 8.33539 5.75 8.08039 5.95313C7.94539 5.84375 7.82539 5.73438 7.72039 5.60938C7.52539 5.39063 7.28539 5.03125 7.28539 4.65625C7.28539 4.15625 7.73539 3.75 8.24539 3.84375ZM6.17539 8.01562L7.09039 6.59375C7.09039 6.57812 7.10539 6.5625 7.10539 6.54688L7.27039 5.95313L7.34539 5.6875C7.45039 5.82813 7.58539 5.95313 7.70539 6.07813C7.79539 6.15625 7.88539 6.23438 7.97539 6.3125C8.03539 6.34375 8.09539 6.34375 8.15539 6.3125C8.20039 6.28125 9.19039 5.59375 9.19039 4.67188C9.19039 4.65625 9.19039 4.65625 9.19039 4.64062C9.19039 4.625 9.19039 4.59375 9.19039 4.57812L9.35539 4.40625L9.40039 4.375L9.61039 4.15625C9.65539 4.4375 9.68539 4.71875 9.68539 5.01563C9.68539 6.25 9.22039 7.4375 8.36539 8.3125C7.90039 8.79688 7.34539 9.17188 6.73039 9.40625L6.17539 8.01562Z" fill="#1D232E"/>
<path d="M8.08059 5.17188C8.35059 5.17188 8.56059 4.95312 8.56059 4.67187C8.56059 4.39062 8.35059 4.17188 8.08059 4.17188C7.81059 4.17188 7.60059 4.39062 7.60059 4.67187C7.60059 4.9375 7.81059 5.17188 8.08059 5.17188ZM8.08059 4.5C8.17059 4.5 8.24559 4.57812 8.24559 4.67187C8.24559 4.76562 8.17059 4.84375 8.08059 4.84375C7.99059 4.84375 7.91559 4.76562 7.91559 4.67187C7.91559 4.57812 7.99059 4.5 8.08059 4.5Z" fill="#1D232E"/>
<path d="M5.36574 1.32812C5.09574 1.32812 4.88574 1.54687 4.88574 1.82812C4.88574 2.10937 5.09574 2.32812 5.36574 2.32812C5.63574 2.32812 5.84574 2.10937 5.84574 1.82812C5.84574 1.54687 5.62074 1.32812 5.36574 1.32812ZM5.36574 2C5.27574 2 5.20074 1.92187 5.20074 1.82812C5.20074 1.73437 5.27574 1.65625 5.36574 1.65625C5.45574 1.65625 5.53074 1.73437 5.53074 1.82812C5.51574 1.92187 5.45574 2 5.36574 2Z" fill="#1D232E"/>
<path d="M4.24023 1.82812C4.24023 2.4375 4.69023 2.95312 4.99023 3.23438C5.12523 3.35938 5.23023 3.4375 5.26023 3.45313C5.30523 3.48438 5.38023 3.48438 5.44023 3.45313C5.45523 3.4375 5.63523 3.3125 5.84523 3.10938C6.13023 2.8125 6.47523 2.35938 6.47523 1.8125C6.47523 1.48437 6.35523 1.20312 6.14523 0.984375C5.93523 0.765625 5.66523 0.640625 5.35023 0.640625C4.75023 0.671875 4.24023 1.1875 4.24023 1.82812ZM6.16023 1.82812C6.16023 2.42187 5.59023 2.9375 5.36523 3.125C5.23023 3.01562 5.11023 2.90625 5.00523 2.78125C4.81023 2.5625 4.57023 2.20312 4.57023 1.82812C4.57023 1.375 4.93023 1 5.36523 1C5.80023 1 6.16023 1.375 6.16023 1.82812Z" fill="#1D232E"/>
<path d="M6.95563 7.82812H6.64062V8.15625H6.95563V7.82812Z" fill="#1D232E"/>
<path d="M8.39508 7H8.08008V7.32813H8.39508V7Z" fill="#1D232E"/>
<path d="M5.83062 4H5.51562V4.32812H5.83062V4Z" fill="#1D232E"/>
<path d="M1.51031 3.82812H1.19531V4.15625H1.51031V3.82812Z" fill="#1D232E"/>
<path d="M3.43023 1.17188H3.11523V1.5H3.43023V1.17188Z" fill="#1D232E"/>
<path d="M7.43512 1.32812H7.12012V1.65625H7.43512V1.32812Z" fill="#1D232E"/>
<path d="M3.28039 7.67188V6.67188C3.28039 6.3125 3.10039 5.98437 2.80039 5.8125C2.69539 5.75 2.59039 5.70312 2.47039 5.6875C2.50039 5.64062 2.53039 5.59375 2.56039 5.53125C2.57539 5.51562 2.57539 5.5 2.57539 5.48438C2.59039 5.45313 2.60539 5.40625 2.60539 5.375C2.60539 5.35937 2.60539 5.32812 2.62039 5.3125C2.62039 5.28125 2.63539 5.25 2.63539 5.20313C2.63539 5.1875 2.63539 5.15625 2.63539 5.14062C2.63539 5.10937 2.63539 5.07813 2.62039 5.04688C2.62039 5.03125 2.60539 5 2.60539 4.98437C2.59039 4.95312 2.59039 4.92188 2.57539 4.89063C2.56039 4.875 2.56039 4.84375 2.54539 4.82812C2.53039 4.79687 2.51539 4.76563 2.50039 4.73438C2.48539 4.71875 2.47039 4.70312 2.45539 4.67187C2.42539 4.64062 2.41039 4.60937 2.38039 4.59375C2.36539 4.57812 2.35039 4.5625 2.33539 4.54688C2.29039 4.51563 2.24539 4.46875 2.18539 4.45312C2.17039 4.45312 2.17039 4.45312 2.15539 4.4375C2.11039 4.42187 2.05039 4.39063 2.00539 4.39063C1.97539 4.39063 1.96039 4.375 1.93039 4.375C1.88539 4.375 1.84039 4.375 1.81039 4.375C1.79539 4.375 1.76539 4.375 1.75039 4.375C1.69039 4.375 1.63039 4.39063 1.58539 4.42188C1.57039 4.42188 1.54039 4.4375 1.52539 4.45312C1.48039 4.46875 1.45039 4.48437 1.40539 4.51562C1.39039 4.51562 1.37539 4.53125 1.37539 4.53125C1.36039 4.53125 1.36039 4.54687 1.34539 4.5625C1.33039 4.53125 1.30039 4.54688 1.28539 4.57813C1.27039 4.59375 1.25539 4.60937 1.22539 4.64062C1.21039 4.65625 1.21039 4.67188 1.19539 4.6875C1.15039 4.75 1.10539 4.82812 1.07539 4.90625C1.04539 4.98437 1.04539 5.0625 1.03039 5.14062C1.03039 5.15625 1.03039 5.17187 1.03039 5.1875C1.03039 5.26562 1.04539 5.34375 1.06039 5.42187C1.06039 5.4375 1.07539 5.45312 1.07539 5.46875C1.10539 5.54688 1.13539 5.625 1.19539 5.6875C0.850391 5.75 0.565391 6 0.445391 6.32812C0.415391 6.4375 0.400391 6.54688 0.400391 6.67188V7.67188C0.400391 7.75 0.415391 7.84375 0.460391 7.90625C0.535391 8.0625 0.700391 8.17187 0.880391 8.17187H1.04539V9.84375C1.04539 9.9375 1.12039 10.0156 1.21039 10.0156H2.48539C2.57539 10.0156 2.65039 9.9375 2.65039 9.84375V8.17187H2.80039C3.07039 8.17187 3.28039 7.9375 3.28039 7.67188ZM1.72039 4.6875C2.08039 4.59375 2.39539 4.92187 2.30539 5.29687C2.26039 5.46875 2.12539 5.60937 1.96039 5.65625C1.60039 5.75 1.28539 5.42188 1.37539 5.04688C1.42039 4.85938 1.55539 4.71875 1.72039 4.6875ZM2.96539 7.67188C2.96539 7.76562 2.89039 7.84375 2.80039 7.84375H2.63539V7.01562H2.38039H2.32039V9.6875H2.00539V8.51562H1.67539V9.6875H1.36039V7H1.04539V7.82812H0.880391C0.790391 7.82812 0.715391 7.75 0.715391 7.65625V6.65625C0.715391 6.28125 1.00039 5.98438 1.36039 5.98438H1.67539V6.65625H1.99039V5.98438H2.30539C2.38039 5.98438 2.45539 6 2.53039 6.03125C2.77039 6.125 2.95039 6.375 2.95039 6.65625V7.67188H2.96539Z" fill="#1D232E"/>
<path d="M5.20046 7.67185V6.67185C5.20046 6.17185 4.85546 5.7656 4.39046 5.68747C4.66046 5.3281 4.60046 4.79685 4.25546 4.5156C3.91047 4.23435 3.40047 4.29685 3.13047 4.65622C3.08547 4.71872 3.04047 4.79685 3.02547 4.87497C3.02547 4.8906 3.01047 4.90622 3.01047 4.92185C2.98047 4.99997 2.98047 5.0781 2.98047 5.15622C2.98047 5.17185 2.98047 5.18747 2.98047 5.18747C2.98047 5.2656 2.99547 5.35935 3.02547 5.43747C3.05547 5.5156 3.10047 5.59372 3.14547 5.67185C3.19047 5.73435 3.23547 5.78122 3.29547 5.8281C3.40047 5.90622 3.50547 5.9531 3.62547 5.98435V6.67185H3.94047V5.99997H4.25546C4.61546 5.99997 4.90046 6.29685 4.90046 6.67185V7.67185C4.90046 7.7656 4.82546 7.84372 4.73546 7.84372H4.57046V7.0156H4.25546V9.68747H3.94047V8.5156H3.62547V9.68747H3.31047V8.5156H2.99547V9.84372C2.99547 9.93747 3.07047 10.0156 3.16047 10.0156H4.43546C4.45046 10.0156 4.48046 10.0156 4.49546 9.99997C4.51046 9.98435 4.52546 9.98435 4.54046 9.96872C4.57046 9.93747 4.58546 9.8906 4.58546 9.84372V8.17185H4.75046C4.99046 8.17185 5.20046 7.93747 5.20046 7.67185ZM3.76047 5.67185C3.49047 5.67185 3.28047 5.4531 3.28047 5.17185C3.28047 4.8906 3.49047 4.67185 3.76047 4.67185C4.03046 4.67185 4.24046 4.8906 4.24046 5.17185C4.24046 5.43747 4.03046 5.67185 3.76047 5.67185Z" fill="#1D232E"/>
<path d="M1.88582 4.875C1.94582 4.875 2.03582 4.92188 2.06582 5C2.08082 5.01563 2.09582 5.03125 2.11082 5.03125C2.12582 5.03125 2.12582 5.03125 2.14082 5.03125C2.17082 5.01562 2.17082 4.98438 2.15582 4.96875C2.09582 4.85938 1.97582 4.79688 1.88582 4.79688C1.85582 4.79688 1.84082 4.82813 1.84082 4.84375C1.84082 4.85938 1.85582 4.875 1.88582 4.875Z" fill="white"/>
<path d="M3.80574 4.78125C3.77574 4.78125 3.76074 4.8125 3.76074 4.82812C3.76074 4.85937 3.79074 4.875 3.80574 4.875C3.86574 4.875 3.95574 4.92187 3.98574 5C4.00074 5.01562 4.01576 5.03125 4.03076 5.03125C4.04576 5.03125 4.04576 5.03125 4.06076 5.03125C4.09076 5.01562 4.09076 4.98437 4.07576 4.96875C4.01576 4.84375 3.91074 4.78125 3.80574 4.78125Z" fill="white"/>
</g>
<defs>
<clipPath id="clip0_1195_6506">
<rect width="10" height="10" fill="white"/>
</clipPath>
</defs>
</svg>
