<?xml version="1.0" encoding="UTF-8"?>
<svg xmlns="http://www.w3.org/2000/svg" xmlns:xlink="http://www.w3.org/1999/xlink" width="20px" height="22px" viewBox="0 0 20 22" version="1.1">
<defs>
<clipPath id="clip1">
  <path d="M 0 0 L 20 0 L 20 20.011719 L 0 20.011719 Z M 0 0 "/>
</clipPath>
</defs>
<g id="surface1">
<path style=" stroke:none;fill-rule:nonzero;fill:rgb(100%,100%,100%);fill-opacity:1;" d="M 17.96875 3.972656 C 18.113281 4.148438 18.070312 4.378906 17.90625 4.511719 C 17.742188 4.644531 17.511719 4.621094 17.363281 4.457031 C 17.328125 4.417969 17.300781 4.371094 17.265625 4.332031 C 17.109375 4.171875 16.953125 4.007812 16.800781 3.84375 C 16.796875 3.839844 16.792969 3.835938 16.789062 3.832031 C 17.179688 3.792969 17.640625 3.800781 17.96875 3.972656 Z M 17.96875 3.972656 "/>
<path style=" stroke:none;fill-rule:nonzero;fill:rgb(100%,100%,100%);fill-opacity:1;" d="M 18.605469 6.101562 C 18.386719 6.105469 18.203125 5.921875 18.207031 5.707031 C 18.214844 5.5 18.394531 5.320312 18.601562 5.324219 C 18.640625 5.324219 18.679688 5.332031 18.714844 5.34375 C 18.726562 5.347656 18.738281 5.351562 18.75 5.355469 C 18.757812 5.359375 18.765625 5.363281 18.773438 5.367188 C 18.777344 5.367188 18.78125 5.371094 18.785156 5.371094 C 18.792969 5.375 18.800781 5.382812 18.808594 5.386719 C 18.808594 5.386719 18.8125 5.390625 18.816406 5.390625 C 18.816406 5.394531 18.820312 5.394531 18.820312 5.394531 C 18.828125 5.402344 18.835938 5.40625 18.84375 5.414062 C 18.851562 5.417969 18.859375 5.425781 18.867188 5.433594 C 18.867188 5.4375 18.871094 5.4375 18.871094 5.4375 C 18.910156 5.527344 18.945312 5.617188 18.984375 5.710938 C 18.984375 5.925781 18.816406 6.097656 18.605469 6.101562 Z M 18.605469 6.101562 "/>
<path style=" stroke:none;fill-rule:nonzero;fill:rgb(100%,100%,100%);fill-opacity:1;" d="M 19.753906 7.828125 L 19.0625 8.320312 C 19.0625 8.308594 19.058594 8.296875 19.054688 8.28125 C 19.050781 8.25 19.042969 8.21875 19.039062 8.1875 C 19.035156 8.167969 19.03125 8.148438 19.023438 8.128906 C 19.019531 8.09375 19.011719 8.0625 19.003906 8.03125 C 19 8.003906 18.992188 7.980469 18.988281 7.957031 C 18.96875 7.863281 18.945312 7.773438 18.921875 7.683594 C 18.910156 7.636719 18.898438 7.59375 18.886719 7.550781 C 18.804688 7.25 18.90625 7.03125 19.148438 6.972656 C 19.226562 6.953125 19.296875 6.957031 19.363281 6.980469 C 19.367188 6.980469 19.375 6.984375 19.378906 6.984375 C 19.378906 6.988281 19.382812 6.988281 19.386719 6.988281 C 19.390625 6.992188 19.394531 6.992188 19.398438 6.996094 C 19.402344 6.996094 19.40625 7 19.410156 7 C 19.414062 7.003906 19.417969 7.003906 19.421875 7.007812 C 19.425781 7.011719 19.433594 7.015625 19.4375 7.015625 C 19.441406 7.019531 19.445312 7.023438 19.449219 7.027344 C 19.457031 7.03125 19.460938 7.035156 19.464844 7.039062 C 19.46875 7.042969 19.472656 7.046875 19.476562 7.046875 C 19.484375 7.054688 19.492188 7.0625 19.5 7.070312 C 19.652344 7.503906 19.746094 7.8125 19.753906 7.828125 Z M 19.753906 7.828125 "/>
<g clip-path="url(#clip1)" clip-rule="nonzero">
<path style=" stroke:none;fill-rule:nonzero;fill:rgb(0%,0%,0%);fill-opacity:1;" d="M 19.96875 10.765625 C 19.972656 10.707031 19.988281 10.652344 20 10.59375 L 20 9.382812 C 19.949219 9.023438 19.910156 8.664062 19.847656 8.304688 C 19.820312 8.144531 19.789062 7.984375 19.753906 7.828125 C 19.71875 7.667969 19.679688 7.511719 19.640625 7.351562 C 19.613281 7.230469 19.5625 7.136719 19.5 7.070312 C 19.492188 7.0625 19.484375 7.054688 19.476562 7.046875 C 19.472656 7.046875 19.46875 7.042969 19.464844 7.039062 C 19.460938 7.035156 19.457031 7.03125 19.449219 7.027344 C 19.445312 7.023438 19.441406 7.019531 19.4375 7.015625 C 19.433594 7.015625 19.425781 7.011719 19.421875 7.007812 C 19.417969 7.003906 19.414062 7.003906 19.410156 7 C 19.40625 7 19.402344 6.996094 19.398438 6.996094 C 19.394531 6.992188 19.390625 6.992188 19.386719 6.988281 C 19.382812 6.988281 19.378906 6.988281 19.378906 6.984375 C 19.371094 6.984375 19.367188 6.980469 19.363281 6.980469 C 19.296875 6.957031 19.226562 6.953125 19.148438 6.972656 C 18.90625 7.03125 18.804688 7.25 18.886719 7.546875 C 18.898438 7.59375 18.910156 7.636719 18.921875 7.683594 C 18.945312 7.773438 18.96875 7.863281 18.988281 7.953125 C 18.992188 7.980469 19 8.003906 19.003906 8.03125 C 19.011719 8.0625 19.019531 8.09375 19.023438 8.128906 C 19.03125 8.148438 19.035156 8.167969 19.039062 8.1875 C 19.042969 8.21875 19.050781 8.25 19.054688 8.28125 C 19.058594 8.296875 19.0625 8.308594 19.0625 8.320312 C 19.074219 8.371094 19.082031 8.421875 19.089844 8.472656 C 19.097656 8.511719 19.105469 8.550781 19.109375 8.59375 C 19.121094 8.652344 19.128906 8.710938 19.136719 8.769531 C 19.140625 8.816406 19.148438 8.863281 19.152344 8.910156 C 19.152344 8.910156 19.152344 8.914062 19.15625 8.914062 C 19.160156 8.964844 19.167969 9.011719 19.171875 9.0625 C 19.175781 9.101562 19.179688 9.136719 19.183594 9.175781 C 19.183594 9.203125 19.1875 9.230469 19.1875 9.253906 C 19.1875 9.257812 19.1875 9.257812 19.1875 9.257812 C 19.191406 9.296875 19.195312 9.335938 19.199219 9.375 C 19.199219 9.414062 19.203125 9.457031 19.207031 9.5 C 19.207031 9.515625 19.207031 9.53125 19.207031 9.546875 C 19.210938 9.636719 19.214844 9.722656 19.21875 9.8125 C 19.21875 9.835938 19.21875 9.859375 19.21875 9.882812 C 19.21875 9.992188 19.21875 10.101562 19.214844 10.210938 C 19.183594 11.625 18.84375 12.964844 18.199219 14.222656 C 18.183594 14.25 18.167969 14.277344 18.136719 14.335938 C 17.929688 13.625 17.503906 13.148438 16.796875 12.988281 C 16.089844 12.824219 15.503906 13.066406 14.992188 13.640625 C 14.933594 13.535156 14.855469 13.453125 14.84375 13.363281 C 14.785156 12.816406 14.984375 12.363281 15.414062 12.027344 C 15.84375 11.6875 16.148438 11.273438 16.285156 10.742188 C 16.527344 9.804688 16.164062 8.84375 15.359375 8.292969 C 15.023438 8.0625 14.671875 7.847656 14.328125 7.625 C 13.414062 7.027344 12.96875 5.984375 13.1875 4.964844 C 13.421875 3.886719 14.238281 3.121094 15.339844 2.953125 C 15.5 2.929688 15.664062 2.929688 15.828125 2.9375 C 15.894531 2.941406 15.976562 2.984375 16.027344 3.035156 C 16.101562 3.109375 16.175781 3.1875 16.25 3.265625 C 16.300781 3.316406 16.351562 3.371094 16.402344 3.425781 C 16.53125 3.558594 16.660156 3.695312 16.789062 3.832031 C 16.792969 3.835938 16.796875 3.839844 16.800781 3.84375 C 16.957031 4.007812 17.109375 4.171875 17.265625 4.332031 C 17.300781 4.371094 17.328125 4.417969 17.363281 4.457031 C 17.511719 4.621094 17.742188 4.644531 17.90625 4.511719 C 18.070312 4.378906 18.113281 4.148438 17.96875 3.972656 C 17.65625 3.597656 17.347656 3.214844 17 2.875 C 15.332031 1.25 13.332031 0.308594 11.011719 0.0546875 C 5.929688 -0.492188 1.136719 3.046875 0.195312 8.066406 C -0.363281 11.042969 0.292969 13.746094 2.121094 16.160156 C 2.148438 16.199219 2.175781 16.234375 2.21875 16.289062 C 2.15625 16.320312 2.101562 16.351562 2.046875 16.378906 C 0.789062 17.03125 0.105469 18.0625 0.00390625 19.480469 C -0.015625 19.722656 0.0625 19.894531 0.273438 20.011719 L 20 20.011719 L 20 19.269531 C 19.96875 19.109375 19.941406 18.949219 19.902344 18.792969 C 19.617188 17.683594 18.960938 16.875 17.929688 16.367188 C 17.882812 16.347656 17.839844 16.320312 17.820312 16.308594 C 18.15625 15.777344 18.507812 15.273438 18.804688 14.734375 C 19.484375 13.5 19.863281 12.171875 19.96875 10.765625 Z M 15.433594 14.859375 C 15.433594 14.269531 15.675781 13.890625 16.140625 13.757812 C 16.714844 13.597656 17.296875 13.972656 17.367188 14.574219 C 17.394531 14.78125 17.390625 15.003906 17.351562 15.210938 C 17.257812 15.71875 16.8125 16.035156 16.296875 15.984375 C 15.824219 15.941406 15.449219 15.53125 15.433594 15.035156 C 15.429688 14.976562 15.433594 14.917969 15.433594 14.859375 Z M 0.871094 8.753906 C 1.082031 7.230469 1.640625 5.847656 2.539062 4.597656 C 2.621094 4.484375 2.707031 4.441406 2.847656 4.445312 C 3.25 4.457031 3.652344 4.445312 4.054688 4.449219 C 4.691406 4.457031 5.171875 4.792969 5.355469 5.347656 C 5.535156 5.898438 5.351562 6.453125 4.851562 6.828125 C 4.167969 7.339844 3.710938 8.003906 3.4375 8.8125 C 3.054688 9.941406 2.269531 10.632812 1.109375 10.890625 C 1.023438 10.910156 0.933594 10.914062 0.835938 10.929688 C 0.746094 10.1875 0.769531 9.46875 0.871094 8.753906 Z M 1.855469 14.320312 C 1.417969 13.5 1.121094 12.640625 0.945312 11.722656 C 1.15625 11.675781 1.367188 11.640625 1.570312 11.578125 C 2.824219 11.199219 3.703125 10.402344 4.136719 9.164062 C 4.394531 8.441406 4.789062 7.851562 5.402344 7.386719 C 6.109375 6.851562 6.367188 5.9375 6.097656 5.109375 C 5.824219 4.273438 5.085938 3.710938 4.199219 3.675781 C 3.929688 3.664062 3.65625 3.671875 3.375 3.671875 C 3.769531 2.871094 6.164062 1.449219 7.769531 1.066406 C 10.304688 0.460938 12.683594 0.851562 14.949219 2.210938 C 14.863281 2.242188 14.8125 2.261719 14.761719 2.277344 C 13.453125 2.707031 12.621094 3.589844 12.40625 4.949219 C 12.1875 6.300781 12.683594 7.40625 13.800781 8.207031 C 14.171875 8.472656 14.570312 8.695312 14.941406 8.957031 C 15.789062 9.554688 15.785156 10.789062 14.925781 11.398438 C 14.890625 11.296875 14.863281 11.210938 14.828125 11.128906 C 14.519531 10.367188 13.710938 9.917969 12.902344 10.058594 C 12.097656 10.195312 11.492188 10.894531 11.449219 11.714844 C 11.417969 12.3125 11.5 12.871094 11.945312 13.332031 C 11.746094 13.429688 11.574219 13.511719 11.382812 13.605469 C 11.023438 13.1875 10.566406 12.941406 10 12.941406 C 9.4375 12.941406 8.984375 13.183594 8.621094 13.605469 C 8.4375 13.515625 8.261719 13.433594 8.082031 13.34375 C 8.089844 13.324219 8.09375 13.296875 8.109375 13.277344 C 8.609375 12.691406 8.652344 12.007812 8.476562 11.308594 C 8.261719 10.457031 7.441406 9.941406 6.546875 10.050781 C 5.742188 10.148438 5.089844 10.871094 5.042969 11.703125 C 5.011719 12.300781 5.085938 12.859375 5.539062 13.332031 C 5.34375 13.425781 5.164062 13.511719 4.988281 13.597656 C 3.699219 12.5 2.5625 12.757812 1.855469 14.320312 Z M 13.78125 12.890625 C 13.230469 13.308594 12.417969 13.023438 12.269531 12.347656 C 12.21875 12.113281 12.21875 11.855469 12.253906 11.613281 C 12.332031 11.101562 12.777344 10.78125 13.292969 10.820312 C 13.78125 10.859375 14.160156 11.265625 14.179688 11.773438 C 14.179688 11.832031 14.179688 11.890625 14.179688 11.96875 C 14.203125 12.328125 14.097656 12.65625 13.78125 12.890625 Z M 10.945312 15.214844 C 10.851562 15.71875 10.40625 16.035156 9.890625 15.984375 C 9.417969 15.941406 9.042969 15.53125 9.027344 15.035156 C 9.023438 14.976562 9.027344 14.917969 9.027344 14.859375 C 9.027344 14.269531 9.269531 13.890625 9.734375 13.757812 C 10.308594 13.597656 10.890625 13.972656 10.964844 14.574219 C 10.988281 14.785156 10.984375 15.003906 10.945312 15.214844 Z M 7.773438 11.953125 C 7.773438 12.5625 7.5 12.957031 7.003906 13.0625 C 6.441406 13.179688 5.902344 12.804688 5.835938 12.230469 C 5.8125 12.019531 5.8125 11.800781 5.851562 11.589844 C 5.945312 11.089844 6.378906 10.78125 6.890625 10.824219 C 7.371094 10.859375 7.75 11.261719 7.769531 11.757812 C 7.773438 11.820312 7.773438 11.886719 7.773438 11.953125 Z M 4.542969 15.210938 C 4.449219 15.71875 4 16.035156 3.484375 15.984375 C 3.011719 15.941406 2.636719 15.53125 2.621094 15.035156 C 2.621094 14.976562 2.621094 14.917969 2.621094 14.859375 C 2.621094 14.269531 2.863281 13.890625 3.328125 13.757812 C 3.902344 13.597656 4.484375 13.972656 4.558594 14.570312 C 4.582031 14.78125 4.578125 15.003906 4.542969 15.210938 Z M 0.832031 19.222656 C 0.8125 18.074219 2.148438 16.855469 3.460938 16.808594 C 5.082031 16.746094 6.234375 17.996094 6.363281 19.222656 Z M 4.847656 16.25 C 5.347656 15.722656 5.402344 15.105469 5.332031 14.449219 C 5.328125 14.390625 5.371094 14.292969 5.417969 14.269531 C 6.335938 13.773438 7.253906 13.777344 8.175781 14.257812 C 8.269531 14.308594 8.277344 14.363281 8.265625 14.460938 C 8.199219 15.226562 8.253906 15.664062 8.738281 16.25 C 7.894531 16.589844 7.246094 17.152344 6.800781 17.980469 C 6.347656 17.164062 5.71875 16.59375 4.847656 16.25 Z M 7.234375 19.21875 C 7.324219 18.140625 8.355469 16.828125 9.972656 16.808594 C 11.550781 16.792969 12.652344 18.046875 12.769531 19.21875 Z M 11.261719 16.25 C 11.511719 15.957031 11.699219 15.640625 11.730469 15.261719 C 11.753906 15 11.75 14.730469 11.734375 14.464844 C 11.726562 14.355469 11.746094 14.300781 11.839844 14.253906 C 12.757812 13.777344 13.671875 13.777344 14.582031 14.265625 C 14.628906 14.292969 14.675781 14.386719 14.667969 14.445312 C 14.601562 15.101562 14.652344 15.722656 15.15625 16.246094 C 14.289062 16.59375 13.652344 17.160156 13.203125 17.980469 C 12.753906 17.164062 12.121094 16.589844 11.261719 16.25 Z M 19.171875 19.21875 L 13.636719 19.21875 C 13.742188 18.089844 14.820312 16.792969 16.4375 16.808594 C 18.015625 16.824219 19.070312 18.09375 19.171875 19.21875 Z M 19.171875 19.21875 "/>
</g>
<path style=" stroke:none;fill-rule:nonzero;fill:rgb(52.54902%,87.843137%,54.901961%);fill-opacity:1;" d="M 19.5 7.070312 C 19.492188 7.0625 19.484375 7.054688 19.476562 7.046875 C 19.472656 7.042969 19.46875 7.042969 19.464844 7.039062 C 19.460938 7.035156 19.457031 7.03125 19.449219 7.027344 C 19.445312 7.023438 19.441406 7.019531 19.4375 7.015625 C 19.433594 7.015625 19.425781 7.011719 19.421875 7.007812 C 19.417969 7.003906 19.414062 7.003906 19.410156 7 C 19.40625 7 19.402344 6.996094 19.398438 6.996094 C 19.394531 6.992188 19.390625 6.992188 19.386719 6.988281 C 19.382812 6.988281 19.378906 6.988281 19.378906 6.984375 C 19.371094 6.984375 19.367188 6.980469 19.363281 6.980469 C 19.296875 6.957031 19.226562 6.953125 19.148438 6.972656 C 18.90625 7.03125 18.804688 7.25 18.886719 7.550781 C 18.898438 7.59375 18.910156 7.636719 18.921875 7.683594 C 18.945312 7.773438 18.96875 7.863281 18.988281 7.957031 C 18.992188 7.980469 19 8.003906 19.003906 8.03125 C 19.011719 8.0625 19.019531 8.09375 19.023438 8.128906 C 19.03125 8.148438 19.035156 8.167969 19.039062 8.1875 C 19.042969 8.21875 19.050781 8.25 19.054688 8.28125 C 19.058594 8.296875 19.0625 8.308594 19.0625 8.320312 C 19.074219 8.371094 19.082031 8.421875 19.089844 8.472656 C 19.097656 8.511719 19.105469 8.550781 19.109375 8.59375 C 19.121094 8.652344 19.128906 8.710938 19.136719 8.769531 C 19.140625 8.816406 19.148438 8.863281 19.152344 8.910156 C 19.152344 8.910156 19.152344 8.914062 19.15625 8.914062 C 19.160156 8.964844 19.167969 9.015625 19.171875 9.0625 C 19.175781 9.101562 19.179688 9.136719 19.183594 9.175781 C 19.183594 9.203125 19.1875 9.230469 19.1875 9.253906 C 19.1875 9.257812 19.1875 9.257812 19.1875 9.257812 C 19.191406 9.296875 19.195312 9.335938 19.199219 9.375 C 19.199219 9.414062 19.203125 9.457031 19.207031 9.5 C 19.207031 9.515625 19.207031 9.53125 19.207031 9.546875 C 19.210938 9.636719 19.214844 9.722656 19.21875 9.8125 C 19.21875 9.835938 19.21875 9.859375 19.21875 9.882812 C 19.21875 9.992188 19.21875 10.101562 19.214844 10.210938 C 19.183594 11.625 18.84375 12.964844 18.199219 14.222656 C 18.183594 14.25 18.167969 14.277344 18.136719 14.335938 C 17.929688 13.625 17.503906 13.148438 16.796875 12.988281 C 16.089844 12.824219 15.503906 13.066406 14.992188 13.640625 C 14.933594 13.535156 14.855469 13.453125 14.84375 13.363281 C 14.785156 12.816406 14.984375 12.367188 15.414062 12.027344 C 15.84375 11.6875 16.148438 11.273438 16.285156 10.742188 C 16.527344 9.804688 16.164062 8.84375 15.359375 8.292969 C 15.023438 8.0625 14.671875 7.847656 14.328125 7.625 C 13.414062 7.027344 12.96875 5.984375 13.1875 4.964844 C 13.421875 3.886719 14.238281 3.121094 15.339844 2.953125 C 15.5 2.929688 15.664062 2.929688 15.828125 2.9375 C 15.894531 2.941406 15.976562 2.984375 16.027344 3.035156 C 16.101562 3.109375 16.175781 3.1875 16.25 3.265625 C 16.300781 3.316406 16.351562 3.371094 16.402344 3.425781 C 16.53125 3.558594 16.660156 3.695312 16.789062 3.832031 C 16.792969 3.835938 16.796875 3.839844 16.800781 3.84375 C 16.953125 4.007812 17.109375 4.171875 17.265625 4.332031 C 17.300781 4.371094 17.328125 4.417969 17.363281 4.457031 C 17.511719 4.621094 17.742188 4.644531 17.90625 4.511719 C 18.070312 4.378906 18.113281 4.148438 17.96875 3.972656 C 18.234375 4.117188 18.566406 4.734375 18.871094 5.4375 C 18.871094 5.4375 18.867188 5.4375 18.867188 5.4375 C 18.859375 5.425781 18.851562 5.417969 18.84375 5.414062 C 18.835938 5.40625 18.828125 5.402344 18.820312 5.394531 C 18.820312 5.394531 18.816406 5.394531 18.816406 5.390625 C 18.8125 5.390625 18.808594 5.386719 18.808594 5.386719 C 18.800781 5.382812 18.792969 5.375 18.785156 5.371094 C 18.78125 5.371094 18.777344 5.367188 18.773438 5.367188 C 18.765625 5.363281 18.757812 5.359375 18.75 5.355469 C 18.738281 5.351562 18.726562 5.347656 18.714844 5.34375 C 18.679688 5.332031 18.640625 5.324219 18.601562 5.324219 C 18.394531 5.320312 18.214844 5.5 18.207031 5.707031 C 18.203125 5.921875 18.386719 6.105469 18.605469 6.101562 C 18.816406 6.097656 18.984375 5.925781 18.984375 5.714844 L 18.984375 5.710938 C 19.183594 6.1875 19.363281 6.679688 19.5 7.070312 Z M 19.5 7.070312 "/>
<path style=" stroke:none;fill-rule:nonzero;fill:rgb(49.411765%,70.588235%,100%);fill-opacity:1;" d="M 14.925781 11.398438 C 14.890625 11.296875 14.863281 11.210938 14.828125 11.128906 C 14.519531 10.367188 13.710938 9.917969 12.902344 10.058594 C 12.097656 10.195312 11.492188 10.894531 11.449219 11.714844 C 11.417969 12.3125 11.5 12.871094 11.945312 13.332031 C 11.746094 13.425781 11.574219 13.511719 11.382812 13.605469 C 11.023438 13.1875 10.566406 12.9375 10 12.941406 C 9.4375 12.941406 8.984375 13.183594 8.621094 13.601562 C 8.4375 13.515625 8.261719 13.433594 8.082031 13.34375 C 8.089844 13.320312 8.09375 13.296875 8.109375 13.277344 C 8.609375 12.691406 8.652344 12.007812 8.476562 11.308594 C 8.261719 10.457031 7.441406 9.941406 6.546875 10.050781 C 5.742188 10.148438 5.089844 10.867188 5.042969 11.703125 C 5.011719 12.296875 5.085938 12.859375 5.539062 13.328125 C 5.34375 13.425781 5.164062 13.511719 4.988281 13.597656 C 3.699219 12.5 2.5625 12.757812 1.855469 14.320312 C 1.417969 13.5 1.121094 12.640625 0.945312 11.722656 C 1.160156 11.675781 1.367188 11.640625 1.570312 11.578125 C 2.824219 11.199219 3.703125 10.402344 4.136719 9.164062 C 4.394531 8.441406 4.789062 7.847656 5.402344 7.382812 C 6.109375 6.851562 6.371094 5.9375 6.097656 5.109375 C 5.828125 4.273438 5.085938 3.710938 4.199219 3.675781 C 3.929688 3.664062 3.65625 3.671875 3.375 3.671875 C 3.769531 2.871094 6.164062 1.449219 7.769531 1.0625 C 10.304688 0.457031 12.683594 0.851562 14.949219 2.210938 C 14.863281 2.242188 14.8125 2.261719 14.765625 2.277344 C 13.453125 2.707031 12.625 3.589844 12.40625 4.949219 C 12.191406 6.300781 12.6875 7.402344 13.800781 8.207031 C 14.171875 8.472656 14.570312 8.695312 14.941406 8.957031 C 15.789062 9.554688 15.785156 10.785156 14.925781 11.398438 Z M 11.289062 6.828125 C 11.289062 6.613281 11.292969 6.46875 11.289062 6.328125 C 11.273438 5.550781 10.753906 4.886719 10.003906 4.679688 C 9.257812 4.476562 8.464844 4.785156 8.0625 5.453125 C 7.863281 5.789062 7.679688 6.132812 7.503906 6.480469 C 7.296875 6.890625 7.25 7.328125 7.371094 7.769531 C 7.574219 8.519531 8.054688 9.007812 8.808594 9.179688 C 9.605469 9.359375 10.269531 9.078125 10.796875 8.472656 C 11.21875 7.980469 11.339844 7.390625 11.289062 6.828125 Z M 11.289062 6.828125 "/>
<path style=" stroke:none;fill-rule:nonzero;fill:rgb(52.54902%,87.843137%,54.901961%);fill-opacity:1;" d="M 0.835938 10.929688 C 0.746094 10.1875 0.769531 9.46875 0.871094 8.753906 C 1.082031 7.230469 1.640625 5.847656 2.539062 4.597656 C 2.621094 4.484375 2.707031 4.441406 2.847656 4.445312 C 3.25 4.457031 3.652344 4.445312 4.054688 4.449219 C 4.691406 4.457031 5.171875 4.792969 5.355469 5.347656 C 5.535156 5.898438 5.351562 6.453125 4.851562 6.828125 C 4.167969 7.34375 3.710938 8.003906 3.4375 8.8125 C 3.054688 9.941406 2.269531 10.632812 1.109375 10.890625 C 1.023438 10.910156 0.933594 10.914062 0.835938 10.929688 Z M 0.835938 10.929688 "/>
<path style=" stroke:none;fill-rule:nonzero;fill:rgb(100%,80.784314%,37.647059%);fill-opacity:1;" d="M 6.367188 19.222656 C 4.511719 19.222656 2.671875 19.222656 0.835938 19.222656 C 0.8125 18.074219 2.148438 16.855469 3.460938 16.808594 C 5.082031 16.746094 6.234375 17.996094 6.367188 19.222656 Z M 6.367188 19.222656 "/>
<path style=" stroke:none;fill-rule:nonzero;fill:rgb(100%,48.627451%,58.823529%);fill-opacity:1;" d="M 7.234375 19.21875 C 7.324219 18.140625 8.355469 16.824219 9.972656 16.808594 C 11.550781 16.792969 12.65625 18.046875 12.769531 19.21875 C 10.921875 19.21875 9.078125 19.21875 7.234375 19.21875 Z M 7.234375 19.21875 "/>
<path style=" stroke:none;fill-rule:nonzero;fill:rgb(77.254902%,82.745098%,87.45098%);fill-opacity:1;" d="M 13.640625 19.21875 C 13.742188 18.089844 14.820312 16.792969 16.4375 16.808594 C 18.015625 16.824219 19.070312 18.097656 19.171875 19.21875 C 17.328125 19.21875 15.484375 19.21875 13.640625 19.21875 Z M 13.640625 19.21875 "/>
<path style=" stroke:none;fill-rule:nonzero;fill:rgb(77.254902%,82.745098%,87.45098%);fill-opacity:1;" d="M 4.847656 16.246094 C 5.347656 15.726562 5.402344 15.105469 5.332031 14.449219 C 5.328125 14.390625 5.371094 14.292969 5.417969 14.269531 C 6.335938 13.773438 7.253906 13.777344 8.175781 14.257812 C 8.269531 14.308594 8.277344 14.363281 8.265625 14.460938 C 8.199219 15.222656 8.253906 15.664062 8.738281 16.25 C 7.894531 16.589844 7.246094 17.152344 6.800781 17.980469 C 6.347656 17.164062 5.71875 16.59375 4.847656 16.246094 Z M 4.847656 16.246094 "/>
<path style=" stroke:none;fill-rule:nonzero;fill:rgb(77.254902%,82.745098%,87.45098%);fill-opacity:1;" d="M 15.15625 16.246094 C 14.289062 16.59375 13.652344 17.160156 13.203125 17.980469 C 12.753906 17.164062 12.121094 16.589844 11.261719 16.25 C 11.511719 15.957031 11.703125 15.640625 11.730469 15.261719 C 11.753906 15 11.75 14.730469 11.734375 14.464844 C 11.726562 14.355469 11.746094 14.300781 11.839844 14.253906 C 12.757812 13.777344 13.671875 13.777344 14.582031 14.265625 C 14.628906 14.292969 14.675781 14.386719 14.667969 14.445312 C 14.601562 15.101562 14.652344 15.722656 15.15625 16.246094 Z M 15.15625 16.246094 "/>
<path style=" stroke:none;fill-rule:nonzero;fill:rgb(95.294118%,70.196078%,56.862745%);fill-opacity:1;" d="M 2.621094 14.859375 C 2.621094 14.269531 2.863281 13.890625 3.328125 13.757812 C 3.902344 13.597656 4.484375 13.972656 4.558594 14.570312 C 4.582031 14.78125 4.578125 15.003906 4.542969 15.210938 C 4.449219 15.71875 4.003906 16.035156 3.488281 15.988281 C 3.011719 15.945312 2.636719 15.53125 2.621094 15.035156 C 2.621094 14.976562 2.621094 14.917969 2.621094 14.859375 Z M 2.621094 14.859375 "/>
<path style=" stroke:none;fill-rule:nonzero;fill:rgb(95.294118%,70.196078%,56.862745%);fill-opacity:1;" d="M 9.027344 14.859375 C 9.027344 14.269531 9.269531 13.890625 9.734375 13.757812 C 10.308594 13.597656 10.890625 13.972656 10.964844 14.574219 C 10.988281 14.785156 10.984375 15.003906 10.945312 15.214844 C 10.851562 15.71875 10.40625 16.035156 9.890625 15.984375 C 9.417969 15.941406 9.042969 15.53125 9.027344 15.035156 C 9.023438 14.976562 9.027344 14.917969 9.027344 14.859375 Z M 9.027344 14.859375 "/>
<path style=" stroke:none;fill-rule:nonzero;fill:rgb(95.294118%,70.196078%,56.862745%);fill-opacity:1;" d="M 15.433594 14.859375 C 15.433594 14.269531 15.675781 13.890625 16.140625 13.757812 C 16.714844 13.597656 17.296875 13.972656 17.367188 14.570312 C 17.394531 14.78125 17.390625 15.003906 17.351562 15.210938 C 17.257812 15.71875 16.8125 16.035156 16.296875 15.984375 C 15.824219 15.941406 15.449219 15.53125 15.433594 15.035156 C 15.429688 14.976562 15.433594 14.917969 15.433594 14.859375 Z M 15.433594 14.859375 "/>
<path style=" stroke:none;fill-rule:nonzero;fill:rgb(95.294118%,70.196078%,56.862745%);fill-opacity:1;" d="M 7.773438 11.953125 C 7.773438 12.5625 7.5 12.957031 7.003906 13.0625 C 6.441406 13.179688 5.902344 12.804688 5.835938 12.230469 C 5.8125 12.019531 5.8125 11.796875 5.851562 11.589844 C 5.945312 11.089844 6.378906 10.78125 6.890625 10.820312 C 7.371094 10.859375 7.75 11.261719 7.769531 11.757812 C 7.773438 11.820312 7.773438 11.886719 7.773438 11.953125 Z M 7.773438 11.953125 "/>
<path style=" stroke:none;fill-rule:nonzero;fill:rgb(95.294118%,70.196078%,56.862745%);fill-opacity:1;" d="M 14.179688 11.96875 C 14.203125 12.328125 14.097656 12.65625 13.78125 12.890625 C 13.230469 13.308594 12.417969 13.023438 12.269531 12.347656 C 12.21875 12.113281 12.21875 11.855469 12.253906 11.613281 C 12.332031 11.101562 12.777344 10.78125 13.292969 10.820312 C 13.78125 10.859375 14.160156 11.265625 14.179688 11.773438 C 14.179688 11.832031 14.179688 11.890625 14.179688 11.96875 Z M 14.179688 11.96875 "/>
<path style=" stroke:none;fill-rule:nonzero;fill:rgb(0%,0%,0%);fill-opacity:1;" d="M 18.984375 5.710938 C 18.984375 5.925781 18.816406 6.097656 18.605469 6.101562 C 18.386719 6.105469 18.203125 5.921875 18.207031 5.707031 C 18.214844 5.5 18.394531 5.320312 18.601562 5.324219 C 18.640625 5.324219 18.679688 5.332031 18.714844 5.34375 C 18.726562 5.347656 18.738281 5.351562 18.75 5.355469 C 18.757812 5.359375 18.765625 5.363281 18.773438 5.367188 C 18.777344 5.367188 18.78125 5.371094 18.785156 5.371094 C 18.792969 5.375 18.800781 5.382812 18.808594 5.386719 C 18.808594 5.386719 18.8125 5.390625 18.816406 5.390625 C 18.816406 5.394531 18.820312 5.394531 18.820312 5.394531 C 18.828125 5.402344 18.835938 5.40625 18.84375 5.414062 C 18.851562 5.417969 18.859375 5.425781 18.867188 5.433594 C 18.867188 5.4375 18.871094 5.4375 18.871094 5.4375 C 18.941406 5.507812 18.984375 5.605469 18.984375 5.710938 Z M 18.984375 5.710938 "/>
<path style=" stroke:none;fill-rule:nonzero;fill:rgb(0%,0%,0%);fill-opacity:1;" d="M 11.289062 6.828125 C 11.335938 7.390625 11.21875 7.980469 10.796875 8.472656 C 10.269531 9.078125 9.605469 9.359375 8.808594 9.179688 C 8.054688 9.007812 7.570312 8.519531 7.371094 7.769531 C 7.25 7.328125 7.296875 6.890625 7.503906 6.480469 C 7.679688 6.132812 7.863281 5.789062 8.0625 5.453125 C 8.464844 4.785156 9.257812 4.476562 10.003906 4.679688 C 10.753906 4.886719 11.273438 5.550781 11.289062 6.328125 C 11.292969 6.46875 11.289062 6.613281 11.289062 6.828125 Z M 10.527344 6.769531 C 10.523438 6.769531 10.515625 6.769531 10.507812 6.769531 C 10.507812 6.625 10.511719 6.484375 10.507812 6.339844 C 10.496094 5.917969 10.222656 5.558594 9.824219 5.441406 C 9.414062 5.320312 8.976562 5.46875 8.75 5.835938 C 8.546875 6.167969 8.355469 6.511719 8.1875 6.863281 C 7.976562 7.308594 8.105469 7.835938 8.472656 8.160156 C 9.148438 8.757812 10.242188 8.371094 10.460938 7.449219 C 10.515625 7.230469 10.507812 6.996094 10.527344 6.769531 Z M 10.527344 6.769531 "/>
<path style=" stroke:none;fill-rule:nonzero;fill:rgb(52.54902%,87.843137%,54.901961%);fill-opacity:1;" d="M 10.527344 6.769531 C 10.507812 6.996094 10.515625 7.230469 10.460938 7.449219 C 10.242188 8.371094 9.148438 8.757812 8.472656 8.160156 C 8.105469 7.835938 7.976562 7.308594 8.191406 6.863281 C 8.359375 6.511719 8.546875 6.167969 8.75 5.835938 C 8.976562 5.46875 9.414062 5.320312 9.824219 5.441406 C 10.222656 5.558594 10.5 5.917969 10.507812 6.339844 C 10.511719 6.484375 10.511719 6.625 10.511719 6.769531 C 10.515625 6.769531 10.523438 6.769531 10.527344 6.769531 Z M 10.527344 6.769531 "/>
</g>
</svg>
