<svg width="18" height="18" viewBox="0 0 10 10" fill="none" xmlns="http://www.w3.org/2000/svg">
<path d="M4.99998 0C4.01107 0 3.0444 0.293243 2.22215 0.842651C1.3999 1.39206 0.759054 2.17293 0.380615 3.08656C0.00217646 4.00019 -0.0968539 5.00554 0.0960725 5.97544C0.288999 6.94535 0.765183 7.83629 1.46445 8.53555C2.16371 9.23482 3.05465 9.711 4.02456 9.90393C4.99446 10.0969 5.99981 9.99778 6.91344 9.61934C7.82707 9.2409 8.60794 8.60005 9.15735 7.77781C9.70676 6.95556 10 5.98888 10 4.99997C10 3.67389 9.47325 2.40207 8.53556 1.46439C7.59788 0.526707 6.32607 0 4.99998 0ZM4.17013 6.95893L2.5082 5.29695L3.09404 4.71119L4.1694 5.78359L6.90597 3.04621L7.49182 3.63725L4.17013 6.95893Z" fill="#0868EA"/>
</svg>
