<svg width="31" height="30" viewBox="0 0 31 30" fill="none" xmlns="http://www.w3.org/2000/svg">
<g clip-path="url(#clip0_456_7665)">
<path d="M30.1416 14.9998C30.1416 23.2839 23.427 30 15.1422 30C6.85771 30 0.141602 23.2835 0.141602 14.9998C0.141602 6.71611 6.85771 0 15.1418 0C23.427 0 30.1416 6.71573 30.1416 14.9998Z" fill="url(#paint0_linear_456_7665)"/>
<path d="M29.8675 15.0001C29.8675 23.1327 23.2739 29.7263 15.1421 29.7263C7.00955 29.7259 0.416016 23.1323 0.416016 15.0001C0.416016 6.86757 7.00955 0.274414 15.1421 0.274414C23.2739 0.274414 29.8675 6.86757 29.8675 15.0001Z" fill="url(#paint1_linear_456_7665)"/>
<path d="M28.678 15C28.678 22.4763 22.6185 28.5365 15.1418 28.5365C7.66552 28.5365 1.60645 22.4763 1.60645 15C1.60645 7.52447 7.6659 1.46387 15.1418 1.46387C22.6185 1.46387 28.678 7.52447 28.678 15Z" fill="url(#paint2_linear_456_7665)"/>
<path d="M28.4955 14.9999C28.4955 22.3746 22.5164 28.3541 15.1413 28.3541C7.76554 28.3541 1.78906 22.3746 1.78906 14.9999C1.78906 7.62524 7.76554 1.64648 15.1413 1.64648C22.5168 1.64648 28.4955 7.62486 28.4955 14.9999Z" fill="url(#paint3_linear_456_7665)"/>
<g opacity="0.2">
<path d="M27.9465 14.9994C27.9465 22.0718 22.2137 27.8055 15.1416 27.8055C8.07036 27.8055 2.33789 22.0722 2.33789 14.9994C2.33789 7.9274 8.07036 2.19531 15.1416 2.19531C22.2137 2.19493 27.9465 7.9274 27.9465 14.9994Z" fill="#231F20"/>
<path d="M27.9423 14.9997C27.9423 22.0699 22.2113 27.8012 15.1419 27.8012C8.07296 27.8012 2.34277 22.0699 2.34277 14.9997C2.34277 7.93038 8.07296 2.2002 15.1419 2.2002C22.2113 2.19981 27.9423 7.93 27.9423 14.9997Z" fill="#242021"/>
<path d="M27.937 14.9995C27.937 22.0669 22.2084 27.7964 15.1413 27.7964C8.07496 27.7964 2.34668 22.0669 2.34668 14.9995C2.34668 7.93238 8.07496 2.2041 15.1413 2.2041C22.2084 2.2041 27.937 7.93238 27.937 14.9995Z" fill="#252122"/>
<path d="M27.9332 14.9998C27.9332 22.065 22.2064 27.7921 15.142 27.7921C8.07794 27.7921 2.35156 22.065 2.35156 14.9998C2.35156 7.93536 8.07794 2.20898 15.142 2.20898C22.2064 2.20898 27.9332 7.93498 27.9332 14.9998Z" fill="#262223"/>
<path d="M27.9283 14.9991C27.9283 22.0616 22.2035 27.7869 15.1413 27.7869C8.07994 27.7869 2.35547 22.0616 2.35547 14.9991C2.35547 7.93698 8.07994 2.21289 15.1413 2.21289C22.2035 2.21289 27.9283 7.93698 27.9283 14.9991Z" fill="#272324"/>
<path d="M27.9241 14.9994C27.9241 22.0593 22.2015 27.7826 15.1416 27.7826C8.08254 27.7826 2.36035 22.0593 2.36035 14.9994C2.36035 7.93996 8.08254 2.21777 15.1416 2.21777C22.2011 2.21739 27.9241 7.93958 27.9241 14.9994Z" fill="#282425"/>
<path d="M27.9198 14.9992C27.9198 22.0567 22.1991 27.7782 15.1419 27.7782C8.08552 27.7782 2.36523 22.0567 2.36523 14.9992C2.36523 7.94197 8.08552 2.22168 15.1419 2.22168C22.1991 2.22168 27.9198 7.94197 27.9198 14.9992Z" fill="#292526"/>
<path d="M27.9146 14.9995C27.9146 22.0544 22.1958 27.7739 15.1413 27.7739C8.08714 27.7739 2.36914 22.0548 2.36914 14.9995C2.36914 7.94494 8.08752 2.22656 15.1413 2.22656C22.1958 2.22656 27.9146 7.94456 27.9146 14.9995Z" fill="#2A2627"/>
<path d="M27.9107 14.9998C27.9107 22.0524 22.1938 27.7696 15.142 27.7696C8.0905 27.7696 2.37402 22.0524 2.37402 14.9998C2.37402 7.94754 8.09012 2.23145 15.142 2.23145C22.1938 2.23145 27.9107 7.94754 27.9107 14.9998Z" fill="#2B2728"/>
<path d="M27.9058 14.9991C27.9058 22.0491 22.1913 27.7644 15.1413 27.7644C8.09212 27.7644 2.37793 22.0491 2.37793 14.9991C2.37793 7.94955 8.09212 2.23535 15.1413 2.23535C22.1909 2.23497 27.9058 7.94917 27.9058 14.9991Z" fill="#2C2829"/>
<path d="M27.9016 14.9994C27.9016 22.0471 22.1889 27.7602 15.1416 27.7602C8.0951 27.7602 2.38281 22.0471 2.38281 14.9994C2.38281 7.95215 8.0951 2.24023 15.1416 2.24023C22.1889 2.23985 27.9016 7.95215 27.9016 14.9994Z" fill="#2D292A"/>
<path d="M27.8973 14.9992C27.8973 22.0442 22.1866 27.7553 15.1419 27.7553C8.09808 27.7553 2.3877 22.0442 2.3877 14.9992C2.3877 7.95453 8.09808 2.24414 15.1419 2.24414C22.1866 2.24414 27.8973 7.95453 27.8973 14.9992Z" fill="#2E2A2B"/>
<path d="M27.8921 14.9995C27.8921 22.0422 22.1833 27.7514 15.1413 27.7514C8.09971 27.7514 2.3916 22.0422 2.3916 14.9995C2.3916 7.95713 8.09971 2.24902 15.1413 2.24902C22.1836 2.24902 27.8921 7.95713 27.8921 14.9995Z" fill="#2F2B2C"/>
<path d="M27.8882 14.9998C27.8882 22.0398 22.1817 27.7472 15.142 27.7472C8.10307 27.7472 2.39648 22.0398 2.39648 14.9998C2.39648 7.96011 8.10269 2.25391 15.142 2.25391C22.1813 2.25391 27.8882 7.96011 27.8882 14.9998Z" fill="#302C2D"/>
<path d="M27.8834 14.9991C27.8834 22.0369 22.1787 27.742 15.1413 27.742C8.10469 27.742 2.40039 22.0369 2.40039 14.9991C2.40039 7.96173 8.10469 2.25781 15.1413 2.25781C22.1787 2.25743 27.8834 7.96173 27.8834 14.9991Z" fill="#312D2E"/>
<path d="M27.8791 14.9994C27.8791 22.0345 22.1764 27.7377 15.1416 27.7377C8.10767 27.7377 2.40527 22.0345 2.40527 14.9994C2.40527 7.96471 8.10767 2.2627 15.1416 2.2627C22.1764 2.26231 27.8791 7.96471 27.8791 14.9994Z" fill="#322E2F"/>
<path d="M27.8749 14.9992C27.8749 22.032 22.1744 27.7329 15.142 27.7329C8.11027 27.7329 2.41016 22.0316 2.41016 14.9992C2.41016 7.96709 8.11027 2.2666 15.142 2.2666C22.1744 2.2666 27.8749 7.96671 27.8749 14.9992Z" fill="#332F30"/>
<path d="M27.87 14.9995C27.87 22.0296 22.1714 27.729 15.1417 27.729C8.11265 27.729 2.41406 22.03 2.41406 14.9995C2.41406 7.96969 8.11227 2.27148 15.1417 2.27148C22.1714 2.27148 27.87 7.96969 27.87 14.9995Z" fill="#343031"/>
<path d="M27.8662 14.9998C27.8662 22.0277 22.1695 27.7247 15.142 27.7247C8.11525 27.7247 2.41895 22.0277 2.41895 14.9998C2.41895 7.97267 8.11525 2.27637 15.142 2.27637C22.1695 2.27637 27.8662 7.97229 27.8662 14.9998Z" fill="#353132"/>
<path d="M27.8609 14.9991C27.8609 22.0243 22.1662 27.7195 15.1413 27.7195C8.11725 27.7195 2.42285 22.0243 2.42285 14.9991C2.42285 7.97429 8.11725 2.28027 15.1413 2.28027C22.1662 2.27989 27.8609 7.97429 27.8609 14.9991Z" fill="#363233"/>
<path d="M27.8567 14.9998C27.8567 22.0224 22.1642 27.7156 15.1416 27.7156C8.11985 27.7156 2.42773 22.0224 2.42773 14.9998C2.42773 7.97765 8.11985 2.28516 15.1416 2.28516C22.1642 2.28516 27.8567 7.97727 27.8567 14.9998Z" fill="#373334"/>
<path d="M27.8524 14.9992C27.8524 22.0194 22.1618 27.7104 15.142 27.7104C8.12283 27.7104 2.43262 22.0194 2.43262 14.9992C2.43262 7.97928 8.12283 2.28906 15.142 2.28906C22.1618 2.28906 27.8524 7.97928 27.8524 14.9992Z" fill="#383435"/>
<path d="M27.8476 14.9995C27.8476 22.0171 22.1589 27.7061 15.1417 27.7061C8.12483 27.7061 2.43652 22.0171 2.43652 14.9995C2.43652 7.98226 8.12483 2.29395 15.1417 2.29395C22.1589 2.29395 27.8476 7.98187 27.8476 14.9995Z" fill="#393536"/>
<path d="M27.8437 14.9998C27.8437 22.0151 22.1569 27.7023 15.142 27.7023C8.12781 27.7023 2.44141 22.0151 2.44141 14.9998C2.44141 7.98485 8.12781 2.29883 15.142 2.29883C22.1569 2.29845 27.8437 7.98485 27.8437 14.9998Z" fill="#3A3637"/>
<path d="M27.8385 14.9991C27.8385 22.0118 22.154 27.697 15.1413 27.697C8.12943 27.697 2.44531 22.0122 2.44531 14.9991C2.44531 7.98686 8.12943 2.30273 15.1413 2.30273C22.154 2.30235 27.8385 7.98648 27.8385 14.9991Z" fill="#3B3738"/>
<path d="M27.8342 14.9998C27.8342 22.0102 22.1516 27.6932 15.1416 27.6932C8.13241 27.6932 2.4502 22.0102 2.4502 14.9998C2.4502 7.98984 8.13241 2.30762 15.1416 2.30762C22.1516 2.30762 27.8342 7.98984 27.8342 14.9998Z" fill="#3C3839"/>
<path d="M27.83 14.9992C27.83 22.0069 22.1493 27.6879 15.142 27.6879C8.13501 27.6879 2.45508 22.0069 2.45508 14.9992C2.45508 7.99184 8.13539 2.31152 15.142 2.31152C22.1497 2.31152 27.83 7.99146 27.83 14.9992Z" fill="#3D393A"/>
<path d="M27.8251 14.9995C27.8251 22.0049 22.1467 27.6837 15.1417 27.6837C8.1374 27.6837 2.45898 22.0045 2.45898 14.9995C2.45898 7.99444 8.1374 2.31641 15.1417 2.31641C22.1463 2.31641 27.8251 7.99444 27.8251 14.9995Z" fill="#3E3A3B"/>
<path d="M27.8213 14.9992C27.8213 22.0019 22.1447 27.6788 15.142 27.6788C8.14038 27.6788 2.46387 22.0019 2.46387 14.9992C2.46387 7.99644 8.14038 2.32031 15.142 2.32031C22.1447 2.32031 27.8213 7.99644 27.8213 14.9992Z" fill="#3F3B3C"/>
<path d="M27.816 14.9991C27.816 21.9996 22.1414 27.6746 15.1413 27.6746C8.142 27.6746 2.46777 21.9996 2.46777 14.9991C2.46777 7.99904 8.142 2.3252 15.1413 2.3252C22.1414 2.32481 27.816 7.99904 27.816 14.9991Z" fill="#3F3C3D"/>
<path d="M27.8118 14.9998C27.8118 21.9976 22.1391 27.6707 15.1416 27.6707C8.14498 27.6707 2.47266 21.9976 2.47266 14.9998C2.47266 8.0024 8.14498 2.33008 15.1416 2.33008C22.1394 2.33008 27.8118 8.00202 27.8118 14.9998Z" fill="#403D3E"/>
<path d="M27.8069 14.9992C27.8069 21.9947 22.1365 27.6655 15.1414 27.6655C8.14698 27.6655 2.47656 21.9947 2.47656 14.9992C2.47656 8.00402 8.14698 2.33398 15.1414 2.33398C22.1365 2.33398 27.8069 8.00402 27.8069 14.9992Z" fill="#413E3F"/>
<path d="M27.803 14.9995C27.803 21.9923 22.1345 27.6612 15.1417 27.6612C8.14996 27.6612 2.48145 21.9923 2.48145 14.9995C2.48145 8.007 8.14958 2.33887 15.1417 2.33887C22.1345 2.33887 27.803 8.00662 27.803 14.9995Z" fill="#423F40"/>
<path d="M27.7988 14.9998C27.7988 21.9904 22.1322 27.657 15.142 27.657C8.15256 27.657 2.48633 21.99 2.48633 14.9998C2.48633 8.0096 8.15256 2.34375 15.142 2.34375C22.1322 2.34337 27.7988 8.0096 27.7988 14.9998Z" fill="#434041"/>
<path d="M27.7936 14.9995C27.7936 21.9874 22.1292 27.6525 15.1413 27.6525C8.15456 27.6525 2.49023 21.9874 2.49023 14.9995C2.49023 8.01198 8.15456 2.34766 15.1413 2.34766C22.1292 2.34766 27.7936 8.01198 27.7936 14.9995Z" fill="#444142"/>
<path d="M27.7893 14.9998C27.7893 21.9851 22.1269 27.6483 15.1416 27.6483C8.15716 27.6483 2.49512 21.9854 2.49512 14.9998C2.49512 8.01458 8.15754 2.35254 15.1416 2.35254C22.1269 2.35254 27.7893 8.01458 27.7893 14.9998Z" fill="#454243"/>
<path d="M27.7854 14.9992C27.7854 21.9821 22.1249 27.643 15.1423 27.643C8.16052 27.643 2.5 21.9821 2.5 14.9992C2.5 8.01659 8.16014 2.35645 15.1423 2.35645C22.1249 2.35645 27.7854 8.01659 27.7854 14.9992Z" fill="#464344"/>
<path d="M27.7806 14.9995C27.7806 21.9798 22.122 27.6388 15.1417 27.6388C8.16214 27.6388 2.50391 21.9798 2.50391 14.9995C2.50391 8.01918 8.16214 2.36133 15.1417 2.36133C22.122 2.36095 27.7806 8.01918 27.7806 14.9995Z" fill="#474445"/>
<path d="M27.7763 14.9998C27.7763 21.9778 22.12 27.6345 15.142 27.6345C8.16512 27.6345 2.50879 21.9778 2.50879 14.9998C2.50879 8.02216 8.16512 2.36621 15.142 2.36621C22.12 2.36583 27.7763 8.02216 27.7763 14.9998Z" fill="#484546"/>
<path d="M27.7711 14.9995C27.7711 21.9749 22.1167 27.6297 15.1413 27.6297C8.16674 27.6297 2.5127 21.9749 2.5127 14.9995C2.5127 8.02455 8.16712 2.37012 15.1413 2.37012C22.1167 2.37012 27.7711 8.02417 27.7711 14.9995Z" fill="#494647"/>
<path d="M27.7669 14.9998C27.7669 21.9729 22.1143 27.6258 15.1416 27.6258C8.16972 27.6258 2.51758 21.9729 2.51758 14.9998C2.51758 8.02715 8.16972 2.375 15.1416 2.375C22.1147 2.375 27.7669 8.02715 27.7669 14.9998Z" fill="#4A4748"/>
<path d="M27.763 14.9992C27.763 21.9696 22.1124 27.6206 15.1423 27.6206C8.1727 27.6206 2.52246 21.9699 2.52246 14.9992C2.52246 8.02915 8.1727 2.37891 15.1423 2.37891C22.1124 2.37891 27.763 8.02877 27.763 14.9992Z" fill="#4B4849"/>
<path d="M27.7581 14.9995C27.7581 21.9676 22.1098 27.6163 15.1417 27.6163C8.17471 27.6163 2.52637 21.9676 2.52637 14.9995C2.52637 8.03175 8.17471 2.38379 15.1417 2.38379C22.1098 2.38341 27.7581 8.03175 27.7581 14.9995Z" fill="#4C494A"/>
<path d="M27.7539 14.9998C27.7539 21.9652 22.1074 27.6121 15.142 27.6121C8.1773 27.6121 2.53125 21.9652 2.53125 14.9998C2.53125 8.03473 8.1773 2.38867 15.142 2.38867C22.1074 2.38829 27.7539 8.03435 27.7539 14.9998Z" fill="#4D4A4B"/>
<path d="M27.7486 14.9995C27.7486 21.9627 22.1041 27.6072 15.1413 27.6072C8.17931 27.6072 2.53516 21.9623 2.53516 14.9995C2.53516 8.03673 8.17931 2.39258 15.1413 2.39258C22.1045 2.39258 27.7486 8.03673 27.7486 14.9995Z" fill="#4E4B4C"/>
<path d="M27.7448 14.9998C27.7448 21.9603 22.1025 27.603 15.142 27.603C8.18229 27.603 2.54004 21.9603 2.54004 14.9998C2.54004 8.03971 8.18229 2.39746 15.142 2.39746C22.1025 2.39746 27.7448 8.03933 27.7448 14.9998Z" fill="#4F4C4D"/>
<path d="M27.7399 14.9992C27.7399 21.957 22.0992 27.5977 15.1414 27.5977C8.18429 27.5977 2.54395 21.957 2.54395 14.9992C2.54395 8.04133 8.18429 2.40137 15.1414 2.40137C22.0992 2.40137 27.7399 8.04133 27.7399 14.9992Z" fill="#504D4E"/>
<path d="M27.7357 14.9995C27.7357 21.955 22.0972 27.5939 15.1417 27.5939C8.18689 27.5939 2.54883 21.955 2.54883 14.9995C2.54883 8.04431 8.18689 2.40625 15.1417 2.40625C22.0972 2.40587 27.7357 8.04393 27.7357 14.9995Z" fill="#514E4F"/>
<path d="M27.7314 14.9992C27.7314 21.9525 22.0949 27.589 15.142 27.589C8.18987 27.589 2.55371 21.9525 2.55371 14.9992C2.55371 8.04632 8.18987 2.41016 15.142 2.41016C22.0949 2.41016 27.7314 8.04632 27.7314 14.9992Z" fill="#524F50"/>
<path d="M27.7262 14.9995C27.7262 21.9501 22.0919 27.5848 15.1413 27.5848C8.19187 27.5848 2.55762 21.9501 2.55762 14.9995C2.55762 8.04929 8.19187 2.41504 15.1413 2.41504C22.0919 2.41504 27.7262 8.04891 27.7262 14.9995Z" fill="#535051"/>
<path d="M27.7223 14.9998C27.7223 21.9478 22.09 27.5805 15.142 27.5805C8.19485 27.5805 2.5625 21.9478 2.5625 14.9998C2.5625 8.05189 8.19485 2.41992 15.142 2.41992C22.0896 2.41992 27.7223 8.05189 27.7223 14.9998Z" fill="#545152"/>
<path d="M27.7175 14.9992C27.7175 21.9448 22.087 27.5753 15.1414 27.5753C8.19685 27.5753 2.56641 21.9444 2.56641 14.9992C2.56641 8.0539 8.19647 2.42383 15.1414 2.42383C22.087 2.42345 27.7175 8.05351 27.7175 14.9992Z" fill="#555253"/>
<path d="M27.7132 14.9995C27.7132 21.9425 22.085 27.5714 15.1417 27.5714C8.19945 27.5714 2.57129 21.9429 2.57129 14.9995C2.57129 8.0565 8.19945 2.42871 15.1417 2.42871C22.0847 2.42833 27.7132 8.0565 27.7132 14.9995Z" fill="#565354"/>
<path d="M27.709 14.9992C27.709 21.9399 22.0827 27.5665 15.142 27.5665C8.20243 27.5665 2.57617 21.9399 2.57617 14.9992C2.57617 8.05888 8.20243 2.43262 15.142 2.43262C22.0827 2.43262 27.709 8.0585 27.709 14.9992Z" fill="#575455"/>
<path d="M27.7037 14.9995C27.7037 21.9376 22.0794 27.5623 15.1413 27.5623C8.20405 27.5623 2.58008 21.9376 2.58008 14.9995C2.58008 8.06148 8.20444 2.4375 15.1413 2.4375C22.0794 2.4375 27.7037 8.06148 27.7037 14.9995Z" fill="#585556"/>
<path d="M27.6999 14.9998C27.6999 21.9356 22.0774 27.558 15.142 27.558C8.20742 27.558 2.58496 21.9356 2.58496 14.9998C2.58496 8.06446 8.20703 2.44238 15.142 2.44238C22.0774 2.44238 27.6999 8.06446 27.6999 14.9998Z" fill="#595657"/>
<path d="M27.695 14.9992C27.695 21.9323 22.0748 27.5528 15.1414 27.5528C8.20904 27.5528 2.58887 21.9323 2.58887 14.9992C2.58887 8.06608 8.20904 2.44629 15.1414 2.44629C22.0745 2.44591 27.695 8.06608 27.695 14.9992Z" fill="#5A5758"/>
<path d="M27.6908 14.9995C27.6908 21.9303 22.0725 27.5489 15.1417 27.5489C8.21202 27.5489 2.59375 21.9303 2.59375 14.9995C2.59375 8.06906 8.21202 2.45117 15.1417 2.45117C22.0725 2.45079 27.6908 8.06906 27.6908 14.9995Z" fill="#5B5859"/>
<path d="M27.6865 14.9992C27.6865 21.9273 22.0701 27.5441 15.142 27.5441C8.21462 27.5441 2.59863 21.9273 2.59863 14.9992C2.59863 8.07106 8.215 2.45508 15.142 2.45508C22.0701 2.45508 27.6865 8.07106 27.6865 14.9992Z" fill="#5C595A"/>
<path d="M27.6817 14.9995C27.6817 21.9254 22.0672 27.5398 15.1417 27.5398C8.217 27.5398 2.60254 21.9254 2.60254 14.9995C2.60254 8.07404 8.21662 2.45996 15.1417 2.45996C22.0676 2.45996 27.6817 8.07404 27.6817 14.9995Z" fill="#5D5A5B"/>
<path d="M27.6778 14.9998C27.6778 21.923 22.0656 27.5356 15.142 27.5356C8.2196 27.5356 2.60742 21.923 2.60742 14.9998C2.60742 8.07664 8.2196 2.46484 15.142 2.46484C22.0652 2.46484 27.6778 8.07664 27.6778 14.9998Z" fill="#5E5B5C"/>
<path d="M27.6725 14.9992C27.6725 21.9201 22.0623 27.5304 15.1414 27.5304C8.2216 27.5304 2.61133 21.9197 2.61133 14.9992C2.61133 8.07864 8.2216 2.46875 15.1414 2.46875C22.0623 2.46837 27.6725 8.07864 27.6725 14.9992Z" fill="#5F5C5D"/>
<path d="M27.6683 14.9999C27.6683 21.9181 22.0599 27.5265 15.1417 27.5265C8.2242 27.5265 2.61621 21.9181 2.61621 14.9999C2.61621 8.082 8.22458 2.47363 15.1417 2.47363C22.0599 2.47363 27.6683 8.08162 27.6683 14.9999Z" fill="#605D5E"/>
<path d="M27.664 14.9992C27.664 21.9148 22.058 27.5216 15.142 27.5216C8.22718 27.5216 2.62109 21.9152 2.62109 14.9992C2.62109 8.08362 8.22718 2.47754 15.142 2.47754C22.058 2.47754 27.664 8.08362 27.664 14.9992Z" fill="#615E5F"/>
<path d="M27.6592 14.9995C27.6592 21.9128 22.055 27.5174 15.1417 27.5174C8.22918 27.5174 2.625 21.9128 2.625 14.9995C2.625 8.0866 8.22918 2.48242 15.1417 2.48242C22.0546 2.48242 27.6592 8.08622 27.6592 14.9995Z" fill="#625F60"/>
<path d="M27.6553 14.9998C27.6553 21.9105 22.053 27.5131 15.142 27.5131C8.23216 27.5131 2.62988 21.9105 2.62988 14.9998C2.62988 8.0892 8.23216 2.4873 15.142 2.4873C22.053 2.48692 27.6553 8.0892 27.6553 14.9998Z" fill="#636061"/>
<path d="M27.6501 14.9992C27.6501 21.9075 22.0497 27.5079 15.1414 27.5079C8.23416 27.5079 2.63379 21.9075 2.63379 14.9992C2.63379 8.09121 8.23416 2.49121 15.1414 2.49121C22.0497 2.49083 27.6501 8.09083 27.6501 14.9992Z" fill="#646162"/>
<path d="M27.6458 14.9999C27.6458 21.9056 22.0477 27.504 15.1417 27.504C8.23676 27.504 2.63867 21.9056 2.63867 14.9999C2.63867 8.09419 8.23676 2.49609 15.1417 2.49609C22.0477 2.49609 27.6458 8.09419 27.6458 14.9999Z" fill="#656263"/>
<path d="M27.6416 14.9992C27.6416 21.9026 22.0454 27.4988 15.142 27.4988C8.23974 27.4988 2.64355 21.9022 2.64355 14.9992C2.64355 8.09619 8.23974 2.5 15.142 2.5C22.0454 2.5 27.6416 8.09581 27.6416 14.9992Z" fill="#666364"/>
<path d="M27.6367 14.9995C27.6367 21.9003 22.0425 27.4949 15.1417 27.4949C8.24175 27.4949 2.64746 21.9006 2.64746 14.9995C2.64746 8.09879 8.24175 2.50488 15.1417 2.50488C22.0425 2.50488 27.6367 8.09879 27.6367 14.9995Z" fill="#676465"/>
<path d="M27.6329 14.9998C27.6329 21.8983 22.0405 27.4907 15.142 27.4907C8.24472 27.4907 2.65234 21.8983 2.65234 14.9998C2.65234 8.10177 8.24472 2.50977 15.142 2.50977C22.0405 2.50938 27.6329 8.10139 27.6329 14.9998Z" fill="#686566"/>
<path d="M27.6276 14.9992C27.6276 21.895 22.0375 27.4854 15.1414 27.4854C8.24635 27.4854 2.65625 21.895 2.65625 14.9992C2.65625 8.10339 8.24635 2.51367 15.1414 2.51367C22.0375 2.51329 27.6276 8.10339 27.6276 14.9992Z" fill="#696667"/>
<path d="M27.6234 14.9999C27.6234 21.8934 22.0352 27.4816 15.1417 27.4816C8.24933 27.4816 2.66113 21.893 2.66113 14.9999C2.66113 8.10675 8.24933 2.51855 15.1417 2.51855C22.0352 2.51855 27.6234 8.10637 27.6234 14.9999Z" fill="#6A6768"/>
<path d="M27.6185 14.9992C27.6185 21.89 22.0322 27.4763 15.1414 27.4763C8.25133 27.4763 2.66504 21.89 2.66504 14.9992C2.66504 8.10837 8.25133 2.52246 15.1414 2.52246C22.0326 2.52246 27.6185 8.10837 27.6185 14.9992Z" fill="#6B6869"/>
<path d="M27.6147 14.9995C27.6147 21.8881 22.0307 27.4725 15.1417 27.4725C8.25431 27.4725 2.66992 21.8881 2.66992 14.9995C2.66992 8.11135 8.25431 2.52734 15.1417 2.52734C22.0303 2.52696 27.6147 8.11097 27.6147 14.9995Z" fill="#6C696A"/>
<path d="M27.6104 14.9998C27.6104 21.8857 22.0283 27.4682 15.142 27.4682C8.25691 27.4682 2.6748 21.8857 2.6748 14.9998C2.6748 8.11395 8.25691 2.53223 15.142 2.53223C22.0283 2.53185 27.6104 8.11395 27.6104 14.9998Z" fill="#6D6A6B"/>
<path d="M27.6052 14.9996C27.6052 21.8832 22.025 27.4634 15.1414 27.4634C8.25891 27.4634 2.67871 21.8832 2.67871 14.9996C2.67871 8.11633 8.25891 2.53613 15.1414 2.53613C22.025 2.53613 27.6052 8.11595 27.6052 14.9996Z" fill="#6E6B6C"/>
<path d="M27.6009 14.9999C27.6009 21.8808 22.0226 27.4591 15.1417 27.4591C8.26151 27.4591 2.68359 21.8808 2.68359 14.9999C2.68359 8.11893 8.26189 2.54102 15.1417 2.54102C22.023 2.54102 27.6009 8.11893 27.6009 14.9999Z" fill="#6F6C6D"/>
<path d="M27.5961 14.9992C27.5961 21.8775 22.0201 27.4539 15.1414 27.4539C8.26389 27.4539 2.6875 21.8775 2.6875 14.9992C2.6875 8.12094 8.26351 2.54492 15.1414 2.54492C22.0201 2.54492 27.5961 8.12094 27.5961 14.9992Z" fill="#706D6E"/>
<path d="M27.5922 14.9995C27.5922 21.8755 22.0181 27.4496 15.1417 27.4496C8.26649 27.4496 2.69238 21.8755 2.69238 14.9995C2.69238 8.12353 8.26649 2.5498 15.1417 2.5498C22.0181 2.54942 27.5922 8.12353 27.5922 14.9995Z" fill="#716E6F"/>
<path d="M27.588 14.9998C27.588 21.8732 22.0157 27.4458 15.142 27.4458C8.26947 27.4458 2.69727 21.8735 2.69727 14.9998C2.69727 8.12651 8.26947 2.55469 15.142 2.55469C22.0157 2.55431 27.588 8.12651 27.588 14.9998Z" fill="#726F70"/>
<path d="M27.5827 14.9996C27.5827 21.8706 22.0128 27.4409 15.1414 27.4409C8.27109 27.4409 2.70117 21.8706 2.70117 14.9996C2.70117 8.12852 8.27147 2.55859 15.1414 2.55859C22.0128 2.55859 27.5827 8.12852 27.5827 14.9996Z" fill="#737071"/>
<path d="M27.5785 14.9999C27.5785 21.8683 22.0104 27.4367 15.1417 27.4367C8.27407 27.4367 2.70605 21.8683 2.70605 14.9999C2.70605 8.1315 8.27407 2.56348 15.1417 2.56348C22.0104 2.56348 27.5785 8.1315 27.5785 14.9999Z" fill="#747172"/>
<path d="M27.5746 14.9992C27.5746 21.8653 22.0085 27.4314 15.1424 27.4314C8.27743 27.4314 2.71094 21.8653 2.71094 14.9992C2.71094 8.1335 8.27705 2.56738 15.1424 2.56738C22.0085 2.56738 27.5746 8.13312 27.5746 14.9992Z" fill="#757273"/>
<path d="M27.5697 14.9995C27.5697 21.863 22.0055 27.4272 15.1417 27.4272C8.27906 27.4272 2.71484 21.863 2.71484 14.9995C2.71484 8.1361 8.27906 2.57227 15.1417 2.57227C22.0055 2.57188 27.5697 8.1361 27.5697 14.9995Z" fill="#767374"/>
<path d="M27.5655 14.9998C27.5655 21.861 22.0036 27.4229 15.142 27.4229C8.28203 27.4229 2.71973 21.8606 2.71973 14.9998C2.71973 8.13908 8.28203 2.57715 15.142 2.57715C22.0036 2.57677 27.5655 8.1387 27.5655 14.9998Z" fill="#767475"/>
<path d="M27.5603 14.9996C27.5603 21.858 22.0002 27.4184 15.1414 27.4184C8.28366 27.4184 2.72363 21.8584 2.72363 14.9996C2.72363 8.14108 8.28366 2.58105 15.1414 2.58105C22.0002 2.58105 27.5603 8.14108 27.5603 14.9996Z" fill="#777576"/>
<path d="M27.5564 14.9999C27.5564 21.8561 21.9983 27.4142 15.1421 27.4142C8.28702 27.4142 2.72852 21.8561 2.72852 14.9999C2.72852 8.14406 8.28664 2.58594 15.1421 2.58594C21.9986 2.58594 27.5564 8.14368 27.5564 14.9999Z" fill="#787677"/>
<path d="M27.5515 14.9996C27.5515 21.8531 21.9953 27.4093 15.1414 27.4093C8.28864 27.4093 2.73242 21.8531 2.73242 14.9996C2.73242 8.14606 8.28864 2.58984 15.1414 2.58984C21.9953 2.58984 27.5515 8.14606 27.5515 14.9996Z" fill="#797778"/>
<path d="M27.5473 14.9995C27.5473 21.8508 21.9934 27.4047 15.1417 27.4047C8.29162 27.4047 2.7373 21.8504 2.7373 14.9995C2.7373 8.14866 8.29162 2.59473 15.1417 2.59473C21.9934 2.59435 27.5473 8.14828 27.5473 14.9995Z" fill="#7A7879"/>
<path d="M27.543 14.9992C27.543 21.8478 21.991 27.3999 15.142 27.3999C8.29422 27.3999 2.74219 21.8478 2.74219 14.9992C2.74219 8.15066 8.29422 2.59863 15.142 2.59863C21.991 2.59863 27.543 8.15066 27.543 14.9992Z" fill="#7B797A"/>
<path d="M27.5378 14.9996C27.5378 21.8459 21.9877 27.396 15.1414 27.396C8.29622 27.396 2.74609 21.8459 2.74609 14.9996C2.74609 8.15364 8.29622 2.60352 15.1414 2.60352C21.9881 2.60352 27.5378 8.15326 27.5378 14.9996Z" fill="#7C7A7B"/>
<path d="M27.5339 14.9999C27.5339 21.8435 21.9861 27.3917 15.1421 27.3917C8.2992 27.3917 2.75098 21.8435 2.75098 14.9999C2.75098 8.15624 8.2992 2.6084 15.1421 2.6084C21.9861 2.6084 27.5339 8.15624 27.5339 14.9999Z" fill="#7D7B7C"/>
<path d="M27.5291 14.9992C27.5291 21.8402 21.9831 27.3865 15.1414 27.3865C8.3012 27.3865 2.75488 21.8406 2.75488 14.9992C2.75488 8.15825 8.3012 2.6123 15.1414 2.6123C21.9831 2.61192 27.5291 8.15787 27.5291 14.9992Z" fill="#7E7C7D"/>
<path d="M27.5248 14.9995C27.5248 21.8382 21.9808 27.3822 15.1417 27.3822C8.3038 27.3822 2.75977 21.8382 2.75977 14.9995C2.75977 8.16084 8.3038 2.61719 15.1417 2.61719C21.9808 2.61681 27.5248 8.16084 27.5248 14.9995Z" fill="#7F7D7E"/>
<path d="M27.5206 14.9992C27.5206 21.8353 21.9784 27.3774 15.142 27.3774C8.30678 27.3774 2.76465 21.8353 2.76465 14.9992C2.76465 8.16323 8.30678 2.62109 15.142 2.62109C21.9788 2.62109 27.5206 8.16285 27.5206 14.9992Z" fill="#807E7F"/>
<path d="M27.5153 14.9996C27.5153 21.8333 21.9755 27.3731 15.1414 27.3731C8.3084 27.3731 2.76855 21.8329 2.76855 14.9996C2.76855 8.16583 8.30878 2.62598 15.1414 2.62598C21.9755 2.62598 27.5153 8.16583 27.5153 14.9996Z" fill="#817F80"/>
<path d="M27.5115 14.9999C27.5115 21.8309 21.9735 27.3693 15.1421 27.3693C8.31176 27.3693 2.77344 21.8313 2.77344 14.9999C2.77344 8.16881 8.31176 2.63086 15.1421 2.63086C21.9735 2.63086 27.5115 8.16842 27.5115 14.9999Z" fill="#828081"/>
<path d="M27.5066 14.9992C27.5066 21.828 21.9706 27.364 15.1414 27.364C8.31339 27.364 2.77734 21.828 2.77734 14.9992C2.77734 8.17043 8.31339 2.63477 15.1414 2.63477C21.9706 2.63438 27.5066 8.17043 27.5066 14.9992Z" fill="#838182"/>
<path d="M27.5024 14.9995C27.5024 21.8257 21.9682 27.3598 15.1417 27.3598C8.31637 27.3598 2.78223 21.8257 2.78223 14.9995C2.78223 8.17341 8.31637 2.63965 15.1417 2.63965C21.9682 2.63927 27.5024 8.17303 27.5024 14.9995Z" fill="#848283"/>
<path d="M27.4981 14.9992C27.4981 21.8231 21.9663 27.3549 15.142 27.3549C8.31934 27.3549 2.78711 21.8231 2.78711 14.9992C2.78711 8.17541 8.31934 2.64355 15.142 2.64355C21.9663 2.64355 27.4981 8.17541 27.4981 14.9992Z" fill="#858384"/>
<path d="M27.4933 14.9996C27.4933 21.8207 21.9633 27.3507 15.1418 27.3507C8.32135 27.3507 2.79102 21.8207 2.79102 14.9996C2.79102 8.17839 8.32135 2.64844 15.1418 2.64844C21.9633 2.64844 27.4933 8.17839 27.4933 14.9996Z" fill="#868485"/>
<path d="M27.4894 14.9999C27.4894 21.8188 21.9613 27.3464 15.1421 27.3464C8.32433 27.3464 2.7959 21.8184 2.7959 14.9999C2.7959 8.18099 8.32395 2.65332 15.1421 2.65332C21.9613 2.65294 27.4894 8.18099 27.4894 14.9999Z" fill="#878586"/>
<path d="M27.4842 14.9992C27.4842 21.8154 21.9584 27.3416 15.1414 27.3416C8.32595 27.3416 2.7998 21.8154 2.7998 14.9992C2.7998 8.18299 8.32595 2.65723 15.1414 2.65723C21.958 2.65685 27.4842 8.18299 27.4842 14.9992Z" fill="#888687"/>
<path d="M27.4799 14.9999C27.4799 21.8139 21.9561 27.3377 15.1417 27.3377C8.32893 27.3377 2.80469 21.8139 2.80469 14.9999C2.80469 8.18597 8.32893 2.66211 15.1417 2.66211C21.9561 2.66211 27.4799 8.18597 27.4799 14.9999Z" fill="#898788"/>
<path d="M27.4757 14.9993C27.4757 21.8105 21.9537 27.3325 15.142 27.3325C8.33153 27.3325 2.80957 21.8105 2.80957 14.9993C2.80957 8.18797 8.33191 2.66602 15.142 2.66602C21.9537 2.66602 27.4757 8.18797 27.4757 14.9993Z" fill="#8A8889"/>
<path d="M27.4704 14.9996C27.4704 21.8082 21.9504 27.3282 15.1414 27.3282C8.33353 27.3282 2.81348 21.8082 2.81348 14.9996C2.81348 8.19095 8.33353 2.6709 15.1414 2.6709C21.9508 2.6709 27.4704 8.19057 27.4704 14.9996Z" fill="#8B898A"/>
<path d="M27.4669 14.9993C27.4669 21.8056 21.9492 27.3234 15.1421 27.3234C8.33651 27.3234 2.81836 21.8056 2.81836 14.9993C2.81836 8.19296 8.33651 2.6748 15.1421 2.6748C21.9488 2.6748 27.4669 8.19296 27.4669 14.9993Z" fill="#8C8A8B"/>
<path d="M27.4617 14.9996C27.4617 21.8033 21.9458 27.3195 15.1414 27.3195C8.33851 27.3195 2.82227 21.8036 2.82227 14.9996C2.82227 8.19555 8.33851 2.67969 15.1414 2.67969C21.9458 2.67969 27.4617 8.19555 27.4617 14.9996Z" fill="#8D8B8C"/>
<path d="M27.4575 14.9999C27.4575 21.8013 21.9435 27.3153 15.1417 27.3153C8.34111 27.3153 2.82715 21.8013 2.82715 14.9999C2.82715 8.19853 8.34149 2.68457 15.1417 2.68457C21.9435 2.68457 27.4575 8.19853 27.4575 14.9999Z" fill="#8E8C8D"/>
<path d="M27.4532 14.9993C27.4532 21.798 21.9415 27.31 15.142 27.31C8.34409 27.31 2.83203 21.798 2.83203 14.9993C2.83203 8.20054 8.34409 2.68848 15.142 2.68848C21.9415 2.68848 27.4532 8.20016 27.4532 14.9993Z" fill="#8F8D8E"/>
<path d="M27.4484 14.9996C27.4484 21.796 21.9386 27.3058 15.1418 27.3058C8.34609 27.3058 2.83594 21.796 2.83594 14.9996C2.83594 8.20314 8.34609 2.69336 15.1418 2.69336C21.9382 2.69336 27.4484 8.20314 27.4484 14.9996Z" fill="#908E8F"/>
<path d="M27.4445 14.9999C27.4445 21.7936 21.9366 27.3015 15.1421 27.3015C8.34907 27.3015 2.84082 21.7936 2.84082 14.9999C2.84082 8.20612 8.34907 2.69824 15.1421 2.69824C21.9366 2.69786 27.4445 8.20574 27.4445 14.9999Z" fill="#918F8F"/>
<path d="M27.4392 14.9992C27.4392 21.7907 21.9333 27.2963 15.1414 27.2963C8.3507 27.2963 2.84473 21.7903 2.84473 14.9992C2.84473 8.20774 8.3507 2.70215 15.1414 2.70215C21.9333 2.70177 27.4392 8.20774 27.4392 14.9992Z" fill="#929090"/>
<path d="M27.435 14.9999C27.435 21.7887 21.9313 27.2928 15.1417 27.2928C8.35367 27.2928 2.84961 21.7891 2.84961 14.9999C2.84961 8.2111 8.35367 2.70703 15.1417 2.70703C21.9313 2.70703 27.435 8.21072 27.435 14.9999Z" fill="#939191"/>
<path d="M27.4301 14.9993C27.4301 21.7858 21.9284 27.2876 15.1415 27.2876C8.35568 27.2876 2.85352 21.7858 2.85352 14.9993C2.85352 8.21272 8.35568 2.71094 15.1415 2.71094C21.9284 2.71094 27.4301 8.21272 27.4301 14.9993Z" fill="#949292"/>
<path d="M27.4263 14.9996C27.4263 21.7834 21.9264 27.2833 15.1418 27.2833C8.35866 27.2833 2.8584 21.7834 2.8584 14.9996C2.8584 8.2157 8.35866 2.71582 15.1418 2.71582C21.9264 2.71544 27.4263 8.21532 27.4263 14.9996Z" fill="#959393"/>
<path d="M27.422 14.9999C27.422 21.7815 21.924 27.2791 15.1421 27.2791C8.36164 27.2791 2.86328 21.7815 2.86328 14.9999C2.86328 8.2183 8.36126 2.7207 15.1421 2.7207C21.924 2.72032 27.422 8.2183 27.422 14.9999Z" fill="#969494"/>
<path d="M27.4168 14.9996C27.4168 21.7785 21.9211 27.2742 15.1414 27.2742C8.36326 27.2742 2.86719 21.7785 2.86719 14.9996C2.86719 8.22068 8.36326 2.72461 15.1414 2.72461C21.9211 2.72461 27.4168 8.2203 27.4168 14.9996Z" fill="#979595"/>
<path d="M27.4125 14.9999C27.4125 21.7766 21.9188 27.27 15.1417 27.27C8.36624 27.27 2.87207 21.7762 2.87207 14.9999C2.87207 8.22328 8.36624 2.72949 15.1417 2.72949C21.9188 2.72949 27.4125 8.22328 27.4125 14.9999Z" fill="#989696"/>
<path d="M27.4077 14.9993C27.4077 21.7732 21.9158 27.2651 15.1415 27.2651C8.36824 27.2651 2.87598 21.7732 2.87598 14.9993C2.87598 8.22528 8.36824 2.7334 15.1415 2.7334C21.9162 2.7334 27.4077 8.2249 27.4077 14.9993Z" fill="#999797"/>
<path d="M27.4038 14.9996C27.4038 21.7709 21.9142 27.2609 15.1418 27.2609C8.37122 27.2609 2.88086 21.7713 2.88086 14.9996C2.88086 8.22788 8.37084 2.73828 15.1418 2.73828C21.9138 2.7379 27.4038 8.22788 27.4038 14.9996Z" fill="#9A9898"/>
<path d="M27.3996 14.9999C27.3996 21.7689 21.9119 27.2566 15.1421 27.2566C8.37382 27.2566 2.88574 21.7689 2.88574 14.9999C2.88574 8.23086 8.37382 2.74316 15.1421 2.74316C21.9119 2.74278 27.3996 8.23048 27.3996 14.9999Z" fill="#9B9999"/>
<path d="M27.3943 14.9996C27.3943 21.766 21.9085 27.2518 15.1414 27.2518C8.37582 27.2518 2.88965 21.766 2.88965 14.9996C2.88965 8.23287 8.37582 2.74707 15.1414 2.74707C21.9085 2.74707 27.3943 8.23287 27.3943 14.9996Z" fill="#9C9A9A"/>
<path d="M27.3901 14.9999C27.3901 21.764 21.9062 27.2475 15.1417 27.2475C8.37842 27.2475 2.89453 21.764 2.89453 14.9999C2.89453 8.23584 8.3788 2.75195 15.1417 2.75195C21.9066 2.75195 27.3901 8.23584 27.3901 14.9999Z" fill="#9D9B9B"/>
<path d="M27.3862 14.9993C27.3862 21.7607 21.9046 27.2423 15.1424 27.2423C8.38178 27.2423 2.89941 21.7607 2.89941 14.9993C2.89941 8.23747 8.3814 2.75586 15.1424 2.75586C21.9042 2.75586 27.3862 8.23747 27.3862 14.9993Z" fill="#9E9C9C"/>
<path d="M27.3814 14.9996C27.3814 21.7587 21.9017 27.2384 15.1418 27.2384C8.38341 27.2384 2.90332 21.7587 2.90332 14.9996C2.90332 8.24045 8.38341 2.76074 15.1418 2.76074C21.9017 2.76036 27.3814 8.24045 27.3814 14.9996Z" fill="#9F9D9D"/>
<path d="M27.3771 14.9993C27.3771 21.7558 21.8993 27.2336 15.1421 27.2336C8.38638 27.2336 2.9082 21.7558 2.9082 14.9993C2.9082 8.24245 8.38638 2.76465 15.1421 2.76465C21.8993 2.76465 27.3771 8.24245 27.3771 14.9993Z" fill="#A09E9E"/>
<path d="M27.3719 14.9996C27.3719 21.7538 21.896 27.2293 15.1414 27.2293C8.38801 27.2293 2.91211 21.7538 2.91211 14.9996C2.91211 8.24543 8.38839 2.76953 15.1414 2.76953C21.8964 2.76953 27.3719 8.24543 27.3719 14.9996Z" fill="#A19F9F"/>
<path d="M27.368 14.9999C27.368 21.7514 21.8944 27.225 15.1421 27.225C8.39137 27.225 2.91699 21.7514 2.91699 14.9999C2.91699 8.24841 8.39099 2.77441 15.1421 2.77441C21.8944 2.77441 27.368 8.24803 27.368 14.9999Z" fill="#A2A0A0"/>
<path d="M27.3632 14.9993C27.3632 21.7485 21.8914 27.2198 15.1415 27.2198C8.39299 27.2198 2.9209 21.7481 2.9209 14.9993C2.9209 8.25003 8.39299 2.77832 15.1415 2.77832C21.8914 2.77794 27.3632 8.25003 27.3632 14.9993Z" fill="#A3A1A1"/>
<path d="M27.3589 14.9996C27.3589 21.7461 21.8891 27.216 15.1418 27.216C8.39597 27.216 2.92578 21.7465 2.92578 14.9996C2.92578 8.25301 8.39597 2.7832 15.1418 2.7832C21.8891 2.78282 27.3589 8.25263 27.3589 14.9996Z" fill="#A4A2A2"/>
<path d="M27.3546 14.9993C27.3546 21.7436 21.8871 27.2111 15.1421 27.2111C8.39857 27.2111 2.93066 21.7436 2.93066 14.9993C2.93066 8.25501 8.39895 2.78711 15.1421 2.78711C21.8871 2.78711 27.3546 8.25501 27.3546 14.9993Z" fill="#A5A3A3"/>
<path d="M27.3494 14.9996C27.3494 21.7412 21.8838 27.2068 15.1414 27.2068C8.40057 27.2068 2.93457 21.7412 2.93457 14.9996C2.93457 8.25799 8.40057 2.79199 15.1414 2.79199C21.8838 2.79199 27.3494 8.25761 27.3494 14.9996Z" fill="#A6A4A4"/>
<path d="M27.3452 14.9989C27.3452 21.7383 21.8815 27.2016 15.1417 27.2016C8.40355 27.2016 2.93945 21.7379 2.93945 14.9989C2.93945 8.25961 8.40355 2.7959 15.1417 2.7959C21.8818 2.7959 27.3452 8.25961 27.3452 14.9989Z" fill="#A7A5A5"/>
<path d="M27.3407 14.9993C27.3407 21.7359 21.8789 27.1974 15.1415 27.1974C8.40555 27.1974 2.94336 21.7359 2.94336 14.9993C2.94336 8.26259 8.40555 2.80078 15.1415 2.80078C21.8789 2.8004 27.3407 8.26221 27.3407 14.9993Z" fill="#A8A6A6"/>
<path d="M27.3364 14.9996C27.3364 21.7336 21.8769 27.1931 15.1418 27.1931C8.40853 27.1931 2.94824 21.7336 2.94824 14.9996C2.94824 8.26519 8.40853 2.80566 15.1418 2.80566C21.8769 2.80528 27.3364 8.26519 27.3364 14.9996Z" fill="#A9A7A7"/>
<path d="M27.3322 14.9993C27.3322 21.731 21.8746 27.1886 15.1421 27.1886C8.41113 27.1886 2.95312 21.731 2.95312 14.9993C2.95312 8.26758 8.41113 2.80957 15.1421 2.80957C21.8746 2.80957 27.3322 8.2672 27.3322 14.9993Z" fill="#AAA8A8"/>
<path d="M27.327 14.9996C27.327 21.7287 21.8712 27.1844 15.1414 27.1844C8.41313 27.1844 2.95703 21.729 2.95703 14.9996C2.95703 8.27017 8.41313 2.81445 15.1414 2.81445C21.8716 2.81445 27.327 8.27017 27.327 14.9996Z" fill="#ABA9A9"/>
<path d="M27.3231 14.9989C27.3231 21.7257 21.8697 27.1792 15.1421 27.1792C8.41611 27.1792 2.96191 21.7257 2.96191 14.9989C2.96191 8.27218 8.41611 2.81836 15.1421 2.81836C21.8693 2.81836 27.3231 8.2718 27.3231 14.9989Z" fill="#ACAAAA"/>
<path d="M27.3182 14.9993C27.3182 21.7234 21.8667 27.1749 15.1415 27.1749C8.41812 27.1749 2.96582 21.7234 2.96582 14.9993C2.96582 8.27478 8.41812 2.82324 15.1415 2.82324C21.8667 2.82286 27.3182 8.27478 27.3182 14.9993Z" fill="#ACABAB"/>
<path d="M27.314 14.999C27.314 21.7208 21.8644 27.1701 15.1418 27.1701C8.42071 27.1701 2.9707 21.7204 2.9707 14.999C2.9707 8.27716 8.42071 2.82715 15.1418 2.82715C21.8644 2.82715 27.314 8.27678 27.314 14.999Z" fill="#ADACAC"/>
<path d="M27.3097 14.9993C27.3097 21.7185 21.862 27.1658 15.1421 27.1658C8.42369 27.1658 2.97559 21.7185 2.97559 14.9993C2.97559 8.27976 8.42369 2.83203 15.1421 2.83203C21.8624 2.83203 27.3097 8.27976 27.3097 14.9993Z" fill="#AEADAD"/>
<path d="M27.3049 14.9996C27.3049 21.7165 21.8594 27.1619 15.1418 27.1619C8.4257 27.1619 2.97949 21.7165 2.97949 14.9996C2.97949 8.28274 8.4257 2.83691 15.1418 2.83691C21.8594 2.83691 27.3049 8.28236 27.3049 14.9996Z" fill="#AFAEAE"/>
<path d="M27.3 14.9989C27.3 21.7132 21.8565 27.1567 15.1411 27.1567C8.4277 27.1567 2.9834 21.7132 2.9834 14.9989C2.9834 8.28436 8.4277 2.84082 15.1411 2.84082C21.8565 2.84044 27.3 8.28436 27.3 14.9989Z" fill="#B0AFAF"/>
<path d="M27.2958 14.9993C27.2958 21.7112 21.8541 27.1524 15.1415 27.1524C8.4303 27.1524 2.98828 21.7112 2.98828 14.9993C2.98828 8.28734 8.4303 2.8457 15.1415 2.8457C21.8541 2.84532 27.2958 8.28696 27.2958 14.9993Z" fill="#B1B0B0"/>
<path d="M27.2915 14.999C27.2915 21.7082 21.8518 27.1476 15.1418 27.1476C8.43328 27.1476 2.99316 21.7082 2.99316 14.999C2.99316 8.28934 8.43328 2.84961 15.1418 2.84961C21.8522 2.84961 27.2915 8.28934 27.2915 14.999Z" fill="#B2B1B1"/>
<path d="M27.2873 14.9993C27.2873 21.7063 21.8498 27.1433 15.1421 27.1433C8.43588 27.1433 2.99805 21.7059 2.99805 14.9993C2.99805 8.29232 8.43588 2.85449 15.1421 2.85449C21.8498 2.85449 27.2873 8.29232 27.2873 14.9993Z" fill="#B3B2B2"/>
<path d="M27.2824 14.9996C27.2824 21.7039 21.8469 27.1395 15.1418 27.1395C8.43826 27.1395 3.00195 21.7039 3.00195 14.9996C3.00195 8.29492 8.43788 2.85938 15.1418 2.85938C21.8473 2.85938 27.2824 8.29492 27.2824 14.9996Z" fill="#B4B3B3"/>
<path d="M27.2776 14.999C27.2776 21.701 21.8439 27.1342 15.1411 27.1342C8.43988 27.1342 3.00586 21.701 3.00586 14.999C3.00586 8.29693 8.43988 2.86328 15.1411 2.86328C21.8439 2.8629 27.2776 8.29693 27.2776 14.999Z" fill="#B5B4B4"/>
<path d="M27.2733 14.9993C27.2733 21.6986 21.842 27.13 15.1415 27.13C8.44286 27.13 3.01074 21.6986 3.01074 14.9993C3.01074 8.29952 8.44286 2.86816 15.1415 2.86816C21.8416 2.86778 27.2733 8.29952 27.2733 14.9993Z" fill="#B6B5B5"/>
<path d="M27.2691 14.999C27.2691 21.6957 21.8396 27.1251 15.1418 27.1251C8.44546 27.1251 3.01562 21.6957 3.01562 14.999C3.01562 8.30191 8.44584 2.87207 15.1418 2.87207C21.8396 2.87207 27.2691 8.30191 27.2691 14.999Z" fill="#B7B6B6"/>
<path d="M27.2648 14.9993C27.2648 21.6937 21.8373 27.1209 15.1421 27.1209C8.44844 27.1209 3.02051 21.6937 3.02051 14.9993C3.02051 8.30489 8.44844 2.87695 15.1421 2.87695C21.8373 2.87695 27.2648 8.30451 27.2648 14.9993Z" fill="#B8B7B7"/>
<path d="M27.26 14.9996C27.26 21.6914 21.8343 27.1166 15.1418 27.1166C8.45082 27.1166 3.02441 21.6914 3.02441 14.9996C3.02441 8.30749 8.45044 2.88184 15.1418 2.88184C21.8343 2.88184 27.26 8.30749 27.26 14.9996Z" fill="#B9B8B8"/>
<path d="M27.2551 14.999C27.2551 21.6884 21.8318 27.1118 15.1411 27.1118C8.45245 27.1118 3.02832 21.6884 3.02832 14.999C3.02832 8.30949 8.45245 2.88574 15.1411 2.88574C21.8314 2.88536 27.2551 8.30911 27.2551 14.999Z" fill="#BAB9B9"/>
<path d="M27.2509 14.9996C27.2509 21.6864 21.8294 27.1079 15.1415 27.1079C8.45543 27.1079 3.0332 21.6868 3.0332 14.9996C3.0332 8.31247 8.45543 2.89062 15.1415 2.89062C21.8294 2.89062 27.2509 8.31247 27.2509 14.9996Z" fill="#BBBABA"/>
<path d="M27.2466 14.999C27.2466 21.6835 21.8271 27.1027 15.1418 27.1027C8.45802 27.1027 3.03809 21.6831 3.03809 14.999C3.03809 8.31447 8.45802 2.89453 15.1418 2.89453C21.8271 2.89453 27.2466 8.31409 27.2466 14.999Z" fill="#BCBBBB"/>
<path d="M27.2418 14.9993C27.2418 21.6812 21.8245 27.0984 15.1415 27.0984C8.46041 27.0984 3.04199 21.6812 3.04199 14.9993C3.04199 8.31707 8.46003 2.89941 15.1415 2.89941C21.8245 2.89941 27.2418 8.31707 27.2418 14.9993Z" fill="#BDBCBC"/>
<path d="M27.2379 14.9996C27.2379 21.6792 21.8225 27.0942 15.1418 27.0942C8.46301 27.0942 3.04688 21.6788 3.04688 14.9996C3.04688 8.32005 8.46301 2.9043 15.1418 2.9043C21.8221 2.90392 27.2379 8.31967 27.2379 14.9996Z" fill="#BEBDBD"/>
<path d="M27.2327 14.999C27.2327 21.6759 21.8192 27.0889 15.1412 27.0889C8.46501 27.0889 3.05078 21.6759 3.05078 14.999C3.05078 8.32167 8.46501 2.9082 15.1412 2.9082C21.8192 2.90782 27.2327 8.32167 27.2327 14.999Z" fill="#BFBEBE"/>
<path d="M27.2284 14.9996C27.2284 21.6743 21.8168 27.0854 15.1415 27.0854C8.46761 27.0854 3.05566 21.6743 3.05566 14.9996C3.05566 8.32503 8.46761 2.91309 15.1415 2.91309C21.8168 2.91309 27.2284 8.32465 27.2284 14.9996Z" fill="#C0BFBF"/>
<path d="M27.2242 14.999C27.2242 21.6709 21.8149 27.0802 15.1418 27.0802C8.47059 27.0802 3.06055 21.6709 3.06055 14.999C3.06055 8.32665 8.47059 2.91699 15.1418 2.91699C21.8149 2.91699 27.2242 8.32665 27.2242 14.999Z" fill="#C1C0C0"/>
<path d="M27.2193 14.9993C27.2193 21.669 21.8119 27.076 15.1415 27.076C8.47259 27.076 3.06445 21.669 3.06445 14.9993C3.06445 8.32963 8.47259 2.92188 15.1415 2.92188C21.8119 2.92188 27.2193 8.32925 27.2193 14.9993Z" fill="#C2C1C1"/>
<path d="M27.2154 14.9996C27.2154 21.6666 21.81 27.0717 15.1418 27.0717C8.47557 27.0717 3.06934 21.6666 3.06934 14.9996C3.06934 8.33223 8.47557 2.92676 15.1418 2.92676C21.81 2.92638 27.2154 8.33223 27.2154 14.9996Z" fill="#C3C2C2"/>
<path d="M27.2102 14.9993C27.2102 21.6637 21.8066 27.0669 15.1412 27.0669C8.47719 27.0669 3.07324 21.6637 3.07324 14.9993C3.07324 8.33424 8.47719 2.93066 15.1412 2.93066C21.8066 2.93066 27.2102 8.33424 27.2102 14.9993Z" fill="#C4C3C3"/>
<path d="M27.2059 14.9997C27.2059 21.6617 21.8047 27.063 15.1415 27.063C8.48017 27.063 3.07812 21.6617 3.07812 14.9997C3.07812 8.33721 8.48017 2.93555 15.1415 2.93555C21.8047 2.93555 27.2059 8.33721 27.2059 14.9997Z" fill="#C5C4C4"/>
<path d="M27.2017 14.999C27.2017 21.6584 21.8023 27.0578 15.1418 27.0578C8.48277 27.0578 3.08301 21.6588 3.08301 14.999C3.08301 8.33922 8.48315 2.93945 15.1418 2.93945C21.8023 2.93945 27.2017 8.33884 27.2017 14.999Z" fill="#C6C5C5"/>
<path d="M27.1978 14.9993C27.1978 21.6564 21.8003 27.0535 15.1425 27.0535C8.48613 27.0535 3.08789 21.6564 3.08789 14.9993C3.08789 8.34182 8.48613 2.94434 15.1425 2.94434C21.8003 2.94434 27.1978 8.34182 27.1978 14.9993Z" fill="#C7C6C6"/>
<path d="M27.193 14.9996C27.193 21.6541 21.7978 27.0493 15.1418 27.0493C8.48775 27.0493 3.0918 21.6541 3.0918 14.9996C3.0918 8.34479 8.48775 2.94922 15.1418 2.94922C21.7974 2.94884 27.193 8.34479 27.193 14.9996Z" fill="#C8C7C7"/>
<path d="M27.1877 14.9993C27.1877 21.6515 21.7945 27.0444 15.1412 27.0444C8.48976 27.0444 3.0957 21.6515 3.0957 14.9993C3.0957 8.3468 8.48976 2.95312 15.1412 2.95312C21.7945 2.95312 27.1877 8.3468 27.1877 14.9993Z" fill="#C9C8C8"/>
<path d="M27.1835 14.9997C27.1835 21.6491 21.7921 27.0402 15.1415 27.0402C8.49274 27.0402 3.10059 21.6491 3.10059 14.9997C3.10059 8.34978 8.49274 2.95801 15.1415 2.95801C21.7921 2.95801 27.1835 8.34978 27.1835 14.9997Z" fill="#CAC9C9"/>
<path d="M27.1786 14.999C27.1786 21.6462 21.7892 27.0353 15.1412 27.0353C8.49474 27.0353 3.10449 21.6462 3.10449 14.999C3.10449 8.3514 8.49474 2.96191 15.1412 2.96191C21.7895 2.96191 27.1786 8.3514 27.1786 14.999Z" fill="#CBCACA"/>
<path d="M27.1748 14.9993C27.1748 21.6439 21.7876 27.0311 15.1415 27.0311C8.49772 27.0311 3.10938 21.6439 3.10938 14.9993C3.10938 8.35438 8.49734 2.9668 15.1415 2.9668C21.7872 2.96642 27.1748 8.35438 27.1748 14.9993Z" fill="#CCCBCB"/>
<path d="M27.1705 14.9996C27.1705 21.6419 21.7852 27.0268 15.1418 27.0268C8.50032 27.0268 3.11426 21.6419 3.11426 14.9996C3.11426 8.35698 8.50032 2.97168 15.1418 2.97168C21.7852 2.9713 27.1705 8.35698 27.1705 14.9996Z" fill="#CDCCCC"/>
<path d="M27.1653 14.9993C27.1653 21.6389 21.7819 27.022 15.1412 27.022C8.50232 27.022 3.11816 21.6389 3.11816 14.9993C3.11816 8.35936 8.50232 2.97559 15.1412 2.97559C21.7819 2.97559 27.1653 8.35936 27.1653 14.9993Z" fill="#CECDCD"/>
<path d="M27.161 14.9997C27.161 21.637 21.7795 27.0177 15.1415 27.0177C8.50492 27.0177 3.12305 21.6366 3.12305 14.9997C3.12305 8.36234 8.5053 2.98047 15.1415 2.98047C21.7799 2.98047 27.161 8.36196 27.161 14.9997Z" fill="#CFCECE"/>
<path d="M27.1562 14.999C27.1562 21.6336 21.777 27.0125 15.1412 27.0125C8.5073 27.0125 3.12695 21.6336 3.12695 14.999C3.12695 8.36396 8.50692 2.98438 15.1412 2.98438C21.777 2.98437 27.1562 8.36396 27.1562 14.999Z" fill="#D0CFCF"/>
<path d="M27.1523 14.9993C27.1523 21.6317 21.775 27.0086 15.1415 27.0086C8.5099 27.0086 3.13184 21.6317 3.13184 14.9993C3.13184 8.36694 8.5099 2.98926 15.1415 2.98926C21.775 2.98888 27.1523 8.36656 27.1523 14.9993Z" fill="#D1D0D0"/>
<path d="M27.1481 14.9996C27.1481 21.6293 21.7727 27.0043 15.1418 27.0043C8.51288 27.0043 3.13672 21.6293 3.13672 14.9996C3.13672 8.36954 8.51288 2.99414 15.1418 2.99414C21.7727 2.99376 27.1481 8.36954 27.1481 14.9996Z" fill="#D2D1D1"/>
<path d="M27.1428 14.9993C27.1428 21.6264 21.7697 26.9995 15.1412 26.9995C8.5145 26.9995 3.14062 21.6264 3.14062 14.9993C3.14062 8.37193 8.51488 2.99805 15.1412 2.99805C21.7697 2.99805 27.1428 8.37155 27.1428 14.9993Z" fill="#D3D2D2"/>
<path d="M27.1386 14.9997C27.1386 21.6244 21.7674 26.9952 15.1415 26.9952C8.51748 26.9952 3.14551 21.6244 3.14551 14.9997C3.14551 8.37453 8.51748 3.00293 15.1415 3.00293C21.7674 3.00293 27.1386 8.37453 27.1386 14.9997Z" fill="#D4D3D3"/>
<path d="M27.1347 14.999C27.1347 21.6211 21.7654 26.99 15.1422 26.99C8.52046 26.99 3.15039 21.6211 3.15039 14.999C3.15039 8.37653 8.52046 3.00684 15.1422 3.00684C21.7654 3.00684 27.1347 8.37615 27.1347 14.999Z" fill="#D5D4D4"/>
<path d="M27.1299 14.9993C27.1299 21.6191 21.7624 26.9861 15.1415 26.9861C8.52246 26.9861 3.1543 21.6191 3.1543 14.9993C3.1543 8.37913 8.52246 3.01172 15.1415 3.01172C21.7624 3.01134 27.1299 8.37913 27.1299 14.9993Z" fill="#D6D5D5"/>
<path d="M27.1256 14.999C27.1256 21.6162 21.7605 26.9813 15.1418 26.9813C8.52506 26.9813 3.15918 21.6165 3.15918 14.999C3.15918 8.38151 8.52506 3.01562 15.1418 3.01562C21.7605 3.01563 27.1256 8.38113 27.1256 14.999Z" fill="#D7D6D6"/>
<path d="M27.1204 14.9993C27.1204 21.6142 21.7572 26.977 15.1412 26.977C8.52707 26.977 3.16309 21.6142 3.16309 14.9993C3.16309 8.38411 8.52707 3.02051 15.1412 3.02051C21.7572 3.02051 27.1204 8.38411 27.1204 14.9993Z" fill="#D8D7D7"/>
<path d="M27.1161 14.9997C27.1161 21.6118 21.7548 26.9728 15.1415 26.9728C8.52966 26.9728 3.16797 21.6118 3.16797 14.9997C3.16797 8.38709 8.53005 3.02539 15.1415 3.02539C21.7552 3.02539 27.1161 8.38671 27.1161 14.9997Z" fill="#D9D8D8"/>
<path d="M27.1117 14.999C27.1117 21.6089 21.7526 26.9676 15.1412 26.9676C8.53205 26.9676 3.17188 21.6085 3.17188 14.999C3.17188 8.38871 8.53205 3.0293 15.1412 3.0293C21.7522 3.02892 27.1117 8.38871 27.1117 14.999Z" fill="#DAD9D9"/>
<path d="M27.1074 14.9993C27.1074 21.6066 21.7503 26.9633 15.1415 26.9633C8.53503 26.9633 3.17676 21.6066 3.17676 14.9993C3.17676 8.39169 8.53465 3.03418 15.1415 3.03418C21.7503 3.0338 27.1074 8.39131 27.1074 14.9993Z" fill="#DBDADA"/>
<path d="M27.1031 14.999C27.1031 21.604 21.7479 26.9588 15.1418 26.9588C8.53763 26.9588 3.18164 21.604 3.18164 14.999C3.18164 8.39369 8.53763 3.03809 15.1418 3.03809C21.7479 3.03809 27.1031 8.39369 27.1031 14.999Z" fill="#DCDBDB"/>
<path d="M27.0979 14.9993C27.0979 21.6016 21.7446 26.9546 15.1412 26.9546C8.53963 26.9546 3.18555 21.6016 3.18555 14.9993C3.18555 8.39667 8.53963 3.04297 15.1412 3.04297C21.745 3.04297 27.0979 8.39629 27.0979 14.9993Z" fill="#DDDCDC"/>
<path d="M27.094 14.9997C27.094 21.5997 21.743 26.9503 15.1419 26.9503C8.54261 26.9503 3.19043 21.5997 3.19043 14.9997C3.19043 8.39927 8.54261 3.04785 15.1419 3.04785C21.743 3.04785 27.094 8.39927 27.094 14.9997Z" fill="#DEDDDD"/>
<path d="M27.0892 14.999C27.0892 21.5963 21.7401 26.9451 15.1412 26.9451C8.54461 26.9451 3.19434 21.5963 3.19434 14.999C3.19434 8.40127 8.54423 3.05176 15.1412 3.05176C21.7401 3.05138 27.0892 8.40127 27.0892 14.999Z" fill="#DFDEDE"/>
<path d="M27.0849 14.9993C27.0849 21.5944 21.7377 26.9408 15.1415 26.9408C8.54721 26.9408 3.19922 21.594 3.19922 14.9993C3.19922 8.40387 8.54721 3.05664 15.1415 3.05664C21.7377 3.05626 27.0849 8.40387 27.0849 14.9993Z" fill="#E0DFDF"/>
<path d="M27.0807 14.999C27.0807 21.5914 21.7354 26.936 15.1418 26.936C8.55019 26.936 3.2041 21.5914 3.2041 14.999C3.2041 8.40626 8.55019 3.06055 15.1418 3.06055C21.7357 3.06055 27.0807 8.40626 27.0807 14.999Z" fill="#E1E0E0"/>
<path d="M27.0755 14.9993C27.0755 21.5891 21.7324 26.9321 15.1412 26.9321C8.55181 26.9321 3.20801 21.5895 3.20801 14.9993C3.20801 8.40885 8.55219 3.06543 15.1412 3.06543C21.7324 3.06543 27.0755 8.40885 27.0755 14.9993Z" fill="#E2E1E1"/>
<path d="M27.0716 14.9997C27.0716 21.5871 21.7304 26.9279 15.1419 26.9279C8.55517 26.9279 3.21289 21.5871 3.21289 14.9997C3.21289 8.41183 8.55479 3.07031 15.1419 3.07031C21.7304 3.07031 27.0716 8.41183 27.0716 14.9997Z" fill="#E3E2E2"/>
<path d="M27.0667 14.999C27.0667 21.5838 21.7275 26.9226 15.1412 26.9226C8.5568 26.9226 3.2168 21.5838 3.2168 14.999C3.2168 8.41384 8.5568 3.07422 15.1412 3.07422C21.7275 3.07384 27.0667 8.41346 27.0667 14.999Z" fill="#E3E3E3"/>
<path d="M27.0625 14.9997C27.0625 21.5822 21.7255 26.9188 15.1415 26.9188C8.55978 26.9188 3.22168 21.5822 3.22168 14.9997C3.22168 8.41682 8.55978 3.0791 15.1415 3.0791C21.7255 3.0791 27.0625 8.41682 27.0625 14.9997Z" fill="#E4E4E4"/>
<path d="M27.0582 14.999C27.0582 21.5789 21.7232 26.9135 15.1418 26.9135C8.56237 26.9135 3.22656 21.5789 3.22656 14.999C3.22656 8.41882 8.56275 3.08301 15.1418 3.08301C21.7232 3.08301 27.0582 8.41844 27.0582 14.999Z" fill="#E5E5E5"/>
<path d="M27.053 14.9993C27.053 21.5769 21.7199 26.9097 15.1412 26.9097C8.56438 26.9097 3.23047 21.5769 3.23047 14.9993C3.23047 8.42142 8.56438 3.08789 15.1412 3.08789C21.7202 3.08789 27.053 8.42142 27.053 14.9993Z" fill="#E6E6E6"/>
<path d="M27.0495 14.9997C27.0495 21.5745 21.7183 26.9054 15.1419 26.9054C8.56736 26.9054 3.23535 21.5749 3.23535 14.9997C3.23535 8.4244 8.56736 3.09277 15.1419 3.09277C21.7183 3.09239 27.0495 8.42402 27.0495 14.9997Z" fill="#E7E7E7"/>
<path d="M27.0443 14.999C27.0443 21.5716 21.7153 26.9002 15.1412 26.9002C8.56936 26.9002 3.23926 21.5716 3.23926 14.999C3.23926 8.42602 8.56936 3.09668 15.1412 3.09668C21.7149 3.0963 27.0443 8.42602 27.0443 14.999Z" fill="#E8E8E8"/>
<path d="M27.04 14.9997C27.04 21.5696 21.713 26.8963 15.1415 26.8963C8.57196 26.8963 3.24414 21.5696 3.24414 14.9997C3.24414 8.42938 8.57234 3.10156 15.1415 3.10156C21.713 3.10156 27.04 8.429 27.04 14.9997Z" fill="#E9E9E9"/>
<path d="M27.0358 14.999C27.0358 21.5667 21.7106 26.8911 15.1418 26.8911C8.57494 26.8911 3.24902 21.5663 3.24902 14.999C3.24902 8.431 8.57494 3.10547 15.1418 3.10547C21.7106 3.10547 27.0358 8.431 27.0358 14.999Z" fill="#EAEAEA"/>
<path d="M27.0309 14.9993C27.0309 21.5643 21.7077 26.8868 15.1415 26.8868C8.57732 26.8868 3.25293 21.5643 3.25293 14.9993C3.25293 8.43398 8.57694 3.11035 15.1415 3.11035C21.7081 3.11035 27.0309 8.4336 27.0309 14.9993Z" fill="#EBEBEB"/>
<path d="M27.0271 14.9997C27.0271 21.5624 21.7061 26.883 15.1419 26.883C8.57992 26.883 3.25781 21.5624 3.25781 14.9997C3.25781 8.43658 8.57992 3.11523 15.1419 3.11523C21.7057 3.11485 27.0271 8.43658 27.0271 14.9997Z" fill="#ECECEC"/>
<path d="M27.0218 14.999C27.0218 21.559 21.7028 26.8777 15.1412 26.8777C8.58192 26.8777 3.26172 21.559 3.26172 14.999C3.26172 8.43858 8.58192 3.11914 15.1412 3.11914C21.7028 3.11876 27.0218 8.4382 27.0218 14.999Z" fill="#EDEDED"/>
<path d="M27.0176 14.9997C27.0176 21.5574 21.7004 26.8738 15.1415 26.8738C8.58452 26.8738 3.2666 21.5571 3.2666 14.9997C3.2666 8.44156 8.58452 3.12402 15.1415 3.12402C21.7004 3.12402 27.0176 8.44156 27.0176 14.9997Z" fill="#EEEEEE"/>
<path d="M27.0133 14.999C27.0133 21.5541 21.6984 26.8686 15.1418 26.8686C8.5875 26.8686 3.27148 21.5541 3.27148 14.999C3.27148 8.44357 8.5875 3.12793 15.1418 3.12793C21.6984 3.12793 27.0133 8.44319 27.0133 14.999Z" fill="#EFEFEF"/>
<path d="M27.0085 14.9993C27.0085 21.5518 21.6955 26.8644 15.1415 26.8644C8.5895 26.8644 3.27539 21.5518 3.27539 14.9993C3.27539 8.44617 8.5895 3.13281 15.1415 3.13281C21.6951 3.13281 27.0085 8.44617 27.0085 14.9993Z" fill="#F0F0F0"/>
<path d="M27.0046 14.9997C27.0046 21.5498 21.6935 26.8601 15.1419 26.8601C8.59248 26.8601 3.28027 21.5494 3.28027 14.9997C3.28027 8.44914 8.59248 3.1377 15.1419 3.1377C21.6935 3.13731 27.0046 8.44876 27.0046 14.9997Z" fill="#F1F1F1"/>
<path d="M26.9994 14.9994C26.9994 21.5469 21.6902 26.8556 15.1412 26.8556C8.5941 26.8556 3.28418 21.5472 3.28418 14.9994C3.28418 8.45115 8.5941 3.1416 15.1412 3.1416C21.6902 3.1416 26.9994 8.45115 26.9994 14.9994Z" fill="#F2F2F2"/>
<path d="M26.9951 14.9997C26.9951 21.5449 21.6882 26.8514 15.1415 26.8514C8.59708 26.8514 3.28906 21.5449 3.28906 14.9997C3.28906 8.45413 8.59708 3.14648 15.1415 3.14648C21.6882 3.14648 26.9951 8.45375 26.9951 14.9997Z" fill="#F3F3F3"/>
<path d="M26.9909 14.999C26.9909 21.5416 21.6859 26.8462 15.1418 26.8462C8.59968 26.8462 3.29395 21.5416 3.29395 14.999C3.29395 8.45575 8.60006 3.15039 15.1418 3.15039C21.6859 3.15039 26.9909 8.45575 26.9909 14.999Z" fill="#F4F4F4"/>
<path d="M26.9864 14.9994C26.9864 21.5396 21.6833 26.8419 15.1416 26.8419C8.60207 26.8419 3.29785 21.5396 3.29785 14.9994C3.29785 8.45873 8.60207 3.15527 15.1416 3.15527C21.6833 3.15489 26.9864 8.45873 26.9864 14.9994Z" fill="#F5F5F5"/>
<path d="M26.9821 14.9997C26.9821 21.5372 21.6813 26.8377 15.1419 26.8377C8.60467 26.8377 3.30273 21.5372 3.30273 14.9997C3.30273 8.46133 8.60467 3.16016 15.1419 3.16016C21.681 3.15978 26.9821 8.46133 26.9821 14.9997Z" fill="#F6F6F6"/>
<path d="M26.9769 14.9994C26.9769 21.5347 21.678 26.8332 15.1412 26.8332C8.60667 26.8332 3.30664 21.5347 3.30664 14.9994C3.30664 8.46371 8.60667 3.16406 15.1412 3.16406C21.678 3.16406 26.9769 8.46371 26.9769 14.9994Z" fill="#F7F7F7"/>
<path d="M26.9726 14.9997C26.9726 21.5323 21.6757 26.8289 15.1415 26.8289C8.60927 26.8289 3.31152 21.5323 3.31152 14.9997C3.31152 8.46631 8.60965 3.16895 15.1415 3.16895C21.6757 3.16895 26.9726 8.46631 26.9726 14.9997Z" fill="#F8F8F8"/>
<path d="M26.9678 14.999C26.9678 21.5294 21.6727 26.8237 15.1412 26.8237C8.61165 26.8237 3.31543 21.5294 3.31543 14.999C3.31543 8.46831 8.61127 3.17285 15.1412 3.17285C21.6731 3.17285 26.9678 8.46831 26.9678 14.999Z" fill="#F9F9F9"/>
<path d="M26.9639 14.9994C26.9639 21.527 21.6711 26.8195 15.1415 26.8195C8.61425 26.8195 3.32031 21.527 3.32031 14.9994C3.32031 8.47129 8.61425 3.17773 15.1415 3.17773C21.6708 3.17735 26.9639 8.47091 26.9639 14.9994Z" fill="#FAFAFA"/>
<path d="M26.9597 14.9997C26.9597 21.5251 21.6688 26.8152 15.1419 26.8152C8.61723 26.8152 3.3252 21.5247 3.3252 14.9997C3.3252 8.47389 8.61723 3.18262 15.1419 3.18262C21.6688 3.18224 26.9597 8.47389 26.9597 14.9997Z" fill="#FBFBFB"/>
<path d="M26.9544 14.9994C26.9544 21.5221 21.6655 26.8103 15.1412 26.8103C8.61885 26.8103 3.3291 21.5221 3.3291 14.9994C3.3291 8.47627 8.61923 3.18652 15.1412 3.18652C21.6655 3.18652 26.9544 8.47589 26.9544 14.9994Z" fill="#FCFCFC"/>
<path d="M26.9502 14.9997C26.9502 21.5198 21.6631 26.8065 15.1415 26.8065C8.62183 26.8065 3.33398 21.5202 3.33398 14.9997C3.33398 8.47887 8.62183 3.19141 15.1415 3.19141C21.6635 3.19141 26.9502 8.47887 26.9502 14.9997Z" fill="#FDFDFD"/>
<path d="M26.9463 14.999C26.9463 21.5168 21.6615 26.8012 15.1422 26.8012C8.62519 26.8012 3.33887 21.5168 3.33887 14.999C3.33887 8.48088 8.62481 3.19531 15.1422 3.19531C21.6611 3.19531 26.9463 8.4805 26.9463 14.999Z" fill="#FEFEFE"/>
<path d="M26.9415 14.9994C26.9415 21.5145 21.6586 26.797 15.1416 26.797C8.62681 26.797 3.34277 21.5145 3.34277 14.9994C3.34277 8.48348 8.62681 3.2002 15.1416 3.2002C21.6586 3.19981 26.9415 8.48348 26.9415 14.9994Z" fill="white"/>
</g>
<path d="M10.0332 23.2148C10.313 23.8387 10.2179 24.5071 10.112 24.5478C10.0332 24.5836 9.23535 24.1973 8.96774 23.5128C8.70013 22.8326 9.00961 22.2178 9.10935 22.1991C9.25476 22.1763 9.75344 22.5943 10.0332 23.2148Z" fill="#BF7544"/>
<path d="M8.65308 25.12C9.46429 25.254 10.0284 24.8128 10.0083 24.713C9.98466 24.6301 9.32154 24.1238 8.58989 23.9704C7.84949 23.8196 7.21454 24.0731 7.20731 24.1919C7.1917 24.3522 7.83389 24.9883 8.65308 25.12Z" fill="#BF7544"/>
<path d="M8.78409 22.1607C8.94055 22.8139 8.72471 23.4568 8.6166 23.4774C8.53666 23.5037 7.84346 23.005 7.70414 22.2901C7.56367 21.5832 7.96794 21.0259 8.06692 21.0225C8.21271 21.0194 8.62726 21.5074 8.78409 22.1607Z" fill="#BF7544"/>
<path d="M7.11529 23.8224C7.87282 24.0755 8.48683 23.7291 8.48797 23.6267C8.48417 23.5426 7.94172 22.9457 7.25994 22.6857C6.57093 22.4253 5.9101 22.5757 5.88117 22.693C5.84043 22.8467 6.35433 23.5708 7.11529 23.8224Z" fill="#BF7544"/>
<path d="M7.75864 20.9347C7.79976 21.6016 7.47847 22.2008 7.36922 22.2061C7.29004 22.2183 6.7042 21.6229 6.6863 20.9012C6.66384 20.1821 7.14767 19.6952 7.24703 19.7062C7.39092 19.7276 7.71677 20.2708 7.75864 20.9347Z" fill="#BF7544"/>
<path d="M5.85599 22.3163C6.54804 22.6803 7.20355 22.4321 7.22144 22.3323C7.23096 22.2474 6.81108 21.5801 6.18603 21.2204C5.55793 20.8599 4.88224 20.9056 4.83733 21.0167C4.77147 21.1633 5.15785 21.9532 5.85599 22.3163Z" fill="#BF7544"/>
<path d="M6.95979 19.5735C6.89432 20.237 6.48091 20.776 6.37394 20.7661C6.29286 20.7661 5.81665 20.0904 5.91067 19.3736C6.00279 18.6633 6.5521 18.2575 6.64917 18.2834C6.78659 18.3272 7.02488 18.9119 6.95979 19.5735Z" fill="#BF7544"/>
<path d="M4.87143 20.642C5.4942 21.1056 6.17141 20.961 6.2091 20.8666C6.23041 20.7844 5.92816 20.0638 5.37163 19.6123C4.80824 19.1612 4.1356 19.103 4.0747 19.2054C3.98867 19.3401 4.24638 20.1772 4.87143 20.642Z" fill="#BF7544"/>
<path d="M6.38638 18.1076C6.21888 18.7528 5.72782 19.2203 5.62656 19.1936C5.54739 19.1814 5.18156 18.4441 5.38103 17.752C5.57784 17.0638 6.18005 16.7482 6.26989 16.7874C6.40008 16.8533 6.54816 17.4662 6.38638 18.1076Z" fill="#BF7544"/>
<path d="M4.16608 18.8405C4.70777 19.394 5.39678 19.3563 5.4474 19.2668C5.48319 19.1915 5.29438 18.4324 4.81359 17.9014C4.32444 17.3684 3.66702 17.2105 3.59279 17.2999C3.48735 17.4198 3.62096 18.2866 4.16608 18.8405Z" fill="#BF7544"/>
<path d="M6.03632 16.5751C5.77861 17.1846 5.2236 17.5725 5.12653 17.5272C5.05001 17.5047 4.79839 16.7194 5.09531 16.0662C5.38881 15.4175 6.0268 15.1971 6.11245 15.2523C6.23198 15.3357 6.29251 15.966 6.03632 16.5751Z" fill="#BF7544"/>
<path d="M3.73737 16.9558C4.19036 17.5851 4.87518 17.6528 4.93761 17.5733C4.98367 17.5032 4.91173 16.727 4.51088 16.1279C4.10509 15.5264 3.47775 15.2668 3.38982 15.3445C3.27105 15.4442 3.27866 16.3243 3.73737 16.9558Z" fill="#BF7544"/>
<path d="M5.91168 15.0053C5.5687 15.5667 4.9642 15.8637 4.87437 15.8054C4.80318 15.7708 4.66728 14.9558 5.05328 14.3566C5.43547 13.7593 6.09935 13.6417 6.17511 13.7095C6.28093 13.8107 6.2501 14.4426 5.91168 15.0053Z" fill="#BF7544"/>
<path d="M3.5821 15.0252C3.94183 15.7192 4.60914 15.8909 4.68223 15.8227C4.73933 15.7614 4.77739 14.9822 4.46753 14.3282C4.15158 13.6701 3.56725 13.3149 3.46904 13.3796C3.33733 13.4607 3.21856 14.3309 3.5821 15.0252Z" fill="#BF7544"/>
<path d="M6.01017 13.4334C5.59296 13.937 4.9523 14.1372 4.8716 14.0664C4.80612 14.0185 4.78633 13.1924 5.25379 12.6602C5.7182 12.1285 6.3916 12.114 6.45746 12.1916C6.54729 12.3085 6.42586 12.9298 6.01017 13.4334Z" fill="#BF7544"/>
<path d="M3.70491 13.0926C3.96148 13.8349 4.59643 14.109 4.67827 14.0523C4.74451 14.0001 4.89297 13.235 4.67827 12.5383C4.46244 11.8391 3.93597 11.3986 3.83205 11.4481C3.68664 11.506 3.44491 12.3495 3.70491 13.0926Z" fill="#BF7544"/>
<path d="M6.33427 11.8927C5.84816 12.3278 5.18694 12.4257 5.11728 12.3431C5.05904 12.2879 5.15763 11.466 5.69932 11.01C6.23682 10.5551 6.90794 10.646 6.95971 10.734C7.03166 10.8619 6.81772 11.4588 6.33427 11.8927Z" fill="#BF7544"/>
<path d="M4.10507 11.199C4.25011 11.9722 4.84014 12.3433 4.92998 12.2988C5.00117 12.2577 5.25812 11.5245 5.14924 10.8016C5.03809 10.0749 4.58357 9.5576 4.47128 9.59034C4.31977 9.62498 3.95433 10.4236 4.10507 11.199Z" fill="#BF7544"/>
<path d="M6.88438 10.4193C6.33698 10.7745 5.66815 10.768 5.61067 10.6759C5.56346 10.6127 5.78349 9.81517 6.39103 9.44668C6.99363 9.07934 7.64647 9.2731 7.68454 9.36789C7.73517 9.50797 7.42949 10.0645 6.88438 10.4193Z" fill="#BF7544"/>
<path d="M4.77855 9.38674C4.80824 10.1747 5.33699 10.6334 5.43254 10.6041C5.50753 10.5737 5.87183 9.88808 5.8764 9.15529C5.87754 8.4187 5.50981 7.8359 5.39295 7.84884C5.23573 7.86255 4.75 8.59495 4.77855 9.38674Z" fill="#BF7544"/>
<path d="M7.65935 9.04472C7.0579 9.31119 6.39744 9.2027 6.35557 9.10182C6.31636 9.03178 6.65896 8.27463 7.32589 8.00512C7.98787 7.73522 8.60721 8.0272 8.62967 8.12693C8.6567 8.27273 8.25738 8.77787 7.65935 9.04472Z" fill="#BF7544"/>
<path d="M5.73136 7.69598C5.63391 8.48168 6.08919 9.01689 6.18778 9.00205C6.26772 8.98454 6.73518 8.36062 6.86004 7.6366C6.98223 6.90648 6.71577 6.27267 6.59586 6.26772C6.43598 6.25668 5.82691 6.90838 5.73136 7.69598Z" fill="#BF7544"/>
<path d="M8.65876 7.80112C8.01353 7.9728 7.3702 7.76306 7.34584 7.65761C7.31881 7.57995 7.78627 6.88448 8.50345 6.72079C9.21492 6.55444 9.79048 6.94005 9.79315 7.04245C9.79391 7.19244 9.30285 7.62944 8.65876 7.80112Z" fill="#BF7544"/>
<path d="M9.63666 6.10459C9.02835 6.53246 8.30471 6.6421 8.22933 6.5732C8.173 6.52371 8.32831 5.74182 9.01732 5.25342C9.70061 4.76655 10.5308 4.82669 10.5739 4.92148C10.6355 5.05091 10.2423 5.6714 9.63666 6.10459Z" fill="#BF7544"/>
<path d="M6.96019 6.16827C6.72836 6.93036 7.0957 7.53106 7.19582 7.53258C7.27804 7.52687 7.8479 6.98176 8.10143 6.28361C8.35191 5.57938 8.19926 4.91093 8.08049 4.88732C7.92251 4.8523 7.18935 5.40237 6.96019 6.16827Z" fill="#BF7544"/>
<path d="M20.2508 23.2148C19.971 23.8387 20.0673 24.5071 20.1743 24.5478C20.2508 24.5836 21.0498 24.1973 21.3174 23.5128C21.585 22.8326 21.2759 22.2178 21.1769 22.1991C21.0311 22.1763 20.5325 22.5943 20.2508 23.2148Z" fill="#BF7544"/>
<path d="M21.6337 25.12C20.821 25.254 20.2584 24.8128 20.2748 24.713C20.2984 24.6301 20.9615 24.1238 21.6954 23.9704C22.4339 23.8196 23.0689 24.0731 23.078 24.1919C23.094 24.3522 22.4507 24.9883 21.6337 25.12Z" fill="#BF7544"/>
<path d="M21.5008 22.1607C21.3433 22.8139 21.5602 23.4568 21.6672 23.4774C21.749 23.5037 22.4407 23.005 22.5812 22.2901C22.7205 21.5832 22.3181 21.0259 22.2176 21.0225C22.0707 21.0194 21.6584 21.5074 21.5008 22.1607Z" fill="#BF7544"/>
<path d="M23.1693 23.8224C22.4126 24.0755 21.797 23.7291 21.7959 23.6267C21.8016 23.5426 22.3422 22.9457 23.0255 22.6857C23.7122 22.4253 24.3761 22.5757 24.4038 22.693C24.4427 22.8467 23.9314 23.5708 23.1693 23.8224Z" fill="#BF7544"/>
<path d="M22.525 20.9347C22.4843 21.6016 22.806 22.2008 22.9125 22.2061C22.9936 22.2183 23.5799 21.6229 23.5993 20.9012C23.6187 20.1821 23.136 19.6952 23.0378 19.7062C22.892 19.7276 22.5684 20.2708 22.525 20.9347Z" fill="#BF7544"/>
<path d="M24.4302 22.3163C23.7359 22.6803 23.0815 22.4321 23.0636 22.3323C23.0537 22.2474 23.4755 21.5801 24.0979 21.2204C24.7279 20.8599 25.4017 20.9056 25.447 21.0167C25.5129 21.1633 25.1265 21.9532 24.4302 22.3163Z" fill="#BF7544"/>
<path d="M23.3254 19.5735C23.3916 20.237 23.8043 20.776 23.9101 20.7661C23.9904 20.7661 24.4674 20.0904 24.3737 19.3736C24.2816 18.6633 23.7312 18.2575 23.6341 18.2834C23.4986 18.3272 23.2607 18.9119 23.3254 19.5735Z" fill="#BF7544"/>
<path d="M25.412 20.642C24.7919 21.1056 24.112 20.961 24.0763 20.8666C24.0549 20.7844 24.356 20.0638 24.9133 19.6123C25.4756 19.1612 26.149 19.103 26.2107 19.2054C26.2967 19.3401 26.0375 20.1772 25.412 20.642Z" fill="#BF7544"/>
<path d="M23.8985 18.1076C24.066 18.7528 24.5559 19.2203 24.6583 19.1936C24.7371 19.1814 25.1022 18.4441 24.9046 17.752C24.7082 17.0638 24.1056 16.7482 24.0154 16.7874C23.8848 16.8533 23.7356 17.4662 23.8985 18.1076Z" fill="#BF7544"/>
<path d="M26.1193 18.8405C25.5768 19.394 24.8874 19.3563 24.8383 19.2668C24.8022 19.1915 24.9898 18.4324 25.4721 17.9014C25.9609 17.3684 26.6176 17.2105 26.6929 17.2999C26.7972 17.4198 26.6644 18.2866 26.1193 18.8405Z" fill="#BF7544"/>
<path d="M24.2495 16.5751C24.5076 17.1846 25.0622 17.5725 25.1597 17.5272C25.2351 17.5047 25.4867 16.7194 25.189 16.0662C24.8982 15.4175 24.2575 15.1971 24.173 15.2523C24.0539 15.3357 23.993 15.966 24.2495 16.5751Z" fill="#BF7544"/>
<path d="M26.5502 16.9558C26.0941 17.5851 25.4093 17.6528 25.3465 17.5733C25.2993 17.5032 25.3735 16.727 25.7748 16.1279C26.1806 15.5264 26.8056 15.2668 26.8932 15.3445C27.0146 15.4442 27.0078 16.3243 26.5502 16.9558Z" fill="#BF7544"/>
<path d="M24.3734 15.0053C24.7152 15.5667 25.3201 15.8637 25.4096 15.8054C25.4807 15.7708 25.6178 14.9558 25.2333 14.3566C24.85 13.7593 24.1861 13.6417 24.1096 13.7095C24.0038 13.8107 24.035 14.4426 24.3734 15.0053Z" fill="#BF7544"/>
<path d="M26.7033 15.0252C26.3447 15.7192 25.677 15.8909 25.6031 15.8227C25.5468 15.7614 25.5072 14.9822 25.8201 14.3282C26.1345 13.6701 26.7166 13.3149 26.8144 13.3796C26.948 13.4607 27.066 14.3309 26.7033 15.0252Z" fill="#BF7544"/>
<path d="M24.2742 13.4334C24.6934 13.937 25.3333 14.1372 25.4124 14.0664C25.4779 14.0185 25.4985 13.1924 25.0302 12.6602C24.5677 12.1285 23.892 12.114 23.8266 12.1916C23.7367 12.3085 23.8597 12.9298 24.2742 13.4334Z" fill="#BF7544"/>
<path d="M26.582 13.0926C26.3231 13.8349 25.6882 14.109 25.6063 14.0523C25.5408 14.0001 25.3928 13.235 25.6063 12.5383C25.8233 11.8391 26.349 11.3986 26.4548 11.4481C26.5987 11.506 26.8404 12.3495 26.582 13.0926Z" fill="#BF7544"/>
<path d="M23.9506 11.8927C24.4375 12.3278 25.0983 12.4257 25.168 12.3431C25.2251 12.2879 25.1261 11.466 24.5855 11.01C24.048 10.5551 23.3773 10.646 23.3255 10.734C23.2524 10.8619 23.466 11.4588 23.9506 11.8927Z" fill="#BF7544"/>
<path d="M26.1816 11.199C26.0339 11.9722 25.4454 12.3433 25.3552 12.2988C25.2836 12.2577 25.027 11.5245 25.1359 10.8016C25.2482 10.0749 25.7016 9.5576 25.8127 9.59034C25.9646 9.62498 26.3297 10.4236 26.1816 11.199Z" fill="#BF7544"/>
<path d="M23.4009 10.4193C23.9495 10.7745 24.6183 10.768 24.6735 10.6759C24.7226 10.6127 24.5022 9.81517 23.8931 9.44668C23.2917 9.07934 22.6388 9.2731 22.6 9.36789C22.5501 9.50797 22.8566 10.0645 23.4009 10.4193Z" fill="#BF7544"/>
<path d="M25.5061 9.38674C25.4768 10.1747 24.9488 10.6334 24.8529 10.6041C24.7764 10.5737 24.4136 9.88808 24.4102 9.15529C24.4079 8.4187 24.7752 7.8359 24.8925 7.84884C25.0485 7.86255 25.5362 8.59495 25.5061 9.38674Z" fill="#BF7544"/>
<path d="M22.6255 9.04472C23.2269 9.31119 23.887 9.20269 23.9293 9.10182C23.97 9.03178 23.6247 8.27463 22.959 8.00512C22.2981 7.73522 21.6773 8.0272 21.6556 8.12693C21.6289 8.27273 22.0286 8.77787 22.6255 9.04472Z" fill="#BF7544"/>
<path d="M24.5526 7.69598C24.6504 8.48168 24.1951 9.01689 24.0961 9.00205C24.0162 8.98454 23.5487 8.36062 23.4265 7.6366C23.3028 6.90648 23.5693 6.27267 23.6892 6.26772C23.8476 6.25668 24.4582 6.90838 24.5526 7.69598Z" fill="#BF7544"/>
<path d="M21.6267 7.80112C22.2716 7.9728 22.9126 7.76306 22.9393 7.65761C22.9663 7.57995 22.4977 6.88448 21.7801 6.72079C21.0687 6.55444 20.4954 6.94005 20.4912 7.04245C20.4912 7.19244 20.9838 7.62944 21.6267 7.80112Z" fill="#BF7544"/>
<path d="M20.6478 6.10459C21.2569 6.53246 21.9798 6.6421 22.0548 6.5732C22.1138 6.52371 21.9562 5.74182 21.2691 5.25342C20.5835 4.76655 19.7533 4.82669 19.7129 4.92148C19.6486 5.05091 20.0422 5.6714 20.6478 6.10459Z" fill="#BF7544"/>
<path d="M23.3255 6.16827C23.5558 6.93036 23.1896 7.53106 23.0891 7.53258C23.0061 7.52687 22.4348 6.98176 22.1831 6.28361C21.9327 5.57938 22.0842 4.91093 22.2056 4.88732C22.3647 4.8523 23.0967 5.40237 23.3255 6.16827Z" fill="#BF7544"/>
<g filter="url(#filter0_d_456_7665)">
<path d="M15.5667 8.37013L17.4315 12.149C17.5008 12.2891 17.6344 12.3862 17.789 12.4086L21.9592 13.0146C22.3486 13.0714 22.5039 13.5495 22.2222 13.8243L19.2047 16.7657C19.0928 16.8746 19.0418 17.0318 19.068 17.186L19.7803 21.3391C19.8469 21.7266 19.4399 22.0224 19.0916 21.8393L15.3619 19.8785C15.2237 19.8058 15.0585 19.8058 14.9203 19.8785L11.1905 21.8393C10.8422 22.0224 10.4353 21.7266 10.5019 21.3391L11.2141 17.186C11.2404 17.0322 11.1894 16.875 11.0774 16.7657L8.05989 13.8243C7.7782 13.5499 7.93351 13.0714 8.32294 13.0146L12.4931 12.4086C12.6477 12.3862 12.7813 12.2891 12.8506 12.149L14.7155 8.37013C14.8898 8.01725 15.3927 8.01725 15.5667 8.37013Z" fill="url(#paint4_linear_456_7665)"/>
<path d="M15.5344 8.8818L17.2554 12.3691C17.3193 12.4985 17.4426 12.588 17.585 12.6085L21.4332 13.1677C21.7925 13.2199 21.936 13.6615 21.676 13.915L18.8915 16.6295C18.7883 16.73 18.7411 16.875 18.7655 17.017L19.4229 20.8496C19.4842 21.2074 19.1088 21.4804 18.7875 21.3113L15.3456 19.5016C15.218 19.4347 15.0654 19.4347 14.9379 19.5016L11.4959 21.3113C11.1746 21.4804 10.7989 21.2074 10.8605 20.8496L11.5179 17.017C11.5423 16.875 11.4951 16.73 11.3919 16.6295L8.60736 13.915C8.34737 13.6615 8.49088 13.2203 8.85023 13.1677L12.6984 12.6085C12.8411 12.588 12.9645 12.4981 13.028 12.3691L14.749 8.8818C14.9097 8.55633 15.3737 8.55633 15.5344 8.8818Z" fill="url(#paint5_linear_456_7665)"/>
<path d="M15.3753 10.6123L16.684 13.2641C16.7323 13.3623 16.8264 13.4304 16.9349 13.4464L19.861 13.8716C20.1344 13.9112 20.2432 14.2469 20.0457 14.4396L17.9284 16.5035C17.85 16.5801 17.8142 16.6904 17.8325 16.7982L18.3323 19.7126C18.3791 19.9847 18.0932 20.1922 17.8492 20.0635L15.2321 18.6874C15.1351 18.6364 15.0193 18.6364 14.9223 18.6874L12.3052 20.0635C12.0608 20.1918 11.7753 19.9844 11.8221 19.7126L12.3219 16.7982C12.3406 16.6901 12.3048 16.5801 12.226 16.5035L10.1087 14.4396C9.91116 14.2469 10.02 13.9112 10.2934 13.8716L13.2195 13.4464C13.328 13.4308 13.4217 13.3627 13.4704 13.2641L14.7791 10.6123C14.9002 10.3649 15.2534 10.3649 15.3753 10.6123Z" fill="#BF7544"/>
</g>
</g>
<defs>
<filter id="filter0_d_456_7665" x="-2.08398" y="-1.89453" width="34.4502" height="33.7891" filterUnits="userSpaceOnUse" color-interpolation-filters="sRGB">
<feFlood flood-opacity="0" result="BackgroundImageFix"/>
<feColorMatrix in="SourceAlpha" type="matrix" values="0 0 0 0 0 0 0 0 0 0 0 0 0 0 0 0 0 0 127 0" result="hardAlpha"/>
<feOffset/>
<feGaussianBlur stdDeviation="5"/>
<feComposite in2="hardAlpha" operator="out"/>
<feColorMatrix type="matrix" values="0 0 0 0 0 0 0 0 0 0 0 0 0 0 0 0 0 0 0.12 0"/>
<feBlend mode="normal" in2="BackgroundImageFix" result="effect1_dropShadow_456_7665"/>
<feBlend mode="normal" in="SourceGraphic" in2="effect1_dropShadow_456_7665" result="shape"/>
</filter>
<linearGradient id="paint0_linear_456_7665" x1="0.141602" y1="14.9999" x2="30.1414" y2="14.9999" gradientUnits="userSpaceOnUse">
<stop stop-color="#673529"/>
<stop offset="0.2424" stop-color="#BF7544"/>
<stop offset="0.497" stop-color="#E7D3AD"/>
<stop offset="0.7212" stop-color="#BF7544"/>
<stop offset="0.7749" stop-color="#A8643D"/>
<stop offset="0.8708" stop-color="#854B32"/>
<stop offset="0.9493" stop-color="#6F3B2B"/>
<stop offset="1" stop-color="#673529"/>
</linearGradient>
<linearGradient id="paint1_linear_456_7665" x1="3.05325" y1="5.30071" x2="26.1934" y2="23.8674" gradientUnits="userSpaceOnUse">
<stop stop-color="#673529"/>
<stop offset="0.2424" stop-color="#BF7544"/>
<stop offset="0.497" stop-color="#E7D3AD"/>
<stop offset="0.7212" stop-color="#BF7544"/>
<stop offset="0.7749" stop-color="#A8643D"/>
<stop offset="0.8708" stop-color="#854B32"/>
<stop offset="0.9493" stop-color="#6F3B2B"/>
<stop offset="1" stop-color="#673529"/>
</linearGradient>
<linearGradient id="paint2_linear_456_7665" x1="6.57313" y1="2.38278" x2="23.9964" y2="28.0374" gradientUnits="userSpaceOnUse">
<stop stop-color="#673529"/>
<stop offset="0.2424" stop-color="#BF7544"/>
<stop offset="0.497" stop-color="#E7D3AD"/>
<stop offset="0.7212" stop-color="#BF7544"/>
<stop offset="0.7749" stop-color="#A8643D"/>
<stop offset="0.8708" stop-color="#854B32"/>
<stop offset="0.9493" stop-color="#6F3B2B"/>
<stop offset="1" stop-color="#673529"/>
</linearGradient>
<linearGradient id="paint3_linear_456_7665" x1="15.1425" y1="28.3541" x2="15.1425" y2="1.56881" gradientUnits="userSpaceOnUse">
<stop stop-color="#A55B3D"/>
<stop offset="0.3083" stop-color="#6D2B1A"/>
<stop offset="0.498" stop-color="#DB8D56"/>
<stop offset="0.7984" stop-color="#EFD0A2"/>
</linearGradient>
<linearGradient id="paint4_linear_456_7665" x1="7.91642" y1="14.9999" x2="22.3659" y2="14.9999" gradientUnits="userSpaceOnUse">
<stop stop-color="#D68908"/>
<stop offset="0.0625" stop-color="#E3A025"/>
<stop offset="0.2066" stop-color="#FFD165"/>
<stop offset="0.2197" stop-color="#FFD36D"/>
<stop offset="0.2396" stop-color="#FED981"/>
<stop offset="0.2638" stop-color="#FEE3A3"/>
<stop offset="0.2911" stop-color="#FDF0D2"/>
<stop offset="0.3104" stop-color="#FCFBF8"/>
<stop offset="0.3912" stop-color="#FFD165"/>
<stop offset="0.5284" stop-color="#743105"/>
<stop offset="1" stop-color="#FFD165"/>
</linearGradient>
<linearGradient id="paint5_linear_456_7665" x1="8.47431" y1="15" x2="21.8089" y2="15" gradientUnits="userSpaceOnUse">
<stop stop-color="#673529"/>
<stop offset="0.2424" stop-color="#BF7544"/>
<stop offset="0.497" stop-color="#E7D3AD"/>
<stop offset="0.7212" stop-color="#BF7544"/>
<stop offset="0.7749" stop-color="#A8643D"/>
<stop offset="0.8708" stop-color="#854B32"/>
<stop offset="0.9493" stop-color="#6F3B2B"/>
<stop offset="1" stop-color="#673529"/>
</linearGradient>
<clipPath id="clip0_456_7665">
<rect width="30" height="30" fill="white" transform="translate(0.141602)"/>
</clipPath>
</defs>
</svg>
