<svg width="31" height="30" viewBox="0 0 31 30" fill="none" xmlns="http://www.w3.org/2000/svg">
<g clip-path="url(#clip0_456_7667)">
<path d="M30.1416 15.0002C30.1416 23.2843 23.4263 30.0004 15.1403 30.0004C6.85653 30.0004 0.141602 23.2839 0.141602 15.0002C0.141602 6.71569 6.85653 0 15.1403 0C23.4263 0 30.1416 6.71569 30.1416 15.0002Z" fill="url(#paint0_linear_456_7667)"/>
<path d="M29.8667 15.0005C29.8667 23.1331 23.274 29.7266 15.1406 29.7266C7.00874 29.7266 0.416016 23.1331 0.416016 15.0005C0.416016 6.86752 7.00874 0.274414 15.1406 0.274414C23.274 0.274414 29.8667 6.86752 29.8667 15.0005Z" fill="url(#paint1_linear_456_7667)"/>
<path d="M28.6774 15.0003C28.6774 22.4766 22.6172 28.5371 15.1402 28.5371C7.66388 28.5371 1.60449 22.4766 1.60449 15.0003C1.60449 7.5244 7.66388 1.46387 15.1402 1.46387C22.6172 1.46387 28.6774 7.5244 28.6774 15.0003Z" fill="url(#paint2_linear_456_7667)"/>
<path d="M28.4949 15.0002C28.4949 22.3752 22.5155 28.3547 15.1401 28.3547C7.76541 28.3547 1.78711 22.3752 1.78711 15.0002C1.78711 7.62517 7.76541 1.64648 15.1401 1.64648C22.5159 1.64648 28.4949 7.62517 28.4949 15.0002Z" fill="url(#paint3_linear_456_7667)"/>
<g opacity="0.2">
<path d="M27.9451 15.0001C27.9451 22.0729 22.2123 27.806 15.1399 27.806C8.06908 27.806 2.33594 22.0729 2.33594 15.0001C2.33594 7.92807 8.06908 2.19531 15.1399 2.19531C22.2123 2.19531 27.9451 7.92769 27.9451 15.0001Z" fill="#231F20"/>
<path d="M27.9408 15.0004C27.9408 22.0705 22.21 27.8017 15.1403 27.8017C8.07167 27.8017 2.34082 22.0705 2.34082 15.0004C2.34082 7.93067 8.07206 2.2002 15.1403 2.2002C22.21 2.2002 27.9408 7.93067 27.9408 15.0004Z" fill="#242021"/>
<path d="M27.9364 14.9997C27.9364 22.0676 22.2074 27.7965 15.14 27.7965C8.07406 27.7965 2.34473 22.0672 2.34473 14.9997C2.34473 7.93267 8.07406 2.2041 15.14 2.2041C22.2074 2.2041 27.9364 7.93229 27.9364 14.9997Z" fill="#252122"/>
<path d="M27.9321 15.0001C27.9321 22.0652 22.2055 27.7926 15.1403 27.7926C8.07666 27.7923 2.34961 22.0652 2.34961 15.0001C2.34961 7.93527 8.07666 2.20898 15.1403 2.20898C22.2051 2.20898 27.9321 7.93527 27.9321 15.0001Z" fill="#262223"/>
<path d="M27.9269 15.0004C27.9269 22.0632 22.2021 27.7884 15.1396 27.7884C8.07866 27.7884 2.35352 22.0632 2.35352 15.0004C2.35352 7.93825 8.07866 2.21387 15.1396 2.21387C22.2021 2.21349 27.9269 7.93787 27.9269 15.0004Z" fill="#272324"/>
<path d="M27.9226 15.0001C27.9226 22.0603 22.1998 27.7835 15.1399 27.7835C8.08126 27.7835 2.3584 22.0603 2.3584 15.0001C2.3584 7.94025 8.08164 2.21777 15.1399 2.21777C22.1998 2.21777 27.9226 7.94025 27.9226 15.0001Z" fill="#282425"/>
<path d="M27.9184 15.0004C27.9184 22.0583 22.1974 27.7793 15.1403 27.7793C8.08424 27.7793 2.36328 22.0583 2.36328 15.0004C2.36328 7.94323 8.08424 2.22266 15.1403 2.22266C22.1978 2.22266 27.9184 7.94323 27.9184 15.0004Z" fill="#292526"/>
<path d="M27.9139 14.9997C27.9139 22.055 22.1952 27.7741 15.14 27.7741C8.08662 27.7741 2.36719 22.055 2.36719 14.9997C2.36719 7.94485 8.08624 2.22656 15.14 2.22656C22.1949 2.22656 27.9139 7.94485 27.9139 14.9997Z" fill="#2A2627"/>
<path d="M27.9097 15.0001C27.9097 22.053 22.1929 27.7698 15.1403 27.7698C8.08922 27.7698 2.37207 22.0526 2.37207 15.0001C2.37207 7.94783 8.08922 2.23145 15.1403 2.23145C22.1929 2.23145 27.9097 7.94783 27.9097 15.0001Z" fill="#2B2728"/>
<path d="M27.9044 14.9998C27.9044 22.0501 22.1896 27.7653 15.1396 27.7653C8.09122 27.7653 2.37598 22.0501 2.37598 14.9998C2.37598 7.94984 8.09122 2.23535 15.1396 2.23535C22.1896 2.23535 27.9044 7.94984 27.9044 14.9998Z" fill="#2C2829"/>
<path d="M27.9002 15.0001C27.9002 22.0481 22.1876 27.7611 15.1399 27.7611C8.09382 27.7611 2.38086 22.0481 2.38086 15.0001C2.38086 7.95282 8.09382 2.24023 15.1399 2.24023C22.1876 2.24023 27.9002 7.95282 27.9002 15.0001Z" fill="#2D292A"/>
<path d="M27.8959 15.0004C27.8959 22.0458 22.1852 27.7568 15.1403 27.7568C8.0968 27.7568 2.38574 22.0458 2.38574 15.0004C2.38574 7.95541 8.0968 2.24512 15.1403 2.24512C22.1852 2.24512 27.8959 7.95541 27.8959 15.0004Z" fill="#2E2A2B"/>
<path d="M27.8915 14.9997C27.8915 22.0424 22.1827 27.7516 15.14 27.7516C8.0988 27.7516 2.38965 22.0424 2.38965 14.9997C2.38965 7.95742 8.0988 2.24902 15.14 2.24902C22.1827 2.24902 27.8915 7.95742 27.8915 14.9997Z" fill="#2F2B2C"/>
<path d="M27.8872 15.0004C27.8872 22.0408 22.1803 27.7477 15.1403 27.7477C8.10178 27.7477 2.39453 22.0408 2.39453 15.0004C2.39453 7.9604 8.10178 2.25391 15.1403 2.25391C22.1803 2.25391 27.8872 7.9604 27.8872 15.0004Z" fill="#302C2D"/>
<path d="M27.882 14.9998C27.882 22.0375 22.1774 27.7429 15.1396 27.7429C8.10341 27.7425 2.39844 22.0375 2.39844 14.9998C2.39844 7.9624 8.10341 2.25781 15.1396 2.25781C22.1774 2.25781 27.882 7.9624 27.882 14.9998Z" fill="#312D2E"/>
<path d="M27.8777 15.0001C27.8777 22.0356 22.175 27.7386 15.1399 27.7386C8.10639 27.7386 2.40332 22.0356 2.40332 15.0001C2.40332 7.965 8.10639 2.2627 15.1399 2.2627C22.175 2.2627 27.8777 7.965 27.8777 15.0001Z" fill="#322E2F"/>
<path d="M27.8735 15.0004C27.8735 22.0332 22.1727 27.7344 15.1403 27.7344C8.10898 27.7344 2.4082 22.0336 2.4082 15.0004C2.4082 7.96798 8.10936 2.26758 15.1403 2.26758C22.1731 2.26758 27.8735 7.96798 27.8735 15.0004Z" fill="#332F30"/>
<path d="M27.869 14.9997C27.869 22.0303 22.1701 27.7291 15.14 27.7291C8.11137 27.7291 2.41211 22.0303 2.41211 14.9997C2.41211 7.9696 8.11099 2.27148 15.14 2.27148C22.1701 2.27148 27.869 7.9696 27.869 14.9997Z" fill="#343031"/>
<path d="M27.8647 15.0001C27.8647 22.0279 22.1681 27.7249 15.1403 27.7249C8.11397 27.7249 2.41699 22.0279 2.41699 15.0001C2.41699 7.97258 8.11397 2.27637 15.1403 2.27637C22.1681 2.27599 27.8647 7.97258 27.8647 15.0001Z" fill="#353132"/>
<path d="M27.8595 14.9998C27.8595 22.0253 22.1648 27.72 15.1396 27.72C8.11597 27.72 2.4209 22.025 2.4209 14.9998C2.4209 7.97458 8.11597 2.28027 15.1396 2.28027C22.1648 2.28027 27.8595 7.97458 27.8595 14.9998Z" fill="#363233"/>
<path d="M27.8553 15.0001C27.8553 22.023 22.1625 27.7162 15.1399 27.7162C8.11857 27.7162 2.42578 22.0234 2.42578 15.0001C2.42578 7.97756 8.11895 2.28516 15.1399 2.28516C22.1629 2.28516 27.8553 7.97756 27.8553 15.0001Z" fill="#373334"/>
<path d="M27.8514 15.0004C27.8514 22.021 22.1605 27.7119 15.1403 27.7119C8.12155 27.7119 2.43066 22.021 2.43066 15.0004C2.43066 7.98016 8.12155 2.29004 15.1403 2.29004C22.1605 2.29004 27.8514 7.98016 27.8514 15.0004Z" fill="#383435"/>
<path d="M27.8465 14.9997C27.8465 22.0177 22.1579 27.7067 15.14 27.7067C8.12355 27.7067 2.43457 22.0177 2.43457 14.9997C2.43457 7.98216 8.12355 2.29395 15.14 2.29395C22.1576 2.29395 27.8465 7.98216 27.8465 14.9997Z" fill="#393536"/>
<path d="M27.8423 15.0004C27.8423 22.0161 22.1556 27.7028 15.1403 27.7028C8.12653 27.7028 2.43945 22.0161 2.43945 15.0004C2.43945 7.98552 8.12653 2.29883 15.1403 2.29883C22.1556 2.29883 27.8423 7.98514 27.8423 15.0004Z" fill="#3A3637"/>
<path d="M27.8371 14.9998C27.8371 22.0128 22.1523 27.6976 15.1396 27.6976C8.12815 27.6976 2.44336 22.0128 2.44336 14.9998C2.44336 7.98714 8.12815 2.30273 15.1396 2.30273C22.1523 2.30273 27.8371 7.98714 27.8371 14.9998Z" fill="#3B3738"/>
<path d="M27.8328 15.0001C27.8328 22.0108 22.1503 27.6933 15.14 27.6933C8.13113 27.6933 2.44824 22.0104 2.44824 15.0001C2.44824 7.99012 8.13113 2.30762 15.14 2.30762C22.1503 2.30762 27.8328 7.98974 27.8328 15.0001Z" fill="#3C3839"/>
<path d="M27.8289 15.0004C27.8289 22.0085 22.1483 27.6894 15.1403 27.6894C8.13373 27.6894 2.45312 22.0085 2.45312 15.0004C2.45312 7.99272 8.13411 2.3125 15.1403 2.3125C22.1479 2.3125 27.8289 7.99272 27.8289 15.0004Z" fill="#3D393A"/>
<path d="M27.8241 14.9997C27.8241 22.0051 22.1454 27.6842 15.14 27.6842C8.13611 27.6842 2.45703 22.0055 2.45703 14.9997C2.45703 7.99473 8.13611 2.31641 15.14 2.31641C22.1454 2.31603 27.8241 7.99473 27.8241 14.9997Z" fill="#3E3A3B"/>
<path d="M27.8198 15.0004C27.8198 22.0035 22.143 27.6803 15.1403 27.6803C8.13871 27.6803 2.46191 22.0035 2.46191 15.0004C2.46191 7.99771 8.13871 2.32129 15.1403 2.32129C22.143 2.32129 27.8198 7.99771 27.8198 15.0004Z" fill="#3F3B3C"/>
<path d="M27.8146 14.9998C27.8146 22.0002 22.1401 27.6751 15.1396 27.6751C8.14071 27.6751 2.46582 22.0002 2.46582 14.9998C2.46582 7.99971 8.14071 2.3252 15.1396 2.3252C22.1401 2.3252 27.8146 7.99971 27.8146 14.9998Z" fill="#3F3C3D"/>
<path d="M27.8103 15.0001C27.8103 21.9982 22.1377 27.6709 15.1399 27.6709C8.14331 27.6709 2.4707 21.9982 2.4707 15.0001C2.4707 8.00231 8.14369 2.33008 15.1399 2.33008C22.1377 2.33008 27.8103 8.00231 27.8103 15.0001Z" fill="#403D3E"/>
<path d="M27.8065 15.0004C27.8065 21.9959 22.1358 27.667 15.1403 27.667C8.14629 27.667 2.47559 21.9963 2.47559 15.0004C2.47559 8.00529 8.14629 2.33496 15.1403 2.33496C22.1358 2.33496 27.8065 8.00529 27.8065 15.0004Z" fill="#413E3F"/>
<path d="M27.8016 14.9997C27.8016 21.9929 22.1328 27.6618 15.14 27.6618C8.14868 27.6618 2.47949 21.9929 2.47949 14.9997C2.47949 8.00691 8.1483 2.33887 15.14 2.33887C22.1328 2.33849 27.8016 8.00691 27.8016 14.9997Z" fill="#423F40"/>
<path d="M27.7974 15.0004C27.7974 21.991 22.1308 27.6579 15.1403 27.6579C8.15127 27.6579 2.48438 21.991 2.48438 15.0004C2.48438 8.01027 8.15127 2.34375 15.1403 2.34375C22.1308 2.34375 27.7974 8.01027 27.7974 15.0004Z" fill="#434041"/>
<path d="M27.7921 14.9998C27.7921 21.988 22.1275 27.6527 15.1396 27.6527C8.15328 27.6527 2.48828 21.988 2.48828 14.9998C2.48828 8.01189 8.15328 2.34766 15.1396 2.34766C22.1275 2.34766 27.7921 8.01189 27.7921 14.9998Z" fill="#444142"/>
<path d="M27.7879 15.0001C27.7879 21.9857 22.1252 27.6484 15.14 27.6484C8.15588 27.6484 2.49316 21.9857 2.49316 15.0001C2.49316 8.01487 8.15588 2.35254 15.14 2.35254C22.1255 2.35254 27.7879 8.01487 27.7879 15.0001Z" fill="#454243"/>
<path d="M27.784 15.0004C27.784 21.9837 22.1232 27.6441 15.1403 27.6441C8.15886 27.6441 2.49805 21.9833 2.49805 15.0004C2.49805 8.01747 8.15886 2.35742 15.1403 2.35742C22.1232 2.35742 27.784 8.01747 27.784 15.0004Z" fill="#464344"/>
<path d="M27.7792 15.0001C27.7792 21.9808 22.1206 27.6397 15.14 27.6397C8.16086 27.6397 2.50195 21.9811 2.50195 15.0001C2.50195 8.01985 8.16086 2.36133 15.14 2.36133C22.1206 2.36133 27.7792 8.01985 27.7792 15.0001Z" fill="#474445"/>
<path d="M27.7749 15.0004C27.7749 21.9788 22.1183 27.6354 15.1403 27.6354C8.16384 27.6354 2.50684 21.9788 2.50684 15.0004C2.50684 8.02245 8.16384 2.36621 15.1403 2.36621C22.1183 2.36621 27.7749 8.02245 27.7749 15.0004Z" fill="#484546"/>
<path d="M27.7697 14.9998C27.7697 21.9755 22.115 27.6302 15.1396 27.6302C8.16546 27.6302 2.51074 21.9755 2.51074 14.9998C2.51074 8.02445 8.16546 2.37012 15.1396 2.37012C22.1153 2.37012 27.7697 8.02445 27.7697 14.9998Z" fill="#494647"/>
<path d="M27.7658 15.0001C27.7658 21.9731 22.1134 27.6259 15.1399 27.6259C8.16844 27.6259 2.51562 21.9731 2.51562 15.0001C2.51562 8.02705 8.16844 2.375 15.1399 2.375C22.113 2.375 27.7658 8.02705 27.7658 15.0001Z" fill="#4A4748"/>
<path d="M27.7615 15.0004C27.7615 21.9712 22.111 27.6217 15.1403 27.6217C8.17104 27.6217 2.52051 21.9712 2.52051 15.0004C2.52051 8.03003 8.17142 2.37988 15.1403 2.37988C22.111 2.3795 27.7615 8.03003 27.7615 15.0004Z" fill="#4B4849"/>
<path d="M27.7567 15.0001C27.7567 21.9682 22.1081 27.6168 15.14 27.6168C8.17342 27.6168 2.52441 21.9682 2.52441 15.0001C2.52441 8.03203 8.17304 2.38379 15.14 2.38379C22.1081 2.38379 27.7567 8.03203 27.7567 15.0001Z" fill="#4C494A"/>
<path d="M27.7524 15.0004C27.7524 21.9662 22.1057 27.613 15.1403 27.613C8.17602 27.613 2.5293 21.9662 2.5293 15.0004C2.5293 8.03501 8.17602 2.38867 15.1403 2.38867C22.1057 2.38867 27.7524 8.03501 27.7524 15.0004Z" fill="#4D4A4B"/>
<path d="M27.7472 14.9998C27.7472 21.9629 22.1028 27.6077 15.1396 27.6077C8.17802 27.6077 2.5332 21.9633 2.5332 14.9998C2.5332 8.03663 8.17802 2.39258 15.1396 2.39258C22.1028 2.39258 27.7472 8.03663 27.7472 14.9998Z" fill="#4E4B4C"/>
<path d="M27.7433 15.0001C27.7433 21.9609 22.1008 27.6035 15.14 27.6035C8.18062 27.6035 2.53809 21.9609 2.53809 15.0001C2.53809 8.03962 8.181 2.39746 15.14 2.39746C22.1004 2.39746 27.7433 8.03962 27.7433 15.0001Z" fill="#4F4C4D"/>
<path d="M27.7391 15.0004C27.7391 21.9586 22.0985 27.5992 15.1403 27.5992C8.1836 27.5992 2.54297 21.9586 2.54297 15.0004C2.54297 8.04259 8.1836 2.40234 15.1403 2.40234C22.0985 2.40196 27.7391 8.04221 27.7391 15.0004Z" fill="#504D4E"/>
<path d="M27.7342 15.0001C27.7342 21.956 22.0955 27.5944 15.14 27.5944C8.1856 27.5944 2.54688 21.9556 2.54688 15.0001C2.54688 8.0446 8.1856 2.40625 15.14 2.40625C22.0955 2.40625 27.7342 8.0446 27.7342 15.0001Z" fill="#514E4F"/>
<path d="M27.73 15.0004C27.73 21.9537 22.0935 27.5901 15.1403 27.5901C8.18858 27.5901 2.55176 21.9537 2.55176 15.0004C2.55176 8.04758 8.18858 2.41113 15.1403 2.41113C22.0935 2.41113 27.73 8.0472 27.73 15.0004Z" fill="#524F50"/>
<path d="M27.7248 14.9998C27.7248 21.9507 22.0902 27.5853 15.1396 27.5853C8.1902 27.5853 2.55566 21.9507 2.55566 14.9998C2.55566 8.0492 8.1902 2.41504 15.1396 2.41504C22.0902 2.41504 27.7248 8.0492 27.7248 14.9998Z" fill="#535051"/>
<path d="M27.7209 15.0001C27.7209 21.9484 22.0882 27.581 15.14 27.581C8.19318 27.581 2.56055 21.9484 2.56055 15.0001C2.56055 8.05218 8.19318 2.41992 15.14 2.41992C22.0882 2.41992 27.7209 8.05218 27.7209 15.0001Z" fill="#545152"/>
<path d="M27.7166 14.9998C27.7166 21.9458 22.0859 27.5762 15.1403 27.5762C8.19578 27.5762 2.56543 21.9458 2.56543 14.9998C2.56543 8.05418 8.19616 2.42383 15.1403 2.42383C22.0859 2.42383 27.7166 8.05418 27.7166 14.9998Z" fill="#555253"/>
<path d="M27.7118 15.0001C27.7118 21.9435 22.0833 27.5719 15.14 27.5719C8.19817 27.5719 2.56934 21.9435 2.56934 15.0001C2.56934 8.05716 8.19817 2.42871 15.14 2.42871C22.0833 2.42871 27.7118 8.05716 27.7118 15.0001Z" fill="#565354"/>
<path d="M27.7075 15.0004C27.7075 21.9411 22.081 27.5677 15.1403 27.5677C8.20077 27.5677 2.57422 21.9411 2.57422 15.0004C2.57422 8.05976 8.20077 2.43359 15.1403 2.43359C22.081 2.43359 27.7075 8.05976 27.7075 15.0004Z" fill="#575455"/>
<path d="M27.7023 14.9998C27.7023 21.9382 22.0777 27.5628 15.1396 27.5628C8.20277 27.5628 2.57812 21.9382 2.57812 14.9998C2.57812 8.06176 8.20277 2.4375 15.1396 2.4375C22.078 2.4375 27.7023 8.06176 27.7023 14.9998Z" fill="#585556"/>
<path d="M27.6984 15.0001C27.6984 21.9358 22.0757 27.5586 15.14 27.5586C8.20537 27.5586 2.58301 21.9362 2.58301 15.0001C2.58301 8.06436 8.20575 2.44238 15.14 2.44238C22.0757 2.442 27.6984 8.06436 27.6984 15.0001Z" fill="#595657"/>
<path d="M27.6936 14.9998C27.6936 21.9333 22.0731 27.5537 15.1397 27.5537C8.20775 27.5537 2.58691 21.9333 2.58691 14.9998C2.58691 8.06674 8.20775 2.44629 15.1397 2.44629C22.0731 2.44629 27.6936 8.06674 27.6936 14.9998Z" fill="#5A5758"/>
<path d="M27.6893 15.0001C27.6893 21.9309 22.0708 27.5495 15.14 27.5495C8.21073 27.5495 2.5918 21.9309 2.5918 15.0001C2.5918 8.06934 8.21035 2.45117 15.14 2.45117C22.0708 2.45117 27.6893 8.06934 27.6893 15.0001Z" fill="#5B5859"/>
<path d="M27.6851 15.0004C27.6851 21.9289 22.0684 27.5452 15.1403 27.5452C8.21333 27.5452 2.59668 21.9289 2.59668 15.0004C2.59668 8.07232 8.21333 2.45605 15.1403 2.45605C22.0688 2.45605 27.6851 8.07232 27.6851 15.0004Z" fill="#5C595A"/>
<path d="M27.6802 14.9998C27.6802 21.9256 22.0658 27.54 15.1396 27.54C8.21533 27.54 2.60059 21.9256 2.60059 14.9998C2.60059 8.07395 8.21533 2.45996 15.1396 2.45996C22.0655 2.45996 27.6802 8.07395 27.6802 14.9998Z" fill="#5D5A5B"/>
<path d="M27.676 15.0001C27.676 21.9236 22.0635 27.5361 15.14 27.5361C8.21793 27.5361 2.60547 21.9236 2.60547 15.0001C2.60547 8.07692 8.21793 2.46484 15.14 2.46484C22.0635 2.46446 27.676 8.07692 27.676 15.0001Z" fill="#5E5B5C"/>
<path d="M27.6711 14.9998C27.6711 21.9207 22.0606 27.5312 15.1397 27.5312C8.22031 27.5312 2.60938 21.9207 2.60938 14.9998C2.60938 8.07893 8.21993 2.46875 15.1397 2.46875C22.0606 2.46875 27.6711 8.07893 27.6711 14.9998Z" fill="#5F5C5D"/>
<path d="M27.6669 15.0001C27.6669 21.9187 22.0582 27.527 15.14 27.527C8.22291 27.527 2.61426 21.9187 2.61426 15.0001C2.61426 8.08191 8.22291 2.47363 15.14 2.47363C22.0586 2.47363 27.6669 8.08191 27.6669 15.0001Z" fill="#605D5E"/>
<path d="M27.6626 15.0004C27.6626 21.9164 22.0562 27.5227 15.1403 27.5227C8.22589 27.5227 2.61914 21.9164 2.61914 15.0004C2.61914 8.0845 8.22589 2.47852 15.1403 2.47852C22.0562 2.47852 27.6626 8.0845 27.6626 15.0004Z" fill="#615E5F"/>
<path d="M27.6578 14.9998C27.6578 21.9134 22.0533 27.5175 15.1396 27.5175C8.22751 27.5175 2.62305 21.913 2.62305 14.9998C2.62305 8.08651 8.22751 2.48242 15.1396 2.48242C22.0529 2.48242 27.6578 8.08651 27.6578 14.9998Z" fill="#625F60"/>
<path d="M27.6535 15.0005C27.6535 21.9115 22.0509 27.5136 15.14 27.5136C8.23049 27.5136 2.62793 21.9115 2.62793 15.0005C2.62793 8.08949 8.23049 2.4873 15.14 2.4873C22.0509 2.4873 27.6535 8.08949 27.6535 15.0005Z" fill="#636061"/>
<path d="M27.6487 14.9998C27.6487 21.9085 22.048 27.5088 15.1397 27.5088C8.2325 27.5088 2.63184 21.9085 2.63184 14.9998C2.63184 8.09149 8.2325 2.49121 15.1397 2.49121C22.048 2.49121 27.6487 8.09149 27.6487 14.9998Z" fill="#646162"/>
<path d="M27.6444 15.0001C27.6444 21.9062 22.046 27.5045 15.14 27.5045C8.23548 27.5045 2.63672 21.9062 2.63672 15.0001C2.63672 8.09447 8.23509 2.49609 15.14 2.49609C22.046 2.49609 27.6444 8.09409 27.6444 15.0001Z" fill="#656263"/>
<path d="M27.6401 15.0004C27.6401 21.9038 22.0437 27.5003 15.1403 27.5003C8.23807 27.5003 2.6416 21.9038 2.6416 15.0004C2.6416 8.09707 8.23807 2.50098 15.1403 2.50098C22.0437 2.50098 27.6401 8.09707 27.6401 15.0004Z" fill="#666364"/>
<path d="M27.6353 14.9998C27.6353 21.9009 22.0407 27.495 15.1396 27.495C8.24008 27.495 2.64551 21.9009 2.64551 14.9998C2.64551 8.09907 8.24008 2.50488 15.1396 2.50488C22.0407 2.5045 27.6353 8.09869 27.6353 14.9998Z" fill="#676465"/>
<path d="M27.631 15.0005C27.631 21.8989 22.0384 27.4912 15.14 27.4912C8.24267 27.4912 2.65039 21.8989 2.65039 15.0005C2.65039 8.10205 8.24306 2.50977 15.14 2.50977C22.0384 2.50977 27.631 8.10205 27.631 15.0005Z" fill="#686566"/>
<path d="M27.6262 14.9998C27.6262 21.8959 22.0358 27.4863 15.1397 27.4863C8.24506 27.4863 2.6543 21.8959 2.6543 14.9998C2.6543 8.10405 8.24468 2.51367 15.1397 2.51367C22.0358 2.51367 27.6262 8.10367 27.6262 14.9998Z" fill="#696667"/>
<path d="M27.6219 15.0001C27.6219 21.8936 22.0335 27.4821 15.14 27.4821C8.24766 27.4821 2.65918 21.894 2.65918 15.0001C2.65918 8.10665 8.24766 2.51855 15.14 2.51855C22.0335 2.51855 27.6219 8.10665 27.6219 15.0001Z" fill="#6A6768"/>
<path d="M27.6177 15.0004C27.6177 21.8916 22.0311 27.4778 15.1403 27.4778C8.25064 27.4778 2.66406 21.8916 2.66406 15.0004C2.66406 8.10963 8.25064 2.52344 15.1403 2.52344C22.0315 2.52344 27.6177 8.10963 27.6177 15.0004Z" fill="#6B6869"/>
<path d="M27.6128 15.0002C27.6128 21.8887 22.0285 27.473 15.1396 27.473C8.25226 27.473 2.66797 21.8887 2.66797 15.0002C2.66797 8.11163 8.25264 2.52734 15.1396 2.52734C22.0282 2.52734 27.6128 8.11163 27.6128 15.0002Z" fill="#6C696A"/>
<path d="M27.6086 15.0005C27.6086 21.8867 22.0262 27.4687 15.14 27.4687C8.25524 27.4687 2.67285 21.8863 2.67285 15.0005C2.67285 8.11461 8.25524 2.53223 15.14 2.53223C22.0262 2.53223 27.6086 8.11461 27.6086 15.0005Z" fill="#6D6A6B"/>
<path d="M27.6037 14.9998C27.6037 21.8834 22.0232 27.4635 15.1397 27.4635C8.25724 27.4635 2.67676 21.8834 2.67676 14.9998C2.67676 8.11623 8.25724 2.53613 15.1397 2.53613C22.0232 2.53613 27.6037 8.11623 27.6037 14.9998Z" fill="#6E6B6C"/>
<path d="M27.5995 15.0001C27.5995 21.8814 22.0209 27.4596 15.14 27.4596C8.26022 27.4596 2.68164 21.8814 2.68164 15.0001C2.68164 8.11921 8.26022 2.54102 15.14 2.54102C22.0213 2.54102 27.5995 8.11921 27.5995 15.0001Z" fill="#6F6C6D"/>
<path d="M27.5956 15.0004C27.5956 21.8791 22.0193 27.4554 15.1403 27.4554C8.26282 27.4554 2.68652 21.8791 2.68652 15.0004C2.68652 8.12181 8.26282 2.5459 15.1403 2.5459C22.0189 2.5459 27.5956 8.12181 27.5956 15.0004Z" fill="#706D6E"/>
<path d="M27.5904 15.0002C27.5904 21.8765 22.016 27.4505 15.1396 27.4505C8.26482 27.4505 2.69043 21.8765 2.69043 15.0002C2.69043 8.1242 8.26482 2.5498 15.1396 2.5498C22.016 2.5498 27.5904 8.1242 27.5904 15.0002Z" fill="#716E6F"/>
<path d="M27.5861 15.0005C27.5861 21.8741 22.0136 27.4463 15.14 27.4463C8.26742 27.4463 2.69531 21.8741 2.69531 15.0005C2.69531 8.1268 8.2678 2.55469 15.14 2.55469C22.0136 2.55469 27.5861 8.1268 27.5861 15.0005Z" fill="#726F70"/>
<path d="M27.5813 14.9998C27.5813 21.8708 22.0107 27.441 15.1397 27.441C8.2698 27.441 2.69922 21.8708 2.69922 14.9998C2.69922 8.1288 8.2698 2.55859 15.1397 2.55859C22.0111 2.55859 27.5813 8.1288 27.5813 14.9998Z" fill="#737071"/>
<path d="M27.577 15.0001C27.577 21.8688 22.0087 27.4368 15.14 27.4368C8.27278 27.4368 2.7041 21.8685 2.7041 15.0001C2.7041 8.1314 8.2724 2.56348 15.14 2.56348C22.0087 2.56348 27.577 8.1314 27.577 15.0001Z" fill="#747172"/>
<path d="M27.5731 15.0004C27.5731 21.8665 22.0067 27.4329 15.1403 27.4329C8.27538 27.4329 2.70898 21.8669 2.70898 15.0004C2.70898 8.13438 8.27538 2.56836 15.1403 2.56836C22.0064 2.56798 27.5731 8.13438 27.5731 15.0004Z" fill="#757273"/>
<path d="M27.5679 15.0002C27.5679 21.8639 22.0034 27.428 15.1396 27.428C8.27738 27.428 2.71289 21.8639 2.71289 15.0002C2.71289 8.13638 8.27738 2.57227 15.1396 2.57227C22.0034 2.57227 27.5679 8.13638 27.5679 15.0002Z" fill="#767374"/>
<path d="M27.5637 15.0005C27.5637 21.8616 22.0011 27.4238 15.14 27.4238C8.27998 27.4238 2.71777 21.8616 2.71777 15.0005C2.71777 8.13936 8.27998 2.57715 15.14 2.57715C22.0011 2.57715 27.5637 8.13936 27.5637 15.0005Z" fill="#767475"/>
<path d="M27.5588 14.9998C27.5588 21.8586 21.9985 27.4186 15.1397 27.4186C8.28237 27.4186 2.72168 21.8586 2.72168 14.9998C2.72168 8.14098 8.28199 2.58105 15.1397 2.58105C21.9985 2.58105 27.5588 8.14098 27.5588 14.9998Z" fill="#777576"/>
<path d="M27.5546 15.0001C27.5546 21.8563 21.9962 27.4143 15.14 27.4143C8.28497 27.4143 2.72656 21.8563 2.72656 15.0001C2.72656 8.14396 8.28497 2.58594 15.14 2.58594C21.9962 2.58594 27.5546 8.14396 27.5546 15.0001Z" fill="#787677"/>
<path d="M27.5507 14.9998C27.5507 21.8537 21.9942 27.4098 15.1403 27.4098C8.28795 27.4098 2.73145 21.8537 2.73145 14.9998C2.73145 8.14596 8.28795 2.58984 15.1403 2.58984C21.9942 2.58984 27.5507 8.14596 27.5507 14.9998Z" fill="#797778"/>
<path d="M27.5455 15.0002C27.5455 21.8514 21.9912 27.4056 15.1396 27.4056C8.28957 27.4056 2.73535 21.8514 2.73535 15.0002C2.73535 8.14894 8.28957 2.59473 15.1396 2.59473C21.9909 2.59473 27.5455 8.14894 27.5455 15.0002Z" fill="#7A7879"/>
<path d="M27.5412 15.0005C27.5412 21.8494 21.9889 27.4013 15.14 27.4013C8.29255 27.4013 2.74023 21.8494 2.74023 15.0005C2.74023 8.15192 8.29255 2.59961 15.14 2.59961C21.9889 2.59961 27.5412 8.15154 27.5412 15.0005Z" fill="#7B797A"/>
<path d="M27.5364 14.9998C27.5364 21.8461 21.9859 27.3961 15.1397 27.3961C8.29455 27.3961 2.74414 21.8461 2.74414 14.9998C2.74414 8.15354 8.29455 2.60352 15.1397 2.60352C21.9859 2.60352 27.5364 8.15354 27.5364 14.9998Z" fill="#7C7A7B"/>
<path d="M27.5321 15.0001C27.5321 21.8441 21.9836 27.3918 15.14 27.3918C8.29753 27.3918 2.74902 21.8437 2.74902 15.0001C2.74902 8.15652 8.29753 2.6084 15.14 2.6084C21.984 2.6084 27.5321 8.15614 27.5321 15.0001Z" fill="#7D7B7C"/>
<path d="M27.5282 14.9998C27.5282 21.8412 21.982 27.387 15.1403 27.387C8.30013 27.387 2.75391 21.8412 2.75391 14.9998C2.75391 8.15853 8.30013 2.6123 15.1403 2.6123C21.9816 2.6123 27.5282 8.15853 27.5282 14.9998Z" fill="#7E7C7D"/>
<path d="M27.523 15.0002C27.523 21.8388 21.9787 27.3831 15.1396 27.3831C8.30213 27.3831 2.75781 21.8392 2.75781 15.0002C2.75781 8.16151 8.30213 2.61719 15.1396 2.61719C21.9787 2.61719 27.523 8.16113 27.523 15.0002Z" fill="#7F7D7E"/>
<path d="M27.5187 15.0005C27.5187 21.8368 21.9763 27.3789 15.14 27.3789C8.30473 27.3789 2.7627 21.8368 2.7627 15.0005C2.7627 8.1641 8.30511 2.62207 15.14 2.62207C21.9763 2.62207 27.5187 8.1641 27.5187 15.0005Z" fill="#807E7F"/>
<path d="M27.5139 14.9998C27.5139 21.8335 21.9734 27.3736 15.1397 27.3736C8.30711 27.3736 2.7666 21.8335 2.7666 14.9998C2.7666 8.16611 8.30673 2.62598 15.1397 2.62598C21.9738 2.62598 27.5139 8.16611 27.5139 14.9998Z" fill="#817F80"/>
<path d="M27.51 15.0001C27.51 21.8315 21.9718 27.3694 15.14 27.3694C8.30971 27.3694 2.77148 21.8315 2.77148 15.0001C2.77148 8.16871 8.30971 2.63086 15.14 2.63086C21.9714 2.63048 27.51 8.16871 27.51 15.0001Z" fill="#828081"/>
<path d="M27.5058 14.9998C27.5058 21.8286 21.9694 27.3645 15.1403 27.3645C8.31269 27.3645 2.77637 21.8286 2.77637 14.9998C2.77637 8.17109 8.31269 2.63477 15.1403 2.63477C21.9694 2.63477 27.5058 8.17109 27.5058 14.9998Z" fill="#838182"/>
<path d="M27.5005 15.0002C27.5005 21.8266 21.9661 27.3603 15.1396 27.3603C8.31431 27.3603 2.78027 21.8262 2.78027 15.0002C2.78027 8.17407 8.31431 2.63965 15.1396 2.63965C21.9661 2.63965 27.5005 8.17369 27.5005 15.0002Z" fill="#848283"/>
<path d="M27.4963 15.0005C27.4963 21.8243 21.9638 27.3564 15.14 27.3564C8.31729 27.3564 2.78516 21.8247 2.78516 15.0005C2.78516 8.17629 8.31729 2.64453 15.14 2.64453C21.9641 2.64453 27.4963 8.17667 27.4963 15.0005Z" fill="#858384"/>
<path d="M27.4914 14.9998C27.4914 21.8213 21.9612 27.3512 15.1397 27.3512C8.31929 27.3512 2.78906 21.8213 2.78906 14.9998C2.78906 8.17829 8.31929 2.64844 15.1397 2.64844C21.9612 2.64844 27.4914 8.17829 27.4914 14.9998Z" fill="#868485"/>
<path d="M27.4876 15.0005C27.4876 21.8194 21.9592 27.3473 15.14 27.3473C8.32227 27.3473 2.79395 21.8194 2.79395 15.0005C2.79395 8.18165 8.32227 2.65332 15.14 2.65332C21.9592 2.65332 27.4876 8.18165 27.4876 15.0005Z" fill="#878586"/>
<path d="M27.4833 14.9998C27.4833 21.8164 21.9569 27.3421 15.1403 27.3421C8.32487 27.3421 2.79883 21.816 2.79883 14.9998C2.79883 8.18327 8.32487 2.65723 15.1403 2.65723C21.9569 2.65723 27.4833 8.18327 27.4833 14.9998Z" fill="#888687"/>
<path d="M27.4781 15.0002C27.4781 21.8141 21.9536 27.3378 15.1396 27.3378C8.32688 27.3378 2.80273 21.8141 2.80273 15.0002C2.80273 8.18625 8.32688 2.66211 15.1396 2.66211C21.9536 2.66211 27.4781 8.18625 27.4781 15.0002Z" fill="#898788"/>
<path d="M27.4738 15.0005C27.4738 21.8117 21.9516 27.3336 15.14 27.3336C8.32985 27.3336 2.80762 21.8117 2.80762 15.0005C2.80762 8.18885 8.32985 2.66699 15.14 2.66699C21.9516 2.66699 27.4738 8.18885 27.4738 15.0005Z" fill="#8A8889"/>
<path d="M27.469 14.9998C27.469 21.8088 21.9486 27.3287 15.1397 27.3287C8.33186 27.3287 2.81152 21.8088 2.81152 14.9998C2.81152 8.19085 8.33186 2.6709 15.1397 2.6709C21.9486 2.67052 27.469 8.19085 27.469 14.9998Z" fill="#8B898A"/>
<path d="M27.4651 15.0005C27.4651 21.8068 21.9467 27.3249 15.14 27.3249C8.33484 27.3249 2.81641 21.8072 2.81641 15.0005C2.81641 8.19383 8.33446 2.67578 15.14 2.67578C21.9467 2.67578 27.4651 8.19383 27.4651 15.0005Z" fill="#8C8A8B"/>
<path d="M27.4608 14.9998C27.4608 21.8039 21.9447 27.3196 15.1403 27.3196C8.33744 27.3196 2.82129 21.8039 2.82129 14.9998C2.82129 8.19584 8.33744 2.67969 15.1403 2.67969C21.9443 2.67969 27.4608 8.19584 27.4608 14.9998Z" fill="#8D8B8C"/>
<path d="M27.4556 15.0002C27.4556 21.8015 21.9414 27.3154 15.1396 27.3154C8.33944 27.3154 2.8252 21.8015 2.8252 15.0002C2.8252 8.19843 8.33944 2.68457 15.1396 2.68457C21.9414 2.68457 27.4556 8.19843 27.4556 15.0002Z" fill="#8E8C8D"/>
<path d="M27.4514 15.0005C27.4514 21.7995 21.939 27.3111 15.14 27.3111C8.34204 27.3111 2.83008 21.7992 2.83008 15.0005C2.83008 8.20141 8.34204 2.68945 15.14 2.68945C21.939 2.68945 27.4514 8.20141 27.4514 15.0005Z" fill="#8F8D8E"/>
<path d="M27.4465 14.9998C27.4465 21.7962 21.9361 27.3063 15.1397 27.3063C8.34442 27.3063 2.83398 21.7966 2.83398 14.9998C2.83398 8.20304 8.34404 2.69336 15.1397 2.69336C21.9365 2.69298 27.4465 8.20304 27.4465 14.9998Z" fill="#908E8F"/>
<path d="M27.4426 15.0005C27.4426 21.7946 21.9345 27.3024 15.14 27.3024C8.34702 27.3024 2.83887 21.7946 2.83887 15.0005C2.83887 8.2064 8.34702 2.69824 15.14 2.69824C21.9341 2.69824 27.4426 8.2064 27.4426 15.0005Z" fill="#918F8F"/>
<path d="M27.4384 14.9998C27.4384 21.7913 21.9321 27.2972 15.1403 27.2972C8.35 27.2972 2.84375 21.7913 2.84375 14.9998C2.84375 8.2084 8.35 2.70215 15.1403 2.70215C21.9321 2.70215 27.4384 8.20802 27.4384 14.9998Z" fill="#929090"/>
<path d="M27.4332 15.0002C27.4332 21.7893 21.9288 27.2929 15.1396 27.2929C8.35162 27.2929 2.84766 21.7893 2.84766 15.0002C2.84766 8.211 8.35162 2.70703 15.1396 2.70703C21.9288 2.70703 27.4332 8.211 27.4332 15.0002Z" fill="#939191"/>
<path d="M27.4289 15.0005C27.4289 21.787 21.9265 27.2887 15.14 27.2887C8.3546 27.2887 2.85254 21.787 2.85254 15.0005C2.85254 8.21398 8.3546 2.71191 15.14 2.71191C21.9268 2.71191 27.4289 8.2136 27.4289 15.0005Z" fill="#949292"/>
<path d="M27.4244 15.0002C27.4244 21.7844 21.9243 27.2838 15.1397 27.2838C8.3566 27.2838 2.85645 21.784 2.85645 15.0002C2.85645 8.21598 8.3566 2.71582 15.1397 2.71582C21.9239 2.71582 27.4244 8.21598 27.4244 15.0002Z" fill="#959393"/>
<path d="M27.4202 15.0005C27.4202 21.7821 21.9219 27.2799 15.14 27.2799C8.35958 27.2799 2.86133 21.7821 2.86133 15.0005C2.86133 8.21896 8.35958 2.7207 15.14 2.7207C21.9219 2.7207 27.4202 8.21896 27.4202 15.0005Z" fill="#969494"/>
<path d="M27.4159 14.9998C27.4159 21.7791 21.9196 27.2747 15.1403 27.2747C8.36218 27.2747 2.86621 21.7791 2.86621 14.9998C2.86621 8.22058 8.36218 2.72461 15.1403 2.72461C21.9196 2.72461 27.4159 8.22058 27.4159 14.9998Z" fill="#979595"/>
<path d="M27.4107 15.0002C27.4107 21.7768 21.9162 27.2704 15.1396 27.2704C8.36418 27.2704 2.87012 21.7768 2.87012 15.0002C2.87012 8.22356 8.36418 2.72949 15.1396 2.72949C21.9166 2.72949 27.4107 8.22356 27.4107 15.0002Z" fill="#989696"/>
<path d="M27.4064 15.0005C27.4064 21.7744 21.9143 27.2662 15.14 27.2662C8.36678 27.2662 2.875 21.7744 2.875 15.0005C2.875 8.22616 8.36716 2.73438 15.14 2.73438C21.9143 2.73399 27.4064 8.22616 27.4064 15.0005Z" fill="#999797"/>
<path d="M27.402 15.0002C27.402 21.7718 21.9117 27.2613 15.1397 27.2613C8.36917 27.2613 2.87891 21.7718 2.87891 15.0002C2.87891 8.22854 8.36879 2.73828 15.1397 2.73828C21.9117 2.73828 27.402 8.22854 27.402 15.0002Z" fill="#9A9898"/>
<path d="M27.3977 15.0005C27.3977 21.7695 21.9094 27.2571 15.14 27.2571C8.37177 27.2571 2.88379 21.7695 2.88379 15.0005C2.88379 8.23114 8.37177 2.74316 15.14 2.74316C21.9094 2.74316 27.3977 8.23114 27.3977 15.0005Z" fill="#9B9999"/>
<path d="M27.3935 14.9998C27.3935 21.7665 21.9074 27.2522 15.1403 27.2522C8.37474 27.2522 2.88867 21.7665 2.88867 14.9998C2.88867 8.23314 8.37474 2.74707 15.1403 2.74707C21.9074 2.74707 27.3935 8.23314 27.3935 14.9998Z" fill="#9C9A9A"/>
<path d="M27.3882 15.0002C27.3882 21.7642 21.9041 27.248 15.1396 27.248C8.37637 27.248 2.89258 21.7642 2.89258 15.0002C2.89258 8.23574 8.37675 2.75195 15.1396 2.75195C21.9041 2.75195 27.3882 8.23574 27.3882 15.0002Z" fill="#9D9B9B"/>
<path d="M27.384 15.0005C27.384 21.7622 21.9017 27.2437 15.14 27.2437C8.37935 27.2437 2.89746 21.7622 2.89746 15.0005C2.89746 8.23872 8.37935 2.75684 15.14 2.75684C21.9017 2.75646 27.384 8.23872 27.384 15.0005Z" fill="#9E9C9C"/>
<path d="M27.3795 15.0002C27.3795 21.7593 21.8991 27.2389 15.1397 27.2389C8.38135 27.2389 2.90137 21.7593 2.90137 15.0002C2.90137 8.24072 8.38135 2.76074 15.1397 2.76074C21.8991 2.76074 27.3795 8.24072 27.3795 15.0002Z" fill="#9F9D9D"/>
<path d="M27.3753 15.0005C27.3753 21.7573 21.8972 27.2346 15.14 27.2346C8.38433 27.2346 2.90625 21.7569 2.90625 15.0005C2.90625 8.2437 8.38433 2.76562 15.14 2.76562C21.8968 2.76563 27.3753 8.2437 27.3753 15.0005Z" fill="#A09E9E"/>
<path d="M27.371 14.9998C27.371 21.754 21.8948 27.2298 15.1403 27.2298C8.38693 27.2298 2.91113 21.7544 2.91113 14.9998C2.91113 8.24533 8.38693 2.76953 15.1403 2.76953C21.8948 2.76953 27.371 8.24533 27.371 14.9998Z" fill="#A19F9F"/>
<path d="M27.3658 15.0002C27.3658 21.752 21.8915 27.2255 15.1396 27.2255C8.38893 27.2255 2.91504 21.752 2.91504 15.0002C2.91504 8.2483 8.38893 2.77441 15.1396 2.77441C21.8915 2.77441 27.3658 8.2483 27.3658 15.0002Z" fill="#A2A0A0"/>
<path d="M27.3615 14.9999C27.3615 21.7491 21.8892 27.2207 15.14 27.2207C8.39191 27.2207 2.91992 21.7491 2.91992 14.9999C2.91992 8.25031 8.39191 2.77832 15.14 2.77832C21.8895 2.77832 27.3615 8.25031 27.3615 14.9999Z" fill="#A3A1A1"/>
<path d="M27.357 15.0002C27.357 21.7471 21.887 27.2164 15.1397 27.2164C8.39391 27.2164 2.92383 21.7471 2.92383 15.0002C2.92383 8.25329 8.39391 2.7832 15.1397 2.7832C21.8866 2.7832 27.357 8.25329 27.357 15.0002Z" fill="#A4A2A2"/>
<path d="M27.3528 15.0005C27.3528 21.7448 21.8846 27.2122 15.14 27.2122C8.39689 27.2122 2.92871 21.7448 2.92871 15.0005C2.92871 8.25589 8.39651 2.78809 15.14 2.78809C21.8846 2.78809 27.3528 8.25589 27.3528 15.0005Z" fill="#A5A3A3"/>
<path d="M27.3485 14.9998C27.3485 21.7418 21.8823 27.2069 15.1403 27.2069C8.39949 27.2069 2.93359 21.7414 2.93359 14.9998C2.93359 8.25789 8.39949 2.79199 15.1403 2.79199C21.8823 2.79199 27.3485 8.25789 27.3485 14.9998Z" fill="#A6A4A4"/>
<path d="M27.3433 15.0002C27.3433 21.7395 21.8789 27.2031 15.1396 27.2031C8.40149 27.2031 2.9375 21.7395 2.9375 15.0002C2.9375 8.26049 8.40149 2.79688 15.1396 2.79688C21.8793 2.79649 27.3433 8.26049 27.3433 15.0002Z" fill="#A7A5A5"/>
<path d="M27.3394 14.9999C27.3394 21.7365 21.8773 27.1982 15.14 27.1982C8.40409 27.1982 2.94238 21.7369 2.94238 14.9999C2.94238 8.26287 8.40447 2.80078 15.14 2.80078C21.877 2.80078 27.3394 8.26287 27.3394 14.9999Z" fill="#A8A6A6"/>
<path d="M27.3346 15.0002C27.3346 21.7345 21.8744 27.194 15.1397 27.194C8.40648 27.194 2.94629 21.7345 2.94629 15.0002C2.94629 8.26585 8.40609 2.80566 15.1397 2.80566C21.8744 2.80566 27.3346 8.26547 27.3346 15.0002Z" fill="#A9A7A7"/>
<path d="M27.3303 15.0005C27.3303 21.7322 21.8721 27.1897 15.14 27.1897C8.40907 27.1897 2.95117 21.7322 2.95117 15.0005C2.95117 8.26845 8.40907 2.81055 15.14 2.81055C21.8721 2.81055 27.3303 8.26845 27.3303 15.0005Z" fill="#AAA8A8"/>
<path d="M27.3261 14.9998C27.3261 21.7292 21.8701 27.1845 15.1403 27.1845C8.41205 27.1845 2.95605 21.7292 2.95605 14.9998C2.95605 8.27045 8.41205 2.81445 15.1403 2.81445C21.8701 2.81445 27.3261 8.27007 27.3261 14.9998Z" fill="#ABA9A9"/>
<path d="M27.3209 15.0002C27.3209 21.7269 21.8668 27.1802 15.1396 27.1802C8.41368 27.1802 2.95996 21.7269 2.95996 15.0002C2.95996 8.27305 8.41368 2.81934 15.1396 2.81934C21.8668 2.81896 27.3209 8.27305 27.3209 15.0002Z" fill="#ACAAAA"/>
<path d="M27.317 14.9999C27.317 21.7243 21.8648 27.1758 15.14 27.1758C8.41666 27.1758 2.96484 21.7243 2.96484 14.9999C2.96484 8.27543 8.41666 2.82324 15.14 2.82324C21.8648 2.82324 27.317 8.27543 27.317 14.9999Z" fill="#ACABAB"/>
<path d="M27.3121 15.0002C27.3121 21.722 21.8618 27.1715 15.1397 27.1715C8.41866 27.1715 2.96875 21.722 2.96875 15.0002C2.96875 8.27803 8.41866 2.82812 15.1397 2.82812C21.8618 2.82813 27.3121 8.27803 27.3121 15.0002Z" fill="#ADACAC"/>
<path d="M27.3079 15.0005C27.3079 21.72 21.8599 27.1672 15.14 27.1672C8.42164 27.1672 2.97363 21.72 2.97363 15.0005C2.97363 8.28101 8.42164 2.83301 15.14 2.83301C21.8599 2.83301 27.3079 8.28101 27.3079 15.0005Z" fill="#AEADAD"/>
<path d="M27.3036 14.9998C27.3036 21.7167 21.8575 27.162 15.1403 27.162C8.42424 27.162 2.97852 21.7167 2.97852 14.9998C2.97852 8.28263 8.42424 2.83691 15.1403 2.83691C21.8575 2.83691 27.3036 8.28263 27.3036 14.9998Z" fill="#AFAEAE"/>
<path d="M27.2984 15.0005C27.2984 21.7151 21.8542 27.1581 15.1396 27.1581C8.42624 27.1581 2.98242 21.7147 2.98242 15.0005C2.98242 8.28599 8.42624 2.8418 15.1396 2.8418C21.8546 2.8418 27.2984 8.28599 27.2984 15.0005Z" fill="#B0AFAF"/>
<path d="M27.2945 14.9999C27.2945 21.7118 21.8522 27.1533 15.14 27.1533C8.42884 27.1533 2.9873 21.7121 2.9873 14.9999C2.9873 8.28762 8.42922 2.8457 15.14 2.8457C21.8522 2.8457 27.2945 8.28762 27.2945 14.9999Z" fill="#B1B0B0"/>
<path d="M27.2897 15.0002C27.2897 21.7098 21.8497 27.149 15.1397 27.149C8.43122 27.149 2.99121 21.7098 2.99121 15.0002C2.99121 8.2906 8.43084 2.85059 15.1397 2.85059C21.8493 2.85059 27.2897 8.2906 27.2897 15.0002Z" fill="#B2B1B1"/>
<path d="M27.2854 15.0005C27.2854 21.7074 21.8473 27.1448 15.14 27.1448C8.43382 27.1448 2.99609 21.7074 2.99609 15.0005C2.99609 8.29319 8.43382 2.85547 15.14 2.85547C21.8473 2.85547 27.2854 8.29319 27.2854 15.0005Z" fill="#B3B2B2"/>
<path d="M27.2812 14.9998C27.2812 21.7041 21.845 27.1396 15.1403 27.1396C8.4368 27.1396 3.00098 21.7041 3.00098 14.9998C3.00098 8.2952 8.4368 2.85938 15.1403 2.85938C21.845 2.85899 27.2812 8.2952 27.2812 14.9998Z" fill="#B4B3B3"/>
<path d="M27.2759 15.0005C27.2759 21.7025 21.8416 27.1357 15.1396 27.1357C8.43842 27.1357 3.00488 21.7025 3.00488 15.0005C3.00488 8.29818 8.4388 2.86426 15.1396 2.86426C21.842 2.86426 27.2759 8.29818 27.2759 15.0005Z" fill="#B5B4B4"/>
<path d="M27.2721 14.9999C27.2721 21.6992 21.84 27.1305 15.14 27.1305C8.4414 27.1305 3.00977 21.6992 3.00977 14.9999C3.00977 8.30018 8.4414 2.86816 15.14 2.86816C21.8397 2.86816 27.2721 8.30018 27.2721 14.9999Z" fill="#B6B5B5"/>
<path d="M27.2672 15.0002C27.2672 21.6972 21.8371 27.1266 15.1397 27.1266C8.4434 27.1266 3.01367 21.6972 3.01367 15.0002C3.01367 8.30278 8.4434 2.87305 15.1397 2.87305C21.8371 2.87305 27.2672 8.30278 27.2672 15.0002Z" fill="#B7B6B6"/>
<path d="M27.263 15.0005C27.263 21.6949 21.8347 27.1223 15.14 27.1223C8.44638 27.1223 3.01855 21.6953 3.01855 15.0005C3.01855 8.30576 8.44638 2.87793 15.14 2.87793C21.8347 2.87793 27.263 8.30576 27.263 15.0005Z" fill="#B8B7B7"/>
<path d="M27.2587 14.9998C27.2587 21.6919 21.8324 27.1171 15.1403 27.1171C8.44898 27.1171 3.02344 21.6919 3.02344 14.9998C3.02344 8.30738 8.44936 2.88184 15.1403 2.88184C21.8328 2.88146 27.2587 8.30738 27.2587 14.9998Z" fill="#B9B8B8"/>
<path d="M27.2539 15.0005C27.2539 21.69 21.8298 27.1132 15.1396 27.1132C8.45098 27.1132 3.02734 21.69 3.02734 15.0005C3.02734 8.31074 8.45098 2.88672 15.1396 2.88672C21.8295 2.88672 27.2539 8.31074 27.2539 15.0005Z" fill="#BAB9B9"/>
<path d="M27.2496 14.9999C27.2496 21.687 21.8275 27.108 15.14 27.108C8.45396 27.108 3.03223 21.6866 3.03223 14.9999C3.03223 8.31236 8.45396 2.89062 15.14 2.89062C21.8275 2.89063 27.2496 8.31236 27.2496 14.9999Z" fill="#BBBABA"/>
<path d="M27.2448 15.0002C27.2448 21.6847 21.8245 27.1037 15.1397 27.1037C8.45597 27.1037 3.03613 21.6847 3.03613 15.0002C3.03613 8.31534 8.45597 2.89551 15.1397 2.89551C21.8245 2.89551 27.2448 8.31534 27.2448 15.0002Z" fill="#BCBBBB"/>
<path d="M27.2405 15.0005C27.2405 21.6827 21.8226 27.0999 15.14 27.0999C8.45895 27.0999 3.04102 21.6827 3.04102 15.0005C3.04102 8.31832 8.45857 2.90039 15.14 2.90039C21.8226 2.90039 27.2405 8.31794 27.2405 15.0005Z" fill="#BDBCBC"/>
<path d="M27.2362 15.0002C27.2362 21.6798 21.8202 27.095 15.1403 27.095C8.46154 27.095 3.0459 21.6798 3.0459 15.0002C3.0459 8.32032 8.46154 2.9043 15.1403 2.9043C21.8202 2.9043 27.2362 8.32032 27.2362 15.0002Z" fill="#BEBDBD"/>
<path d="M27.2314 15.0005C27.2314 21.6778 21.8173 27.0908 15.1396 27.0908C8.46355 27.0908 3.0498 21.6778 3.0498 15.0005C3.0498 8.3233 8.46355 2.90918 15.1396 2.90918C21.8173 2.90918 27.2314 8.32292 27.2314 15.0005Z" fill="#BFBEBE"/>
<path d="M27.2271 14.9999C27.2271 21.6745 21.8149 27.0855 15.14 27.0855C8.46615 27.0855 3.05469 21.6745 3.05469 14.9999C3.05469 8.32493 8.46653 2.91309 15.14 2.91309C21.8149 2.91309 27.2271 8.32493 27.2271 14.9999Z" fill="#C0BFBF"/>
<path d="M27.2223 15.0002C27.2223 21.6721 21.8124 27.0813 15.1397 27.0813C8.46853 27.0813 3.05859 21.6721 3.05859 15.0002C3.05859 8.3279 8.46815 2.91797 15.1397 2.91797C21.8124 2.91797 27.2223 8.32752 27.2223 15.0002Z" fill="#C1C0C0"/>
<path d="M27.218 15.0005C27.218 21.6701 21.81 27.0774 15.14 27.0774C8.47113 27.0774 3.06348 21.6701 3.06348 15.0005C3.06348 8.3305 8.47113 2.92285 15.14 2.92285C21.81 2.92247 27.218 8.3305 27.218 15.0005Z" fill="#C2C1C1"/>
<path d="M27.2138 15.0002C27.2138 21.6672 21.8077 27.0726 15.1403 27.0726C8.47411 27.0726 3.06836 21.6676 3.06836 15.0002C3.06836 8.33289 8.47411 2.92676 15.1403 2.92676C21.808 2.92676 27.2138 8.33289 27.2138 15.0002Z" fill="#C3C2C2"/>
<path d="M27.2089 15.0005C27.2089 21.6652 21.8047 27.0683 15.1396 27.0683C8.47573 27.0683 3.07227 21.6652 3.07227 15.0005C3.07227 8.33548 8.47573 2.93164 15.1396 2.93164C21.8047 2.93164 27.2089 8.33548 27.2089 15.0005Z" fill="#C4C3C3"/>
<path d="M27.2051 14.9999C27.2051 21.6619 21.8031 27.0631 15.1403 27.0631C8.47909 27.0631 3.07715 21.6619 3.07715 14.9999C3.07715 8.33749 8.47871 2.93555 15.1403 2.93555C21.8031 2.93555 27.2051 8.33749 27.2051 14.9999Z" fill="#C5C4C4"/>
<path d="M27.1998 15.0002C27.1998 21.6599 21.7998 27.0588 15.1397 27.0588C8.48071 27.0588 3.08105 21.6599 3.08105 15.0002C3.08105 8.34009 8.48071 2.94043 15.1397 2.94043C21.7998 2.94043 27.1998 8.34009 27.1998 15.0002Z" fill="#C6C5C5"/>
<path d="M27.1956 14.9999C27.1956 21.657 21.7974 27.054 15.14 27.054C8.48369 27.054 3.08594 21.657 3.08594 14.9999C3.08594 8.34247 8.48369 2.94434 15.14 2.94434C21.7974 2.94434 27.1956 8.34247 27.1956 14.9999Z" fill="#C7C6C6"/>
<path d="M27.1913 15.0002C27.1913 21.655 21.7951 27.0501 15.1403 27.0501C8.48629 27.0501 3.09082 21.655 3.09082 15.0002C3.09082 8.34507 8.48629 2.94922 15.1403 2.94922C21.7955 2.94922 27.1913 8.34507 27.1913 15.0002Z" fill="#C8C7C7"/>
<path d="M27.1865 15.0005C27.1865 21.6527 21.7925 27.0458 15.1396 27.0458C8.48829 27.0458 3.09473 21.6527 3.09473 15.0005C3.09473 8.34805 8.48829 2.9541 15.1396 2.9541C21.7921 2.9541 27.1865 8.34805 27.1865 15.0005Z" fill="#C9C8C8"/>
<path d="M27.1826 14.9999C27.1826 21.6497 21.7906 27.0406 15.1403 27.0406C8.49127 27.0406 3.09961 21.6497 3.09961 14.9999C3.09961 8.34967 8.49127 2.95801 15.1403 2.95801C21.7906 2.95801 27.1826 8.34967 27.1826 14.9999Z" fill="#CAC9C9"/>
<path d="M27.1774 15.0002C27.1774 21.6474 21.7872 27.0364 15.1397 27.0364C8.49327 27.0364 3.10352 21.6474 3.10352 15.0002C3.10352 8.35265 8.49327 2.96289 15.1397 2.96289C21.7872 2.96289 27.1774 8.35265 27.1774 15.0002Z" fill="#CBCACA"/>
<path d="M27.1731 14.9999C27.1731 21.6448 21.7853 27.0315 15.14 27.0315C8.49587 27.0315 3.1084 21.6444 3.1084 14.9999C3.1084 8.35465 8.49587 2.9668 15.14 2.9668C21.7853 2.9668 27.1731 8.35465 27.1731 14.9999Z" fill="#CCCBCB"/>
<path d="M27.1692 15.0002C27.1692 21.6424 21.7833 27.0273 15.1403 27.0273C8.49885 27.0273 3.11328 21.6424 3.11328 15.0002C3.11328 8.35763 8.49885 2.97168 15.1403 2.97168C21.7829 2.97168 27.1692 8.35763 27.1692 15.0002Z" fill="#CDCCCC"/>
<path d="M27.164 15.0005C27.164 21.6401 21.78 27.0234 15.1396 27.0234C8.50048 27.0234 3.11719 21.6405 3.11719 15.0005C3.11719 8.36023 8.50086 2.97656 15.1396 2.97656C21.78 2.97656 27.164 8.36023 27.164 15.0005Z" fill="#CECDCD"/>
<path d="M27.1601 14.9999C27.1601 21.6372 21.778 27.0182 15.1403 27.0182C8.50383 27.0182 3.12207 21.6372 3.12207 14.9999C3.12207 8.36223 8.50345 2.98047 15.1403 2.98047C21.778 2.98047 27.1601 8.36223 27.1601 14.9999Z" fill="#CFCECE"/>
<path d="M27.1549 15.0002C27.1549 21.6348 21.775 27.0139 15.1397 27.0139C8.50546 27.0139 3.12598 21.6348 3.12598 15.0002C3.12598 8.36483 8.50546 2.98535 15.1397 2.98535C21.775 2.98497 27.1549 8.36483 27.1549 15.0002Z" fill="#D0CFCF"/>
<path d="M27.1507 14.9999C27.1507 21.6322 21.7727 27.0091 15.14 27.0091C8.50844 27.0091 3.13086 21.6322 3.13086 14.9999C3.13086 8.36722 8.50844 2.98926 15.14 2.98926C21.7727 2.98926 27.1507 8.36722 27.1507 14.9999Z" fill="#D1D0D0"/>
<path d="M27.1468 15.0002C27.1468 21.6299 21.7707 27.0048 15.1403 27.0048C8.51104 27.0048 3.13574 21.6299 3.13574 15.0002C3.13574 8.36981 8.51142 2.99414 15.1403 2.99414C21.7707 2.99414 27.1468 8.36981 27.1468 15.0002Z" fill="#D2D1D1"/>
<path d="M27.1416 15.0005C27.1416 21.6279 21.7674 27.0009 15.1396 27.0009C8.51304 27.0009 3.13965 21.6279 3.13965 15.0005C3.13965 8.37279 8.51304 2.99902 15.1396 2.99902C21.7674 2.99902 27.1416 8.37279 27.1416 15.0005Z" fill="#D3D2D2"/>
<path d="M27.1377 14.9999C27.1377 21.6246 21.7658 26.9957 15.1403 26.9957C8.5164 26.9957 3.14453 21.625 3.14453 14.9999C3.14453 8.3748 8.51602 3.00293 15.1403 3.00293C21.7658 3.00293 27.1377 8.37442 27.1377 14.9999Z" fill="#D4D3D3"/>
<path d="M27.1325 14.9996C27.1325 21.622 21.7625 26.9908 15.1397 26.9908C8.51802 26.9908 3.14844 21.622 3.14844 14.9996C3.14844 8.3768 8.51802 3.00684 15.1397 3.00684C21.7625 3.00684 27.1325 8.3768 27.1325 14.9996Z" fill="#D5D4D4"/>
<path d="M27.1282 14.9999C27.1282 21.6197 21.7601 26.9866 15.14 26.9866C8.521 26.9866 3.15332 21.6197 3.15332 14.9999C3.15332 8.37978 8.52062 3.01172 15.14 3.01172C21.7605 3.01172 27.1282 8.3794 27.1282 14.9999Z" fill="#D6D5D5"/>
<path d="M27.1243 15.0002C27.1243 21.6177 21.7582 26.9823 15.1403 26.9823C8.5236 26.9823 3.1582 21.6173 3.1582 15.0002C3.1582 8.38238 8.5236 3.0166 15.1403 3.0166C21.7582 3.0166 27.1243 8.38238 27.1243 15.0002Z" fill="#D7D6D6"/>
<path d="M27.1191 15.0005C27.1191 21.6154 21.7552 26.9781 15.1396 26.9781C8.5256 26.9781 3.16211 21.6154 3.16211 15.0005C3.16211 8.38536 8.5256 3.02148 15.1396 3.02148C21.7552 3.02148 27.1191 8.38498 27.1191 15.0005Z" fill="#D8D7D7"/>
<path d="M27.1152 14.9999C27.1152 21.6124 21.7533 26.9732 15.1403 26.9732C8.52858 26.9732 3.16699 21.6124 3.16699 14.9999C3.16699 8.38698 8.52858 3.02539 15.1403 3.02539C21.7533 3.02539 27.1152 8.38698 27.1152 14.9999Z" fill="#D9D8D8"/>
<path d="M27.11 14.9996C27.11 21.6095 21.7499 26.9684 15.1397 26.9684C8.53058 26.9684 3.1709 21.6095 3.1709 14.9996C3.1709 8.38936 8.5302 3.0293 15.1397 3.0293C21.7503 3.0293 27.11 8.38936 27.11 14.9996Z" fill="#DAD9D9"/>
<path d="M27.1057 14.9999C27.1057 21.6071 21.748 26.9641 15.14 26.9641C8.53318 26.9641 3.17578 21.6075 3.17578 14.9999C3.17578 8.39196 8.53318 3.03418 15.14 3.03418C21.748 3.03418 27.1057 8.39196 27.1057 14.9999Z" fill="#DBDADA"/>
<path d="M27.1019 15.0002C27.1019 21.6051 21.746 26.9599 15.1403 26.9599C8.53616 26.9599 3.18066 21.6051 3.18066 15.0002C3.18066 8.39494 8.53616 3.03906 15.1403 3.03906C21.7456 3.03906 27.1019 8.39494 27.1019 15.0002Z" fill="#DCDBDB"/>
<path d="M27.0966 15.0005C27.0966 21.6028 21.7427 26.9556 15.1396 26.9556C8.53778 26.9556 3.18457 21.6028 3.18457 15.0005C3.18457 8.39754 8.53816 3.04395 15.1396 3.04395C21.7427 3.04395 27.0966 8.39754 27.0966 15.0005Z" fill="#DDDCDC"/>
<path d="M27.0928 14.9999C27.0928 21.5998 21.7407 26.9504 15.1403 26.9504C8.54114 26.9504 3.18945 21.5995 3.18945 14.9999C3.18945 8.39954 8.54076 3.04785 15.1403 3.04785C21.7407 3.04747 27.0928 8.39954 27.0928 14.9999Z" fill="#DEDDDD"/>
<path d="M27.0875 14.9996C27.0875 21.5969 21.7377 26.9459 15.1397 26.9459C8.54277 26.9459 3.19336 21.5973 3.19336 14.9996C3.19336 8.40155 8.54277 3.05176 15.1397 3.05176C21.7377 3.05176 27.0875 8.40155 27.0875 14.9996Z" fill="#DFDEDE"/>
<path d="M27.0837 14.9999C27.0837 21.5949 21.7358 26.9417 15.14 26.9417C8.54575 26.9417 3.19824 21.5949 3.19824 14.9999C3.19824 8.40452 8.54575 3.05664 15.14 3.05664C21.7354 3.05664 27.0837 8.40452 27.0837 14.9999Z" fill="#E0DFDF"/>
<path d="M27.0794 15.0002C27.0794 21.5926 21.7334 26.9374 15.1403 26.9374C8.54834 26.9374 3.20312 21.5926 3.20312 15.0002C3.20312 8.40712 8.54834 3.06152 15.1403 3.06152C21.7334 3.06152 27.0794 8.40712 27.0794 15.0002Z" fill="#E1E0E0"/>
<path d="M27.0742 15.0005C27.0742 21.5906 21.7301 26.9332 15.1396 26.9332C8.55035 26.9332 3.20703 21.5906 3.20703 15.0005C3.20703 8.4101 8.55035 3.06641 15.1396 3.06641C21.7301 3.06641 27.0742 8.4101 27.0742 15.0005Z" fill="#E2E1E1"/>
<path d="M27.0703 15.0003C27.0703 21.5877 21.7285 26.9283 15.1403 26.9283C8.55333 26.9283 3.21191 21.5877 3.21191 15.0003C3.21191 8.41211 8.55333 3.07031 15.1403 3.07031C21.7285 3.07031 27.0703 8.41211 27.0703 15.0003Z" fill="#E3E2E2"/>
<path d="M27.0651 14.9996C27.0651 21.5847 21.7252 26.9231 15.1397 26.9231C8.55533 26.9231 3.21582 21.5843 3.21582 14.9996C3.21582 8.41411 8.55533 3.07422 15.1397 3.07422C21.7252 3.07422 27.0651 8.41411 27.0651 14.9996Z" fill="#E3E3E3"/>
<path d="M27.0612 14.9999C27.0612 21.5824 21.7232 26.9192 15.14 26.9192C8.55793 26.9192 3.2207 21.5824 3.2207 14.9999C3.2207 8.41671 8.55793 3.0791 15.14 3.0791C21.7232 3.0791 27.0612 8.41671 27.0612 14.9999Z" fill="#E4E4E4"/>
<path d="M27.0569 15.0002C27.0569 21.5804 21.7209 26.915 15.1403 26.915C8.56091 26.915 3.22559 21.5804 3.22559 15.0002C3.22559 8.41969 8.56091 3.08398 15.1403 3.08398C21.7209 3.08398 27.0569 8.41969 27.0569 15.0002Z" fill="#E5E5E5"/>
<path d="M27.0517 15.0005C27.0517 21.578 21.7179 26.9107 15.1396 26.9107C8.56253 26.9107 3.22949 21.578 3.22949 15.0005C3.22949 8.42228 8.56291 3.08887 15.1396 3.08887C21.7179 3.08849 27.0517 8.42228 27.0517 15.0005Z" fill="#E6E6E6"/>
<path d="M27.0478 15.0003C27.0478 21.5755 21.7159 26.9059 15.1403 26.9059C8.56589 26.9059 3.23438 21.5751 3.23438 15.0003C3.23438 8.42467 8.56551 3.09277 15.1403 3.09277C21.7159 3.09277 27.0478 8.42467 27.0478 15.0003Z" fill="#E7E7E7"/>
<path d="M27.0426 14.9996C27.0426 21.5722 21.7126 26.9006 15.1397 26.9006C8.56751 26.9006 3.23828 21.5722 3.23828 14.9996C3.23828 8.42629 8.56751 3.09668 15.1397 3.09668C21.713 3.09668 27.0426 8.42629 27.0426 14.9996Z" fill="#E8E8E8"/>
<path d="M27.0387 14.9999C27.0387 21.5698 21.711 26.8968 15.14 26.8968C8.57049 26.8968 3.24316 21.5702 3.24316 14.9999C3.24316 8.42927 8.57049 3.10156 15.14 3.10156C21.7106 3.10156 27.0387 8.42927 27.0387 14.9999Z" fill="#E9E9E9"/>
<path d="M27.0345 15.0002C27.0345 21.5678 21.7087 26.8925 15.1403 26.8925C8.57309 26.8925 3.24805 21.5678 3.24805 15.0002C3.24805 8.43187 8.57309 3.10645 15.1403 3.10645C21.7087 3.10645 27.0345 8.43187 27.0345 15.0002Z" fill="#EAEAEA"/>
<path d="M27.0293 15.0005C27.0293 21.5655 21.7054 26.8882 15.1397 26.8882C8.57509 26.8882 3.25195 21.5655 3.25195 15.0005C3.25195 8.43485 8.57509 3.11133 15.1397 3.11133C21.7054 3.11095 27.0293 8.43485 27.0293 15.0005Z" fill="#EBEBEB"/>
<path d="M27.0254 15.0003C27.0254 21.5629 21.7034 26.8834 15.1403 26.8834C8.57845 26.8834 3.25684 21.5629 3.25684 15.0003C3.25684 8.43723 8.57807 3.11523 15.1403 3.11523C21.7038 3.11523 27.0254 8.43685 27.0254 15.0003Z" fill="#ECECEC"/>
<path d="M27.0201 14.9996C27.0201 21.5596 21.7004 26.8782 15.1397 26.8782C8.58007 26.8782 3.26074 21.5596 3.26074 14.9996C3.26074 8.43885 8.58007 3.11914 15.1397 3.11914C21.7004 3.11914 27.0201 8.43885 27.0201 14.9996Z" fill="#EDEDED"/>
<path d="M27.0163 14.9999C27.0163 21.5576 21.6985 26.8739 15.14 26.8739C8.58305 26.8739 3.26562 21.5572 3.26562 14.9999C3.26562 8.44183 8.58305 3.12402 15.14 3.12402C21.6985 3.12402 27.0163 8.44183 27.0163 14.9999Z" fill="#EEEEEE"/>
<path d="M27.012 15.0002C27.012 21.5553 21.6961 26.87 15.1403 26.87C8.58565 26.87 3.27051 21.5557 3.27051 15.0002C3.27051 8.44443 8.58565 3.12891 15.1403 3.12891C21.6961 3.12891 27.012 8.44443 27.012 15.0002Z" fill="#EFEFEF"/>
<path d="M27.0068 15C27.0068 21.5527 21.6928 26.8652 15.1397 26.8652C8.58766 26.8652 3.27441 21.5527 3.27441 15C3.27441 8.44681 8.58766 3.13281 15.1397 3.13281C21.6928 3.13281 27.0068 8.44681 27.0068 15Z" fill="#F0F0F0"/>
<path d="M27.0029 15.0003C27.0029 21.5504 21.6912 26.8609 15.1403 26.8609C8.59064 26.8609 3.2793 21.5504 3.2793 15.0003C3.2793 8.44941 8.59064 3.1377 15.1403 3.1377C21.6912 3.1377 27.0029 8.44941 27.0029 15.0003Z" fill="#F1F1F1"/>
<path d="M26.9981 14.9996C26.9981 21.5474 21.6883 26.8557 15.1397 26.8557C8.59264 26.8557 3.2832 21.547 3.2832 14.9996C3.2832 8.45142 8.59226 3.1416 15.1397 3.1416C21.6879 3.1416 26.9981 8.45142 26.9981 14.9996Z" fill="#F2F2F2"/>
<path d="M26.9938 14.9999C26.9938 21.5451 21.6859 26.8514 15.14 26.8514C8.59524 26.8514 3.28809 21.5451 3.28809 14.9999C3.28809 8.45402 8.59524 3.14648 15.14 3.14648C21.6859 3.14648 26.9938 8.45402 26.9938 14.9999Z" fill="#F3F3F3"/>
<path d="M26.9896 15.0002C26.9896 21.5431 21.6836 26.8472 15.1403 26.8472C8.59822 26.8472 3.29297 21.5427 3.29297 15.0002C3.29297 8.45699 8.59822 3.15137 15.1403 3.15137C21.6836 3.15099 26.9896 8.45699 26.9896 15.0002Z" fill="#F4F4F4"/>
<path d="M26.9843 15C26.9843 21.5401 21.6806 26.8427 15.1397 26.8427C8.59984 26.8427 3.29688 21.5401 3.29688 15C3.29688 8.459 8.60022 3.15527 15.1397 3.15527C21.6806 3.15527 26.9843 8.459 26.9843 15Z" fill="#F5F5F5"/>
<path d="M26.9805 15.0003C26.9805 21.5378 21.6786 26.8385 15.1403 26.8385C8.6032 26.8385 3.30176 21.5378 3.30176 15.0003C3.30176 8.46198 8.60282 3.16016 15.1403 3.16016C21.6786 3.16016 26.9805 8.46198 26.9805 15.0003Z" fill="#F6F6F6"/>
<path d="M26.9756 14.9996C26.9756 21.5348 21.6757 26.8332 15.1397 26.8332C8.60482 26.8332 3.30566 21.5348 3.30566 14.9996C3.30566 8.4636 8.60482 3.16406 15.1397 3.16406C21.6757 3.16406 26.9756 8.4636 26.9756 14.9996Z" fill="#F7F7F7"/>
<path d="M26.9714 14.9999C26.9714 21.5325 21.6733 26.829 15.14 26.829C8.6078 26.829 3.31055 21.5325 3.31055 14.9999C3.31055 8.46658 8.6078 3.16895 15.14 3.16895C21.6733 3.16895 26.9714 8.46658 26.9714 14.9999Z" fill="#F8F8F8"/>
<path d="M26.9671 15.0002C26.9671 21.5305 21.6714 26.8247 15.1403 26.8247C8.6104 26.8247 3.31543 21.5301 3.31543 15.0002C3.31543 8.46918 8.6104 3.17383 15.1403 3.17383C21.6714 3.17345 26.9671 8.46918 26.9671 15.0002Z" fill="#F9F9F9"/>
<path d="M26.9619 15C26.9619 21.5276 21.668 26.8203 15.1397 26.8203C8.6124 26.8203 3.31934 21.528 3.31934 15C3.31934 8.47156 8.6124 3.17773 15.1397 3.17773C21.668 3.17773 26.9619 8.47156 26.9619 15Z" fill="#FAFAFA"/>
<path d="M26.958 15.0003C26.958 21.5256 21.6661 26.816 15.1403 26.816C8.61538 26.816 3.32422 21.5256 3.32422 15.0003C3.32422 8.47416 8.61538 3.18262 15.1403 3.18262C21.6665 3.18262 26.958 8.47416 26.958 15.0003Z" fill="#FBFBFB"/>
<path d="M26.9531 14.9996C26.9531 21.5223 21.6635 26.8108 15.1397 26.8108C8.61738 26.8108 3.32812 21.5223 3.32812 14.9996C3.32812 8.47616 8.61738 3.18652 15.1397 3.18652C21.6631 3.18652 26.9531 8.47616 26.9531 14.9996Z" fill="#FCFCFC"/>
<path d="M26.9489 14.9999C26.9489 21.5203 21.6612 26.8065 15.14 26.8065C8.61998 26.8065 3.33301 21.5203 3.33301 14.9999C3.33301 8.47876 8.61998 3.19141 15.14 3.19141C21.6612 3.19141 26.9489 8.47876 26.9489 14.9999Z" fill="#FDFDFD"/>
<path d="M26.9446 14.9996C26.9446 21.5174 21.6588 26.8017 15.1403 26.8017C8.62296 26.8017 3.33789 21.5174 3.33789 14.9996C3.33789 8.48115 8.62296 3.19531 15.1403 3.19531C21.6588 3.19531 26.9446 8.48115 26.9446 14.9996Z" fill="#FEFEFE"/>
<path d="M26.9394 15C26.9394 21.5154 21.6555 26.7974 15.1397 26.7974C8.62458 26.7974 3.3418 21.515 3.3418 15C3.3418 8.48374 8.62496 3.2002 15.1397 3.2002C21.6559 3.2002 26.9394 8.48374 26.9394 15Z" fill="white"/>
</g>
<path d="M10.0324 23.2142C10.3115 23.8381 10.2159 24.5066 10.1101 24.5473C10.0324 24.5831 9.23374 24.1964 8.96612 23.5123C8.69812 22.832 9.00724 22.2168 9.1066 22.1981C9.25278 22.1757 9.75224 22.5937 10.0324 23.2142Z" fill="#DDB64A"/>
<path d="M8.65043 25.1204C9.4632 25.254 10.0262 24.8132 10.0068 24.7131C9.98435 24.6301 9.3212 24.1238 8.58952 23.9704C7.84832 23.8196 7.2122 24.0731 7.20534 24.1919C7.19012 24.3526 7.83272 24.9887 8.65043 25.1204Z" fill="#DDB64A"/>
<path d="M8.78295 22.1607C8.9398 22.8136 8.72357 23.4566 8.61545 23.4775C8.53513 23.5038 7.84342 23.0051 7.70333 22.2902C7.56247 21.5828 7.96638 21.0259 8.06688 21.0225C8.21192 21.0198 8.62497 21.5078 8.78295 22.1607Z" fill="#DDB64A"/>
<path d="M7.11365 23.8225C7.87084 24.076 8.48641 23.7296 8.48717 23.6268C8.48146 23.5427 7.94012 22.9457 7.25793 22.6857C6.56889 22.4253 5.90726 22.5757 5.88023 22.693C5.83912 22.8468 6.35304 23.5708 7.11365 23.8225Z" fill="#DDB64A"/>
<path d="M7.75862 20.9347C7.80088 21.6013 7.47882 22.2005 7.3707 22.2062C7.29076 22.2184 6.7045 21.6234 6.68623 20.9012C6.66491 20.1817 7.14952 19.6952 7.24774 19.7062C7.3905 19.7276 7.71599 20.2708 7.75862 20.9347Z" fill="#DDB64A"/>
<path d="M5.85514 22.3164C6.54799 22.6803 7.20201 22.4318 7.22066 22.3324C7.23094 22.2475 6.80914 21.5802 6.18595 21.2204C5.55668 20.8599 4.8821 20.9056 4.83718 21.0167C4.77209 21.1633 5.15772 21.9536 5.85514 22.3164Z" fill="#DDB64A"/>
<path d="M6.95878 19.5735C6.89292 20.2371 6.47873 20.7761 6.37328 20.7662C6.29219 20.7662 5.81595 20.0909 5.9096 19.3737C6.00097 18.6637 6.5522 18.2575 6.64775 18.2834C6.78518 18.3268 7.02349 18.9115 6.95878 19.5735Z" fill="#DDB64A"/>
<path d="M4.87172 20.6421C5.49262 21.1057 6.17176 20.9607 6.2064 20.8667C6.22962 20.7844 5.92736 20.0638 5.36965 19.6123C4.80776 19.1612 4.13471 19.103 4.0738 19.2054C3.98738 19.3401 4.24625 20.1773 4.87172 20.6421Z" fill="#DDB64A"/>
<path d="M6.38455 18.1076C6.21857 18.7529 5.72672 19.2204 5.62508 19.1934C5.54627 19.1812 5.18081 18.4442 5.37991 17.7521C5.57483 17.0638 6.17783 16.7482 6.2692 16.7874C6.39939 16.8533 6.54786 17.4658 6.38455 18.1076Z" fill="#DDB64A"/>
<path d="M4.16461 18.84C4.7067 19.3939 5.39575 19.3562 5.44524 19.2663C5.48178 19.1906 5.2941 18.4319 4.81139 17.9004C4.32335 17.3675 3.66705 17.2095 3.59167 17.2989C3.4866 17.4196 3.61984 18.2864 4.16461 18.84Z" fill="#DDB64A"/>
<path d="M6.0353 16.5741C5.7772 17.184 5.22216 17.5715 5.12584 17.5262C5.04971 17.5037 4.79731 16.7188 5.09386 16.0651C5.38699 15.4164 6.02693 15.1964 6.11144 15.2512C6.23059 15.335 6.29074 15.9654 6.0353 16.5741Z" fill="#DDB64A"/>
<path d="M3.73471 16.956C4.18887 17.5853 4.87449 17.6534 4.93578 17.5735C4.98298 17.5034 4.91027 16.7268 4.50941 16.1276C4.10398 15.5265 3.47737 15.2665 3.39057 15.3446C3.26951 15.4447 3.27675 16.3244 3.73471 16.956Z" fill="#DDB64A"/>
<path d="M5.9092 15.0053C5.56734 15.5672 4.96358 15.8638 4.87335 15.8056C4.80102 15.7709 4.66512 14.9559 5.05151 14.3567C5.43334 13.759 6.09726 13.6417 6.1734 13.7095C6.27923 13.8104 6.24801 14.4431 5.9092 15.0053Z" fill="#DDB64A"/>
<path d="M3.58099 15.0249C3.94036 15.7185 4.6077 15.8906 4.68118 15.8221C4.73828 15.7608 4.77673 14.9815 4.46495 14.3275C4.14936 13.6697 3.56691 13.3145 3.47021 13.3785C3.33545 13.4603 3.21782 14.3306 3.58099 15.0249Z" fill="#DDB64A"/>
<path d="M6.00812 13.4332C5.59051 13.9372 4.95096 14.1371 4.87063 14.0667C4.80515 14.0187 4.78536 13.1926 5.25246 12.6604C5.71538 12.1286 6.39071 12.1141 6.45657 12.1914C6.54603 12.3083 6.42459 12.9292 6.00812 13.4332Z" fill="#DDB64A"/>
<path d="M3.70378 13.092C3.96074 13.8343 4.59649 14.1088 4.67872 14.0521C4.74305 13.9995 4.8919 13.2347 4.67834 12.5385C4.46097 11.8391 3.936 11.3983 3.83055 11.4482C3.68551 11.5053 3.44415 12.3493 3.70378 13.092Z" fill="#DDB64A"/>
<path d="M6.33368 11.8926C5.84754 12.3277 5.18591 12.4255 5.11586 12.3429C5.05876 12.2881 5.15697 11.4658 5.69945 11.0101C6.2366 10.5552 6.90737 10.6458 6.95914 10.7342C7.03033 10.8621 6.81791 11.459 6.33368 11.8926Z" fill="#DDB64A"/>
<path d="M4.10265 11.1995C4.24807 11.9723 4.83813 12.3434 4.92836 12.2989C4.99992 12.2578 5.25613 11.525 5.14801 10.8016C5.03533 10.0749 4.58231 9.55795 4.47001 9.59031C4.3185 9.62571 3.95304 10.424 4.10265 11.1995Z" fill="#DDB64A"/>
<path d="M6.88375 10.4193C6.33594 10.7745 5.66708 10.7677 5.61112 10.6759C5.56201 10.6124 5.78243 9.8152 6.38924 9.44669C6.99225 9.07933 7.64513 9.2731 7.68319 9.36789C7.73383 9.50799 7.42852 10.0649 6.88375 10.4193Z" fill="#DDB64A"/>
<path d="M4.77874 9.38681C4.80767 10.1748 5.33683 10.6336 5.43086 10.6046C5.50737 10.5742 5.87131 9.88855 5.87436 9.15573C5.87588 8.41872 5.50928 7.83627 5.39203 7.84883C5.23633 7.86254 4.7479 8.59498 4.77874 9.38681Z" fill="#DDB64A"/>
<path d="M7.65779 9.04461C7.05669 9.31109 6.39429 9.20259 6.35356 9.10209C6.31473 9.03205 6.65697 8.27486 7.32393 8.00495C7.98442 7.73543 8.60608 8.02703 8.6274 8.12677C8.65405 8.27296 8.25547 8.77775 7.65779 9.04461Z" fill="#DDB64A"/>
<path d="M5.73029 7.69545C5.63321 8.48118 6.08851 9.01643 6.18673 9.00158C6.26782 8.98407 6.73568 8.36013 6.8594 7.63568C6.98122 6.90552 6.71512 6.27168 6.59597 6.26673C6.4357 6.25607 5.82584 6.90819 5.73029 7.69545Z" fill="#DDB64A"/>
<path d="M8.65687 7.80156C8.01123 7.97325 7.37015 7.76349 7.34388 7.65766C7.31686 7.58 7.78548 6.88449 8.50231 6.72079C9.21305 6.55443 9.78903 6.94007 9.79246 7.04247C9.79284 7.19246 9.30023 7.62987 8.65687 7.80156Z" fill="#DDB64A"/>
<path d="M9.63525 6.10456C9.02653 6.53245 8.30322 6.64209 8.22861 6.57319C8.17151 6.5237 8.32683 5.74177 9.01435 5.25335C9.70072 4.76683 10.5306 4.8266 10.5717 4.92139C10.6345 5.05044 10.2421 5.67096 9.63525 6.10456Z" fill="#DDB64A"/>
<path d="M6.95884 6.16871C6.72777 6.93085 7.09475 7.53157 7.19525 7.5331C7.27748 7.52738 7.84699 6.98262 8.10014 6.28406C8.3514 5.57979 8.19912 4.91131 8.07844 4.88732C7.91932 4.8523 7.18802 5.40239 6.95884 6.16871Z" fill="#DDB64A"/>
<path d="M20.2496 23.2142C19.9698 23.8381 20.0669 24.5066 20.1723 24.5473C20.2496 24.5831 21.0494 24.1964 21.3155 23.5123C21.5839 22.832 21.2748 22.2168 21.1758 22.1981C21.0296 22.1757 20.5309 22.5937 20.2496 23.2142Z" fill="#DDB64A"/>
<path d="M21.6326 25.1204C20.8202 25.254 20.2568 24.8132 20.2759 24.7131C20.2979 24.6301 20.9615 24.1238 21.6943 23.9704C22.434 23.8196 23.0697 24.0731 23.0773 24.1919C23.0926 24.3526 22.4507 24.9887 21.6326 25.1204Z" fill="#DDB64A"/>
<path d="M21.5004 22.1607C21.3439 22.8136 21.5597 23.4566 21.6675 23.4775C21.7474 23.5038 22.4395 23.0051 22.5796 22.2902C22.7205 21.5828 22.3177 21.0259 22.2164 21.0225C22.0699 21.0198 21.6576 21.5078 21.5004 22.1607Z" fill="#DDB64A"/>
<path d="M23.169 23.8225C22.4122 24.076 21.797 23.7296 21.7959 23.6268C21.8016 23.5427 22.3418 22.9457 23.0255 22.6857C23.7134 22.4253 24.3762 22.5757 24.4028 22.693C24.4436 22.8468 23.9304 23.5708 23.169 23.8225Z" fill="#DDB64A"/>
<path d="M22.5242 20.9347C22.4827 21.6013 22.804 22.2005 22.9129 22.2062C22.9928 22.2184 23.5794 21.6234 23.5977 20.9012C23.6187 20.1817 23.1356 19.6952 23.0354 19.7062C22.8923 19.7276 22.5668 20.2708 22.5242 20.9347Z" fill="#DDB64A"/>
<path d="M24.4282 22.3164C23.7357 22.6803 23.0809 22.4318 23.0627 22.3324C23.0531 22.2475 23.4742 21.5802 24.0966 21.2204C24.7263 20.8599 25.4005 20.9056 25.4458 21.0167C25.5124 21.1633 25.1248 21.9536 24.4282 22.3164Z" fill="#DDB64A"/>
<path d="M23.3242 19.5735C23.3901 20.2371 23.8046 20.7761 23.9101 20.7662C23.9912 20.7662 24.4674 20.0909 24.3726 19.3737C24.282 18.6637 23.7308 18.2575 23.6348 18.2834C23.4974 18.3268 23.2602 18.9115 23.3242 19.5735Z" fill="#DDB64A"/>
<path d="M25.4115 20.6421C24.7906 21.1057 24.1115 20.9607 24.0764 20.8667C24.0532 20.7844 24.3562 20.0638 24.9136 19.6123C25.477 19.1612 26.1481 19.103 26.2102 19.2054C26.2966 19.3401 26.037 20.1773 25.4115 20.6421Z" fill="#DDB64A"/>
<path d="M23.8987 18.1076C24.0647 18.7529 24.5562 19.2204 24.6574 19.1934C24.7374 19.1812 25.1025 18.4442 24.9034 17.7521C24.7062 17.0638 24.1047 16.7482 24.0141 16.7874C23.8843 16.8533 23.7358 17.4658 23.8987 18.1076Z" fill="#DDB64A"/>
<path d="M26.1184 18.84C25.5763 19.3939 24.8876 19.3562 24.8374 19.2663C24.8012 19.1906 24.9889 18.4319 25.4723 17.9004C25.9596 17.3675 26.6167 17.2095 26.6909 17.2989C26.7967 17.4196 26.6635 18.2864 26.1184 18.84Z" fill="#DDB64A"/>
<path d="M24.2493 16.5741C24.5067 17.184 25.0625 17.5715 25.1588 17.5262C25.2345 17.5037 25.4862 16.7188 25.1896 16.0651C24.8972 15.4164 24.2562 15.1964 24.1724 15.2512C24.0533 15.335 23.9939 15.9654 24.2493 16.5741Z" fill="#DDB64A"/>
<path d="M26.5494 16.956C26.0933 17.5853 25.4085 17.6534 25.3464 17.5735C25.2996 17.5034 25.3727 16.7268 25.7743 16.1276C26.1794 15.5265 26.8064 15.2665 26.8936 15.3446C27.0142 15.4447 27.0074 16.3244 26.5494 16.956Z" fill="#DDB64A"/>
<path d="M24.3736 15.0053C24.7155 15.5672 25.3204 15.8638 25.4098 15.8056C25.4814 15.7709 25.6181 14.9559 25.2324 14.3567C24.8499 13.759 24.1852 13.6417 24.1102 13.7095C24.0036 13.8104 24.0344 14.4431 24.3736 15.0053Z" fill="#DDB64A"/>
<path d="M26.7031 15.0249C26.3434 15.7185 25.6753 15.8906 25.6022 15.8221C25.5455 15.7608 25.507 14.9815 25.8177 14.3275C26.1344 13.6697 26.7161 13.3145 26.8139 13.3785C26.9483 13.4603 27.0656 14.3306 26.7031 15.0249Z" fill="#DDB64A"/>
<path d="M24.2741 13.4332C24.6921 13.9372 25.332 14.1371 25.412 14.0667C25.4778 14.0187 25.4973 13.1926 25.0298 12.6604C24.5672 12.1286 23.8919 12.1141 23.8268 12.1914C23.7366 12.3083 23.8592 12.9292 24.2741 13.4332Z" fill="#DDB64A"/>
<path d="M26.5791 13.092C26.3218 13.8343 25.688 14.1088 25.6053 14.0521C25.5399 13.9995 25.3918 13.2347 25.6053 12.5385C25.8223 11.8391 26.3477 11.3983 26.4539 11.4482C26.5982 11.5053 26.8395 12.3493 26.5791 13.092Z" fill="#DDB64A"/>
<path d="M23.95 11.8926C24.4365 12.3277 25.0982 12.4255 25.1663 12.3429C25.2246 12.2881 25.1252 11.4658 24.5842 11.0101C24.0479 10.5552 23.3759 10.6458 23.3242 10.7342C23.2522 10.8621 23.4658 11.459 23.95 11.8926Z" fill="#DDB64A"/>
<path d="M26.18 11.1995C26.0335 11.9723 25.4434 12.3434 25.3547 12.2989C25.2843 12.2578 25.0262 11.525 25.1347 10.8016C25.2474 10.0749 25.7004 9.55795 25.8119 9.59031C25.9649 9.62571 26.3296 10.424 26.18 11.1995Z" fill="#DDB64A"/>
<path d="M23.4003 10.4193C23.9477 10.7745 24.6162 10.7677 24.6726 10.6759C24.7217 10.6124 24.5016 9.8152 23.8937 9.44669C23.2922 9.07933 22.6382 9.2731 22.6001 9.36789C22.5498 9.50799 22.8548 10.0649 23.4003 10.4193Z" fill="#DDB64A"/>
<path d="M25.5046 9.38681C25.4764 10.1748 24.9465 10.6336 24.8517 10.6046C24.7756 10.5742 24.4116 9.88855 24.4082 9.15573C24.4059 8.41872 24.7733 7.83627 24.8902 7.84883C25.0478 7.86254 25.535 8.59498 25.5046 9.38681Z" fill="#DDB64A"/>
<path d="M22.6255 9.04461C23.2262 9.31109 23.8878 9.20259 23.9301 9.10209C23.9697 9.03205 23.6259 8.27486 22.9597 8.00495C22.2977 7.73543 21.6776 8.02703 21.6555 8.12677C21.6296 8.27296 22.0278 8.77775 22.6255 9.04461Z" fill="#DDB64A"/>
<path d="M24.5525 7.69545C24.6496 8.48118 24.1954 9.01643 24.0961 9.00158C24.0157 8.98407 23.5483 8.36012 23.4238 7.63568C23.302 6.90552 23.5681 6.27168 23.6876 6.26673C23.8471 6.25607 24.457 6.90819 24.5525 7.69545Z" fill="#DDB64A"/>
<path d="M21.6272 7.80156C22.2724 7.97325 22.9135 7.76349 22.9375 7.65766C22.9664 7.58 22.4982 6.88449 21.7806 6.72079C21.0695 6.55443 20.495 6.94007 20.4912 7.04247C20.4905 7.19246 20.9834 7.62987 21.6272 7.80156Z" fill="#DDB64A"/>
<path d="M20.6478 6.10456C21.2573 6.53245 21.9795 6.64209 22.0541 6.57319C22.1112 6.5237 21.9559 5.74177 21.2691 5.25335C20.5827 4.76683 19.7525 4.8266 19.7117 4.92139C19.6485 5.05044 20.0422 5.67096 20.6478 6.10456Z" fill="#DDB64A"/>
<path d="M23.3237 6.16871C23.5563 6.93085 23.1881 7.53157 23.088 7.5331C23.0054 7.52738 22.4352 6.98262 22.1835 6.28406C21.9307 5.57979 22.0838 4.91131 22.2037 4.88732C22.3632 4.8523 23.0945 5.40239 23.3237 6.16871Z" fill="#DDB64A"/>
<g filter="url(#filter0_d_456_7667)">
<path d="M15.567 8.37014L17.432 12.1492C17.5013 12.2893 17.6349 12.3864 17.7895 12.4088L21.9599 13.0149C22.3494 13.0716 22.5047 13.5498 22.223 13.8246L19.2053 16.7662C19.0933 16.8751 19.0423 17.0323 19.0686 17.1865L19.7809 21.3398C19.8475 21.7273 19.4405 22.0231 19.0922 21.84L15.3622 19.8791C15.224 19.8063 15.0588 19.8063 14.9206 19.8791L11.1907 21.84C10.8423 22.0231 10.4354 21.7273 10.502 21.3398L11.2143 17.1865C11.2405 17.0327 11.1895 16.8754 11.0776 16.7662L8.0599 13.8246C7.77819 13.5501 7.93351 13.0716 8.32296 13.0149L12.4934 12.4088C12.6479 12.3864 12.7816 12.2893 12.8508 12.1492L14.7158 8.37014C14.8898 8.01724 15.3927 8.01724 15.567 8.37014Z" fill="url(#paint4_linear_456_7667)"/>
<path d="M15.5337 8.8821L17.2548 12.3696C17.3188 12.499 17.4421 12.5885 17.5845 12.609L21.4329 13.1682C21.7922 13.2204 21.9358 13.662 21.6757 13.9155L18.891 16.6302C18.7879 16.7307 18.7406 16.8758 18.765 17.0177L19.4225 20.8505C19.4837 21.2083 19.1084 21.4813 18.7871 21.3123L15.3449 19.5025C15.2174 19.4355 15.0647 19.4355 14.9372 19.5025L11.495 21.3123C11.1737 21.4813 10.798 21.2083 10.8597 20.8505L11.5171 17.0177C11.5415 16.8758 11.4943 16.7307 11.3911 16.6302L8.60639 13.9155C8.34638 13.662 8.4899 13.2208 8.84927 13.1682L12.6976 12.609C12.8404 12.5885 12.9637 12.4986 13.0273 12.3696L14.7484 8.8821C14.909 8.55623 15.3731 8.55623 15.5337 8.8821Z" fill="url(#paint5_linear_456_7667)"/>
<path d="M15.3749 10.6124L16.6837 13.2643C16.7321 13.3625 16.8261 13.4306 16.9346 13.4466L19.8606 13.8714C20.1339 13.911 20.2428 14.2468 20.0452 14.4394L17.9278 16.5035C17.8494 16.58 17.8136 16.6904 17.8319 16.7982L18.3317 19.7127C18.3786 19.9849 18.0927 20.1924 17.8486 20.0637L15.2314 18.6875C15.1343 18.6365 15.0186 18.6365 14.9215 18.6875L12.3043 20.0637C12.0599 20.192 11.7744 19.9845 11.8212 19.7127L12.3211 16.7982C12.3397 16.6901 12.3039 16.58 12.2251 16.5035L10.1078 14.4394C9.91018 14.2468 10.0191 13.911 10.2924 13.8714L13.2187 13.4462C13.3272 13.4306 13.4209 13.3625 13.4696 13.2639L14.7784 10.612C14.8998 10.3649 15.2527 10.3649 15.3749 10.6124Z" fill="#DDB64A"/>
</g>
</g>
<defs>
<filter id="filter0_d_456_7667" x="-2.08398" y="-1.89453" width="34.4512" height="33.79" filterUnits="userSpaceOnUse" color-interpolation-filters="sRGB">
<feFlood flood-opacity="0" result="BackgroundImageFix"/>
<feColorMatrix in="SourceAlpha" type="matrix" values="0 0 0 0 0 0 0 0 0 0 0 0 0 0 0 0 0 0 127 0" result="hardAlpha"/>
<feOffset/>
<feGaussianBlur stdDeviation="5"/>
<feComposite in2="hardAlpha" operator="out"/>
<feColorMatrix type="matrix" values="0 0 0 0 0 0 0 0 0 0 0 0 0 0 0 0 0 0 0.12 0"/>
<feBlend mode="normal" in2="BackgroundImageFix" result="effect1_dropShadow_456_7667"/>
<feBlend mode="normal" in="SourceGraphic" in2="effect1_dropShadow_456_7667" result="shape"/>
</filter>
<linearGradient id="paint0_linear_456_7667" x1="0.141602" y1="15.0002" x2="30.1417" y2="15.0002" gradientUnits="userSpaceOnUse">
<stop stop-color="#793700"/>
<stop offset="0.2424" stop-color="#F3A200"/>
<stop offset="0.497" stop-color="#FFF78E"/>
<stop offset="0.7212" stop-color="#F3A200"/>
<stop offset="0.7338" stop-color="#EB9B00"/>
<stop offset="0.8209" stop-color="#BA7000"/>
<stop offset="0.8975" stop-color="#975100"/>
<stop offset="0.9598" stop-color="#813E00"/>
<stop offset="1" stop-color="#793700"/>
</linearGradient>
<linearGradient id="paint1_linear_456_7667" x1="3.05255" y1="5.30104" x2="26.1929" y2="23.8679" gradientUnits="userSpaceOnUse">
<stop stop-color="#794417"/>
<stop offset="0.2424" stop-color="#E3A220"/>
<stop offset="0.497" stop-color="#F8F19C"/>
<stop offset="0.7212" stop-color="#E3A220"/>
<stop offset="0.8027" stop-color="#BA7E1D"/>
<stop offset="0.8868" stop-color="#975E1A"/>
<stop offset="0.9556" stop-color="#814B18"/>
<stop offset="1" stop-color="#794417"/>
</linearGradient>
<linearGradient id="paint2_linear_456_7667" x1="1.60452" y1="15.0004" x2="28.6773" y2="15.0004" gradientUnits="userSpaceOnUse">
<stop stop-color="#D68908"/>
<stop offset="0.0625" stop-color="#E3A025"/>
<stop offset="0.2066" stop-color="#FFD165"/>
<stop offset="0.2197" stop-color="#FFD36D"/>
<stop offset="0.2396" stop-color="#FED981"/>
<stop offset="0.2638" stop-color="#FEE3A3"/>
<stop offset="0.2911" stop-color="#FDF0D2"/>
<stop offset="0.3104" stop-color="#FCFBF8"/>
<stop offset="0.3912" stop-color="#FFD165"/>
<stop offset="0.5284" stop-color="#743105"/>
<stop offset="1" stop-color="#FFD165"/>
</linearGradient>
<linearGradient id="paint3_linear_456_7667" x1="15.141" y1="28.4037" x2="15.141" y2="1.72942" gradientUnits="userSpaceOnUse">
<stop stop-color="#B77D2B"/>
<stop offset="0.3083" stop-color="#7C440B"/>
<stop offset="0.498" stop-color="#F2BF3F"/>
<stop offset="0.7984" stop-color="#FCF195"/>
</linearGradient>
<linearGradient id="paint4_linear_456_7667" x1="7.91618" y1="15.0002" x2="22.3664" y2="15.0002" gradientUnits="userSpaceOnUse">
<stop stop-color="#D68908"/>
<stop offset="0.0625" stop-color="#E3A025"/>
<stop offset="0.2066" stop-color="#FFD165"/>
<stop offset="0.2197" stop-color="#FFD36D"/>
<stop offset="0.2396" stop-color="#FED981"/>
<stop offset="0.2638" stop-color="#FEE3A3"/>
<stop offset="0.2911" stop-color="#FDF0D2"/>
<stop offset="0.3104" stop-color="#FCFBF8"/>
<stop offset="0.3912" stop-color="#FFD165"/>
<stop offset="0.5284" stop-color="#743105"/>
<stop offset="1" stop-color="#FFD165"/>
</linearGradient>
<linearGradient id="paint5_linear_456_7667" x1="8.47346" y1="15.0005" x2="21.8088" y2="15.0005" gradientUnits="userSpaceOnUse">
<stop stop-color="#794417"/>
<stop offset="0.2424" stop-color="#E3A220"/>
<stop offset="0.497" stop-color="#F8F19C"/>
<stop offset="0.7212" stop-color="#E3A220"/>
<stop offset="0.8027" stop-color="#BA7E1D"/>
<stop offset="0.8868" stop-color="#975E1A"/>
<stop offset="0.9556" stop-color="#814B18"/>
<stop offset="1" stop-color="#794417"/>
</linearGradient>
<clipPath id="clip0_456_7667">
<rect width="30" height="30.0004" fill="white" transform="translate(0.141602)"/>
</clipPath>
</defs>
</svg>
