<svg width="15" height="16" viewBox="0 0 15 16" fill="none" xmlns="http://www.w3.org/2000/svg">
<g clip-path="url(#clip0_1100_2290)">
<path d="M7.5 15.5C11.6421 15.5 15 12.1421 15 8C15 3.85786 11.6421 0.5 7.5 0.5C3.35786 0.5 0 3.85786 0 8C0 12.1421 3.35786 15.5 7.5 15.5Z" fill="#D7111B"/>
<path opacity="0.5" d="M11.714 2.51495C10.6864 1.88101 9.49051 1.51857 8.21314 1.51857C4.38916 1.51857 1.29006 4.7697 1.29006 8.78101C1.29006 10.1724 1.66336 11.4729 2.30952 12.5765C1.25205 11.3616 0.611328 9.77196 0.611328 8.03441C0.611328 4.21042 3.71042 1.11133 7.5344 1.11133C9.10364 1.11133 10.5521 1.63395 11.714 2.51495Z" fill="url(#paint0_linear_1100_2290)"/>
<path d="M11.7771 5.59331C11.548 5.36558 11.276 5.18494 10.9767 5.06169C10.6773 4.93844 10.3565 4.875 10.0324 4.875C9.70841 4.875 9.38755 4.93844 9.0882 5.06169C8.78884 5.18494 8.51686 5.36558 8.28779 5.59331L7.81238 6.0657L7.33697 5.59331C6.87426 5.13354 6.24669 4.87524 5.59232 4.87524C4.93794 4.87524 4.31037 5.13354 3.84766 5.59331C3.38495 6.05308 3.125 6.67667 3.125 7.32688C3.125 7.9771 3.38495 8.60069 3.84766 9.06046L4.32307 9.53285L7.81238 13L11.3017 9.53285L11.7771 9.06046C12.0063 8.83284 12.1881 8.56259 12.3121 8.26513C12.4362 7.96768 12.5 7.64886 12.5 7.32688C12.5 7.00491 12.4362 6.68609 12.3121 6.38863C12.1881 6.09118 12.0063 5.82093 11.7771 5.59331V5.59331Z" fill="white"/>
</g>
<defs>
<linearGradient id="paint0_linear_1100_2290" x1="1.57974" y1="2.39958" x2="5.50103" y2="6.11447" gradientUnits="userSpaceOnUse">
<stop stop-color="white"/>
<stop offset="1" stop-color="white"/>
</linearGradient>
<clipPath id="clip0_1100_2290">
<rect width="15" height="15" fill="white" transform="translate(0 0.5)"/>
</clipPath>
</defs>
</svg>
