<svg width="21" height="20" viewBox="0 0 21 20" fill="none" xmlns="http://www.w3.org/2000/svg">
<path d="M18.3042 3.31162C17.8461 2.85617 17.3021 2.49487 16.7034 2.24837C16.1047 2.00187 15.463 1.875 14.8149 1.875C14.1668 1.875 13.5251 2.00187 12.9264 2.24837C12.3277 2.49487 11.7837 2.85617 11.3256 3.31162L10.3748 4.25639L9.42394 3.31162C8.49852 2.39207 7.24338 1.87548 5.93463 1.87548C4.62589 1.87548 3.37074 2.39207 2.44532 3.31162C1.5199 4.23116 1 5.47834 1 6.77877C1 8.0792 1.5199 9.32638 2.44532 10.2459L3.39614 11.1907L10.3748 18.125L17.3534 11.1907L18.3042 10.2459C18.7626 9.79068 19.1262 9.25017 19.3742 8.65527C19.6223 8.06036 19.75 7.42272 19.75 6.77877C19.75 6.13482 19.6223 5.49717 19.3742 4.90227C19.1262 4.30736 18.7626 3.76685 18.3042 3.31162V3.31162Z" stroke="#666666" stroke-width="2" stroke-linecap="round" stroke-linejoin="round"/>
</svg>
