<svg width="16" height="16" viewBox="0 0 16 16" fill="none" xmlns="http://www.w3.org/2000/svg">
<g clip-path="url(#clip0_1073_4993)">
<path d="M6.75 8.62498C7.01841 8.98381 7.36085 9.28072 7.75409 9.49557C8.14734 9.71041 8.58219 9.83818 9.02916 9.87019C9.47612 9.9022 9.92474 9.83771 10.3446 9.68109C10.7644 9.52448 11.1457 9.2794 11.4625 8.96248L13.3375 7.08748C13.9067 6.4981 14.2217 5.70871 14.2146 4.88935C14.2075 4.06998 13.8788 3.2862 13.2994 2.7068C12.72 2.1274 11.9362 1.79874 11.1169 1.79162C10.2975 1.7845 9.50813 2.09948 8.91875 2.66873L7.84375 3.73748" stroke="#848E9C" stroke-width="2" stroke-linecap="round" stroke-linejoin="round"/>
<path d="M9.24988 7.37477C8.98147 7.01594 8.63903 6.71904 8.24579 6.50419C7.85254 6.28934 7.41769 6.16158 6.97072 6.12957C6.52376 6.09756 6.07514 6.16205 5.65529 6.31866C5.23544 6.47528 4.85418 6.72036 4.53738 7.03727L2.66238 8.91227C2.09314 9.50166 1.77815 10.291 1.78527 11.1104C1.79239 11.9298 2.12105 12.7136 2.70045 13.293C3.27985 13.8724 4.06364 14.201 4.883 14.2081C5.70237 14.2153 6.49175 13.9003 7.08113 13.331L8.14988 12.2623" stroke="#848E9C" stroke-width="2" stroke-linecap="round" stroke-linejoin="round"/>
</g>
<defs>
<clipPath id="clip0_1073_4993">
<rect width="15" height="15" fill="white" transform="translate(0.5 0.5)"/>
</clipPath>
</defs>
</svg>
