<svg width="27" height="23" viewBox="0 0 27 23" fill="none" xmlns="http://www.w3.org/2000/svg">
<path fill-rule="evenodd" clip-rule="evenodd" d="M20.9355 0.11771C20.7227 0.261839 20.5664 0.540576 20.5664 0.775996C20.5664 1.09706 20.7083 1.28042 21.3483 1.78652C22.8822 2.99946 24.2826 4.64316 25.2656 6.38443C25.4527 6.71595 25.6575 7.00829 25.7468 7.07133C26.2588 7.43299 27 7.05961 27 6.44009C27 6.14854 26.6691 5.51578 25.9714 4.47297C25.0744 3.13244 23.9629 1.88236 22.7848 0.888997C21.9171 0.15747 21.6648 0 21.3599 0C21.1867 0 21.0557 0.0363593 20.9355 0.11771ZM19.5636 2.97434C19.3435 3.09054 19.1446 3.41228 19.1434 3.65419C19.142 3.94176 19.2849 4.15552 19.724 4.52325C20.5905 5.24855 21.5586 6.37485 22.1765 7.37648C22.6397 8.12716 22.7974 8.26585 23.1881 8.26585C23.639 8.26585 24.0281 7.8412 23.979 7.40264C23.9488 7.13311 23.4896 6.368 22.8376 5.50071C22.296 4.78038 20.8835 3.33506 20.4387 3.04602C20.1342 2.84811 19.8473 2.82462 19.5636 2.97434ZM18.1006 5.91139C17.7717 6.11024 17.6334 6.51919 17.7723 6.88158C17.8017 6.95838 18.0521 7.26008 18.3288 7.552C18.6054 7.84392 18.9925 8.30639 19.189 8.57974C19.3855 8.85309 19.625 9.12968 19.7213 9.19445C20.0741 9.43159 20.5793 9.30436 20.8055 8.92147C20.9585 8.66245 20.9714 8.40825 20.8433 8.17372C20.4951 7.53615 19.231 6.06614 18.8731 5.88251C18.6629 5.77469 18.3044 5.78808 18.1006 5.91139ZM9.84382 6.41221C8.17262 6.67007 6.64437 7.4558 5.43164 8.68055C4.40648 9.71588 3.75901 10.8545 3.38634 12.2772L3.24316 12.8237L2.8977 12.9682C1.15072 13.6987 0 15.4254 0 17.3164C0 19.5645 1.58261 21.4869 3.80784 21.9417C4.16881 22.0155 5.11771 22.0248 12.2871 22.0248C21.18 22.0248 20.6934 22.0418 21.5869 21.7005C21.8146 21.6135 22.2062 21.406 22.457 21.2395C25.2839 19.3625 25.2839 15.2703 22.457 13.3934C21.5731 12.8065 20.7113 12.5765 19.565 12.6215L18.8525 12.6494L18.7556 12.2495C18.0297 9.25571 15.381 6.87399 12.2607 6.40933C11.618 6.31359 10.4738 6.31495 9.84382 6.41221ZM11.7858 13.0902C12.9171 13.7529 13.9084 14.3558 13.9886 14.43C14.1794 14.6064 14.2594 14.8993 14.1884 15.1609C14.1588 15.2702 14.0688 15.4204 13.9886 15.4948C13.9084 15.5691 12.9069 16.1787 11.763 16.8495C9.82452 17.9861 9.666 18.069 9.42933 18.069C9.15511 18.069 8.97634 17.9709 8.78354 17.7149C8.67797 17.5747 8.67433 17.5 8.65862 15.1546C8.6497 13.8259 8.65724 12.6378 8.67533 12.5143C8.73745 12.0909 9.12953 11.7946 9.54455 11.8573C9.65435 11.8739 10.5602 12.3721 11.7858 13.0902ZM10.2305 14.9622V15.9683L10.3491 15.892C10.4144 15.8501 10.7822 15.6331 11.1665 15.4098C11.5508 15.1866 11.8652 14.9857 11.8652 14.9636C11.8652 14.9414 11.5508 14.7402 11.1665 14.5163C10.7822 14.2925 10.4144 14.0749 10.3491 14.0328L10.2305 13.9562V14.9622Z" fill="white"/>
</svg>
