<svg width="31" height="30" viewBox="0 0 31 30" fill="none" xmlns="http://www.w3.org/2000/svg">
<g clip-path="url(#clip0_456_7666)">
<path d="M30.1416 15.0004C30.1416 23.2848 23.4252 30.0011 15.142 30.0011C6.85683 30.0011 0.141602 23.2844 0.141602 15.0004C0.141602 6.71637 6.85683 0 15.1416 0C23.4249 0 30.1416 6.71599 30.1416 15.0004Z" fill="url(#paint0_linear_456_7666)"/>
<path d="M29.8674 15.0007C29.8674 23.1336 23.2748 29.7274 15.1419 29.7274C7.00942 29.727 0.416016 23.1332 0.416016 15.0007C0.416016 6.86782 7.00942 0.274414 15.1419 0.274414C23.2748 0.274414 29.8674 6.86782 29.8674 15.0007Z" fill="url(#paint1_linear_456_7666)"/>
<path d="M28.6774 15.0005C28.6774 22.4771 22.617 28.5376 15.1415 28.5376C7.66456 28.5376 1.60449 22.4771 1.60449 15.0005C1.60449 7.5247 7.66456 1.46387 15.1415 1.46387C22.6166 1.46387 28.6774 7.5247 28.6774 15.0005Z" fill="url(#paint2_linear_456_7666)"/>
<path d="M28.4956 15.0004C28.4956 22.3754 22.5173 28.3551 15.1424 28.3551C7.76669 28.3551 1.78809 22.3754 1.78809 15.0004C1.78809 7.62547 7.76669 1.64648 15.142 1.64648C22.5173 1.64648 28.4956 7.62509 28.4956 15.0004Z" fill="url(#paint3_linear_456_7666)"/>
<path d="M27.9455 14.9999C27.9455 22.0726 22.2132 27.8064 15.1413 27.8064C8.06977 27.8064 2.33594 22.073 2.33594 14.9999C2.33594 7.92762 8.06938 2.19531 15.1413 2.19531C22.2132 2.19531 27.9455 7.92762 27.9455 14.9999Z" fill="url(#paint4_linear_456_7666)"/>
<path d="M27.4431 15.0003C27.4431 21.7944 21.9354 27.3025 15.141 27.3025C8.34695 27.3025 2.83887 21.7944 2.83887 15.0003C2.83887 8.20632 8.34695 2.69824 15.141 2.69824C21.9354 2.69824 27.4431 8.20632 27.4431 15.0003Z" fill="url(#paint5_linear_456_7666)"/>
<path d="M26.9416 14.9998C26.9416 21.5152 21.6585 26.7979 15.142 26.7979C8.62549 26.7979 3.34277 21.5152 3.34277 14.9998C3.34277 8.48368 8.62549 3.2002 15.142 3.2002C21.6585 3.2002 26.9416 8.48368 26.9416 14.9998Z" fill="url(#paint6_linear_456_7666)"/>
<g filter="url(#filter0_d_456_7666)">
<path d="M15.5346 8.88181L17.2557 12.3692C17.3196 12.4987 17.443 12.5881 17.5854 12.6087L21.4337 13.1679C21.793 13.2201 21.9366 13.6616 21.6766 13.9152L18.8919 16.6298C18.7887 16.7303 18.7415 16.8754 18.7659 17.0174L19.4233 20.8501C19.4846 21.2079 19.1092 21.4808 18.7879 21.3118L15.3458 19.5021C15.2183 19.4351 15.0656 19.4351 14.9381 19.5021L11.496 21.3118C11.1747 21.4808 10.799 21.2079 10.8606 20.8501L11.5181 17.0174C11.5424 16.8754 11.4952 16.7303 11.3921 16.6298L8.60737 13.9152C8.34736 13.6616 8.49088 13.2204 8.85024 13.1679L12.6986 12.6087C12.8413 12.5881 12.9647 12.4983 13.0282 12.3692L14.7493 8.88181C14.9099 8.55632 15.374 8.55632 15.5346 8.88181Z" fill="url(#paint7_linear_456_7666)"/>
</g>
<path d="M15.3755 10.3477L16.6842 12.9995C16.7326 13.0977 16.8266 13.1659 16.9351 13.1819L19.8614 13.6071C20.1347 13.6467 20.2436 13.9824 20.046 14.1751L17.9287 16.2391C17.8503 16.3156 17.8145 16.426 17.8328 16.5338L18.3326 19.4483C18.3794 19.7205 18.0935 19.9279 17.8495 19.7993L15.2323 18.4231C15.1353 18.3721 15.0195 18.3721 14.9225 18.4231L12.3053 19.7993C12.0609 19.9275 11.7754 19.7201 11.8222 19.4483L12.322 16.5338C12.3407 16.4257 12.3049 16.3156 12.2261 16.2391L10.1087 14.1751C9.91116 13.9824 10.02 13.6467 10.2934 13.6071L13.2197 13.1819C13.3282 13.1663 13.4218 13.0981 13.4705 12.9995L14.7793 10.3477C14.9004 10.1002 15.2533 10.1002 15.3755 10.3477Z" fill="#DDDDDD"/>
</g>
<defs>
<filter id="filter0_d_456_7666" x="-1.52539" y="-1.3623" width="33.335" height="32.7256" filterUnits="userSpaceOnUse" color-interpolation-filters="sRGB">
<feFlood flood-opacity="0" result="BackgroundImageFix"/>
<feColorMatrix in="SourceAlpha" type="matrix" values="0 0 0 0 0 0 0 0 0 0 0 0 0 0 0 0 0 0 127 0" result="hardAlpha"/>
<feOffset/>
<feGaussianBlur stdDeviation="5"/>
<feComposite in2="hardAlpha" operator="out"/>
<feColorMatrix type="matrix" values="0 0 0 0 0 0 0 0 0 0 0 0 0 0 0 0 0 0 0.12 0"/>
<feBlend mode="normal" in2="BackgroundImageFix" result="effect1_dropShadow_456_7666"/>
<feBlend mode="normal" in="SourceGraphic" in2="effect1_dropShadow_456_7666" result="shape"/>
</filter>
<linearGradient id="paint0_linear_456_7666" x1="0.141602" y1="15.0005" x2="30.1414" y2="15.0005" gradientUnits="userSpaceOnUse">
<stop stop-color="#454545"/>
<stop offset="0.2424" stop-color="#A8A8A8"/>
<stop offset="0.497" stop-color="#EEEEEE"/>
<stop offset="0.7212" stop-color="#A8A8A8"/>
<stop offset="0.794" stop-color="#868686"/>
<stop offset="0.8818" stop-color="#626262"/>
<stop offset="0.9536" stop-color="#4D4D4D"/>
<stop offset="1" stop-color="#454545"/>
</linearGradient>
<linearGradient id="paint1_linear_456_7666" x1="3.05302" y1="5.301" x2="26.1937" y2="23.8681" gradientUnits="userSpaceOnUse">
<stop stop-color="#454545"/>
<stop offset="0.2424" stop-color="#A8A8A8"/>
<stop offset="0.497" stop-color="#EEEEEE"/>
<stop offset="0.7212" stop-color="#A8A8A8"/>
<stop offset="0.794" stop-color="#868686"/>
<stop offset="0.8818" stop-color="#626262"/>
<stop offset="0.9536" stop-color="#4D4D4D"/>
<stop offset="1" stop-color="#454545"/>
</linearGradient>
<linearGradient id="paint2_linear_456_7666" x1="6.57154" y1="2.38294" x2="23.9953" y2="28.0384" gradientUnits="userSpaceOnUse">
<stop stop-color="#454545"/>
<stop offset="0.2424" stop-color="#A8A8A8"/>
<stop offset="0.497" stop-color="#EEEEEE"/>
<stop offset="0.7212" stop-color="#A8A8A8"/>
<stop offset="0.794" stop-color="#868686"/>
<stop offset="0.8818" stop-color="#626262"/>
<stop offset="0.9536" stop-color="#4D4D4D"/>
<stop offset="1" stop-color="#454545"/>
</linearGradient>
<linearGradient id="paint3_linear_456_7666" x1="1.78794" y1="15.0009" x2="28.4954" y2="15.0009" gradientUnits="userSpaceOnUse">
<stop stop-color="#454545"/>
<stop offset="0.2424" stop-color="#A8A8A8"/>
<stop offset="0.497" stop-color="#EEEEEE"/>
<stop offset="0.7212" stop-color="#A8A8A8"/>
<stop offset="0.794" stop-color="#868686"/>
<stop offset="0.8818" stop-color="#626262"/>
<stop offset="0.9536" stop-color="#4D4D4D"/>
<stop offset="1" stop-color="#454545"/>
</linearGradient>
<linearGradient id="paint4_linear_456_7666" x1="15.141" y1="2.12534" x2="15.141" y2="27.25" gradientUnits="userSpaceOnUse">
<stop offset="0.2016" stop-color="#FCFCFC"/>
<stop offset="0.502" stop-color="#F2F2F2"/>
<stop offset="0.6917" stop-color="#7C7C7C"/>
<stop offset="1" stop-color="#B7B7B7"/>
</linearGradient>
<linearGradient id="paint5_linear_456_7666" x1="15.141" y1="2.10422" x2="15.141" y2="27.2709" gradientUnits="userSpaceOnUse">
<stop offset="0.2016" stop-color="#FCFCFC"/>
<stop offset="0.502" stop-color="#F2F2F2"/>
<stop offset="0.6917" stop-color="#7C7C7C"/>
<stop offset="1" stop-color="#B7B7B7"/>
</linearGradient>
<linearGradient id="paint6_linear_456_7666" x1="15.1421" y1="2.12522" x2="15.1421" y2="27.2498" gradientUnits="userSpaceOnUse">
<stop offset="0.2016" stop-color="#FCFCFC"/>
<stop offset="0.502" stop-color="#F2F2F2"/>
<stop offset="0.6917" stop-color="#7C7C7C"/>
<stop offset="1" stop-color="#B7B7B7"/>
</linearGradient>
<linearGradient id="paint7_linear_456_7666" x1="8.47428" y1="15.0002" x2="21.8094" y2="15.0002" gradientUnits="userSpaceOnUse">
<stop stop-color="#454545"/>
<stop offset="0.2424" stop-color="#A8A8A8"/>
<stop offset="0.497" stop-color="#EEEEEE"/>
<stop offset="0.7212" stop-color="#A8A8A8"/>
<stop offset="0.794" stop-color="#868686"/>
<stop offset="0.8818" stop-color="#626262"/>
<stop offset="0.9536" stop-color="#4D4D4D"/>
<stop offset="1" stop-color="#454545"/>
</linearGradient>
<clipPath id="clip0_456_7666">
<rect width="30" height="30.0011" fill="white" transform="translate(0.141602)"/>
</clipPath>
</defs>
</svg>
