<svg width="15" height="15" viewBox="0 0 15 15" fill="none" xmlns="http://www.w3.org/2000/svg">
<path fill-rule="evenodd" clip-rule="evenodd" d="M5.51898 0.710128C5.14376 1.34125 4.98617 1.41342 4.10306 1.3587C3.20167 1.30281 3.10223 1.35186 3.03316 1.88676C2.9406 2.6042 2.38453 3.06598 1.61296 3.06598C1.06734 3.06598 1.04621 3.11928 1.19597 4.11242C1.3265 4.97703 1.27951 5.20108 0.92636 5.40178C-0.188866 6.03479 -0.191477 6.04187 0.362458 6.8152L0.886963 7.54703L0.362458 8.27885C-0.191002 9.05124 -0.187679 9.05926 0.917104 9.68755C1.23133 9.86609 1.3201 10.1729 1.2731 10.9177C1.21638 11.8189 1.26527 11.9172 1.80402 11.9859C2.52598 12.0778 2.99068 12.6304 2.99068 13.3972C2.99068 13.9394 3.04432 13.9603 4.04372 13.8115C4.91379 13.6818 5.13925 13.7285 5.34122 14.0794C5.97822 15.1877 5.98534 15.1903 6.76356 14.6398L7.5 14.1186L8.23644 14.6398C9.01371 15.1898 9.02178 15.1865 9.65403 14.0886C9.83369 13.7764 10.1425 13.6882 10.892 13.7349C11.7988 13.7912 11.8978 13.7427 11.9668 13.2073C12.0594 12.4899 12.6155 12.0281 13.387 12.0281C13.9327 12.0281 13.9538 11.9748 13.804 10.9816C13.6735 10.117 13.7205 9.89297 14.0736 9.69227C15.1889 9.05926 15.1915 9.05219 14.6375 8.27885L14.113 7.54703L14.6375 6.8152C15.191 6.04281 15.1877 6.03479 14.0829 5.4065C13.7687 5.22797 13.6799 4.92113 13.7269 4.17634C13.7834 3.27659 13.734 3.17635 13.196 3.1023C12.3383 2.98438 12.0093 2.63203 12.0093 1.8311C12.0093 1.13017 12.0027 1.12663 10.9563 1.28252C10.0862 1.41224 9.86075 1.36554 9.65878 1.0146C9.02178 -0.0936303 9.01466 -0.0962245 8.23644 0.454237L7.5 0.975453L6.81079 0.487727C6.43153 0.219571 6.08075 0 6.03115 0C5.98155 0 5.7511 0.319569 5.51898 0.710128ZM9.11742 8.18027L6.91877 10.3743L5.67183 9.15053C4.49323 7.99395 4.44648 7.90315 4.81838 7.49467C5.19669 7.07935 5.24534 7.09491 6.06722 7.8923L6.92257 8.72224L8.68263 6.96142C10.3523 5.29117 10.4652 5.22089 10.8794 5.59353C11.2973 5.96923 11.2209 6.08149 9.11742 8.18027Z" fill="#0868EA"/>
</svg>
