<svg width="20" height="20" viewBox="0 0 20 20" fill="none" xmlns="http://www.w3.org/2000/svg">
<circle cx="10" cy="10" r="10" fill="#D7111B"/>
<path d="M15.3337 16V14.6667C15.3337 13.9594 15.0527 13.2811 14.5526 12.781C14.0525 12.281 13.3742 12 12.667 12H7.33366C6.62641 12 5.94814 12.281 5.44804 12.781C4.94794 13.2811 4.66699 13.9594 4.66699 14.6667V16" stroke="white" stroke-width="1.5" stroke-linecap="round" stroke-linejoin="round"/>
<path d="M9.99967 9.33333C11.4724 9.33333 12.6663 8.13943 12.6663 6.66667C12.6663 5.19391 11.4724 4 9.99967 4C8.52692 4 7.33301 5.19391 7.33301 6.66667C7.33301 8.13943 8.52692 9.33333 9.99967 9.33333Z" stroke="white" stroke-width="1.5" stroke-linecap="round" stroke-linejoin="round"/>
</svg>
