<svg width="20" height="20" viewBox="0 0 12 12" fill="none" xmlns="http://www.w3.org/2000/svg">
<g clip-path="url(#clip0_456_7645)">
<path d="M6.37655 12C6.12646 12 5.87636 12 5.62627 12C5.60044 11.9935 5.57508 11.9827 5.54878 11.9808C5.04014 11.9446 4.54206 11.8512 4.06419 11.6742C1.8845 10.867 0.561946 9.32102 0.0951058 7.04583C0.0497838 6.82538 0.0309974 6.59952 0 6.37602C0 6.12598 0 5.87618 0 5.62615C0.00704487 5.59211 0.0154987 5.55854 0.020665 5.52426C0.0608207 5.2545 0.0845385 4.98123 0.142541 4.71523C0.862527 1.4082 4.19992 -0.649592 7.48048 0.186438C10.5751 0.975278 12.4988 4.02382 11.8868 7.16908C11.4162 9.58679 9.46338 11.4953 7.03501 11.908C6.81638 11.9451 6.59588 11.9697 6.37655 12ZM5.99049 8.87331C6.82249 8.87331 7.65449 8.87401 8.48672 8.87284C8.78918 8.87237 8.95004 8.74606 9.02542 8.45588C9.31849 7.32779 9.60967 6.19923 9.90579 5.07185C9.96121 4.86102 9.94031 4.67532 9.77241 4.52647C9.60803 4.38067 9.42299 4.38067 9.22502 4.45838C8.77885 4.634 8.32798 4.79834 7.88392 4.97935C7.75664 5.03123 7.69136 5.00306 7.61245 4.90023C7.21865 4.3856 6.81897 3.87544 6.4167 3.36716C6.35776 3.29273 6.28285 3.22089 6.19972 3.17699C5.99354 3.06805 5.76388 3.13708 5.60114 3.34509C5.18714 3.8738 4.77361 4.40274 4.36383 4.93474C4.3023 5.01456 4.24759 5.02748 4.15577 4.99132C3.69527 4.80937 3.23172 4.63493 2.77075 4.45463C2.57326 4.37739 2.3868 4.37856 2.22336 4.52553C2.06063 4.67203 2.03926 4.85539 2.0935 5.06152C2.38821 6.18116 2.67893 7.30173 2.97129 8.42207C3.06053 8.7639 3.20095 8.87284 3.55273 8.87284C4.36547 8.87331 5.17798 8.87331 5.99049 8.87331Z" fill="url(#paint0_linear_456_7645)"/>
<g filter="url(#filter0_d_456_7645)">
<path d="M5.99083 8.87302C5.17833 8.87302 4.36582 8.87325 3.55331 8.87302C3.20153 8.87302 3.06111 8.76408 2.97187 8.42225C2.67951 7.30191 2.38879 6.18133 2.09408 5.0617C2.03984 4.85557 2.0612 4.67221 2.22394 4.52571C2.38715 4.37874 2.5736 4.37757 2.77133 4.45481C3.23253 4.63511 3.69585 4.80955 4.15635 4.9915C4.24817 5.02789 4.30288 5.01474 4.36441 4.93492C4.77395 4.40292 5.18772 3.87398 5.60172 3.34526C5.76446 3.13726 5.99412 3.06823 6.2003 3.17717C6.2832 3.22107 6.35811 3.29268 6.41728 3.36733C6.81955 3.87538 7.21922 4.38578 7.61303 4.90041C7.69194 5.00347 7.75722 5.03165 7.8845 4.97953C8.32856 4.79852 8.77919 4.63417 9.22561 4.45856C9.42357 4.38062 9.60861 4.38085 9.77299 4.52665C9.94089 4.67549 9.96179 4.86097 9.90637 5.07203C9.61025 6.19941 9.31907 7.32797 9.026 8.45606C8.95062 8.74624 8.78976 8.87255 8.4873 8.87302C7.65507 8.87372 6.82307 8.87302 5.99083 8.87302Z" fill="white"/>
</g>
</g>
<defs>
<filter id="filter0_d_456_7645" x="-7.93262" y="-6.87402" width="27.8662" height="25.7471" filterUnits="userSpaceOnUse" color-interpolation-filters="sRGB">
<feFlood flood-opacity="0" result="BackgroundImageFix"/>
<feColorMatrix in="SourceAlpha" type="matrix" values="0 0 0 0 0 0 0 0 0 0 0 0 0 0 0 0 0 0 127 0" result="hardAlpha"/>
<feOffset/>
<feGaussianBlur stdDeviation="5"/>
<feComposite in2="hardAlpha" operator="out"/>
<feColorMatrix type="matrix" values="0 0 0 0 0 0 0 0 0 0 0 0 0 0 0 0 0 0 0.12 0"/>
<feBlend mode="normal" in2="BackgroundImageFix" result="effect1_dropShadow_456_7645"/>
<feBlend mode="normal" in="SourceGraphic" in2="effect1_dropShadow_456_7645" result="shape"/>
</filter>
<linearGradient id="paint0_linear_456_7645" x1="5.64937e-08" y1="0.52174" x2="14.5982" y2="6.38423" gradientUnits="userSpaceOnUse">
<stop stop-color="#D7111B"/>
<stop offset="1" stop-color="#FBC814"/>
</linearGradient>
<clipPath id="clip0_456_7645">
<rect width="12" height="12" fill="white"/>
</clipPath>
</defs>
</svg>
