<svg width="11" height="11" viewBox="0 0 11 11" fill="none" xmlns="http://www.w3.org/2000/svg">
<path d="M0 5.86892C0 5.63833 0 5.40795 0 5.17736C0.00624181 5.14986 0.0159274 5.12258 0.018295 5.09465C0.09169 4.16513 0.383548 3.31096 0.884399 2.52673C2.11339 0.602523 4.45945 -0.369432 6.67766 0.129645C9.61497 0.790462 11.5056 3.66151 10.8805 6.62068C10.4019 8.88634 8.98067 10.3078 6.7616 10.9199C6.6331 10.9554 6.49966 10.9732 6.36449 11C6.36449 9.70543 6.36449 8.42905 6.36449 7.14466C6.78915 7.14466 7.2067 7.14466 7.63438 7.14466C7.7153 6.61353 7.79537 6.08869 7.87738 5.54977C7.36598 5.54977 6.86706 5.54977 6.37353 5.54977C6.37353 5.13168 6.34555 4.72375 6.38149 4.32146C6.41701 3.92263 6.69724 3.69074 7.09844 3.66519C7.33391 3.65025 7.57067 3.6561 7.80678 3.65263C7.84832 3.65198 7.89007 3.65263 7.92451 3.65263C7.93484 3.63098 7.94044 3.6247 7.94044 3.6182C7.94173 3.19686 7.94367 2.77573 7.94001 2.35438C7.93979 2.33056 7.89718 2.28986 7.87006 2.28574C7.42 2.21776 6.96822 2.17467 6.51214 2.19459C5.48483 2.23941 4.73172 2.96193 4.665 3.9956C4.63465 4.46545 4.64799 4.93832 4.64154 5.40969C4.64089 5.45191 4.64154 5.49413 4.64154 5.55129C4.17189 5.55129 3.71301 5.55129 3.25607 5.55129C3.25607 6.09021 3.25607 6.61397 3.25607 7.14769C3.72076 7.14769 4.17728 7.14769 4.63573 7.14769C4.63573 8.43446 4.63573 9.71128 4.63573 10.992C4.60516 10.9892 4.57998 10.989 4.55587 10.9846C3.57311 10.8075 2.69625 10.3996 1.93862 9.74505C0.932612 8.87594 0.309723 7.78274 0.081574 6.4663C0.0469212 6.2684 0.0266891 6.06812 0 5.86892Z" fill="white"/>
</svg>
